<?xml version="1.0" encoding="utf-8"?>
<!-- Generator: Adobe Illustrator 22.0.1, SVG Export Plug-In . SVG Version: 6.00 Build 0)  -->
<svg version="1.1" id="Ñëîé_1" xmlns="http://www.w3.org/2000/svg" xmlns:xlink="http://www.w3.org/1999/xlink" x="0px" y="0px"
	 viewBox="0 0 1925.5 1077.5" style="enable-background:new 0 0 1925.5 1077.5;" xml:space="preserve">
<style type="text/css">
	.st0{fill:#5FB0DD;}
	.st1{fill:#4297BC;}
	.st2{fill:#FFC84D;}
	.st3{fill:#FFA63B;}
	.st4{fill:#EAC18B;}
	.st5{fill:#F4CD9D;}
	.st6{fill:none;stroke:#CEA26E;stroke-miterlimit:10;}
	.st7{fill:#CEA26E;}
	.st8{fill:#7F4646;}
	.st9{fill:#683535;}
	.st10{fill:#CCEDFF;}
	.st11{opacity:0.6;fill:#843131;}
	.st12{fill:#472424;}
	.st13{fill:#351919;}
	.st14{fill:#F7D7A9;}
	.st15{fill:#FFE0B8;}
	.st16{fill:#AF4E63;}
	.st17{fill:#602C2C;}
	.st18{fill:#381A1A;}
	.st19{fill:#FFF8E1;}
	.st20{fill:#CC647F;}
	.st21{fill:#D6365C;}
	.st22{fill:#F25C80;}
	.st23{fill:#E26A81;}
	.st24{fill:#FF8FAA;}
	.st25{fill:#FFC7D7;}
	.st26{fill:#C15F2F;}
	.st27{fill:#AA4721;}
	.st28{fill:#933416;}
	.st29{fill:#99ECFF;}
	.st30{fill:#6CD9EA;}
	.st31{fill:#54A2E2;}
	.st32{fill:#338AC4;}
	.st33{fill:#FFB882;}
	.st34{fill:#FF9566;}
	.st35{fill:#EA7B59;}
	.st36{fill:#F97DB0;}
	.st37{fill:#E2619C;}
	.st38{fill:#655075;}
	.st39{fill:#503E60;}
	.st40{fill:#FFEBB3;}
	.st41{fill:#667F7A;}
	.st42{fill:#82A09A;}
	.st43{fill:#A0BCB7;}
	.st44{fill:#53B2D3;}
	.st45{fill:#75CAEF;}
	.st46{fill:#84D7F4;}
	.st47{fill:#58C1DD;}
	.st48{fill:#6D5364;}
	.st49{fill:#44313F;}
	.st50{fill:#564150;}
	.st51{fill:#E54C6A;}
	.st52{fill:#C62855;}
	.st53{fill:#A754D3;}
	.st54{fill:#8B3FBC;}
	.st55{fill:#7332A5;}
	.st56{opacity:0.43;fill:#D9C5EA;}
	.st57{fill:#4C2B37;}
	.st58{fill:#301922;}
	.st59{fill:#FFC673;}
	.st60{fill:#E8A64F;}
	.st61{fill:#7F3333;}
	.st62{fill:#9B4848;}
	.st63{fill:#4A4451;}
	.st64{fill:#51352E;}
	.st65{fill:#492C28;}
	.st66{fill:#472824;}
	.st67{fill:#FFF4DC;}
	.st68{fill:#FFBF3E;}
	.st69{fill:#FFA131;}
	.st70{fill:#A54257;}
	.st71{fill:#8E2D46;}
	.st72{fill:#E55A85;}
	.st73{fill:#CC3A6E;}
	.st74{fill:#B7B339;}
	.st75{fill:#C6BF40;}
	.st76{fill:#9E982A;}
	.st77{fill:#AA5085;}
	.st78{fill:#993C78;}
	.st79{fill:#FFEAC0;}
	.st80{fill:#EDE658;}
	.st81{fill:#FFFBDD;}
	.st82{fill:#3F7FA5;}
	.st83{fill:#AD4D54;}
	.st84{fill:#763224;}
	.st85{fill:#BA3E45;}
	.st86{fill:#A52936;}
	.st87{fill:#932132;}
	.st88{fill:#E86B8F;}
	.st89{fill:#CE2828;}
	.st90{fill:#5DCDF9;}
	.st91{fill:#3EB8DD;}
	.st92{fill:#1E85A5;}
	.st93{fill:#32A2CE;}
	.st94{fill:#FF742E;}
	.st95{fill:#ED74E5;}
	.st96{fill:#F789F4;}
	.st97{fill:#D64DC3;}
	.st98{fill:#E25AD6;}
	.st99{fill:#FF8533;}
	.st100{fill:#CE4AB5;}
	.st101{fill:#E259CF;}
	.st102{fill:#4AB7ED;}
	.st103{fill:#2EA1CE;}
	.st104{fill:#F25A74;}
	.st105{fill:#FF6485;}
	.st106{fill:#D33356;}
	.st107{fill:#DD3A3A;}
	.st108{fill:#846BBF;}
	.st109{fill:#585072;}
	.st110{fill:#C38CEA;}
	.st111{fill:#6DD0F7;}
	.st112{fill:#6CDCFF;}
	.st113{fill:#4C2731;}
	.st114{fill:#FFECC7;}
	.st115{fill:#4C2929;}
	.st116{fill:#ED5167;}
</style>
<g>
	<g>
		<path class="st0" d="M212.3,749.9c7.2,3.4,33.4,18,56.8,13c4.3-0.9,6.5,34.6-1.5,37.1c-8,2.5-47,2.2-54.7-7.1
			S205.3,746.6,212.3,749.9z"/>
		<path class="st1" d="M269.1,762.9c-10.4,2.2-21.4,0.6-31-2.2c-4.1,1.9-9.6,3.1-15.7,3.1c-5.8,0-11.1-1.1-15.2-2.8
			c-0.9,10.8,0.9,26.4,5.6,32c7.7,9.3,46.7,9.6,54.7,7.1C275.6,797.5,273.4,762,269.1,762.9z"/>
		<path class="st0" d="M164.1,755.7c7.4-8.7,39.5-11,48.2-5.7c8.7,5.3,13.5,41.7,9.8,60.3c-3.7,18.6,8.3,31.8,6.8,35.2
			c-1.5,3.4-43.6,26.3-51.3,22.3C169.8,863.7,149.9,772.4,164.1,755.7z"/>
		<polygon class="st2" points="244.4,877.7 306.6,1016.4 305.4,1017.5 223.3,891.2 		"/>
		<path class="st3" d="M263.4,920.8c0-0.2,0-0.5,0-0.7l-19-42.4l-21.1,13.5l32.4,49.8C257.5,933,260.2,926,263.4,920.8z"/>
		<path class="st2" d="M227.5,881.9l-26.4,23.9c16.1,28.4,10.3,83.3-6.6,117.9l1.6,0.8C251.8,930.1,227.5,881.9,227.5,881.9z"/>
		<path class="st3" d="M210,964.6c6.8-10.6,13.9-18.9,20-23.8c7.5-39.2-2.5-59-2.5-59l-26.4,23.9C209.5,920.5,211.9,942.3,210,964.6
			z"/>
		<path class="st4" d="M304.6,729.3L98.1,835.7c1.2,0.4,57.3,118.3,57.3,118.3l206.1-108.4L304.6,729.3z"/>
		<path class="st4" d="M304.8,729.6L98.3,836c1.2,0.4,57.3,118.3,57.3,118.3l206.1-108.4L304.8,729.6z"/>
		<g>
			<path class="st5" d="M184.1,791.8L98.3,836c1.2,0.4,57.3,118.3,57.3,118.3l28.5-15V791.8z"/>
			<polygon class="st5" points="278.7,889.6 361.7,845.9 304.8,729.6 278.7,743.1 			"/>
		</g>
		<path class="st6" d="M303.4,740.9l-194.6,96.9c1.1,0.4,51.5,107.6,51.5,107.6l191.7-103.1L303.4,740.9z"/>
		<path class="st5" d="M303,733.9l55.5,113.3l3.1-1.6l-56.3-118.3L98.1,835.7c0.1,0,0.7,1.1,1.6,2.9L303,733.9z"/>
		<path class="st7" d="M157.3,950.5c0,0-44.7-98.7-54.4-117.3l-4.8,2.5c1.2,0.4,56.3,121.2,56.3,121.2l207.1-111.3l-1.5-3.1
			L157.3,950.5z"/>
		<path class="st7" d="M210.2,878.7c-0.3-0.8-13.7-4.5-16.3-5.3c-1-1-2.1-2.1-3.2-3.2c3.8-1.2,10.5-2.5,11.1-3.1
			c0.9-0.8,0.9-5.6-0.3-5.7c-1.1,0-16.5,1.9-23.5,0.7c-0.3-0.1-0.6-0.3-0.8-0.4c-2.4-5.7-5.5-13.5-7.9-20.6c0.2-0.1,0.3-0.1,0.3-0.1
			l0.9-1.4l-1.5-10.4l-0.8-0.2c2.8-19.6,21.3-34.5,21.4-34.8c0.1-0.4,0.3-2.9,0.3-6.5l-62.1,32.5c-0.5,4.5-0.6,8.7-0.2,13.1
			c-0.2,0.1-0.3,0.2-0.4,0.3c-2.3,2.3-0.7,22.5,7.3,21.5c0.1,0,0.3,0,0.5-0.1c7.4,10.8,21.1,21.5,27.4,25.3c2.6,3.3,6.2,5.7,9.4,7.3
			c6.2,4.3,16.1,10.7,16.8,10.7c0.8,0,6.4-1.9,6-3c-0.3-0.7-5.9-4.8-9.7-7.6c0.5-0.4,1.1-0.8,1.7-1.2c4.9,2.6,11.8,6.1,13.4,6.1
			c1.7,0,5.4-3.4,4.5-4.2c-0.6-0.5-7.3-4.2-12-6.7c0.2-0.2,0.4-0.4,0.6-0.6c5.2,0.8,14.3,2.1,15.2,2.4
			C209.3,884,210.5,879.5,210.2,878.7z"/>
		<path class="st8" d="M134.8,832.8c-0.9,15.7,27.9,40.8,32.4,42.8c4.5,2.1,14.1-11.5,14.1-11.5s-14.4-35.5-14.4-44.5
			C166.9,810.5,135.2,825.4,134.8,832.8z"/>
		<path class="st9" d="M171.3,836.7c-1.1-7-2.9-14.8-2.9-18.1c0-9.1-34.5,7.9-34.9,15.4c-0.9,15.7,29.4,39.8,34,41.9
			C163,870.2,140.9,849.2,171.3,836.7z"/>
		<path class="st0" d="M134.8,836.5c-8.8-29.5,5.8-65.6,30.5-81.6c24.7-16.1,23.1,32.1,22.8,33.7c-0.1,0.4-21.3,18.2-18.9,41.8
			C169.2,830.4,136,840.6,134.8,836.5z"/>
		<path class="st1" d="M186.1,788c-12.1,14.7-28.9,34.2-38.1,30c-9.2-4.2-10.2-21.6-2.4-39c2.7-5.9,6.3-11.7,10.3-16.6
			c-18.9,18.1-28.8,48.6-21.2,74.2c1.2,4.1,34.4-6.1,34.4-6.1c-2.4-23.6,18.8-41.4,18.9-41.8c0-0.2,0.1-1.5,0.1-3.4
			C187.6,786.1,186.8,787,186.1,788z"/>
		<path class="st10" d="M208.3,751.5c0,0,4.2,5.1,5.3,7.9c0,0-26.8,5.5-39-9.4c3.2-2.7,12-6.2,20.3-6L208.3,751.5z"/>
		<path class="st8" d="M177.6,749.2c7.4,6.2,24.1,8.7,32.4,7.8l2.8-27.8l-28.6-13.3L177.6,749.2z"/>
		<path class="st11" d="M217.4,769.1c3.3-1.2,2.2-8.6-1.6-17.4c-1.4-0.7-2.6-1.3-3.5-1.7c-0.4-0.3-0.9-0.5-1.5-0.7l0.6-6.1
			c-6.7-11.5-16.8-23-27.4-26.1l-6.1,31c-1.4,0.7-2.5,1.4-3.3,2.1c0,0,0,0,0,0c-4.7,1.4-8.5,3.3-10.5,5.6c0,0,0,0,0,0
			c-3.1,2.1-6,4.6-8.8,7.3C167.2,756.3,199.9,775.6,217.4,769.1z"/>
		<path class="st12" d="M181,732.1c-2.9-1.4-16.4-8-14.9-31.2c1.7-26.4,33.7-28.8,43-21.8C215.7,684.1,189.2,722.7,181,732.1z"/>
		<path class="st13" d="M169.1,689.9c-1.7,3.1-2.7,6.7-3,11c-1.5,23.1,12,29.7,14.9,31.2c4.2-4.8,13.2-17.3,20.1-29
			C197.2,675.5,186.8,683.2,169.1,689.9z"/>
		<path class="st8" d="M317.6,748.9c-3.2,5.6-5.4,11.1-4.1,13.4c1.2,2.3,2.3,4.5,4.1,3.5c1.9-1,6-4.9,5.4-9.5
			C322.3,751.8,318.8,746.8,317.6,748.9z"/>
		<path class="st8" d="M323.1,757.7c-2.8,5-4.7,9.9-3.7,11.9c1.1,2,2,4,3.7,3.1c1.6-0.9,5.3-4.4,4.7-8.4
			C327.3,760.3,324.1,755.9,323.1,757.7z"/>
		<path class="st8" d="M328.6,766c-2.3,4-3.8,7.9-2.9,9.5c0.9,1.6,1.6,3.2,2.9,2.5c1.3-0.7,4.2-3.5,3.8-6.7
			C331.9,768,329.4,764.5,328.6,766z"/>
		<path class="st14" d="M307.4,1022.2l20.7-17.3c0,0-20.9,6.8-22.9,9.4C304,1016,307.4,1022.2,307.4,1022.2z"/>
		<path class="st14" d="M191.5,1025.7l9.3,8l18.3-0.4c0,0-13.2-2.7-14.6-3.5c-1.4-0.8-4.5-9.5-6.4-10.5
			C196.2,1018.3,191.5,1025.7,191.5,1025.7z"/>
		<path class="st8" d="M162,868.8c3.7,11,16.5,16.1,18.3,16.9c1.8,0.9,17.1-11.6,15.9-13.8c-1.3-2.2-9.2-10.2-10.5-12.9
			c-0.6-1.3-7.2-1.3-8.8-4.4C175.3,851.4,160.9,865.3,162,868.8z"/>
		<path class="st8" d="M169.7,878.9c3.9,3.6,18.7,15.3,19.5,15.4c0.8,0.1,6-1.6,5.5-2.7c-0.5-1.2-12.5-11.3-12.5-11.3L169.7,878.9z"
			/>
		<path class="st8" d="M199.6,889.1c1.6,0.1,4.9-3.1,4.1-4c-0.8-0.9-15.6-10.4-15.6-10.4l-6,4C182.1,878.7,197.3,888.9,199.6,889.1z
			"/>
		<path class="st8" d="M193.3,868.7c0,0,15.3,5.7,15.7,6.6c0.4,0.9-0.7,5.4-1.9,4.9c-1.2-0.5-17.5-4.1-17.5-4.1L193.3,868.7z"/>
		<path class="st8" d="M188.5,866.4c0.9-1.2,11.7-2.7,12.5-3.5c0.8-0.7,0.7-5.7-0.4-5.9s-16.4,1.1-22.5-0.8
			C172.1,854.3,185.2,870.5,188.5,866.4z"/>
		<path class="st10" d="M169.1,822.3l0.9,0.3l1.5,10.5l-0.8,1.4c0,0-24.6,11.6-31.8,12.2c-7.3,0.6-8.8-19.8-6.8-22
			C134.1,822.6,169.1,822.3,169.1,822.3z"/>
		<g>
			<path class="st7" d="M294.8,810.1c1.9,3.7,6,10,6.9,11.8c1,1.7-0.6,2.1-3.3,3.4c-2.7,1.4-9.4,4.6-10.3,5
				c-0.4,0.2-0.6-0.1-0.9-0.7c-0.4-0.8-0.8-2-1.4-3.1c-0.3-0.6-1.2-2.1-2.2-4.1c-2.4-4.7-5.9-12-7.3-15.3c-0.5-1.2-1-2.3-1.5-3.2
				c-0.7-1.4-1.4-2.5-1.8-3.3c-0.5,0.2-0.7,0.3-0.8,0.4c-0.7,0.4-3.2,1.7-3.7,2c-0.3,0.2-0.5-0.1-0.7-0.5c-0.2-0.3-0.3-0.7-0.5-1
				c-0.3-0.5-0.1-0.7,0.2-0.8c0.3-0.1,0.7-0.2,1.1-0.5l9.6-4.9c2.5-1.3,10.5-5.5,11.6-6.1c1-0.4,1.1,0.3,1.5,1.1
				c0.5,0.8,0.2,1.2-0.6,1.6c-0.7,0.4-1.7,1-3.8,2l-0.2,0.1C288.3,797.1,293.2,807,294.8,810.1z"/>
			<path class="st7" d="M312.6,793.8c-0.9-2-2.2-10.3-3.3-12c-1.1-1.9-0.1-2,0.7-2.4c0.7-0.4,4.3-2.2,5.4-2.6c0.7-0.3,1-0.2,1.1,0.1
				c0.1,0.2,0.2,0.4,0.2,0.8c0.1,1,0.7,3,1.2,5c0.6,2,2.7,9.2,3.5,13.2c0.9,4,4.1,13.1,4.3,14.4c0.1,0.7,0,1-0.3,1.1
				c-0.2,0.1-0.4,0.2-0.7,0.3c-0.8,0.4-5.6,3.3-6.6,3.8c-1,0.5-1.4-0.1-2.1-1.1c-0.8-1-7.5-8.4-9.6-10.7
				c-2.1-2.3-11.6-13.8-12.6-14.9c-0.1-0.2-0.3-0.3-0.3-0.4c-0.3-0.7,0.9-0.8,1.8-1.2c0.9-0.5,3.7-2.1,4.9-2.7
				c1.1-0.8,1.6-0.2,2.2,0.6c0.7,0.7,2.2,3,4.7,6.5c0.8,1.2,2.7,3.6,4.4,5.7l3.3,4l-0.8-3C313.6,796.7,313,794.8,312.6,793.8z"/>
		</g>
		<g>
			<path class="st7" d="M252.5,886.7C252.5,886.6,252.5,886.6,252.5,886.7c0-0.1-0.1-0.1-0.1-0.2c-0.1-0.1-0.6-1.1-0.8-1.6
				c-0.2-0.4-0.5-1-0.7-1.3c-0.1-0.3-0.5-0.8-0.5-1c-0.1-0.2-0.1-0.3-0.1-0.3c0,0,0,0,0,0c0,0,0.1,0,0.1,0c0.1,0,0.2-0.1,0.3-0.2
				c0.1,0,0.2-0.1,0.3-0.1c0.3-0.1,0.5-0.2,0.7-0.3c0.2-0.1,0.5-0.2,1.3,0c0.8,0.2,1.3,0.9,1.6,1.5c0.3,0.6,0.5,1.6,0.1,2.2
				c-0.3,0.6-1.1,1-1.3,1.1l-0.7,0.3C252.6,886.8,252.5,886.7,252.5,886.7z M252.2,883.6c0.2,0.4,0.4,0.7,0.5,1
				c0.1,0.1,0.3,0.5,0.4,0.8c0.1,0.2,0.2,0.4,0.3,0.6c0.3-0.1,0.6-0.3,0.7-0.6c0.3-0.4,0.5-1.1-0.1-2.2c-0.5-1-1.2-1.3-1.7-1.4
				c-0.3,0-0.6,0-0.9,0.2l0.3,0.6C252,883,252.2,883.4,252.2,883.6z"/>
			<path class="st7" d="M258.5,880.8c0.2,0.4,1.1,2.4-0.6,3.3c-0.9,0.4-1.6,0-2.2-0.5c-0.3-0.3-0.6-0.7-0.9-1.1
				c-0.6-1.2-0.3-2.6,0.5-3.1c0.4-0.2,0.7-0.4,1-0.3C257.5,879.3,258.3,880.5,258.5,880.8z M258,881.1c-0.5-1.1-1.5-1.7-2.3-1.3
				c-0.2,0.1-0.4,0.2-0.5,0.5c-0.1,0.3-0.4,1.1,0.1,2.1c0.5,1,1.4,1.9,2.4,1.4C258.6,883.3,258.5,882.2,258,881.1z"/>
			<path class="st7" d="M262.5,878.9c0.2,0.4,0.7,1.4,0.8,1.6c0.1,0.2,0.3,0.5,0.3,0.6c0,0,0,0,0,0c0,0.1,0,0.1-0.1,0.2
				c-0.1,0-0.3,0.2-0.4,0.2c-0.2,0.1-0.4,0.2-0.6,0.3c-0.2,0.1-0.2,0-0.3-0.1c0-0.1-0.1-0.1-0.2-0.3c0-0.1-0.1-0.2-0.1-0.3
				c-0.2-0.4-0.6-1.1-0.7-1.5c-0.1-0.3-0.6-1.5-0.7-1.7c-0.1-0.3-0.3-0.5-0.4-0.8c-0.1-0.2,0-0.2,0.1-0.3c0.1,0,0.1-0.1,0.2-0.1
				c0.1-0.1,0.4-0.2,0.5-0.3c0.2-0.1,0.3-0.1,0.4,0c0.1,0.1,0.5,0.4,0.8,0.7c0.3,0.2,1.2,1,1.5,1.2c0.2,0.1,0.4,0.3,0.6,0.5l0.4,0.3
				l-0.2-0.4l-0.4-0.6c0-0.1-0.1-0.1-0.1-0.2c-0.1-0.3-0.3-0.5-0.4-0.7c-0.1-0.2-0.4-0.7-0.5-0.9l-0.3-0.6c0-0.1,0-0.1,0-0.1
				c0,0,0.1,0,0.1,0c0.1,0,0.1,0,0.2-0.1c0.1,0,0.1,0,0.1,0c0,0,0,0.1,0.1,0.1c0.1,0.1,0.8,1.5,0.9,1.9c0,0.1,0.1,0.1,0.1,0.2
				c0.2,0.4,0.5,0.9,0.6,1.1c0.1,0.3,0.5,1,0.6,1.1c0,0,0,0,0,0c0.1,0.1,0,0.2-0.1,0.2c0,0,0,0-0.1,0c-0.1,0-0.2,0.1-0.2,0.1
				c-0.1,0-0.1,0-0.2-0.1c-0.1-0.1-0.9-0.8-1.2-1c-0.3-0.2-1.2-1-1.5-1.2c-0.1-0.1-0.4-0.3-0.6-0.4l-0.4-0.2l0.3,0.6
				C262.1,878.3,262.3,878.6,262.5,878.9z"/>
			<path class="st7" d="M268.4,875.9c0.5,0.9,0.8,2.6-0.2,3.1c-1.4,0.7-2.4-1-2.8-1.7c-1-1.9-0.3-2.8,0.3-3.1
				C267.1,873.6,267.9,875,268.4,875.9z M267.3,876.6c-0.2-0.3-0.4-0.6-0.6-0.5c-0.2,0.1-0.1,0.6,0,0.9c0.1,0.3,0.3,0.6,0.6,0.5
				C267.5,877.3,267.4,876.9,267.3,876.6z"/>
			<path class="st7" d="M271.6,874.6c0.3,0.5,0.9,1.4,1,1.7c0.1,0.2-0.1,0.3-0.5,0.5c-0.4,0.2-1.3,0.7-1.5,0.7c-0.1,0-0.1,0-0.1-0.1
				c-0.1-0.1-0.1-0.3-0.2-0.4c0-0.1-0.2-0.3-0.3-0.6c-0.3-0.7-0.9-1.7-1-2.2c-0.1-0.2-0.1-0.3-0.2-0.5c-0.1-0.2-0.2-0.4-0.3-0.5
				c-0.1,0-0.1,0-0.1,0.1c-0.1,0.1-0.5,0.3-0.5,0.3c0,0-0.1,0-0.1-0.1c0,0,0-0.1-0.1-0.1c0-0.1,0-0.1,0-0.1c0,0,0.1,0,0.2-0.1
				l1.4-0.7c0.4-0.2,1.5-0.8,1.7-0.9c0.1-0.1,0.2,0,0.2,0.2c0.1,0.1,0,0.2-0.1,0.2c-0.1,0.1-0.2,0.1-0.5,0.3l0,0
				C270.7,872.7,271.4,874.1,271.6,874.6z"/>
			<path class="st7" d="M274.9,869.6c0.2-0.1,0.8-0.4,1.1-0.6c0.1-0.1,0.2-0.1,0.2-0.1c0.2-0.1,0.3,0,0.3,0c0,0.1,0.1,0.2,0.2,0.5
				c0.1,0.2,0.2,0.4,0.3,0.5c0.1,0.1,0,0.2-0.1,0.3l-1.1,0.6l0.3,0.7c0,0.1,0.2,0.3,0.3,0.6c0.4,0.7,0.9,1.8,1,1.9c0,0,0,0,0,0
				c0.1,0.1,0,0.1-0.1,0.1l-0.4,0.2c-0.1,0.1-0.1,0-0.2-0.2c-0.1-0.2-0.9-1.8-1-2.2c-0.1-0.3-0.4-0.7-0.5-0.8
				c-0.4,0.2-1.1,0.6-1.1,0.6c-0.1,0.1-0.2,0-0.2-0.1c0-0.1-0.3-0.6-0.4-0.9c0-0.1-0.1-0.2-0.1-0.2c0,0,0,0,0,0
				c-0.1-0.1,0-0.1,0.1-0.2l0.6-0.3C274.3,870,274.7,869.8,274.9,869.6z"/>
			<path class="st7" d="M279.5,869.5c0.1,0,0.2-0.1,0.2-0.1c0,0,0.1,0,0.1-0.1c0,0,0.1,0,0.1-0.1l0.2-0.1L280,869l-0.1-0.3
				c-0.1-0.2-0.5-1-0.6-1.1c-0.1-0.1-0.1-0.2,0-0.2c0.1,0,0.2-0.1,0.3-0.2c0,0,0.1-0.1,0.2-0.1c0.1-0.1,0.3-0.1,0.4-0.2
				c0.1,0,0.1,0,0.2,0.1c0.1,0.1,0.3,0.8,0.5,1c0.1,0.2,0.4,1,0.5,1.2c0.1,0.3,0.5,1,0.7,1.3c0.1,0.3,0.4,0.8,0.5,0.9c0,0,0,0,0,0
				c0.1,0.1,0,0.1-0.1,0.2c0,0-0.1,0-0.1,0.1c0,0-0.1,0.1-0.2,0.1c-0.2,0.1-0.4,0.3-0.6,0.3c0,0,0,0,0,0c-0.1,0.1-0.1,0-0.2-0.1
				s-0.4-0.7-0.5-0.9c-0.1-0.1-0.2-0.3-0.3-0.5c-0.1-0.1-0.1-0.2-0.2-0.3l-0.2,0.1c-0.1,0.1-0.2,0.1-0.3,0.1c0,0-0.1,0-0.1,0.1
				c0,0-0.1,0-0.1,0.1c0,0-0.1,0-0.2,0.1l0.2,0.4c0.1,0.2,0.2,0.5,0.3,0.6c0,0.1,0.1,0.2,0.2,0.3c0.1,0.2,0.2,0.3,0.2,0.4
				c0.1,0.1,0,0.2-0.1,0.2c-0.1,0-0.3,0.1-0.4,0.2c-0.1,0.1-0.4,0.2-0.5,0.3c-0.1,0.1-0.2,0-0.2-0.1c0-0.1-0.3-0.6-0.3-0.7
				c-0.1-0.1-0.3-0.6-0.5-1c-0.1-0.1-0.1-0.3-0.2-0.3c-0.1-0.1-0.1-0.2-0.2-0.4c-0.1-0.2-0.2-0.5-0.3-0.7c-0.1-0.2-0.5-1.1-0.6-1.2
				c0-0.1,0-0.1,0-0.1c0,0,0.1,0,0.1,0c0.1,0,0.4-0.1,0.5-0.2c0.1-0.1,0.4-0.2,0.5-0.2l0,0c0.1,0,0.1,0,0.1,0.1
				c0,0.1,0.2,0.4,0.4,0.8c0.1,0.2,0.2,0.4,0.3,0.6l0.1,0.3C279.2,869.7,279.3,869.6,279.5,869.5z"/>
			<path class="st7" d="M286.3,869.3c0.1,0.1,0.2,0.1,0.2,0.1c0,0,0,0.1-0.1,0.1c-0.1,0.1-0.6,0.3-0.7,0.4c-0.1,0.1-0.2-0.1-0.5-0.3
				c-0.2-0.1-0.5-0.4-0.9-0.6l-0.7-0.5c0.2,0.3,0.3,0.6,0.5,0.8c0.2,0.4,0.5,0.9,0.6,0.9c0,0,0,0,0,0.1c0.1,0.1,0,0.2-0.1,0.2
				c-0.2,0.1-0.6,0.4-0.8,0.5c-0.1,0.1-0.2,0-0.2-0.1c0,0,0-0.1-0.1-0.2c-0.1-0.1-0.6-1-0.8-1.5c-0.1-0.2-0.1-0.3-0.2-0.4
				c0-0.1-0.2-0.5-0.4-0.9c-0.2-0.5-0.5-1-0.6-1.2c0,0-0.1-0.1-0.1-0.1c-0.1-0.2,0-0.2,0-0.3c0.1,0,0.4-0.3,0.8-0.5
				c1-0.5,1.8-0.2,2.1,0.6c0.2,0.4,0.2,0.8,0.2,1.1c0,0.2-0.1,0.3-0.1,0.5l0.9,0.6C285.7,868.9,286.1,869.2,286.3,869.3z
				 M283.3,867.6c0.1-0.1,0.1-0.2,0-0.4c-0.1-0.3-0.3-0.3-0.4-0.3c0,0-0.1,0.1-0.1,0.1c0,0,0.1,0.2,0.2,0.4c0,0.1,0.1,0.2,0.1,0.2
				c0,0,0,0,0,0.1c0,0,0,0,0,0C283.2,867.6,283.2,867.6,283.3,867.6z"/>
			<path class="st7" d="M289.3,865.1c0.2,0.4,1.1,2.4-0.6,3.3c-0.9,0.4-1.6,0-2.2-0.5c-0.3-0.3-0.6-0.7-0.9-1.1
				c-0.6-1.2-0.3-2.6,0.5-3.1c0.4-0.2,0.7-0.4,1-0.3C288.3,863.6,289.2,864.8,289.3,865.1z M288.8,865.4c-0.5-1.1-1.5-1.7-2.3-1.3
				c-0.2,0.1-0.4,0.2-0.5,0.5c-0.1,0.3-0.4,1.1,0.1,2.1c0.5,1,1.4,1.9,2.4,1.4C289.4,867.6,289.3,866.4,288.8,865.4z"/>
			<path class="st7" d="M291.5,863.5c0-0.1,0.1-0.7,0.1-0.9c0-0.1,0-0.3,0.1-0.3c0.1,0,0.1,0.1,0.2,0.2c0.1,0.2,0.3,0.4,0.5,0.6
				c0.1,0.1,0.2,0.2,0.3,0.3c0,0,0.1,0.1,0.1,0.1c0,0,0-0.1,0-0.1l0-0.2c0-0.1-0.1-0.5-0.2-0.8c-0.1-0.3-0.2-1.2-0.2-1.4
				c-0.1-0.2,0.1-0.2,0.2-0.3l0.5-0.3c0.1,0,0.1,0,0.2,0c0,0,0,0.1,0,0.1c0,0.1,0.1,0.4,0.1,0.8c0.1,0.4,0.2,1.1,0.3,1.4
				c0.1,0.3,0.3,1.2,0.4,1.5c0.1,0.3,0.2,1.2,0.1,1.2c-0.1,0.1-0.3-0.1-0.4-0.2c-0.1-0.1-0.5-0.5-0.8-0.8c-0.1-0.2-0.4-0.4-0.5-0.6
				l-0.3-0.3c0,0,0,0.1,0,0.1c0,0.1,0,0.2,0,0.3l0,1.1c0,0.3,0,0.8,0.1,1c0,0.2,0,0.4-0.1,0.5c-0.1,0-0.1,0-0.2-0.1
				c-0.1-0.1-0.1-0.1-0.4-0.4c-0.2-0.3-1.2-1.4-1.4-1.7c-0.2-0.2-1-1.2-1.2-1.4c-0.1-0.1-0.1-0.1-0.1-0.2c-0.1-0.1,0-0.2,0-0.2
				c0.1-0.1,0.4-0.2,0.6-0.3c0.2-0.1,0.2,0,0.3,0.1c0.1,0.1,0.2,0.3,0.4,0.5c0.2,0.2,0.7,0.8,0.9,0.9c0.1,0.1,0.3,0.5,0.4,0.4l0,0
				C291.5,864.1,291.5,863.7,291.5,863.5z"/>
			<path class="st7" d="M296.6,859.8c0.2,0.3,0.7,1.5,0.9,1.8c0.2,0.3,0.8,1.5,0.9,1.6c0,0,0,0.1,0.1,0.1c0,0.1,0,0.1,0,0.1
				c0,0-0.1,0.1-0.2,0.1c-0.2,0.1-0.1,0.1-0.3-0.2c-0.1-0.2-0.9-1.8-1.1-2.2c-0.2-0.4-0.8-1.7-0.9-1.9c0,0-0.1-0.1-0.1-0.1
				c0-0.1-0.1-0.2,0-0.2c0,0,0.1-0.1,0.2-0.1c0.1,0,0.1,0,0.1,0.1c0,0,0,0.1,0.1,0.2C296.3,859.2,296.4,859.4,296.6,859.8z"/>
			<path class="st7" d="M299.2,860.1c0.2,0.4,0.7,1.4,0.8,1.6c0.1,0.2,0.3,0.5,0.3,0.6c0,0,0,0,0,0c0,0.1,0,0.1-0.1,0.2
				c-0.1,0-0.3,0.2-0.4,0.2c-0.2,0.1-0.4,0.2-0.6,0.3c-0.2,0.1-0.2,0-0.3-0.1c0-0.1-0.1-0.1-0.2-0.3c0-0.1-0.1-0.2-0.1-0.3
				c-0.2-0.4-0.6-1.1-0.7-1.5c-0.1-0.3-0.6-1.5-0.7-1.7c-0.1-0.3-0.3-0.5-0.4-0.8c-0.1-0.2,0-0.2,0.1-0.3c0.1,0,0.1-0.1,0.2-0.1
				c0.1-0.1,0.4-0.2,0.5-0.3c0.2-0.1,0.3-0.1,0.4,0c0.1,0.1,0.5,0.4,0.8,0.7c0.3,0.2,1.2,1,1.5,1.2c0.2,0.1,0.4,0.3,0.6,0.5l0.4,0.3
				l-0.2-0.4l-0.3-0.6c0-0.1-0.1-0.1-0.1-0.2c-0.1-0.3-0.3-0.5-0.4-0.7c-0.1-0.2-0.4-0.7-0.5-0.9l-0.3-0.6c0-0.1,0-0.1,0-0.1
				c0,0,0.1,0,0.1,0c0.1,0,0.1,0,0.2-0.1c0.1,0,0.1,0,0.1,0c0,0,0,0.1,0.1,0.1c0.1,0.1,0.8,1.5,0.9,1.9c0,0.1,0.1,0.1,0.1,0.2
				c0.2,0.4,0.5,0.9,0.6,1.1c0.1,0.3,0.5,1,0.6,1.1c0,0,0,0,0,0c0.1,0.1,0,0.2-0.1,0.2c0,0,0,0-0.1,0c-0.1,0-0.2,0.1-0.2,0.1
				c-0.1,0-0.1,0-0.2-0.1c-0.1-0.1-0.9-0.8-1.2-1c-0.3-0.2-1.2-1-1.5-1.2c-0.1-0.1-0.4-0.3-0.6-0.4l-0.4-0.2l0.3,0.6
				C298.9,859.5,299.1,859.9,299.2,860.1z"/>
			<path class="st7" d="M304.9,857.6c0.3,0.5,0.9,1.4,1,1.7c0.1,0.2-0.1,0.3-0.5,0.5c-0.4,0.2-1.3,0.7-1.5,0.7c-0.1,0-0.1,0-0.1-0.1
				c-0.1-0.1-0.1-0.3-0.2-0.4c0-0.1-0.2-0.3-0.3-0.6c-0.3-0.7-0.9-1.7-1-2.2c-0.1-0.2-0.1-0.3-0.2-0.5c-0.1-0.2-0.2-0.4-0.3-0.5
				c-0.1,0-0.1,0-0.1,0.1c-0.1,0.1-0.5,0.3-0.5,0.3c0,0-0.1,0-0.1-0.1c0,0,0-0.1-0.1-0.1c0-0.1,0-0.1,0-0.1c0,0,0.1,0,0.2-0.1
				l1.4-0.7c0.4-0.2,1.5-0.8,1.7-0.9c0.1-0.1,0.2,0,0.2,0.2c0.1,0.1,0,0.2-0.1,0.2c-0.1,0.1-0.2,0.1-0.5,0.3l0,0
				C303.9,855.7,304.6,857.1,304.9,857.6z"/>
			<path class="st7" d="M309.5,854.8c0.2,0.4,1.1,2.4-0.7,3.3c-0.9,0.4-1.6,0-2.2-0.5c-0.3-0.3-0.6-0.7-0.9-1.1
				c-0.6-1.2-0.3-2.6,0.5-3.1c0.4-0.2,0.7-0.4,1-0.3C308.5,853.3,309.3,854.5,309.5,854.8z M309,855.1c-0.5-1.1-1.5-1.7-2.3-1.3
				c-0.2,0.1-0.4,0.2-0.5,0.5c-0.1,0.3-0.4,1.1,0.1,2.1c0.5,1,1.4,1.9,2.4,1.4C309.6,857.3,309.5,856.1,309,855.1z"/>
			<path class="st7" d="M312.3,850.5c0.2-0.1,0.8-0.4,1.1-0.6c0.1-0.1,0.2-0.1,0.2-0.1c0.2-0.1,0.3,0,0.3,0c0,0.1,0.1,0.2,0.2,0.5
				c0.1,0.2,0.2,0.4,0.3,0.5c0.1,0.1,0,0.2-0.1,0.3l-1.1,0.6l0.3,0.7c0,0.1,0.2,0.3,0.3,0.6c0.4,0.7,0.9,1.8,1,1.9c0,0,0,0,0,0
				c0.1,0.1,0,0.1-0.1,0.1l-0.4,0.2c-0.1,0.1-0.1,0-0.2-0.2c-0.1-0.2-0.9-1.8-1-2.2c-0.1-0.3-0.4-0.7-0.5-0.8
				c-0.4,0.2-1.1,0.6-1.1,0.6c-0.1,0.1-0.2,0-0.2-0.1c0-0.1-0.3-0.6-0.4-0.9c0-0.1-0.1-0.2-0.1-0.2c0,0,0,0,0,0
				c-0.1-0.1,0-0.1,0.1-0.2l0.6-0.3C311.7,850.9,312.1,850.7,312.3,850.5z"/>
			<path class="st7" d="M316.9,850.4c0.1,0,0.2-0.1,0.2-0.1c0,0,0.1,0,0.1-0.1c0,0,0.1,0,0.1-0.1l0.2-0.1l-0.1-0.2l-0.1-0.3
				c-0.1-0.2-0.5-1-0.6-1.1c-0.1-0.1-0.1-0.2,0-0.2c0.1-0.1,0.2-0.1,0.3-0.2c0,0,0.1-0.1,0.2-0.1c0.1-0.1,0.3-0.1,0.4-0.2
				c0.1,0,0.1,0,0.2,0.1c0.1,0.1,0.3,0.8,0.5,1c0.1,0.2,0.4,1,0.5,1.2c0.1,0.3,0.5,1,0.7,1.3c0.1,0.3,0.4,0.8,0.5,0.9c0,0,0,0,0,0
				c0.1,0.1,0,0.1-0.1,0.2c0,0-0.1,0-0.1,0.1c0,0-0.1,0.1-0.2,0.1c-0.2,0.1-0.4,0.3-0.6,0.3c0,0,0,0,0,0c-0.1,0.1-0.1,0-0.2-0.1
				c0-0.1-0.4-0.7-0.5-0.9c-0.1-0.1-0.2-0.3-0.3-0.5c-0.1-0.1-0.1-0.2-0.2-0.3l-0.2,0.1c-0.1,0.1-0.2,0.1-0.3,0.1c0,0-0.1,0-0.1,0.1
				c0,0-0.1,0-0.1,0.1c0,0-0.1,0-0.2,0.1l0.2,0.4c0.1,0.2,0.2,0.5,0.3,0.6c0,0.1,0.1,0.2,0.2,0.3c0.1,0.2,0.2,0.4,0.2,0.4
				c0.1,0.1,0,0.2-0.1,0.2c-0.1,0-0.3,0.1-0.4,0.2c-0.1,0.1-0.4,0.2-0.5,0.3c-0.1,0.1-0.2,0-0.2-0.1c0-0.1-0.3-0.6-0.3-0.7
				c-0.1-0.1-0.3-0.6-0.5-1c-0.1-0.1-0.1-0.3-0.2-0.3c-0.1-0.1-0.1-0.2-0.2-0.4c-0.1-0.2-0.2-0.5-0.3-0.7c-0.1-0.2-0.5-1.1-0.6-1.2
				c0-0.1,0-0.1,0-0.1c0,0,0.1,0,0.1,0c0.1,0,0.4-0.1,0.5-0.2c0.1-0.1,0.4-0.2,0.5-0.2l0,0c0.1,0,0.1,0,0.1,0.1
				c0,0.1,0.2,0.4,0.4,0.8c0.1,0.2,0.2,0.4,0.3,0.6l0.1,0.3C316.6,850.6,316.7,850.5,316.9,850.4z"/>
			<path class="st7" d="M319.7,849.3c-0.3-0.5-0.3-0.5-0.5-0.9c-0.2-0.4-0.4-0.8-0.5-1c-0.1-0.1,0-0.2,0.1-0.2c0,0,0.1,0,0.1,0
				c0.1,0,0.2-0.1,0.5-0.2c0.3-0.1,0.7-0.4,0.9-0.6c0.3-0.1,0.6-0.3,0.7-0.3c0.1-0.1,0.2,0,0.2,0.1c0.1,0.1,0.2,0.3,0.3,0.5
				c0,0.1,0.1,0.1,0.1,0.3c0,0.1,0,0.1,0,0.1c0,0-0.1,0-0.2,0c-0.1,0-0.3,0.1-0.6,0.3c-0.2,0.1-0.3,0.2-0.5,0.2
				c-0.1,0-0.1,0.1-0.2,0.1c-0.1,0.1-0.2,0.1-0.3,0.2c-0.2,0.1-0.3,0.1-0.3,0.2c-0.1,0,0,0.1,0,0.2c0.1,0.1,0.2,0.4,0.3,0.6l0.2,0.4
				c0,0.1,0.1,0.1,0.1,0.2c0.1,0,0.1-0.1,0.2-0.1c0.1,0,0.3-0.1,0.5-0.2c0.2-0.1,0.5-0.3,0.7-0.4c0.2-0.1,0.3-0.1,0.3-0.1
				c0.1,0,0.1,0,0.1,0c0,0,0,0.1,0.1,0.2c0.1,0.1,0.1,0.2,0.2,0.3c0,0.1,0,0.1,0,0.1c0,0-0.1,0-0.1,0c-0.1,0.1-0.2,0.1-0.7,0.3
				c-0.4,0.2-0.7,0.4-0.7,0.4c0,0-0.1,0-0.1,0c0,0,0,0,0,0l0.3,0.6c0,0,0,0,0.1,0c0,0,0.1-0.1,0.2-0.1c0.1-0.1,0.5-0.2,0.8-0.4
				c0.2-0.1,0.6-0.3,0.8-0.4c0.1-0.1,0.2-0.1,0.3-0.1c0.1-0.1,0.2,0,0.2,0.1c0,0,0,0.1,0.1,0.1c0.1,0.1,0.1,0.3,0.2,0.5
				c0.1,0.2,0,0.2-0.2,0.3c-0.2,0.1-0.8,0.4-1.1,0.6c-0.3,0.2-0.9,0.5-1,0.5c0,0,0,0,0,0c-0.1,0-0.1,0-0.1-0.1
				c0-0.1-0.1-0.2-0.1-0.2c0-0.1-0.1-0.1-0.2-0.3l-0.5-0.9C319.9,850,319.9,849.8,319.7,849.3z"/>
			<path class="st7" d="M326.2,846.1c0-0.1-0.1-0.6-0.2-0.8c-0.1-0.2-0.1-1-0.2-1.2c0-0.2,0-0.5,0-0.6c0.1,0,0.1,0,0.1,0.1
				c0.1,0.1,0.1,0.1,0.2,0.2c0.1,0.1,0.5,0.5,0.7,0.6l0.4,0.3l0.2,0.2c0,0,0,0,0-0.1l0-0.2c0-0.2-0.2-0.5-0.2-0.7
				c-0.1-0.2-0.1-0.7-0.1-0.9c-0.1-0.2,0-0.3,0-0.3c0,0,0.1-0.1,0.2-0.1c0,0,0.1,0,0.1,0c0.1,0,0.1,0,0.1,0c0,0,0,0,0,0.1
				c0,0.1,0.1,0.3,0.1,0.5c0,0.2,0.2,1.1,0.3,1.4c0.1,0.2,0.3,0.8,0.3,0.9c0,0.1,0.1,0.2,0.1,0.4c0,0.2,0.4,1.4,0.4,1.5
				c0,0.1,0.1,0.2,0,0.2c-0.1,0-0.1,0-0.2-0.1c-0.1,0-0.5-0.4-0.6-0.5c-0.1-0.1-0.5-0.5-0.7-0.6c-0.1-0.1-0.2-0.2-0.3-0.3l-0.2-0.2
				l0,0.2c0,0.1,0,0.4,0.1,0.7c0,0.3,0.3,1.2,0.3,1.3c0,0.1,0,0.3,0,0.3c-0.1,0-0.1,0-0.2-0.1c-0.1,0-0.6-0.7-0.7-0.8
				c-0.2-0.1-0.5-0.5-0.6-0.6c-0.1-0.1-1-1.1-1.2-1.3c-0.2-0.2-0.6-0.7-0.8-0.8c-0.1-0.1-0.1-0.1-0.1-0.1c0,0,0,0,0-0.1l0.2-0.1
				c0.1,0,0.1-0.1,0.2-0.1l0.1,0c0.1-0.1,0.1,0,0.2,0.1c0.1,0.1,0.6,0.7,1,1c0.2,0.2,0.4,0.4,0.6,0.5l0.3,0.2l0-0.1L326.2,846.1z"/>
			<path class="st7" d="M329.3,841.7C329.3,841.6,329.3,841.6,329.3,841.7c0.1-0.1,0.2,0,0.2,0c0.1,0.1,0.5,0.5,0.7,0.6
				c0.2,0.2,0.4,0.3,0.6,0.5c0.2,0.2,0.9,0.7,1.2,0.9c0.3,0.2,0.9,0.7,1.1,0.8c0.2,0.1,0.5,0.4,0.6,0.4c0,0,0.1,0,0.1,0.1
				c0,0,0,0.1-0.1,0.1l-0.5,0.2c-0.1,0-0.1-0.1-0.2-0.1c-0.1-0.1-0.5-0.4-0.6-0.5c-0.1-0.1-0.3-0.2-0.4-0.3
				c-0.1-0.1-0.1-0.1-0.2-0.1c0,0-0.1,0.1-0.2,0.2c-0.1,0.1-0.5,0.3-0.7,0.4c-0.1,0-0.1,0.1-0.2,0.1c-0.2,0.1-0.3,0.2-0.3,0.2
				c-0.1,0,0,0.1,0,0.2c0,0.1,0.1,0.5,0.2,0.7l0.1,0.3l0,0.2c0,0.1,0,0.1,0,0.2l-0.4,0.2c0,0,0,0,0,0c0,0,0-0.1,0-0.1
				c0-0.1,0-0.1,0-0.3c0-0.2-0.2-0.9-0.2-1.2c-0.1-0.3-0.2-0.7-0.2-1c-0.1-0.2-0.1-0.4-0.1-0.7c-0.1-0.3-0.1-0.7-0.2-1l-0.1-0.6
				C329.4,842,329.3,841.8,329.3,841.7z M331.2,843.7C331.2,843.7,331.2,843.7,331.2,843.7c-0.1-0.1-0.6-0.5-0.7-0.6
				c-0.2-0.2-0.3-0.3-0.4-0.3c-0.1-0.1-0.1-0.1-0.2-0.1c0,0,0,0.1,0,0.3c0,0.1,0.1,0.5,0.1,0.7c0,0.2,0.1,0.4,0.1,0.5
				c0,0.1,0,0.1,0,0.1c0,0,0,0,0.1,0c0.1,0,0.7-0.4,0.8-0.4C331.1,843.8,331.2,843.8,331.2,843.7z"/>
			<path class="st7" d="M335.8,841.8c0.3,0.5,0.9,1.4,1,1.7c0.1,0.2-0.1,0.3-0.5,0.5c-0.4,0.2-1.3,0.7-1.5,0.7c-0.1,0-0.1,0-0.1-0.1
				c-0.1-0.1-0.1-0.3-0.2-0.4c0-0.1-0.2-0.3-0.3-0.6c-0.3-0.7-0.9-1.7-1-2.2c-0.1-0.2-0.1-0.3-0.2-0.5c-0.1-0.2-0.2-0.4-0.3-0.5
				c-0.1,0-0.1,0-0.1,0.1c-0.1,0.1-0.5,0.3-0.5,0.3c0,0-0.1,0-0.1-0.1c0,0,0-0.1-0.1-0.1c0-0.1,0-0.1,0-0.1c0,0,0.1,0,0.2-0.1
				l1.4-0.7c0.4-0.2,1.5-0.8,1.7-0.9c0.1-0.1,0.2,0,0.2,0.2c0.1,0.1,0,0.2-0.1,0.2c-0.1,0.1-0.2,0.1-0.5,0.3l0,0
				C334.9,839.9,335.6,841.3,335.8,841.8z"/>
			<path class="st7" d="M336.9,840.5c-0.3-0.5-0.3-0.5-0.5-0.9c-0.2-0.4-0.4-0.8-0.5-1c-0.1-0.1,0-0.2,0.1-0.2c0,0,0.1,0,0.1,0
				c0.1,0,0.2-0.1,0.5-0.2c0.3-0.1,0.7-0.4,0.9-0.6c0.3-0.1,0.6-0.3,0.7-0.3s0.2,0,0.2,0.1c0.1,0.1,0.2,0.3,0.3,0.5
				c0,0.1,0.1,0.1,0.1,0.3c0,0.1,0,0.1,0,0.1c0,0-0.1,0-0.2,0c-0.1,0-0.3,0.1-0.6,0.3c-0.2,0.1-0.3,0.2-0.5,0.2
				c-0.1,0-0.1,0.1-0.2,0.1c-0.1,0.1-0.2,0.1-0.3,0.2c-0.2,0.1-0.3,0.1-0.3,0.2c-0.1,0,0,0.1,0,0.2c0.1,0.1,0.2,0.4,0.3,0.6l0.2,0.4
				c0,0.1,0.1,0.1,0.1,0.2c0.1,0,0.1,0,0.2-0.1c0.1,0,0.3-0.1,0.5-0.2c0.2-0.1,0.5-0.3,0.7-0.4c0.2-0.1,0.3-0.1,0.3-0.1
				c0.1,0,0.1,0,0.1,0c0,0,0,0.1,0.1,0.2c0.1,0.1,0.1,0.2,0.2,0.3c0,0.1,0,0.1,0,0.1c0,0-0.1,0-0.1,0c-0.1,0.1-0.2,0.1-0.7,0.3
				c-0.4,0.2-0.7,0.4-0.7,0.4c0,0-0.1,0-0.1,0c0,0,0,0,0,0l0.3,0.6c0,0,0,0,0.1,0c0,0,0.1-0.1,0.2-0.1c0.1-0.1,0.5-0.2,0.8-0.4
				c0.2-0.1,0.6-0.3,0.8-0.4c0.1-0.1,0.2-0.1,0.3-0.1c0.1-0.1,0.2,0,0.2,0.1c0,0,0,0.1,0.1,0.1c0.1,0.1,0.1,0.3,0.2,0.5
				c0.1,0.2,0,0.2-0.2,0.3c-0.2,0.1-0.8,0.4-1.1,0.6c-0.3,0.2-0.9,0.5-1,0.5c0,0,0,0,0,0c-0.1,0-0.1,0-0.1-0.1
				c0-0.1-0.1-0.2-0.1-0.2c0-0.1-0.1-0.1-0.2-0.3l-0.5-0.9C337.2,841.2,337.2,841,336.9,840.5z"/>
			<path class="st7" d="M344.3,839.7c0.1,0.1,0.2,0.1,0.2,0.1c0,0,0,0.1-0.1,0.1c-0.1,0.1-0.6,0.3-0.7,0.4c-0.1,0.1-0.2-0.1-0.5-0.3
				c-0.2-0.1-0.5-0.4-0.9-0.6l-0.7-0.5c0.2,0.3,0.3,0.6,0.5,0.8c0.2,0.4,0.5,0.9,0.6,0.9c0,0,0,0,0,0.1c0.1,0.1,0,0.2-0.1,0.2
				c-0.2,0.1-0.6,0.4-0.8,0.5c-0.1,0.1-0.2,0-0.2-0.1c0,0,0-0.1-0.1-0.2c-0.1-0.1-0.6-1-0.8-1.5c-0.1-0.2-0.1-0.3-0.2-0.4
				c0-0.1-0.2-0.5-0.4-0.9c-0.2-0.5-0.5-1-0.6-1.2c0,0-0.1-0.1-0.1-0.1c-0.1-0.2,0-0.2,0-0.3c0.1,0,0.4-0.3,0.8-0.5
				c1-0.5,1.8-0.2,2.1,0.6c0.2,0.4,0.2,0.8,0.2,1.1c0,0.2-0.1,0.3-0.1,0.5l0.9,0.6C343.7,839.3,344.2,839.6,344.3,839.7z
				 M341.3,837.9c0.1-0.1,0.1-0.2,0-0.4c-0.1-0.3-0.3-0.3-0.4-0.3c0,0-0.1,0.1-0.1,0.1c0,0,0.1,0.2,0.2,0.4c0,0.1,0.1,0.2,0.1,0.2
				c0,0,0,0,0,0.1c0,0,0,0,0,0C341.2,838,341.3,838,341.3,837.9z"/>
		</g>
		<g>
			<path class="st7" d="M245.5,863.5c-1.5,0.8-1.8,1.9-1.3,2.8c0.5,0.9,1.6,1.1,2.6,1.1c1,0,3.7-0.8,5.1,1.8c1.4,2.6-1,4.3-2.3,5
				c-1.3,0.7-2.9,0.3-3.1,0.2c-0.2,0-0.2-0.1-0.2-0.2c0-0.1,0-0.6,0.1-0.6c0,0,0,0,0,0c0.1,0,0.1,0,0.4,0.1c0.4,0.1,1.6,0.1,2.1-0.2
				c0.6-0.3,2.3-1.2,1.4-3c-0.4-0.9-1.9-0.7-3.4-0.8c-1.5-0.1-3.1-0.3-3.9-2c-1-2,0.4-4.1,2-4.9c1.5-0.8,3-0.3,3.2-0.3
				c0.1,0,0.2,0.1,0.3,0.1c0,0,0,0.1,0,0.2c0,0.1,0,0.6-0.2,0.7c-0.1,0-0.1,0-0.2,0l-0.2,0C247.7,863.3,246.4,863,245.5,863.5z"/>
			<path class="st7" d="M251.9,858.8c0-0.2,0-0.3,0.2-0.2c0.1,0,0.3,0.2,0.4,0.3c0.2,0.2,1.3,1.1,1.8,1.4c0.5,0.4,1,0.8,1.5,1.3
				c0.5,0.5,2.1,1.7,2.8,2.3c0.7,0.5,2.2,1.6,2.7,1.9c0.4,0.3,1.1,0.9,1.4,1c0.1,0.1,0.2,0.1,0.2,0.2c0.1,0.1-0.1,0.2-0.2,0.3
				l-1.1,0.6c-0.1,0.1-0.3-0.2-0.6-0.4c-0.2-0.2-1.2-1.1-1.4-1.3c-0.2-0.2-0.6-0.5-0.8-0.7c-0.2-0.2-0.3-0.2-0.4-0.2
				c-0.1,0.1-0.3,0.2-0.6,0.4c-0.2,0.2-1.2,0.6-1.6,0.9c-0.1,0.1-0.3,0.2-0.5,0.3c-0.4,0.2-0.7,0.4-0.8,0.4c-0.1,0.1-0.1,0.2,0,0.4
				c0,0.2,0.3,1.3,0.4,1.6l0.2,0.7l0.1,0.5c0.1,0.3,0.1,0.3-0.1,0.4l-0.9,0.5c-0.1,0-0.1,0-0.1,0c0,0,0-0.1,0-0.2
				c0-0.2,0-0.2-0.1-0.7c-0.1-0.5-0.4-2.1-0.6-2.8c-0.2-0.8-0.4-1.7-0.4-2.3c-0.1-0.6-0.2-0.9-0.4-1.7c-0.2-0.8-0.3-1.7-0.4-2.3
				l-0.2-1.4C252,859.4,252,859,251.9,858.8z M256.4,863.6c0,0,0-0.1-0.1-0.1c-0.2-0.1-1.2-1-1.6-1.4c-0.4-0.4-0.8-0.7-0.9-0.8
				c-0.2-0.2-0.3-0.3-0.4-0.2c-0.1,0,0,0.3,0.1,0.7c0,0.3,0.2,1.2,0.3,1.6c0.1,0.4,0.1,0.9,0.2,1.2c0,0.1,0,0.2,0.1,0.3
				c0,0.1,0.1,0.1,0.2,0c0.2-0.1,1.6-0.8,1.8-1C256.3,863.7,256.4,863.7,256.4,863.6z"/>
			<path class="st7" d="M264.3,860.6c0.2,0.3,0.4,0.7,0.5,1c0.3,0.5,0.4,1,0.7,1.5l0.9,1.8c0.1,0.3,0.1,0.4-0.2,0.5
				c-0.1,0-0.2,0.1-0.4,0.2c-0.1,0.1-0.4,0.2-0.6,0.3c-0.4,0.2-0.9,0.5-1.1,0.6c-0.3,0.1-0.3,0-0.4-0.2l-0.4-0.8
				c-0.1-0.2-0.4-0.7-0.8-1.4c-0.3-0.7-0.4-1-0.7-1.7c-0.3-0.7-0.6-1.1-0.9-1.7c-0.3-0.7-0.7-1.4-1-2.1c-0.4-0.7-0.8-1.5-1.1-2.1
				c-0.2-0.4-0.1-0.5,0-0.6c0.1-0.1,0.3-0.1,0.4-0.2c0.4-0.2,1.8-1,2.1-1.2c0.3-0.2,1.4-0.8,1.7-1l1.3-0.6c0.2-0.1,0.4-0.1,0.5,0
				l0.4,0.8c0.1,0.2,0,0.2-0.2,0.3c-0.2,0.1-0.8,0.4-1.4,0.7c-0.3,0.1-0.7,0.4-1.1,0.6l-0.7,0.4l0.1,0.3c0.1,0.2,0.2,0.4,0.2,0.6
				c0.2,0.4,0.4,0.8,0.7,1.4c0.1,0.3,0.3,0.6,0.4,0.8l0.2,0.4c0.2-0.1,0.3-0.2,0.5-0.3c0.3-0.1,0.5-0.3,0.7-0.4
				c0.4-0.2,0.8-0.5,1.2-0.7c0.4-0.2,0.5-0.1,0.5,0c0.1,0.2,0.2,0.3,0.2,0.5c0.1,0.2,0,0.2-0.2,0.4c-0.3,0.1-0.7,0.3-1.1,0.5
				L264,860C264.1,860.2,264.2,860.4,264.3,860.6z"/>
			<path class="st7" d="M268.4,856.9c-0.6-1.2-0.7-1.3-1.2-2.2c-0.5-0.9-0.9-1.8-1.1-2.3c-0.1-0.3-0.1-0.4,0.1-0.5
				c0.1,0,0.2-0.1,0.2-0.1c0.2-0.1,0.5-0.2,1.2-0.6c0.7-0.3,1.6-1,2.2-1.3c0.6-0.3,1.4-0.7,1.7-0.8c0.3-0.1,0.4,0,0.5,0.3
				c0.2,0.3,0.4,0.7,0.7,1.1c0.1,0.1,0.2,0.3,0.2,0.6c0.1,0.2,0,0.3-0.1,0.3c-0.1,0.1-0.3,0.1-0.4,0.1c-0.3,0.1-0.7,0.3-1.4,0.6
				c-0.4,0.2-0.8,0.4-1.2,0.6c-0.1,0.1-0.3,0.1-0.4,0.2c-0.2,0.1-0.5,0.3-0.8,0.4c-0.4,0.2-0.7,0.4-0.8,0.4c-0.2,0.1-0.1,0.2,0,0.4
				c0.1,0.2,0.4,1,0.7,1.5l0.5,0.9c0.1,0.2,0.2,0.3,0.3,0.5c0.1,0,0.3-0.1,0.4-0.2c0.3-0.1,0.7-0.3,1.1-0.5c0.6-0.3,1.2-0.7,1.6-0.9
				c0.4-0.2,0.6-0.3,0.8-0.3c0.2-0.1,0.2,0,0.3,0.1c0.1,0.1,0.1,0.2,0.2,0.5c0.1,0.3,0.2,0.4,0.4,0.8c0.1,0.2,0.1,0.3,0,0.3
				c-0.1,0-0.2,0-0.3,0.1c-0.2,0.1-0.6,0.3-1.6,0.8c-1,0.5-1.6,1-1.8,1.1c-0.1,0.1-0.2,0.1-0.2,0.1c0,0-0.1,0-0.1,0l0.8,1.5
				c0,0,0.1-0.1,0.2-0.1c0.1-0.1,0.3-0.1,0.4-0.2c0.4-0.2,1.1-0.6,1.8-0.9c0.5-0.3,1.3-0.6,2-1c0.3-0.1,0.5-0.3,0.6-0.3
				c0.3-0.1,0.4,0,0.5,0.2c0,0.1,0.1,0.2,0.1,0.3c0.2,0.3,0.3,0.6,0.5,1.1c0.2,0.4-0.1,0.5-0.6,0.7c-0.5,0.3-2,1-2.7,1.4
				c-0.7,0.4-2.2,1.2-2.4,1.3c0,0-0.1,0-0.1,0.1c-0.1,0.1-0.2-0.1-0.3-0.2c-0.1-0.2-0.2-0.4-0.3-0.6s-0.2-0.3-0.4-0.6l-1.1-2.1
				C269.1,858.4,269,858,268.4,856.9z"/>
			<path class="st7" d="M285.9,843.6c0.2,0.1,0.3,0.2,0.3,0.2c0.1,0.2-0.1,0.3-0.2,0.5c-0.2,0.3-0.6,1.4-0.8,1.6
				c0,0.1-0.1,0.1-0.1,0.1c-0.2,0.1-0.3-0.1-0.5-0.1c-0.2-0.1-0.7-0.4-1.2-0.1c-0.5,0.3-0.7,1,0.4,3.2c1.1,2.2,2.1,2.5,2.5,2.4
				c0.4-0.2,0.5-0.4,0.4-1c-0.1-0.3,0.1-0.5,0.2-0.6c0.1-0.1,0.3-0.1,0.4-0.1c0.3,0,1.5-0.4,2-0.5c0.2-0.1,0.3,0.1,0.4,0.3
				c0,0.1,0.1,0.2,0.1,0.2c0.1,0.2,0.1,0.4,0.2,0.6c0.2,1,0.3,3.1-2.1,4.3c-1.6,0.8-4.8,0.8-7.2-3.8c-2.4-4.7-0.3-6.6,1.1-7.3
				C284.1,842.4,285.4,843.4,285.9,843.6z"/>
			<path class="st7" d="M289.8,839.5c0-0.2,0-0.3,0.2-0.2c0.1,0,0.3,0.2,0.4,0.3c0.2,0.2,1.3,1.1,1.8,1.4c0.5,0.4,1,0.8,1.5,1.3
				c0.5,0.5,2.1,1.7,2.8,2.3c0.7,0.5,2.2,1.6,2.7,1.9c0.4,0.3,1.1,0.9,1.4,1c0.1,0.1,0.2,0.1,0.2,0.2c0.1,0.1-0.1,0.2-0.2,0.3
				l-1.1,0.6c-0.1,0.1-0.3-0.2-0.6-0.4c-0.2-0.2-1.2-1.1-1.4-1.3c-0.2-0.2-0.6-0.5-0.8-0.7c-0.2-0.2-0.3-0.2-0.4-0.2
				c-0.1,0.1-0.3,0.2-0.6,0.4c-0.2,0.2-1.2,0.6-1.6,0.9c-0.1,0.1-0.3,0.2-0.5,0.3c-0.4,0.2-0.7,0.4-0.8,0.4c-0.1,0.1-0.1,0.2,0,0.4
				c0,0.2,0.3,1.3,0.4,1.6l0.2,0.7l0.1,0.5c0.1,0.3,0.1,0.3-0.1,0.4l-0.9,0.5c-0.1,0-0.1,0-0.1,0c0,0,0-0.1,0-0.2
				c0-0.2,0-0.2-0.1-0.7c-0.1-0.5-0.4-2.1-0.6-2.8c-0.2-0.8-0.4-1.7-0.4-2.3c-0.1-0.6-0.2-0.9-0.4-1.7c-0.2-0.8-0.3-1.7-0.4-2.3
				l-0.2-1.4C289.9,840.1,289.8,839.7,289.8,839.5z M294.2,844.3c0,0,0-0.1-0.1-0.1c-0.2-0.1-1.2-1-1.6-1.4
				c-0.4-0.4-0.8-0.7-0.9-0.8c-0.2-0.2-0.3-0.3-0.4-0.2c-0.1,0,0,0.3,0.1,0.7c0,0.3,0.2,1.2,0.3,1.6c0.1,0.4,0.1,0.9,0.2,1.2
				c0,0.1,0,0.2,0.1,0.3c0,0.1,0.1,0.1,0.2,0c0.2-0.1,1.6-0.8,1.8-1C294.1,844.4,294.3,844.4,294.2,844.3z"/>
			<path class="st7" d="M308.6,843.3c0.3,0.2,0.4,0.3,0.4,0.3c0.1,0.1-0.1,0.2-0.2,0.2c-0.2,0.1-1.5,0.8-1.7,0.9
				c-0.3,0.1-0.5-0.2-1.2-0.8c-0.4-0.3-1.3-0.9-2.1-1.5l-1.6-1.1c0.4,0.7,0.8,1.3,1.1,1.9c0.6,1,1.2,2.1,1.3,2.2
				c0,0.1,0.1,0.1,0.1,0.1c0.1,0.2,0,0.4-0.3,0.5c-0.4,0.1-1.5,0.9-1.9,1.1c-0.3,0.1-0.4,0.1-0.5-0.2c0-0.1-0.1-0.2-0.2-0.4
				c-0.2-0.4-1.4-2.4-2-3.6c-0.2-0.4-0.3-0.7-0.4-0.9c-0.1-0.3-0.5-1.2-1-2.2c-0.6-1.1-1.2-2.3-1.5-2.8c-0.1-0.1-0.1-0.2-0.2-0.3
				c-0.3-0.5-0.1-0.6,0.1-0.7c0.2-0.1,1-0.7,2-1.2c2.4-1.2,4.2-0.4,5.1,1.4c0.5,0.9,0.5,1.8,0.4,2.5c-0.1,0.4-0.2,0.8-0.3,1.2
				l2.1,1.4C307,842.4,308.2,843.1,308.6,843.3z M301.3,839.1c0.2-0.2,0.3-0.6,0-1c-0.3-0.6-0.7-0.8-0.9-0.6
				c-0.1,0.1-0.2,0.2-0.2,0.3c0,0.1,0.3,0.5,0.4,0.9c0.1,0.2,0.1,0.4,0.2,0.6c0,0,0,0.1,0.1,0.1c0,0,0.1,0.1,0.1,0.1
				C301.1,839.3,301.3,839.2,301.3,839.1z"/>
			<path class="st7" d="M308.5,837.5c0.4,0.6,2.4,4.4,2.6,4.8c0.2,0.4-0.2,0.6-0.4,0.7c-0.2,0.1-0.3-0.2-0.4-0.3
				c-0.1-0.1-0.2-0.4-0.4-0.7c-0.1-0.2-0.2-0.3-0.2-0.5c-0.2-0.3-2-4.2-3.3-6.7c-0.5-1.1-1-1.9-1.1-2c-0.1-0.1-0.1-0.2-0.2-0.3
				c-0.2-0.3-0.1-0.4,0.1-0.5c0.2-0.1,1.7-0.8,2.3-1.1c0.6-0.3,3-1.3,3.7,0c0.9,1.8-1.5,3.4-2.3,3.8c-0.1,0.1-0.2,0.1-0.2,0.1
				c0.2,0.1,7.5,3.7,8.3,4c0.5,0.2,0.7,0.3,0.7,0.4c0,0,0,0.1,0,0.1c-0.1,0.1-0.4,0.3-0.6,0.4c-0.6,0.3-0.6,0.2-1,0
				c-0.2-0.2-2.6-1.2-3.9-1.9c-0.6-0.4-1.8-0.9-2.7-1.3l-1.7-0.8l0.3,0.6C308.1,836.7,308.3,837.2,308.5,837.5z M307.9,834.4
				c0.4-0.2,0.9-0.5,1.3-0.8c0.7-0.6,1.3-1.1,0.9-1.7c-0.3-0.7-1.8-0.3-2.4,0c-0.4,0.2-0.8,0.4-1.1,0.5l-0.5,0.3l1,2.2
				C307.4,834.6,307.7,834.5,307.9,834.4z"/>
			<path class="st7" d="M315.3,829.6c0.4,0.8,1.6,3.5,2,4.3c0.4,0.8,1.8,3.5,2.1,3.8c0.1,0.1,0.1,0.1,0.1,0.2c0.1,0.2,0,0.2,0,0.3
				c-0.1,0.1-0.3,0.2-0.4,0.3c-0.5,0.3-0.3,0.3-0.7-0.5c-0.3-0.6-2.1-4.3-2.6-5.3c-0.5-1-1.9-4.1-2.1-4.4c-0.1-0.1-0.1-0.2-0.2-0.3
				c-0.1-0.2-0.2-0.4,0-0.5c0.1-0.1,0.3-0.2,0.6-0.3c0.1-0.1,0.2,0,0.3,0.1c0.1,0.1,0.1,0.3,0.2,0.4
				C314.6,828.2,314.9,828.8,315.3,829.6z"/>
			<path class="st7" d="M322.7,830.8c-0.3,0.1-0.4,0-0.4-0.1c-0.1-0.1-0.1-0.3-0.2-0.7c-0.1-0.4,0-0.4,0.2-0.5
				c0.1-0.1,0.7-0.2,1.3-0.5c0.7-0.3,1.6-0.5,2.1-0.8c0.2-0.1,0.4,0,0.5,0.1c0.1,0.1,0.1,0.2,0.1,0.3c1.9,4.3,0.2,6.2-1.2,6.9
				c-1,0.5-4.6,1.4-7-3.3c-2.7-5.3,0.1-7.4,1.2-8c2.3-1.2,4.1,0.3,4.3,0.4c0.2,0.1,0.4,0.4,0.5,0.5c0,0,0,0.1,0.1,0.1
				c0,0.1,0,0.1-0.2,0.3c-0.2,0.2-0.6,0.8-0.8,1.1c-0.2,0.3-0.4,0.7-0.6,1c-0.1,0.2-0.1,0.3-0.2,0.3c0,0.1-0.1,0.1-0.1,0.1
				c0,0-0.1,0.1-0.1,0.1c-0.1,0.1-0.2-0.1-0.4-0.2c-0.2-0.1-0.5-0.4-0.9-0.2c-0.7,0.3-0.3,1.8,0.1,2.7c0.4,0.9,1.1,2.4,2.2,1.8
				c0.5-0.3,0.5-0.8,0.5-1.2c0-0.3-0.1-0.5-0.3-0.8l-0.3,0.1C323.1,830.7,322.9,830.8,322.7,830.8z"/>
			<path class="st7" d="M328.4,827.6c0.2,0.4,0.3,0.5,0.5,0.8l1,1.8c0.1,0.3,0.3,0.5,0.4,0.8c0.1,0.1,0.1,0.3,0.2,0.4
				c0.2-0.1,0.4-0.2,0.6-0.3c0.3-0.1,0.7-0.3,1-0.5c0.6-0.3,1.1-0.5,1.6-0.8c0.6-0.3,1.1-0.6,1.5-0.8c0.4-0.2,0.8-0.4,1-0.5
				c0.2-0.1,0.2,0,0.3,0.2c0.1,0.1,0.1,0.3,0.2,0.5c0.1,0.1,0,0.2-0.2,0.4c-0.1,0-0.2,0.1-0.3,0.1c-0.3,0.1-1,0.4-1.7,0.8
				c-0.4,0.2-0.8,0.4-1.1,0.6c-0.3,0.1-0.5,0.3-0.9,0.5c-0.8,0.4-1.7,0.8-2,1c-0.3,0.2-0.4,0.1-0.5,0c0-0.1-0.1-0.2-0.1-0.3
				c0-0.1,0-0.1-0.1-0.1c-0.1-0.1-0.1-0.2-0.5-0.9c-0.5-0.9-1.2-2.1-1.7-3.1c-0.5-1-1.2-2.6-1.5-3.2c-0.3-0.6-0.9-1.8-1.3-2.3
				c-0.3-0.5,0.6-0.7,1.1-0.9c0.5-0.2,1.7-1,2.5-1.4c0.8-0.4,2.4-1.2,2.7-1.3c0.3-0.2,0.4,0.1,0.5,0.3c0,0,0,0.1,0.1,0.2
				c0.1,0.2,0.2,0.4,0.1,0.4c-0.2,0.1-0.2,0.1-0.5,0.2l-2.5,1.3l-1.9,1c-0.2,0.1-0.5,0.3-0.7,0.4l-0.3,0.2l0.2,0.4
				c0.1,0.2,0.2,0.5,0.4,0.7c0.2,0.4,0.5,0.8,0.7,1.2l0.3,0.6c0.1,0.1,0.1,0.2,0.2,0.4c0.1-0.1,0.3-0.1,0.4-0.2l0.6-0.3
				c0.3-0.1,0.6-0.4,1-0.6c0.5-0.3,1-0.5,1.2-0.6c0.2-0.1,0.4-0.3,0.8-0.5c0.3-0.1,0.8-0.3,1.1-0.5c0.1,0,0.2-0.1,0.2-0.1
				c0,0,0.1,0,0.1-0.1c0.2-0.1,0.3,0,0.3,0.1c0,0.1,0.2,0.4,0.3,0.6c0.1,0.1,0.1,0.2-0.1,0.3c-0.2,0.1-1.6,0.6-2.2,0.9
				c-0.6,0.3-1.3,0.7-1.9,1c-0.3,0.2-0.6,0.4-0.9,0.5c-0.2,0.1-0.3,0.1-0.4,0.2l0.1,0.3C328.2,827.3,328.3,827.5,328.4,827.6z"/>
		</g>
		<g>
			<g>
				<path class="st7" d="M237.4,854.5L218.6,818l39.8-17.4l16,34.7L237.4,854.5z M220.3,818.6l17.7,34.2l34.8-18l-15-32.6
					L220.3,818.6z"/>
			</g>
			<g>
				<polygon class="st7" points="238.9,810.4 218.4,796 219.1,795 238.3,808.4 239.8,789.3 241,789.4 				"/>
			</g>
			<g>
				<polygon class="st7" points="255.8,806.7 225.2,820 239.7,848 268.1,833.3 				"/>
			</g>
		</g>
		<path class="st12" d="M218.4,694.5c1.4-0.7,3.2-0.6,4.1,2.5c0.9,3.1,0.1,4.8-1.2,5.1C220,702.3,217.7,694.8,218.4,694.5z"/>
		<path class="st15" d="M216.5,705c0,0.8,2,11.9,2.8,13.2c0.8,1.3,7.2,0.5,7.9-1.2c1-2.3-0.7-15.1-0.7-15.1L216.5,705z"/>
		<polygon class="st16" points="224.8,704 225.7,714.1 226.7,713.5 226.1,703.7 		"/>
		<path class="st8" d="M221.9,744.4c-1.9,3.5-21.6,0.1-24.9-2c-3.3-2.1-10.5-30.6-9.4-40c1-9.5,8-26.8,21.4-19.6
			C222.4,689.9,230.8,728.1,221.9,744.4z"/>
		<path class="st8" d="M223.6,710.8c2.6,1.7,5.3,1.6,5.4,4.6c0.1,3-4.2,7.2-4.9,6.9C223.3,722.1,222.4,710,223.6,710.8z"/>
		<path class="st15" d="M209,706.8c0,0.8,2.9,13.2,3.9,14.4c1,1.2,11.3-1.4,11.7-3.3c0.4-1.9-0.8-15.3-0.8-15.3L209,706.8z"/>
		<path class="st16" d="M211.9,707.9c0,0.6,2.1,10.2,2.8,11.2c0.7,1,8.2-0.9,8.5-2.4c0.3-1.4-0.6-11.8-0.6-11.8L211.9,707.9z"/>
		<path class="st13" d="M191.2,685.9c-9.4,7.5-5.3,26.2-3.3,29.8c2,3.6,5.8,7.9,5.8,7.9l6.5,0.1
			C200.1,723.8,200.5,678.4,191.2,685.9z"/>
		<polygon class="st15" points="210.8,712.7 188.8,715.3 185.1,721.3 183,719 185.4,712.7 209,706.8 211.8,709.3 		"/>
		<path class="st8" d="M189.5,727.6c-4.8-0.8-5-10.3-3.3-12.8c1.6-2.5,6.9-1.7,9.3,2.5C197.8,721.4,195.2,728.5,189.5,727.6z"/>
		<path class="st17" d="M191.7,725.3c-2.8,0.3-4.4-5-3.9-6.7c0.5-1.7,3.6-2,5.6-0.1C195.4,720.5,195,724.9,191.7,725.3z"/>
		<path class="st8" d="M191.9,726.3c-1.7,0.2-2.8-3.5-2.5-4.6c0.3-1.1,2.1-1.3,3.4,0.1C194.1,723.1,194,726.1,191.9,726.3z"/>
		<path class="st18" d="M209.3,726.5c0,0,0.6,6.6,1.1,7.5c0.5,0.9,9,2.8,9.4,2.5c0.4-0.3,2.8-8.5,2.8-8.8
			C222.6,727.5,209.3,726.5,209.3,726.5z"/>
		<path class="st19" d="M210.4,727c0,0,0.6,5.4,1,6.2c0.4,0.8,7.3,2.6,7.6,2.4c0.3-0.3,1.6-7.4,1.6-7.6
			C220.7,727.8,210.4,727,210.4,727z"/>
		<path class="st18" d="M211.2,733.8l-0.1-2.4l0.8-1.1l3.1,0l-3-0.8l-0.8-1.1l-0.4-1.7l-0.7-0.1
			C210.1,726.8,210.7,732.7,211.2,733.8z"/>
		<path class="st12" d="M208.1,705.1c-1,0-2.6-4.1-2.1-5.2c0.5-1.1,8.1-6,9.7-5.2c1.7,0.8,3.3,5.8,3,6.4
			C218.4,701.9,209,705.1,208.1,705.1z"/>
		<polygon class="st20" points="218.9,706.4 216.1,718.9 221.1,717.5 221.5,705.8 		"/>
		<polygon class="st20" points="216.9,707.2 215,712.7 214.8,707.8 		"/>
	</g>
	<g>
		<g>
			<path class="st21" d="M665.7,997.8L664,998c1.2-21-15-16-15-0.7l-2.3,0.2C646.6,980.6,667,975.6,665.7,997.8z"/>
		</g>
		<g>
			<path class="st22" d="M658.9,997.2l-1.7,0.2c-1.3-22.7-16.9-17.3-15.1-0.8l-2.3,0.3C637.8,978.6,657.6,973.3,658.9,997.2z"/>
		</g>
		<polygon class="st21" points="669.9,995.2 641.4,995.2 638.2,1033.8 676.5,1033.8 		"/>
		<polygon class="st22" points="664.6,995.2 631.9,995.2 628.7,1033.8 667,1033.8 		"/>
		<rect x="967.2" y="841.2" class="st23" width="41.5" height="15.5"/>
		<rect x="982.2" y="852.3" class="st24" width="11.1" height="2.3"/>
		<rect x="986" y="848.9" class="st24" width="7.2" height="2.3"/>
		<rect x="994.8" y="841.2" class="st24" width="21.1" height="15.5"/>
		<rect x="1006.1" y="847.8" class="st25" width="8.4" height="6.2"/>
		<rect x="1007.1" y="848.5" class="st23" width="0.8" height="4.8"/>
		<rect x="1012" y="848.5" class="st23" width="0.8" height="4.8"/>
		<rect x="1008.4" y="848.5" class="st23" width="0.5" height="4.8"/>
		<rect x="1009.3" y="848.5" class="st23" width="0.5" height="4.8"/>
		<rect x="1010.2" y="848.5" class="st23" width="0.5" height="4.8"/>
		<rect x="1011.1" y="848.5" class="st23" width="0.5" height="4.8"/>
		<rect x="1013.4" y="848.5" class="st23" width="0.5" height="4.8"/>
		<g>
			<path class="st26" d="M1138,775.8c-2.3-4.6,11.6-29.6,19.3-55.3c7.8-25.7-6.6-56-26.5-60.7c-19.9-4.6-24.2,6.1-24.2,6.1
				c-35.4-2.1-40.7,30.8-27.9,53.6c0,0-8.2,33.3,13.4,61.3c21.6,28,62.7-0.3,62.7-0.3C1149.1,783.5,1140.4,780.4,1138,775.8z"/>
			<path class="st27" d="M1148.2,671.8c8.6,16.9-35.1-9.5-42.7,33.7c-2.3,12.8-24.8-3.3-32.9-8.5c0.2,7.6,2.4,15.6,6.3,22.6
				c0,0-8.2,33.3,13.4,61.3c21.6,28,62.7-0.3,62.7-0.3c-5.7,2.9-14.5-0.2-16.8-4.7c-2.3-4.6,11.6-29.6,19.3-55.3
				C1162.5,703.3,1157.8,684,1148.2,671.8z"/>
			<path class="st28" d="M1116.3,721.9c-28.6-3.5-32.5,48.2-24.2,58.9c19.6,25.5,55.5,4.3,61.7,0.3c0-0.1,0-0.2,0-0.2
				c-5.7,2.2-18,1.8-20.2-2.5C1129.1,769.4,1143.1,725.2,1116.3,721.9z"/>
			<path class="st29" d="M1080.1,823.8c17.1-9.7,26.7-52.7,18.4-60c-8.3-7.4-13.1,30.9-32.6,49.8
				C1062.5,817,1068.4,830.5,1080.1,823.8z"/>
			<path class="st30" d="M1098.6,763.8c-3.3-2.9-6,1.4-9.4,8.8c-0.3,15.7-8.8,41.1-21.4,48.2c-0.4,0.2-0.8,0.4-1.2,0.6
				c2.3,3.5,7,6.1,13.5,2.4C1097.2,814.1,1106.8,771.2,1098.6,763.8z"/>
			<path class="st31" d="M1087.8,887.1c-2.6-23,6.3-70.9,0-70.9c-14.2,1.2,2.2-47.2,6-51.7c7.3-8.7,43.8-9.3,47,0.3
				c3.2,9.6-13,87.5-8.9,124.6L1087.8,887.1z"/>
			<path class="st32" d="M1140.8,764.9c-1-2.9-7.2,13.6-14,34.4c-5,15.3-26.4,16.2-43.5,14.5c0.9,1.7,2.3,2.6,4.4,2.5
				c1.7,0,2.3,3.6,2.3,9.4c15.3-6.2,32.9,12.3,37.9,39c1.6,8.8,1.7,17.3,0.4,24.7l3.5,0.2C1127.8,852.4,1144,774.5,1140.8,764.9z"/>
			<path class="st33" d="M1125.5,717.4c0,0.7-0.4,42.1-0.4,42.1l-17.8,9.8l-3.1-8.4l6.7-34.8L1125.5,717.4z"/>
			<path class="st29" d="M1139.7,835.3c10.4-18.7,8.8-63.9-0.4-71.6c-9.2-7.6-7.2,47.1-15.4,65.6
				C1121.8,834.1,1135.2,843.6,1139.7,835.3z"/>
			<path class="st30" d="M1140.9,765.6c3.3,17,2.1,44.4-5.4,57.9c-2.2,4-6.6,3.8-10.2,2c-0.4,1.4-0.9,2.7-1.4,3.9
				c-2.1,4.7,11.2,14.2,15.8,6C1149.5,817.8,1148.7,776.8,1140.9,765.6z"/>
			<path class="st31" d="M1122.8,823.2c3.1-5,13.8-7.9,18.5,0.8c4.6,8.7-1.6,17.7-7.7,16.6C1127.6,839.6,1118,830.9,1122.8,823.2z"
				/>
			<path class="st31" d="M1077.8,802.6c3.9,3.9,6.2,20.6-9.2,21.1C1053.1,824.1,1069.5,794.2,1077.8,802.6z"/>
			<path class="st33" d="M1064.8,814.4c0-17.9,11.5-63.1,12.4-65.2c1-2.1-0.2,0,0.4-1.2c0.6-1.2,2.6-2.7,2.2,0.9
				c-0.4,3.5-1.2,58.2-2.2,62.2C1076.6,815.1,1064.8,825.6,1064.8,814.4z"/>
			<path class="st34" d="M1075.2,808.2c-0.7,2.6-6.5,7.5-10.4,7.6c1,9,13,0.3,13.9-3.5c1-4,0.5-59.8,1-63.3
				C1080,746.7,1076.2,804.6,1075.2,808.2z"/>
			<path class="st33" d="M1129.8,833.9c-15.4-3.6-49.7-19.7-51.1-20.9c-1.4-1.2-0.1,0.2-0.8-0.6c-0.7-0.8-0.4-4,2.4-2.9
				c2.9,1.1,51.3,11.8,54.3,13.5C1137.7,824.6,1139.5,836.2,1129.8,833.9z"/>
			<path class="st34" d="M1134.6,823c-0.2-0.1-0.6-0.2-1.1-0.4c0.8,4.2-0.4,9.6-6.8,8.1c-13-3-39.6-16.1-48.6-21
				c-0.8,0.7-0.8,2.3-0.3,2.8c0.7,0.8-0.5-0.7,0.8,0.6c1.4,1.2,36.1,19.1,51.5,22.7C1139.9,837.9,1137.7,824.6,1134.6,823z"/>
			<path class="st11" d="M1105,782.6c20.7,6.6,26.1-17.1,33.4-20.6c-2.8-2-7.7-3.3-13.2-3.8c0.1-5.1,0.3-23.8,0.4-34
				c-2.5-1.4-5.2-2.1-8-1.9l-6.6,3.9l-6.4,33.3c-3.9,0.9-7.2,2.2-9.4,3.9c0,0-0.1,0.1-0.1,0.1c-0.1,0.1-0.2,0.1-0.3,0.2
				c-0.1,0.1-0.3,0.2-0.4,0.3c-0.1,0.1-0.2,0.2-0.3,0.3c-0.1,0.1-0.2,0.3-0.4,0.4c-0.1,0.1-0.2,0.2-0.3,0.3
				c-0.2,0.2-0.3,0.4-0.5,0.6c-0.2,0.2-0.3,0.5-0.5,0.7c0,0.1-0.1,0.1-0.1,0.2C1093.5,774.3,1097.8,780.3,1105,782.6z"/>
			<path class="st33" d="M1081.5,717.3c0.4-18.6,5.9-35.1,19-33.2c13.1,1.8,29,21.5,26.9,38.7c-3.4,28.4-30.7,36.2-30.7,36.2
				S1080.9,744.3,1081.5,717.3z"/>
			<path class="st27" d="M1121.5,733.9c-9.5-18.7-4-41-13.2-49c-9.2-8,7.9-16.3,19-2.3C1143.6,703.4,1121.5,733.9,1121.5,733.9z"/>
			<path class="st33" d="M1121.6,725.9c2.6-10.6,11.9-13.5,13.7-7.1c1.8,6.4-10.3,16.5-11.9,17.2
				C1121.8,736.7,1120.6,730,1121.6,725.9z"/>
			<path class="st26" d="M1127.9,688.7c1.7-4.2-3.1-11.3-10.9-15.7c-7.7-4.4-15.4-4.6-17.2-0.4c-1.7,4.2,3.1,11.3,10.9,15.7
				C1118.5,692.8,1126.2,692.9,1127.9,688.7z"/>
			<path class="st35" d="M1124.4,725.9c1.5-6.2,7-7.9,8-4.2c1.1,3.8-6,9.7-7,10.1C1124.5,732.2,1123.8,728.3,1124.4,725.9z"/>
			<path class="st33" d="M1124,728.9c1-4.1,4.6-5.2,5.3-2.8c0.7,2.5-4,6.4-4.6,6.7C1124.1,733,1123.6,730.4,1124,728.9z"/>
			<g>
				<path class="st33" d="M1077.4,761.7c0.8-4.9,5-10.4,4.6-13.4c-0.3-2.3-6.4-5.2-7.5-4.1c-1.2,1,0.5,15.3,0.5,15.3L1077.4,761.7z"
					/>
				<path class="st33" d="M1074.3,753.9c-1.4-3.2-5.5-7.8-6.1-8.8c-0.6-1,0.7-1.5,3.1,0.7c2.4,2.2,2.4,3.4,3.9,2.9
					C1076.9,748.3,1075,755.5,1074.3,753.9z"/>
				<path class="st33" d="M1076.8,746.3c-0.4-3-1.4-10.2-2.4-10.2c-1,0-0.1,10.6-0.1,10.6L1076.8,746.3z"/>
				<path class="st33" d="M1079.2,746.9c0.3-2.8,1.2-9.5,0.2-9.6c-1-0.1-2.7,9.6-2.7,9.6L1079.2,746.9z"/>
				<path class="st33" d="M1081.8,750.2c1-2.6,3.3-8.8,2.4-9.2c-0.9-0.3-4.8,8.7-4.8,8.7L1081.8,750.2z"/>
			</g>
			<g>
				<path class="st33" d="M1087.7,813.6c-4.8-0.5-11.3,2-13.9,1c-2.1-0.8-2.7-6.8-1.4-7.6c1.3-0.8,14,4,14,4L1087.7,813.6z"/>
				<path class="st33" d="M1081.5,809.1c-2.5-2-5.4-6.6-6.1-7.3s-1.6,0.3-0.4,2.8c1.2,2.6,2.3,2.9,1.4,4.1
					C1075.5,810.1,1082.7,810.1,1081.5,809.1z"/>
				<path class="st33" d="M1073.6,809.6c-2.7-1.1-9-3.6-8.7-4.4c0.3-0.9,9.9,2.4,9.9,2.4L1073.6,809.6z"/>
				<path class="st33" d="M1073.4,811.8c-2.7-0.4-9.2-1.2-9-2.1s9.8-0.1,9.8-0.1L1073.4,811.8z"/>
				<path class="st33" d="M1075.6,814.8c-2.8,0.2-9.3,0.8-9.3,0c0-0.9,9.6-2.2,9.6-2.2L1075.6,814.8z"/>
			</g>
		</g>
		<path class="st36" d="M821.5,745.9c15.4,19.2,33.7,68.8,35.2,73.4c1.5,4.6-20.1,34.5-25,34.8c-4.9,0.3-27.2-21.4-27.2-28.4
			S816,739,821.5,745.9z"/>
		<path class="st37" d="M851.9,806.5c-3.3,6.9-12.4,17-18,17.6c-6.4,0.7-5.8-55.4-10.1-69.7c-8.1,22.5-19.3,66.9-19.3,71.2
			c0,7,22.3,28.7,27.2,28.4c4.9-0.3,26.6-30.2,25-34.8C856.2,818,855,811.7,851.9,806.5z"/>
		<path class="st38" d="M793.9,857.6l-73.7-12.4c-9.6,68.7,11,185.9,11,185.9l1.8-0.2l18.9-118.9l9.6,4.1l36.1,114.5h2.5
			C793.4,962.1,791.1,885.8,793.9,857.6z"/>
		<path class="st39" d="M793.9,857.6l-73.7-12.4c-1.5,10.9-2.3,23.1-2.5,35.9c0.9-0.8,1.8-1.2,2.8-1.2c9,0,19,24,19,68.7
			c0,28.4-4.1,58.2-9.3,76.3c0.7,4,1.1,6.3,1.1,6.3l1.8-0.2l18.9-118.9l9.6,4.1l36.1,114.5h2.5C793.4,962.1,791.1,885.8,793.9,857.6
			z"/>
		<path class="st36" d="M716.2,864.6c0,8.7,74.5,24.1,78.2,18.6c6-9,36.2-107.7,32.9-125.6c-4.1-22.2-23.2-41.7-51.8-35.5
			C763.1,724.7,716.2,752.8,716.2,864.6z"/>
		<path class="st37" d="M773.8,727.7c-8.3,1.8-30.8,9.5-45.5,52.4c9.3,8.8,17.6,27.6,21.1,50.3c2.9,18.5,2,35.6-1.8,47.3
			c20.9,5.1,47.9,9,49.9,6c3.4-5,15.3-38,27.3-68.8C782.7,874.1,773.8,727.7,773.8,727.7z"/>
		<path class="st33" d="M842.6,859.7c25.3,0,61.2-35.5,61.7-37.7c0.4-2.2-5.9-19.1-11.8-18.8c-2.3,0.1-24.4,11.4-37.4,12.1
			C852.6,815.5,836.1,859.7,842.6,859.7z"/>
		<path class="st34" d="M893.8,803c4.5,8.2-26.3,37.9-33.1,11.6c-2,0.4-3.9,0.7-5.6,0.8c-2.5,0.1-19.1,44.3-12.5,44.3
			c25.3,0,61.2-35.5,61.7-37.7C904.7,819.8,899.6,802.7,893.8,803z"/>
		<path class="st40" d="M855,811.7c1.3-1.3,3.6-1.8,3.6,1.6c0,3.4-13.3,45.9-16.2,47.6c-2.9,1.7-20-8.2-20.1-11.8
			C822.2,845.7,853.8,813,855,811.7z"/>
		<polygon class="st41" points="1060.6,809 1052.9,810 1052.6,829.4 1065.2,829.4 		"/>
		<polygon class="st42" points="1093.2,795 1020.1,798.1 1021.1,815.9 1093.6,813.4 		"/>
		<polygon class="st43" points="1046,814.9 1072,814.1 1061.5,796.3 1036,797.4 		"/>
		<polygon class="st41" points="1093.2,795 1089.3,795.2 1090.2,812.5 1021,815.5 1021.2,816.7 1094.3,814 		"/>
		<polygon class="st41" points="1093.2,795 1080.8,795.5 1086.3,813.5 1094,812.6 		"/>
		<polygon class="st42" points="1138.3,891.7 1124.3,868.7 1108.2,853.7 1096.8,818.6 1022.6,821.2 1017,891.6 1120.6,891.7 
			1120.6,891.7 		"/>
		<polygon class="st43" points="1022.6,821.2 1020.8,843.9 1046.4,891.6 1099.6,891.7 1061.1,819.8 		"/>
		<polygon class="st41" points="1095.7,821.3 1107.2,856.5 1123.3,871.5 1135.5,891.7 1138.3,891.7 1124.3,868.7 1108.2,853.7 
			1097.4,817.9 1022.6,820.6 1022.5,821.7 		"/>
		<polygon class="st41" points="1138.3,891.7 1124.3,868.7 1108.2,853.7 1096.8,818.6 1087.6,818.9 1092.2,891.6 1120.6,891.7 
			1120.6,891.7 		"/>
		<polygon class="st41" points="1035.5,857.3 1019.3,857.3 1019.3,886.2 1044.3,886.2 		"/>
		<g>
			<rect x="969.7" y="855.7" class="st44" width="52.2" height="30.9"/>
			<rect x="1004.5" y="855.7" class="st45" width="26.6" height="30.9"/>
			<polygon class="st46" points="1031,855.7 1004.5,855.7 1017.5,871.6 			"/>
			<polygon class="st47" points="1004.5,855.7 969.7,855.7 984.8,872.7 			"/>
		</g>
		<rect x="895.2" y="775.7" class="st48" width="83.9" height="111.8"/>
		<rect x="941.1" y="781.6" class="st49" width="33.5" height="11.7"/>
		<rect x="892.7" y="775.7" class="st50" width="44.2" height="111.8"/>
		<path class="st49" d="M892.7,775.7v3.5c14.8,2.9,31,30.3,37.9,65.7c3,15.5,3.7,30.2,2.6,42.5h3.8V775.7H892.7z"/>
		<polygon class="st51" points="904.9,823.4 810.1,836.1 811.7,887.5 904.9,887.5 		"/>
		<g>
			<polygon class="st22" points="877.2,827.1 861.1,886 863.4,887.5 867.7,887.5 884.6,826.1 			"/>
			<polygon class="st22" points="895.9,824.6 880.2,887.5 887.2,887.5 903.2,823.6 			"/>
			<polygon class="st22" points="904.9,847.2 894.9,887.5 901.9,887.5 904.9,875.4 			"/>
		</g>
		<polygon class="st21" points="868.6,828.3 805,836.4 802.9,887.5 864.8,887.5 		"/>
		<g>
			<polygon class="st52" points="843,831.5 822.1,887.5 836,887.5 865.5,828.7 			"/>
			<polygon class="st52" points="811.3,835.6 804.1,856.8 802.9,887.5 807.3,887.5 832.4,832.9 			"/>
			<polygon class="st52" points="805,836.4 804.8,840.6 863,833.1 863.7,887.5 864.8,887.5 868.6,828.3 			"/>
		</g>
		<polygon class="st53" points="1145.8,894.8 801.4,894.8 797.8,1032.2 1151.3,1032.2 		"/>
		<g>
			<polygon class="st54" points="1099.8,1032.2 1151.3,1032.2 1145.8,894.8 1099.8,894.8 			"/>
			<polygon class="st54" points="837,894.8 801.4,894.8 797.8,1032.2 837,1032.2 			"/>
			<polygon class="st55" points="1147.6,1032.2 1152.5,1032.2 1147.5,894.8 1143.1,894.8 			"/>
			<polygon class="st55" points="802.9,894.8 798.2,894.8 794.6,1031.2 799.8,1031.2 			"/>
		</g>
		<rect x="821" y="894.3" class="st54" width="298.8" height="26.7"/>
		<polygon class="st56" points="1082.8,894.8 967.5,894.8 864.7,1031.4 983.1,1031.4 		"/>
		<path class="st33" d="M813,876.9c2.4,4.8,12.2,4.9,13,6.6c0.9,1.6,1,4.2-0.6,4.9c-1.5,0.7-12.4-0.4-15.6-0.8
			C808.5,887.4,811.9,874.7,813,876.9z"/>
		<path class="st57" d="M1160.9,896.7c0-6.3-5.1-11.4-11.4-11.4l-385.8,0c-6.2,0-11.2,5-11.2,11.2c0,6.4,5.2,11.7,11.7,11.7l385.3,0
			C1155.8,908.1,1160.9,903,1160.9,896.7z"/>
		<path class="st58" d="M1152.1,896.7c0-3.1-4.9-5.6-11-5.6H771.9c-5.9,0-10.7,2.5-10.7,5.5c0,3.2,5,5.7,11.2,5.7h368.8
			C1147.2,902.3,1152.1,899.8,1152.1,896.7z"/>
		<path class="st59" d="M1142.1,896.7c0,3.3,2.7,6,6,6c3.3,0,6-2.7,6-6c0-3.3-2.7-6-6-6C1144.8,890.7,1142.1,893.4,1142.1,896.7z"/>
		<path class="st59" d="M759.7,896.7c0,3.3,2.7,6,6,6c3.3,0,6-2.7,6-6c0-3.3-2.7-6-6-6C762.4,890.7,759.7,893.4,759.7,896.7z"/>
		<path class="st33" d="M801.1,799.3c8.5,26.4,5.3,73.7,13.9,79.8c1.9,1.3-27.7,11.1-28.4,5.2c-1.7-14.9-22.7-55.6-22.7-58.1
			C763.9,823.7,799.1,793.1,801.1,799.3z"/>
		<path class="st34" d="M784.4,863.5c0-23.3,7.6-42.2,16.9-42.2c1.6,0,3.2,0.6,4.6,1.6c-1.7-9.8-3.4-18.5-4.8-23.7
			c-1.8-6.3-37.2,24.4-37.2,26.9c0,2.3,17.2,35.9,21.7,53.3C784.9,874.6,784.4,869.2,784.4,863.5z"/>
		<path class="st36" d="M784.4,725c18.4,19.4,17,69.5,18,74.2c0.9,4.7-32.9,26.4-37.8,26.1c-4.9-0.3-26.5-43-27.4-50
			C733,743.2,775.7,715.8,784.4,725z"/>
		<path class="st40" d="M808.8,754.5l-31.5-32.8c0,0,10.8-4.7,17-3.8c6.3,0.9,19,23.9,19,23.9L808.8,754.5z"/>
		<path class="st37" d="M801.5,783.5c-1.4,8.9-8.5,15.2-32.3,21.5c-14.7,3.9-27.7-20.4-29.6-48.1c-2.2,5.8-3.3,12-2.5,18.4
			c0.9,7,22.5,49.7,27.4,50c4.9,0.3,38.7-21.4,37.8-26.1C802.1,797.7,802,791.6,801.5,783.5z"/>
		<path class="st40" d="M803.3,796c1.9-0.7,3.7,11,2.1,14.2c-1.6,3.1-35.5,26.8-38.9,27.1c-3.4,0.2-11.7-17.4-10.3-20.6
			C757.6,813.4,801.5,796.6,803.3,796z"/>
		<polygon class="st59" points="1154,1027 788.2,1027 784.3,1033.7 1159.8,1033.7 		"/>
		<g>
			<path class="st3" d="M714.7,981l-2.4,0.2c3.5-30.9-19.2-23.6-20.5-1l-3.2,0.3C689.9,955.7,718.4,948.4,714.7,981z"/>
		</g>
		<g>
			<path class="st2" d="M705.3,980.1l-2.4,0.3c0.3-33.3-21.7-25.4-20.6-1.1l-3.2,0.4C678,952.8,705.7,944.9,705.3,980.1z"/>
		</g>
		<polygon class="st3" points="720.7,977.1 681.4,977.1 673.6,1033.8 726.3,1033.8 		"/>
		<polygon class="st2" points="715.7,977.1 670.8,977.1 663,1033.8 715.7,1033.8 		"/>
		<path class="st14" d="M735.2,1033.7h-10.3c0,0,5.4-6,7.2-6.3C733.7,1027.2,735.2,1033.7,735.2,1033.7z"/>
		<g>
			<path class="st59" d="M1149.4,909.5H764.1c-7.2,0-13.1-5.9-13.1-13.1c0-7,5.7-12.6,12.6-12.6h385.8c7.1,0,12.8,5.8,12.8,12.8
				C1162.3,903.8,1156.5,909.5,1149.4,909.5z M763.6,886.6c-5.4,0-9.8,4.4-9.8,9.8c0,5.7,4.6,10.3,10.3,10.3h385.3
				c5.5,0,10.1-4.5,10.1-10.1c0-5.5-4.5-10.1-10.1-10.1L763.6,886.6z"/>
		</g>
		<path class="st33" d="M786.1,882.4c-0.4,6,0.5,12.4,1.8,13.5c1.4,1.1,3.8,1.6,4.8,0.4c1-1.3,1.9-11.5,2.2-14.6
			C795,880.4,786.3,880,786.1,882.4z"/>
		<path class="st33" d="M794.9,883c-0.4,7,0.5,14.4,1.8,15.7c1.4,1.3,3.8,1.9,4.8,0.4c1-1.5,1.9-13.4,2.2-17
			C803.8,880.7,795,880.3,794.9,883z"/>
		<path class="st33" d="M812.3,882.9c0.4,6.4-0.5,13.2-1.9,14.3c-1.4,1.2-3.9,1.7-4.9,0.4c-1-1.4-2-12.3-2.3-15.5
			C803.2,880.7,812.2,880.3,812.3,882.9z"/>
		<path class="st60" d="M818,896.7c0,1.9,1.5,3.4,3.4,3.4c1.9,0,3.4-1.5,3.4-3.4c0-1.9-1.5-3.4-3.4-3.4
			C819.5,893.3,818,894.8,818,896.7z"/>
		<path class="st60" d="M841.3,896.7c0,1.9,1.5,3.4,3.4,3.4c1.9,0,3.4-1.5,3.4-3.4c0-1.9-1.5-3.4-3.4-3.4
			C842.9,893.3,841.3,894.8,841.3,896.7z"/>
		<path class="st60" d="M864.7,896.7c0,1.9,1.5,3.4,3.4,3.4c1.9,0,3.4-1.5,3.4-3.4c0-1.9-1.5-3.4-3.4-3.4
			C866.2,893.3,864.7,894.8,864.7,896.7z"/>
		<path class="st60" d="M888,896.7c0,1.9,1.5,3.4,3.4,3.4c1.9,0,3.4-1.5,3.4-3.4c0-1.9-1.5-3.4-3.4-3.4
			C889.6,893.3,888,894.8,888,896.7z"/>
		<path class="st60" d="M911.4,896.7c0,1.9,1.5,3.4,3.4,3.4s3.4-1.5,3.4-3.4c0-1.9-1.5-3.4-3.4-3.4S911.4,894.8,911.4,896.7z"/>
		<circle class="st60" cx="938.1" cy="896.7" r="3.4"/>
		<circle class="st60" cx="961.5" cy="896.7" r="3.4"/>
		<path class="st60" d="M981.5,896.7c0,1.9,1.5,3.4,3.4,3.4c1.9,0,3.4-1.5,3.4-3.4c0-1.9-1.5-3.4-3.4-3.4
			C983,893.3,981.5,894.8,981.5,896.7z"/>
		<path class="st60" d="M1004.8,896.7c0,1.9,1.5,3.4,3.4,3.4c1.9,0,3.4-1.5,3.4-3.4c0-1.9-1.5-3.4-3.4-3.4
			C1006.3,893.3,1004.8,894.8,1004.8,896.7z"/>
		<path class="st60" d="M1028.2,896.7c0,1.9,1.5,3.4,3.4,3.4c1.9,0,3.4-1.5,3.4-3.4c0-1.9-1.5-3.4-3.4-3.4
			C1029.7,893.3,1028.2,894.8,1028.2,896.7z"/>
		<circle class="st60" cx="1054.9" cy="896.7" r="3.4"/>
		<circle class="st60" cx="1078.2" cy="896.7" r="3.4"/>
		<path class="st60" d="M1098.2,896.7c0,1.9,1.5,3.4,3.4,3.4c1.9,0,3.4-1.5,3.4-3.4c0-1.9-1.5-3.4-3.4-3.4
			C1099.7,893.3,1098.2,894.8,1098.2,896.7z"/>
		<path class="st60" d="M1121.6,896.7c0,1.9,1.5,3.4,3.4,3.4c1.9,0,3.4-1.5,3.4-3.4c0-1.9-1.5-3.4-3.4-3.4
			C1123.1,893.3,1121.6,894.8,1121.6,896.7z"/>
		<circle class="st58" cx="1148.1" cy="896.7" r="3.4"/>
		<path class="st58" d="M762.4,896.7c0,1.8,1.5,3.3,3.3,3.3s3.3-1.5,3.3-3.3c0-1.8-1.5-3.3-3.3-3.3S762.4,894.9,762.4,896.7z"/>
		<path class="st60" d="M1159.4,897.6c-0.5,5.1-4.8,9.1-10,9.1H764.1c-5.3,0-9.6-4-10.2-9.1h-2.8c0.6,6.7,6.2,11.9,13,11.9h385.3
			c6.8,0,12.3-5.3,12.8-11.9H1159.4z"/>
		<path class="st61" d="M796.7,711.5c9.7-24.8,17.7-43.5,21.3-46.1c3.7-2.6,33.3,6.6,35.8,23.8C856.2,706.6,796.7,711.5,796.7,711.5
			z"/>
		<polygon class="st33" points="782.4,721.1 811.5,697.3 836.2,715.3 823.1,734.9 808.3,749.4 		"/>
		<path class="st11" d="M806.9,771.2c9-0.1,16.5-8.1,19.5-18.4c-0.1-0.2-0.3-0.5-0.4-0.7c-1.5-4.8-3.7-9.4-6.6-13.6l3.7-3.6
			l6.9-10.2c0.1-5.4,0-10.3-0.2-14l-18.3-13.3L784.9,719c-4.2,1.2-7.6,2.7-7.6,2.7l0,0c-0.6,0.1-1.2,0.2-1.8,0.4
			c-2.7,0.6-7.2,2.5-12.5,6.2c12.2,1.5,24,17,34.2,28.8c1.5,1.7,2.7,9.4,3.7,11.5C802.9,770.2,804.9,771.2,806.9,771.2z"/>
		<path class="st62" d="M815.3,685.7c7.8-16.6,25.9-28.5,44.1-20.7c18.3,7.8,15.9,25.4,9,22.2c0,0,1,22.4-6.1,18.8
			c-7.1-3.7-10.7-13.9-10.7-13.9L815.3,685.7z"/>
		<path class="st33" d="M820.6,748.2c-6.5-5.1-20-27-20-27s19.4-43,26.5-45.8c6.8-2.7,24.7,7.4,28.3,16.8
			C859,701.5,841.4,730.2,820.6,748.2z"/>
		<path class="st62" d="M818,712.2c17.9-22.7,24.7-28.4,22.2-37.3c-2.5-8.9-16.7-8-20.8,0c-4.1,8-12.1,31.1-12.1,31.1L818,712.2z"/>
		<path class="st61" d="M830.7,667.8c-5.1-1.2-11.2,2.4-13.2,6.3c-4.1,8-10.3,31.9-10.3,31.9l10.7,6.2c6.1-7.7,10.8-13.4,14.4-18
			C828.2,690.5,824.8,679.1,830.7,667.8z"/>
		<path class="st33" d="M811.8,712.4c4.8-5.5,7.6-17.6,0.9-19.5c-6.6-1.8-9.4,7.8-8.7,13.3C804.7,711.8,809,715.6,811.8,712.4z"/>
		<path class="st35" d="M810.9,708.7c3-3.5,4.8-11.2,0.6-12.3c-4.2-1.2-5.9,4.9-5.5,8.4C806.4,708.3,809.1,710.7,810.9,708.7z"/>
		<path class="st33" d="M810.4,710.2c2-2.3,3.1-7.3,0.4-8.1c-2.8-0.8-3.9,3.2-3.6,5.5C807.5,709.9,809.3,711.5,810.4,710.2z"/>
		<polygon class="st22" points="861.4,836.4 830.9,838.8 830.9,848.4 861.3,847.2 		"/>
		<polygon class="st22" points="861.4,849.9 841.4,851.3 841.5,854.7 861.3,853.7 		"/>
		<rect x="942.1" y="782.6" class="st48" width="31.5" height="9.8"/>
		<rect x="941.1" y="795.8" class="st49" width="33.5" height="9"/>
		<rect x="942.7" y="796.8" class="st48" width="30.3" height="6.9"/>
		<path class="st50" d="M965.3,840.9c0-4.1-3.4-7.5-7.5-7.5c-4.1,0-7.5,3.4-7.5,7.5c0,4.1,3.4,7.5,7.5,7.5
			C962,848.4,965.3,845,965.3,840.9z"/>
		<path class="st48" d="M963.1,840.9c0-2.9-2.4-5.3-5.3-5.3c-2.9,0-5.3,2.4-5.3,5.3c0,2.9,2.4,5.3,5.3,5.3
			C960.8,846.2,963.1,843.8,963.1,840.9z"/>
		<polygon class="st63" points="1077.2,798.9 1021.7,801.2 1022.1,809.2 1077.7,806.9 		"/>
		<path class="st33" d="M883.1,807c1.8-1.4,5-12.3,6.3-13.1c1.3-0.8,7.4-2.3,8-1.6c0.6,0.6,0.2,3-0.2,3.5c-0.4,0.5-4.3,1.4-4.4,2
			c0,0.6,0,9.4-0.6,10.2C891.6,808.7,881.3,808.3,883.1,807z"/>
		<path class="st62" d="M847.7,717.6c2,1.7,6.7-5.6,4.4-7.6C849.7,708,845,715.2,847.7,717.6z"/>
		<path class="st62" d="M842.5,711.8c2,1.7,6.7-5.6,4.4-7.6c-0.6-0.5-6.6-2.6-7.3-2.2c-1.6,0.9-3.3,3.7-3.2,5.8
			C836.4,708.5,841.9,711.3,842.5,711.8z"/>
		<path class="st35" d="M831.7,730.4c2.6,1.3,8.5,4.1,9.3,3.6s4.6-20.1,4.6-20.1L831.7,730.4z"/>
		<path class="st33" d="M830.5,728.8c2.6,1.3,8.5,4.1,9.3,3.6c0.8-0.5,4.6-20.1,4.6-20.1L830.5,728.8z"/>
		<g>
			<path class="st35" d="M828.5,734.8c-0.4-0.4-10.4-10.5-5.1-19l1.2,0.7c-4.8,7.5,4.1,17.9,4.1,18L828.5,734.8z"/>
		</g>
		<path class="st64" d="M838,714.9c1.2-1.5,1.5-3.3,0.7-4c-0.8-0.7-2.5,0.1-3.7,1.6c-1.2,1.5-1.5,3.3-0.7,4
			C835.1,717.2,836.8,716.4,838,714.9z"/>
		<g>
			<path class="st35" d="M1093.7,725.1c0.4-0.5,0.9-0.4,1.3,0.1c-2.3,2.7-4.3,7.2,1.1,7c-0.2,0.2-0.4,0.3-0.6,0.3
				C1088.3,733.3,1091.1,727.8,1093.7,725.1z"/>
			<path class="st65" d="M1100.2,714.9c0-3.3,1.5-5.8,3.4-5.6c1.9,0.2,3.4,3.1,3.4,6.4c0,3.3-1.5,5.8-3.4,5.6
				C1101.7,721.1,1100.2,718.2,1100.2,714.9z"/>
			<path class="st65" d="M1084,716c-0.1-3.2,1.2-5.7,2.9-5.5c1.7,0.2,3.3,2.9,3.4,6.1c0.1,3.2-1.1,5.7-2.9,5.5
				C1085.7,721.9,1084.2,719.2,1084,716z"/>
			<path class="st65" d="M1110.5,715c-2.5-3.4-7.8-5.7-11.4-4.9c0,0,1-2.8,5.6-1.4C1108.4,710,1110.5,715,1110.5,715z"/>
			<path class="st26" d="M1114.9,711.5c-4.2-6.1-13.4-10.7-19.9-9.5c0,0,2-4.9,10.1-1.9C1111.6,702.5,1114.9,711.5,1114.9,711.5z"/>
			<path class="st65" d="M1082.5,715.4c1.3-3.1,5.2-5,8.4-4c0,0-1.9-2.5-5.4-1.5C1083,710.6,1082.5,715.4,1082.5,715.4z"/>
			<path class="st26" d="M1079.4,709.3c1.2-5.1,7-8.9,12.5-8.2c0,0-3.9-3.3-9.3-0.9C1078.9,702,1079.4,709.3,1079.4,709.3z"/>
			<path class="st66" d="M1103.6,736.8l-13.2,1.9c0,0,2.5,9.9,7.2,9.8C1102.9,748.4,1103.6,736.8,1103.6,736.8z"/>
			<path class="st67" d="M1093.7,742.4c-0.8-1.7-1.2-3.3-1.2-3.3l10.2-1.5c0,0-0.1,1.7-0.5,3.6L1093.7,742.4z"/>
		</g>
	</g>
	<g>
		<polygon class="st33" points="345.3,897.7 366.8,881.3 368,882.5 347.5,903.4 		"/>
		<polygon class="st34" points="366.8,881.3 359.3,887 359.8,887.5 351,896.7 350,894.1 345.3,897.7 347.5,903.4 368,882.5 		"/>
		<path class="st68" d="M326.5,907.4l21.1-12.7l12.6,16.6c0,0-15.4,9.8-22.2,8.8C331.1,919.3,322.6,911.2,326.5,907.4z"/>
		<path class="st69" d="M355.5,905.1c-4.8,2.8-14.4,7.8-19.3,7.1c-3.2-0.5-6.9-2.5-9.4-5l-0.3,0.2c-3.9,3.7,4.6,11.9,11.5,12.8
			c6.8,1,22.2-8.8,22.2-8.8L355.5,905.1z"/>
		<path class="st70" d="M307,838.1c-3.2,1.2-4.8-14.9-15.5-12.1c-10.6,2.8-16.5,10.3-11.6,15c0,0-38.8,30.2-18.8,56.5
			c9,11.8,20.1,6.5,20.1,6.5s0.4,15.1,14.1,15.2c5.2,0,10.2-5.2,10.2-5.2s1.3,3.9,7.1,3.4c5.9-0.5,3-10.8,3-10.8s10.3,4.7,10.1-5.7
			c-0.2-10.2,1.4-48.4,1.4-48.4C326.4,836.9,320.8,833,307,838.1z"/>
		<path class="st71" d="M327.2,852.4c-0.1-1.1-0.1-2.1-0.2-3c-16-9.1-44.1,14.2-60.2,4.8c-9,11.2-17.4,27.9-5.7,43.3
			c9,11.8,20.1,6.5,20.1,6.5s0.4,15.1,14.1,15.2c5.2,0,10.2-5.2,10.2-5.2s1.3,3.9,7.1,3.4c5.9-0.5,3-10.8,3-10.8s10.3,4.7,10.1-5.7
			C325.6,890.6,327.2,852.4,327.2,852.4z"/>
		<polygon class="st33" points="333.4,991.4 331.2,997 298.8,1001.8 298.4,1004 335.6,1003.8 349.7,983.3 		"/>
		<path class="st34" d="M333.4,991.4l-2.2,5.6l-15.5,2.3c2.9,1.3,5.4,2.8,7.3,4.5l12.7-0.1l14.2-20.5L333.4,991.4z"/>
		<polygon class="st33" points="384.2,960.2 389.7,958 416,978.9 417.8,977.7 391.2,950.2 367,953.6 		"/>
		<path class="st34" d="M394.3,953.4l-3.1-3.2l-24.2,3.4l17.2,6.6l5.5-2.2l6.6,5.2C395.3,959.9,394.7,956.5,394.3,953.4z"/>
		<polygon class="st72" points="362.5,949.6 359.5,973.6 346.8,1003.4 323.7,990.9 332.8,975.6 335.9,956.7 		"/>
		<path class="st73" d="M355.5,982.9l4-9.3l3-23.9l-26.6,7l-3.1,18.9l-9.1,15.3l7.9,4.3C336.3,986.4,349.1,981.3,355.5,982.9z"/>
		<path class="st72" d="M335.9,956.7c3.5,15.5,13.1,22.4,20.8,23.9l28.7-6.3l3.5-26.3l-25.3,2.7l-2.1-4.7L335.9,956.7z"/>
		<path class="st73" d="M379.3,969.7c-14.3,3.5-27.2,1.2-28.8-5.2c-1.2-4.8,4.1-10.4,12.8-14.5l-1.7-4l-27.1,11.3
			c3.5,15.5,13.2,23.3,21.8,24l29.2-7l0.9-6.8C384.1,968.3,381.8,969.1,379.3,969.7z"/>
		<path class="st68" d="M321.1,916.7c-0.5,5.4,7.9,55.1,7.9,55.1l34.4-25.2c0,0-16.7-41.4-32.3-41
			C324.9,905.7,321.8,909.4,321.1,916.7z"/>
		<path class="st69" d="M339.5,933.2c-6.6-14.5-17.8-23.7-18.4-16.5c-0.5,5.4,7.9,55.1,7.9,55.1l18.2-13.4
			C343.8,953.8,342.4,939.4,339.5,933.2z"/>
		<path class="st74" d="M405,849.6l-35.5,6.3l-16.6,5.6l25.5,46.4l44.3-16.3l-13.2-41.8C407.9,850.5,406.4,850.3,405,849.6z"/>
		<path class="st75" d="M405,849.6l-35.5,6.3l53.2,35.7l-13.2-41.8C407.9,850.5,406.4,850.3,405,849.6z"/>
		<polygon class="st76" points="385.9,901.1 369.8,855.8 352.8,861.6 370.8,912 406.2,899.9 423.1,891.6 		"/>
		<polygon class="st33" points="348.9,903.1 377.8,888.4 379.1,890.1 350.4,910.2 		"/>
		<polygon class="st34" points="355.2,903.5 352.4,901.3 348.9,903.1 350.4,910.2 379.1,890.1 378.8,889.9 		"/>
		<path class="st77" d="M305.6,914.7c-4.3,16.4-26.1,49.9-19.9,56.8s25.8,6.4,36.4-3.3c2.2-2-3.1-52.8-5.9-56.3
			C313.4,908.3,308.1,905.1,305.6,914.7z"/>
		<path class="st78" d="M316.2,911.8c-1.1-1.3-2.5-2.6-4-3.2c1.8,7.3,2.3,16.5,1.1,26.4c-2.8,22-13.1,38.8-23,37.6
			c-1.9-0.2-3.7-1.1-5.3-2.6c0.2,0.5,0.4,1,0.8,1.4c6.2,6.8,25.8,6.4,36.4-3.3C324.3,966.2,319.1,915.3,316.2,911.8z"/>
		<polygon class="st34" points="328.5,893.9 335.5,906.7 323.6,908 319.8,901.1 		"/>
		<path class="st78" d="M340.4,913.4c-2.2-10.9-10.5-15.3-26.3-2.5l1.3,6.3c0,0,15.1-15.1,20.4-2.7c6,13.9-15.2,44.7-15.2,44.7
			l0.4,1.2C336.4,941.6,342.3,922.9,340.4,913.4z"/>
		<path class="st68" d="M323.6,911.2l25.8-9l10.5,18.5c0,0-19,7.1-26.3,5C326.3,923.6,318.6,914.2,323.6,911.2z"/>
		<path class="st69" d="M356.5,914.7c-4.7,1.7-18.6,6.1-24.6,4.4c-3.6-1-7.2-3.8-9.5-6.7c-2.1,3.8,4.3,13.6,10.8,15.5
			c7.3,2.1,26.8-7.2,26.8-7.2L356.5,914.7z"/>
		<path class="st79" d="M417.4,982l13.1-10c0,0-14.4,2.2-15.5,4.4C413.9,978.5,417.4,982,417.4,982z"/>
		<path class="st79" d="M296.9,999l-5.9,15.4c0,0,11-9.4,10.9-11.9C301.7,1000.1,296.9,999,296.9,999z"/>
		<path class="st33" d="M295,872.9c-0.4,15.8,15,37.2,29.4,30.1c36.7-18.1,25.8-33,2.3-53C306.7,832.9,295.3,862.7,295,872.9z"/>
		<path class="st34" d="M300.6,855.7c-4.4,6.4-6.5,14.4-6.6,19c-0.4,15.8,9.6,35.5,29.5,29.3c7.1-2.2,14.2-6.3,17.4-12.7
			C315.3,916.8,294.7,867.1,300.6,855.7z"/>
		<path class="st71" d="M305,896.8c4.3-11.1-11.7-29.3-5.4-42.1c0,0-14.5,2.4-13,25.4C288.2,903,305,896.8,305,896.8z"/>
		<path class="st33" d="M300.9,891.2c-2.8-2.5-12.1,0.3-10,6.8c1.3,4.1,14.2,3.2,15.2,1.1C307.3,896.9,302.9,892.9,300.9,891.2z"/>
		<path class="st35" d="M300.1,892.8c-1.8-1.6-7.9,0.2-6.5,4.4c0.9,2.6,9.2,2.1,9.9,0.7C304.2,896.5,301.4,893.9,300.1,892.8z"/>
		<path class="st33" d="M301.9,895.1c-1.2-1.1-5.3,0.1-4.4,2.9c0.6,1.8,6.2,1.4,6.6,0.5C304.7,897.6,302.8,895.8,301.9,895.1z"/>
		<path class="st69" d="M304.1,946.9l-12.4-4.4c0,0-7.8,16.5-5.8,18.8S296.6,963.9,304.1,946.9z"/>
		<polygon class="st69" points="296.2,935.4 305.7,939.2 307.5,934.9 297.6,931.9 		"/>
		<g>
			<path class="st80" d="M396.3,889c-1.5,0.3-2.9-0.5-3.4-2l-7.4-23.6c-0.3-0.8-0.2-1.7,0.2-2.4c0.4-0.7,1.1-1.3,1.9-1.5l9.1-2.7
				c1.9-0.6,3.9,0.5,4.5,2.4l7.8,23.6c0.3,0.8,0.2,1.7-0.3,2.5c-0.4,0.8-1.2,1.3-2,1.5L396.3,889z M388.4,860.6
				c-0.6,0.2-1.1,0.6-1.3,1.1c-0.3,0.5-0.3,1.2-0.2,1.7l7.2,23.1c0.3,0.9,1.1,1.4,2,1.2l10.3-2.2c0.5-0.1,1-0.4,1.2-0.9
				c0.3-0.5,0.3-1,0.2-1.5l-7.8-23.6c-0.4-1.1-1.6-1.8-2.7-1.4L388.4,860.6z"/>
		</g>
		<polygon class="st80" points="389.1,859.9 390.9,861.3 395.6,859.7 396.1,857.5 		"/>
		<polygon class="st80" points="400.3,885.8 399.7,884 402.4,883.4 402.8,885.2 		"/>
		<g>
			<path class="st80" d="M381.9,865.6c0-0.1-1.1-2.6-0.2-4.9c0.5-1.2,1.4-2.1,2.8-2.6l0.5,1.2c-1,0.4-1.7,1-2.1,1.9
				c-0.7,1.7,0.1,3.9,0.1,3.9L381.9,865.6z"/>
		</g>
		<g>
			<path class="st80" d="M378.6,867.1c-0.1-0.2-1.7-4.1-0.2-7.6c0.8-1.8,2.2-3.2,4.3-4l0.5,1.2c-1.8,0.7-3,1.8-3.6,3.3
				c-1.3,3,0.2,6.6,0.2,6.6L378.6,867.1z"/>
		</g>
		<path class="st33" d="M377,891.5c0,0,3.7-0.6,4.1-0.9c0.5-0.3-0.9-4.4-1.4-4.6c-0.5-0.2-4.5,3.7-4.5,3.7L377,891.5z"/>
		<path class="st33" d="M383.9,884.3c-0.5-0.2-3.2,0.8-4.7,2l0.7,1.2c0.7-0.7,3.9-2.2,4.2-2.4C384.5,884.9,384.4,884.5,383.9,884.3z
			"/>
		<path class="st33" d="M377.7,884c0.3,0.4,0.7,2.6,0.3,4.4l-1.6,0.2c0.5-1,0.6-4.3,0.6-4.6C377,883.7,377.4,883.6,377.7,884z"/>
		<path class="st33" d="M384.7,887.1c-0.5-0.3-3.3-0.1-5.1,0.7l0.4,1.4c0.8-0.5,4.3-1.2,4.7-1.2
			C385.1,887.8,385.2,887.3,384.7,887.1z"/>
		<path class="st33" d="M384.7,889.4c-0.4-0.3-3.1-0.4-4.8,0.1l0,1.4c0.9-0.5,4.4-0.7,4.7-0.7C385,890.2,385.1,889.7,384.7,889.4z"
			/>
		<g>
			<path id="XMLID_34_" class="st81" d="M317.8,871.1c-2.4-2.4-5.9-3-7.8-1.5c-1.9,1.5-1.6,4.7,0.8,7.1c2.4,2.4,4.8,2,6.7,0.5
				C319.4,875.6,320.2,873.5,317.8,871.1z"/>
			<path id="XMLID_33_" class="st82" d="M316.8,871.5c-1.1-1.4-3-1.9-4.2-1.2c-1.2,0.7-1.2,2.4-0.1,3.8c1.1,1.4,3,1.9,4.2,1.2
				C317.9,874.6,317.9,872.9,316.8,871.5z"/>
			<path id="XMLID_32_" class="st81" d="M315.8,870.3c-0.4-0.5-1.2-0.7-1.6-0.5c-0.5,0.3-0.5,0.9,0,1.5c0.4,0.5,1.2,0.7,1.6,0.5
				C316.2,871.5,316.3,870.9,315.8,870.3z"/>
			<path id="XMLID_31_" class="st83" d="M300.2,870.3l2.5,0.7c-0.2-1.8,2.2-8.7,7.6-11.1l-3.1-3.1
				C307.2,856.9,299,861.9,300.2,870.3z"/>
			<path id="XMLID_30_" class="st81" d="M333,858c-2.4-2.3-5.7-3-7.6-1.4c-1.8,1.6-1.4,4.8,1,7.1c2.4,2.3,4.7,1.9,6.5,0.4
				C334.6,862.5,335.3,860.4,333,858z"/>
			<path id="XMLID_29_" class="st82" d="M332.1,858.6c-1.1-1.4-3-1.9-4.2-1.1c-1.2,0.7-1.2,2.4-0.1,3.8c1.1,1.4,3,1.9,4.2,1.1
				C333.2,861.6,333.3,859.9,332.1,858.6z"/>
			<path id="XMLID_28_" class="st81" d="M331.2,857.4c-0.4-0.5-1.2-0.7-1.6-0.4c-0.5,0.3-0.5,0.9,0,1.5c0.4,0.5,1.2,0.7,1.6,0.4
				C331.6,858.6,331.7,858,331.2,857.4z"/>
			<path id="XMLID_27_" class="st83" d="M328.7,849.4l0.2,2.3c-1.4-0.8-7.3-1.1-9.8,2.5l-2-3.6C317,850.6,322.1,845.6,328.7,849.4z"
				/>
			<path id="XMLID_26_" class="st84" d="M325.2,881.6l11.5-8c0,0,2.3,4.9-1.3,7.9C331.3,885,325.2,881.6,325.2,881.6z"/>
			<path id="XMLID_25_" class="st81" d="M326.6,881.2l9.6-6.8c0,0,1.3,3.2-1.9,5.8C330.7,883.1,326.6,881.2,326.6,881.2z"/>
			<path id="XMLID_24_" class="st35" d="M330,870.3c-1.5-0.9-3.7-0.7-3.7-0.7l0.5,5.4C330.5,874.7,331.8,871.4,330,870.3z"/>
			<path id="XMLID_23_" class="st33" d="M329,870.7c-1.1-0.7-2.8-0.6-2.8-0.6l0.3,4.3C329.3,874.1,330.3,871.6,329,870.7z"/>
			<path class="st35" d="M337.7,882.9c-0.2-0.2-1,0.3-1.9,1.1c-0.9,0.8-1.5,1.5-1.3,1.7c0.2,0.2,1-0.3,1.9-1.1
				C337.3,883.8,337.9,883.1,337.7,882.9z"/>
		</g>
	</g>
	<g>
		<path class="st85" d="M422,764.2c22,17.5,49.5,11.7,61.1,8.9c4.3-1,27.3-76.1,2.7-83.5c0-12.4-26.5-14.9-41.1-0.1
			C422,712.6,422,764.2,422,764.2z"/>
		<path class="st86" d="M459.9,708.4c-5.3-8.6-8.6-16.2-8.3-24.2c-2.5,1.4-4.9,3.2-7,5.4C422,712.6,422,764.2,422,764.2
			c22,17.5,49.5,11.7,61.1,8.9c2.3-0.6,10-22.4,12.8-43.6C484.4,733.4,469.5,723.8,459.9,708.4z"/>
		<path class="st87" d="M474.7,731.3c-16.1-2.5-12.5,17.3-42,39.5c18.5,8.6,38.5,5,48.8,2.6C491.5,751.4,489.3,733.6,474.7,731.3z"
			/>
		<path class="st24" d="M500.7,801c-10.4-6.7-25.4-38.1-23.7-44.9c1.7-6.9,23.3,32.3,27.8,35.8C509.2,795.4,507,805,500.7,801z"/>
		<path class="st88" d="M501.7,797.4c-8.9-5.7-21.2-30.6-23.4-42c-0.6-0.3-1.1-0.1-1.3,0.7c-1.7,6.9,13.3,39.8,23.7,46.5
			c4.4,2.8,6.8-1.8,6.4-6C506,798.2,504.1,799,501.7,797.4z"/>
		<path class="st89" d="M499.8,804.5c-5.8-1.1,1.9-16.4,6-14.6C508.5,791.1,508.9,806.2,499.8,804.5z"/>
		<path class="st33" d="M503,800.9c-3.4-2.7-0.4-7.1,1-8.4c1.4-1.3,29.9-17.5,29.9-17.5l0.3,1.9C534.1,776.9,507.1,804.3,503,800.9z
			"/>
		<path class="st34" d="M504.4,798c-1.5-1.3-1.6-3.1-1.1-4.9c-1.6,2-4.1,6.6-1.2,9c4.2,3.4,32-25.2,32-25.2
			C530.6,778.5,509.1,801.9,504.4,798z"/>
		<polygon class="st90" points="659.2,894.7 662.8,863 644.9,858.6 634.1,888.3 		"/>
		<polygon class="st91" points="662.8,863 656.6,889.9 634.1,888.3 634.4,891.4 660.4,896.3 666.1,866 		"/>
		<path class="st92" d="M464.3,971.9c2.3-2.2,8.2,4.4,11.2,8l1.5-1.8c0,0-9.6-11-13.5-7.2c-2.7,2.6-0.8,11.6,4.4,17.9l1.7-2
			C465.9,981.7,462.3,973.8,464.3,971.9z"/>
		<path class="st93" d="M456.9,976.5c2.3-2.6,10.6,3.3,15.2,6.9l1.9-2.1c0,0-14.1-9.9-18.1-5.6c-2.6,2.9,0.5,11.4,7.5,17.8l1.9-2.1
			C460,986,454.9,978.6,456.9,976.5z"/>
		<g>
			<path class="st94" d="M556.7,912.1l-3.4,0.4c0.3-4.6,0-19.9-5.1-19.7c-5.8,0.1-8.4,9.9-8.4,18.7l-3.4,0
				c1.6-7.9,3.8-19.3,12.1-19.6C557.5,891.6,556.9,910,556.7,912.1z"/>
		</g>
		<polygon class="st94" points="529.8,908.4 525.2,910.5 554.9,916.5 559.5,910.1 		"/>
		<polygon class="st69" points="559.5,910.1 555.4,915.3 553.8,957.1 562,954.8 		"/>
		<polygon class="st95" points="672.3,901.4 658.5,907.3 675.2,951.5 702.1,937.9 		"/>
		<polygon class="st96" points="672.3,901.4 658.5,907.3 678.5,921 		"/>
		<polygon class="st96" points="676.5,947.5 702.1,937.9 680.5,924.9 		"/>
		<polygon class="st97" points="676.6,947 658.5,907.3 646.1,918.8 665.5,959.4 684.5,954 702.1,937.9 		"/>
		<polygon class="st98" points="676.6,947 665.5,959.4 683.3,949.4 		"/>
		<polygon class="st98" points="658.7,907.4 660.2,932.8 676.6,947 		"/>
		<polygon class="st68" points="650.3,892 620.6,890.5 621.8,937.3 656,936.4 		"/>
		<polygon class="st99" points="651.5,901 630.4,891 650.3,892 		"/>
		<polygon class="st99" points="632.7,932.1 626.4,890.8 620.6,890.5 621.8,937.3 656.1,936.4 655.7,934 		"/>
		<polygon class="st95" points="707.5,862.9 686.8,844.4 667.9,859.5 690.2,887 		"/>
		<polygon class="st100" points="692.1,878.8 667.9,859.5 663.5,870.5 688.9,893.2 705.5,874.5 707.5,862.9 		"/>
		<polygon class="st101" points="688.9,893.2 692.1,878.8 679.8,876.5 		"/>
		<polygon class="st101" points="663.6,870.4 677.7,876 667.9,859.5 		"/>
		<polygon class="st101" points="667.9,859.4 690.6,861.4 686.8,844.4 		"/>
		<polygon class="st102" points="620.8,874.3 575,874.3 575,935.3 625.4,935.3 		"/>
		<polygon class="st103" points="595.3,934 595.3,874.3 575,874.3 575,935.3 625.4,935.3 625.3,934 		"/>
		<polygon class="st91" points="595,901.5 574.7,898.3 574.7,912.3 595,908.1 		"/>
		<polygon class="st90" points="594.9,908.1 623.2,908.7 622.5,898.2 594.9,901.5 		"/>
		<polygon class="st90" points="602.9,874.3 614.2,874.3 617.5,935.3 610.2,935.3 		"/>
		<polygon class="st91" points="589.3,874.3 583.7,874.3 582,935.3 585.7,935.3 		"/>
		<polygon class="st102" points="509.5,1001.8 477.3,975.7 459.5,995 485,1029.3 496.7,1013.7 		"/>
		<polygon class="st93" points="475.6,978.9 506.8,1004.3 509.5,1001.8 477.3,975.7 459.5,995 460.1,995.8 		"/>
		<polygon class="st68" points="555.4,915.3 525.2,910.5 516.6,950.3 553.8,957.1 		"/>
		<polygon class="st104" points="587.2,979.6 674.2,979.6 667.8,935.5 587,935.5 		"/>
		<polygon class="st105" points="632.5,956.6 667.8,935.5 587,935.5 		"/>
		<polygon class="st105" points="633.2,958.2 673,978.5 595.6,978.5 		"/>
		<polygon class="st106" points="595.4,978.4 590,935.5 581.6,935.5 587.2,979.6 674.2,979.6 674,978.4 		"/>
		<polygon class="st106" points="667,936.4 673.2,979.4 674.2,979.6 668.7,934.7 587,935.5 587,936.7 		"/>
		<path class="st33" d="M472.9,899.3l-13.2,4.3c0,0,1.9,33.8,1.6,36.8c-0.4,3.1-12.1,12.4-13.5,14.3c-1.4,1.9-28,61.2-28,61.2l1.1,0
			c10.4-13.5,50.1-71.9,50.9-73.9C472.6,940.2,472.9,899.3,472.9,899.3z"/>
		<path class="st34" d="M464.2,953.7c4.4-6.6,7.4-11.1,7.6-11.6c0.8-1.9,1.1-42.8,1.1-42.8l-13.2,4.3c0,0,1.9,33.8,1.6,36.8
			c-0.4,3.1-12.1,12.4-13.5,14.3c-0.3,0.5-2.2,4.4-4.8,10C450.4,960.1,457.6,956.3,464.2,953.7z"/>
		<path class="st33" d="M488.1,867.4l-5,24.7c0,0,13.8,38.8,16,46.9c0.9,3.1,2.6,22.7,3.3,25.3c0.7,2.5,29.3,61.8,29.3,61.8l0.6-0.9
			c-4.1-17.4-27-94.9-28.1-97C503.1,926.2,488.1,867.4,488.1,867.4z"/>
		<path class="st34" d="M510.2,947.6c-3.3-11-5.7-18.7-6-19.4c-1.1-2-16.1-60.8-16.1-60.8l-5,24.7c0,0,13.8,38.8,16,46.9
			c0.9,3.1,2.6,22.7,3.3,25.3c0.3,0.9,4.3,9.6,9.3,20.2C509.6,968.7,509.1,955.6,510.2,947.6z"/>
		<path class="st107" d="M454.5,943.8l53.8-9.6c0,0-26.5-98-27.5-100.8c-1-2.8-16.7-22.1-19-19c-2.3,3-14.5,16.2-19,30.2
			C437.4,860.9,454.5,943.8,454.5,943.8z"/>
		<path class="st89" d="M466.7,848.3c6.3-2.6,14.4,0,18.6,1.2c-2.5-9.2-4.3-15.5-4.5-16.1c-1-2.8-16.7-22.1-19-19
			c-2.3,3-15.4,15.6-20,29.5c-5.4,16.4,12.7,99.9,12.7,99.9l14.9-2.6C453.9,907.2,449,855.6,466.7,848.3z"/>
		<path class="st24" d="M450.5,826c0,0,28.3,15.3,33.9,17.4c-5.5-25.9-5.1-52-3.8-57.8l-17.7-5.9C462.9,779.8,463.8,803.2,450.5,826
			z"/>
		<path class="st88" d="M467.6,835.1c-2.5-17.9,4.1-37.3,12.3-29.3c-0.4-9.9,0-17.4,0.7-20.2l-17.7-5.9c0,0,1,23.4-12.4,46.2
			C450.5,826,459,830.6,467.6,835.1z"/>
		<path class="st24" d="M457.8,755.2c-1.2,4.5,4.2,38.3,6.1,39.5c1.9,1.1,27.2,3.1,27.6,0.3c0.4-2.9-10.8-38.8-13.5-39.9
			C475.3,753.9,459.1,750.1,457.8,755.2z"/>
		<path class="st88" d="M470.9,793.6c-1.8-1.1-9.5-40.9-12.2-37.2c-2.8,3.8,0.5,39.3,2.4,40.5c1.9,1.1,30,1,30.3-1.9
			c0-0.1,0-0.1,0-0.2C483.6,795.7,472.3,794.5,470.9,793.6z"/>
		<path class="st24" d="M462.8,805c-4.7-9.1-8.9-44.9-4.7-50.6c4.2-5.7,9.1,38.2,11.9,43.2C472.8,802.6,466.2,811.7,462.8,805z"/>
		<path class="st88" d="M463.6,801.9c-4-7.9-6.6-36.6-4.7-48c-0.3,0-0.5,0.2-0.8,0.5c-4.2,5.7-0.6,42.4,4.1,51.6
			c2.6,5.1,7.4,0.4,8.3-4.3C468.6,804,465.3,805.2,463.6,801.9z"/>
		<g>
			<path class="st33" d="M495.3,813.5c4.8,0.1,7.3,2.4,10.1,1.7c2.2-0.6,2.2-2.9,6.3-6.3c1.6-1.4-11.3,3-15.6,1.5L495.3,813.5z"/>
			<path class="st33" d="M502.6,814.8c3.3,0.6,8.4,3.4,9.5,3.7c1.1,0.3,1.3-1-1.2-2.7c-2.5-1.7-3.6-1.5-3.5-3
				C507.4,811.2,501,814.5,502.6,814.8z"/>
			<path class="st33" d="M506.9,808.5c3.3-0.5,8.6-2.9,9.6-3.1c1.1-0.3,1.2,1-1.3,2.5c-2.6,1.5-3.7,1.3-3.7,2.7
				C511.5,812.2,505.3,808.7,506.9,808.5z"/>
			<path class="st33" d="M503.8,809.9c3-1.5,7.2-5.4,8.1-6s1.5,0.5-0.5,2.8c-2,2.3-3.1,2.4-2.6,3.7
				C509.4,811.9,502.4,810.6,503.8,809.9z"/>
		</g>
		<g>
			<path class="st33" d="M528.5,781.2c3-3.3,8.9-5.3,10.1-7.8c0.9-1.9-2.2-7-3.6-6.8c-1.4,0.2-7.2,11.8-7.2,11.8L528.5,781.2z"/>
			<path class="st33" d="M530.3,773.5c1.2-2.9,1.7-8.4,2-9.4c0.3-1,1.4-0.5,1.5,2.4c0.1,2.9-0.7,3.7,0.5,4.4
				C535.6,771.7,529.8,774.9,530.3,773.5z"/>
			<path class="st33" d="M535.7,769.3c1.2-2.5,4-8.4,3.3-8.9c-0.7-0.5-5.3,8-5.3,8L535.7,769.3z"/>
			<path class="st33" d="M537.1,771c1.6-2,5.6-6.6,4.9-7.1c-0.7-0.6-6.8,5.9-6.8,5.9L537.1,771z"/>
			<path class="st33" d="M537.5,774.7c2-1.5,6.9-5,6.3-5.7c-0.5-0.7-7.9,4.1-7.9,4.1L537.5,774.7z"/>
		</g>
		<polygon class="st108" points="532.2,774.1 555.6,776.7 556,752.7 537.3,747.8 		"/>
		<path class="st69" d="M548.7,932.3c0.6-6.7-3.4-12.5-8.9-13c-5.5-0.5-10.5,4.5-11.1,11.1c-0.6,6.7,3.4,12.5,8.9,13
			C543.1,944,548.1,939,548.7,932.3z"/>
		<g>
			<g>
				<path class="st109" d="M707.2,982.1H583.9l-46.1-160.6l-23.6-7.7l0.5-5.5l25.6,10.9l18.5,62.3h141.8L707.2,982.1z M586.2,979.1
					H704l-6.3-94.3H559.1L586.2,979.1z"/>
			</g>
			<g>
				<polygon class="st109" points="696.6,1008 603.3,1008 595.1,982.3 596.3,979.6 604.1,1006.4 695.5,1006.4 698.5,979 
					699.8,981.3 				"/>
			</g>
			<g>
				<polygon class="st109" points="597,980.2 584.8,884 586.5,883.4 598.7,979.5 				"/>
			</g>
			<g>
				<polygon class="st109" points="617.7,980.1 606,884 607.9,883.4 619.7,979.5 				"/>
			</g>
			<g>
				<polygon class="st109" points="640.2,980.1 631.1,884 632.9,883.5 641.9,979.6 				"/>
			</g>
			<g>
				<polygon class="st109" points="663.1,980 655.3,883.9 657.1,883.5 664.9,979.6 				"/>
			</g>
			<g>
				<polygon class="st109" points="684,980 679.4,883.9 681.1,883.6 685.7,979.7 				"/>
			</g>
			<g>
				<polygon class="st109" points="700.1,902.2 562.5,902.2 563.5,903.9 701.1,903.9 				"/>
			</g>
			<g>
				<polygon class="st109" points="702,922.2 567.5,922.2 568.5,923.7 703,923.7 				"/>
			</g>
			<g>
				<polygon class="st109" points="703.9,944.1 573.2,944.1 574,942.1 703.4,942.1 				"/>
			</g>
			<g>
				<polygon class="st109" points="703.9,963.6 579.6,963.6 580.1,961.8 704.3,961.8 				"/>
			</g>
		</g>
		<path class="st109" d="M587.1,1025.4c0,4.6,3.7,8.4,8.4,8.4c4.6,0,8.4-3.7,8.4-8.4c0-4.6-3.7-8.4-8.4-8.4
			C590.8,1017,587.1,1020.8,587.1,1025.4z"/>
		<path class="st109" d="M702.3,1025.4c0,4.6,3.7,8.4,8.4,8.4c4.6,0,8.4-3.7,8.4-8.4c0-4.6-3.7-8.4-8.4-8.4
			C706.1,1017,702.3,1020.8,702.3,1025.4z"/>
		<path class="st79" d="M530.1,1029l19.5-6.5c0,0-18.1-1.3-19.5-1.3C527.8,1021.2,530.1,1029,530.1,1029z"/>
		<path class="st79" d="M417.5,1012.8l11.1,17.3c0,0-3.2-17.8-3.6-19.2C424.5,1008.6,417.5,1012.8,417.5,1012.8z"/>
		<path class="st89" d="M483.8,905c-1.2,0,1.6,15.4,5.5,32.5l5.9-1C491.9,926.2,484.9,905,483.8,905z"/>
		<path class="st89" d="M459.9,805.8c-4.2-5.1,12.1-10.4,13.6-5.9C474.4,802.7,465.5,812.7,459.9,805.8z"/>
		<path class="st33" d="M465,804.8c0.1-4.3,2.7-5.6,4.6-5.3c1.9,0.3,34.7,14.3,34.7,14.3l-1.4,1.4C503,815.1,464.9,810.2,465,804.8z
			"/>
		<path class="st34" d="M468.4,804.6c0.1-2.2,1.1-3.7,2.4-4.6c-0.7-0.2-1.1-0.4-1.3-0.4c-1.9-0.3-6,1.4-6.1,5.7
			c-0.2,5.4,39.5,9.9,39.5,9.9l1.1-1.2C494.2,812.7,468.3,808.9,468.4,804.6z"/>
		<path class="st33" d="M461.9,752.7c4.4,10.9,17.5,29.2,17.5,29.2s0-18.5-2.4-27.3C473.9,753.7,466.6,752.1,461.9,752.7z"/>
		<path class="st89" d="M477,754.7c0,0-0.1,0-0.1,0c1.6,9.4,1.6,23.8,1.6,23.8s-10.6-14.9-15.9-25.8c-0.2,0-0.5,0-0.7,0.1
			c4.4,10.9,18.4,32.2,18.4,32.2S479.4,763.4,477,754.7z"/>
		<path class="st33" d="M463.9,752.5l-1-17.3l6.6,1.2l3.4,17.2C473.1,753.6,467.4,756.3,463.9,752.5z"/>
		<path class="st109" d="M508.7,811.5c0,3.1,2.5,5.7,5.7,5.7s5.7-2.5,5.7-5.7c0-3.1-2.5-5.7-5.7-5.7S508.7,808.4,508.7,811.5z"/>
		<path class="st68" d="M511.2,811.5c0,1.8,1.4,3.2,3.2,3.2c1.8,0,3.2-1.4,3.2-3.2c0-1.8-1.4-3.2-3.2-3.2
			C512.6,808.3,511.2,809.7,511.2,811.5z"/>
		<g>
			<path class="st68" d="M551.9,915.8l-3.7,0c0.5-5.3,0.5-22.9-5.1-23.5c-6.2-0.6-9.3,10.3-9.5,20.4l-3.7-0.5
				c1.9-9,4.5-21.8,13.5-20.9C553.3,892.3,552.2,913.4,551.9,915.8z"/>
		</g>
		<path class="st11" d="M468.9,772.6c6.8,4.3,14.6-1.3,15.8-9.9c-2.6-3.7-4.9-6.4-6.3-7.2c-0.2-0.2-0.3-0.4-0.5-0.4
			c-0.4-0.2-1.2-0.4-2.3-0.7c0,0-0.1,0-0.1,0c-0.2-0.1-0.4-0.1-0.7-0.2c0,0-0.1,0-0.1,0c-0.3-0.1-0.5-0.1-0.8-0.2c0,0,0,0,0,0
			c-0.3-0.1-0.7-0.2-1.1-0.2c0.1,0,0.2-0.1,0.2-0.1l-3.4-17.2l-6.6-1.2l1,17.3c0,0,0.1,0.1,0.1,0.1c-0.1,0-0.1,0-0.2,0
			c0,0-0.1,0-0.1,0c-0.3,0-0.5,0-0.8,0c0,0-0.1,0-0.1,0c-1.8,0.1-3.4,0.5-4.2,1.4c0,0,0,0-0.1,0c-0.1,0.1-0.3,0.2-0.4,0.4
			c-0.1,0.2-0.3,0.4-0.4,0.6c0,0.1-0.1,0.2-0.1,0.2C461.7,760.9,463.6,769.3,468.9,772.6z"/>
		<path class="st33" d="M457.4,726.2c-0.5,14.2,14.4,25.3,27.2,26.1c0,0,14.4-29.6,2.9-48.7C480.8,692.7,458,707.9,457.4,726.2z"/>
		<path class="st86" d="M462.6,738c8.1-12.5,1.4-31.9,14-38.2c0,0-10.3-11-22.6,5.8C441.7,722.4,462.6,738,462.6,738z"/>
		<path class="st33" d="M462,730.8c-3.1-5.8-8.6-6-9.4,0.2c-0.8,6.2,10.6,11.9,11.5,9.2C465,737.5,462.8,732.4,462,730.8z"/>
		<path class="st35" d="M460.6,731.9c-2-3.7-5.4-3.7-5.9,0.1c-0.5,3.9,6.6,7.5,7.2,5.8C462.5,736.2,461.1,733,460.6,731.9z"/>
		<path class="st33" d="M461.4,734.8c-1.2-2.2-3.3-2.3-3.5,0.1c-0.3,2.3,4,4.5,4.3,3.5C462.5,737.3,461.7,735.4,461.4,734.8z"/>
		<path class="st85" d="M480.5,697.6c-0.9-2.3-10.8-4-16.2-1.9c-5.4,2.1-9.1,5.7-8.2,8c0.9,2.3,7.7,2.7,13.1,0.6
			C474.6,702.2,481.4,699.9,480.5,697.6z"/>
		<path class="st110" d="M536.5,737.9c-5.4,5.3,2.4,7.4,11,13.2h0.9c0,0-12.4-9.3-7.7-10.7c4.8-1.5,8.1,10.7,8.1,10.7l0.9-0.2
			C550.7,738.5,541.8,732.7,536.5,737.9z"/>
		<path class="st110" d="M564.4,742.5c3,6.6-4.5,6.3-14,9.2l-0.8-0.3c0,0,14-4.9,10.3-7.8c-3.8-2.9-10.7,7.7-10.7,7.7l-0.7-0.4
			C551.6,738.8,561.3,735.9,564.4,742.5z"/>
		<polygon class="st110" points="546.1,749.5 539.1,774.8 548.2,776.3 550.8,750.7 		"/>
		<polygon class="st110" points="533.6,764 535,757.2 556.2,762 556.3,767.9 		"/>
		<polygon class="st111" points="498.2,1000.6 489.6,1008.1 482.2,1017 485.7,1021.8 493.7,1010.6 503.4,1004.3 		"/>
		<polygon class="st111" points="492.9,997.3 486.8,1003 482.3,1008.5 484,1011.3 489.1,1004.5 496.4,999.7 		"/>
		<path class="st111" d="M591.4,1025.4c0,2.2,1.8,4,4,4s4-1.8,4-4c0-2.2-1.8-4-4-4S591.4,1023.2,591.4,1025.4z"/>
		<path class="st111" d="M706.7,1025.4c0,2.2,1.8,4,4,4c2.2,0,4-1.8,4-4c0-2.2-1.8-4-4-4C708.5,1021.4,706.7,1023.2,706.7,1025.4z"
			/>
		<polygon class="st109" points="602.4,1005.1 596.7,1014.4 597.9,1015.4 604.6,1007.5 		"/>
		<polygon class="st109" points="696.9,1005.1 702.6,1014.4 701.4,1015.4 694.7,1007.5 		"/>
		<polygon class="st112" points="644.9,858.6 648.4,876.7 662.8,863 		"/>
		<g>
			<path class="st35" d="M482.4,727.6c2.1,3.2,5.2,6.9-1.5,6.5C474.1,733.8,482.4,727.6,482.4,727.6z"/>
			<path class="st113" d="M475.6,737.2l10.8-0.2c0,0-2.8,7.6-6.1,7.4C476.2,744.2,475.6,737.2,475.6,737.2z"/>
			<path class="st114" d="M484,740.6c0.9-1.5,1.4-3,1.4-3l-9.1,0.1c0,0,0.1,1.3,0.6,2.8L484,740.6z"/>
			<path class="st115" d="M477.5,722.6c0.2-2.3-0.8-4.2-2.2-4.3c-1.4-0.1-2.8,1.7-3,4.1c-0.3,2.4,0.8,4.5,2.2,4.5
				C476,726.9,477.3,725,477.5,722.6z"/>
			<path class="st115" d="M474.6,719c1.4-0.3,2.7,0.1,3.5,1.1c-0.5-1.7-1.9-2.8-3.6-2.4c-1.8,0.4-3.2,2.2-3.5,4.3
				C471.8,720.5,473.1,719.3,474.6,719z"/>
			<path class="st115" d="M487.8,719.7c1.2,0.5,2.1,1.6,2.6,2.9c0-1.8-1-3.5-2.4-4.1c-1.5-0.6-2.9,0.2-3.5,1.9
				C485.3,719.5,486.5,719.2,487.8,719.7z"/>
			<path class="st115" d="M489.4,723c0-2.2-0.9-4-2.1-4c-1.2-0.1-2.3,1.6-2.4,3.9c-0.1,2.3,0.9,4.2,2.2,4.2
				C488.4,727.1,489.4,725.2,489.4,723z"/>
			<path class="st85" d="M469,717.5c1.5-3.6,4.5-7.5,10.7-7.6l-0.1,2.9C475.8,712.3,473.1,713.5,469,717.5z"/>
			<path class="st85" d="M491.6,719c-0.7-3.4-2.7-7.4-8-8.9l-0.3,2.8C486.7,713.2,488.9,714.8,491.6,719z"/>
			<path class="st33" d="M480.9,726.9c2.1,3.2,5.2,6.9-1.5,6.5C472.6,733.1,480.9,726.9,480.9,726.9z"/>
		</g>
	</g>
</g>
<polygon class="st116" points="1251.5,1031.8 -589.1,1031.8 395.3,1063.9 "/>
</svg>
