<?xml version="1.0" encoding="utf-8"?>
<!-- Generator: Adobe Illustrator 22.0.1, SVG Export Plug-In . SVG Version: 6.00 Build 0)  -->
<svg version="1.1" xmlns="http://www.w3.org/2000/svg" xmlns:xlink="http://www.w3.org/1999/xlink" x="0px" y="0px"
	 viewBox="0 0 500 500" style="enable-background:new 0 0 500 500;" xml:space="preserve">
<style type="text/css">
	.st0{fill:#FFFFFF;}
	.st1{opacity:0.31;}
	.st2{fill:url(#SVGID_1_);}
	.st3{fill:url(#SVGID_2_);}
	.st4{opacity:0.32;}
	.st5{fill:url(#SVGID_3_);}
	.st6{fill:#1AE5FF;}
	.st7{opacity:0.53;}
	.st8{opacity:0.37;}
	.st9{fill:#8ED2FF;}
	.st10{opacity:0.47;}
	.st11{fill:#7974F5;}
	.st12{fill:url(#SVGID_4_);}
	.st13{fill:url(#SVGID_5_);}
	.st14{fill:url(#SVGID_6_);}
	.st15{fill:url(#SVGID_7_);}
	.st16{fill:url(#SVGID_8_);}
	.st17{fill:#F9FBFC;}
	.st18{fill:#113C7A;}
	.st19{fill:#CFE3FF;}
	.st20{fill:url(#SVGID_9_);}
	.st21{fill:none;}
	.st22{fill:url(#SVGID_10_);}
	.st23{opacity:0.32;fill:url(#SVGID_11_);}
	.st24{fill:#FF9D6F;}
	.st25{fill:url(#SVGID_12_);}
	.st26{fill:url(#SVGID_13_);}
	.st27{fill:#FF7C40;}
	.st28{fill:#843837;}
	.st29{opacity:0.32;fill:url(#SVGID_14_);}
	.st30{fill:#F5B697;}
	.st31{fill:#5167B0;}
	.st32{fill:url(#SVGID_15_);}
	.st33{fill:url(#SVGID_16_);}
	.st34{opacity:0.43;fill:url(#SVGID_17_);}
	.st35{fill:url(#SVGID_18_);}
	.st36{opacity:0.57;}
	.st37{fill:#A0A9B0;}
</style>
<g id="BACKGROUND">
	<g>
		<rect class="st0" width="500" height="500"/>
		<g class="st1">
			<linearGradient id="SVGID_1_" gradientUnits="userSpaceOnUse" x1="438.1141" y1="361.4227" x2="525.9075" y2="699.5212">
				<stop  offset="0" style="stop-color:#1AE5FF"/>
				<stop  offset="0.2589" style="stop-color:#64E8F9"/>
				<stop  offset="0.7043" style="stop-color:#EAEEEE"/>
			</linearGradient>
			<path class="st2" d="M500,500V311.9c-27,5.6-52.6,15.3-75.6,31.1c-19,13.1-36.4,32.1-37.8,55.2c-1.3,21.9,11.8,41.9,15.4,63.5
				c2.2,13.1,0.8,25.9-2.7,38.3H500z"/>
			<linearGradient id="SVGID_2_" gradientUnits="userSpaceOnUse" x1="28.3182" y1="440.3402" x2="70.929" y2="604.4375">
				<stop  offset="0" style="stop-color:#1AE5FF"/>
				<stop  offset="0.2589" style="stop-color:#64E8F9"/>
				<stop  offset="0.7043" style="stop-color:#EAEEEE"/>
			</linearGradient>
			<path class="st3" d="M51.9,456.3c-16.1-11.1-33.6-19.2-51.9-25V500h87.6C82.3,482.1,67.7,467.1,51.9,456.3z"/>
		</g>
	</g>
</g>
<g id="OBJECTS">
	<g>
		<g>
			<g class="st4">
				
					<linearGradient id="SVGID_3_" gradientUnits="userSpaceOnUse" x1="-139.8881" y1="377.0042" x2="-17.4041" y2="377.0042" gradientTransform="matrix(-1 0 0 1 200.8249 0)">
					<stop  offset="0" style="stop-color:#5155D4"/>
					<stop  offset="1" style="stop-color:#45F7FF"/>
				</linearGradient>
				<path class="st5" d="M220.2,353.4c-2.7,1.5-2.7,4,0,5.5l88.2,51.3c2.6,1.5,6.9,1.5,9.6,0l20.7-9.7c2.7-1.5,2.7-4,0-5.5
					l-88.2-51.3c-2.6-1.5-6.9-1.5-9.6,0L220.2,353.4z"/>
			</g>
			<g>
				<g>
					<path class="st6" d="M195.9,139.1l0,2.2c0,1.3,1.4,2.1,2.5,1.5l10.4-6c0.5-0.3,0.8-0.9,0.8-1.5l0-2.2c0-1.3-1.4-2.1-2.5-1.5
						l-10.4,6C196.2,138,195.9,138.5,195.9,139.1z"/>
				</g>
				<g>
					<path class="st6" d="M163.1,169.1l0,2.2c0,1.3,1.4,2.1,2.5,1.5l43.3-25c0.5-0.3,0.8-0.9,0.8-1.5l0-2.2c0-1.3-1.4-2.1-2.5-1.5
						l-43.3,25C163.4,167.9,163.1,168.5,163.1,169.1z"/>
				</g>
				<g class="st7">
					<path class="st6" d="M181,180.7l0,2.2c0,1.3,1.4,2.1,2.5,1.5l25.4-14.7c0.5-0.3,0.8-0.9,0.8-1.5l0-2.2c0-1.3-1.4-2.1-2.5-1.5
						l-25.4,14.7C181.3,179.5,181,180.1,181,180.7z"/>
				</g>
				<g>
					<path class="st6" d="M169.8,176.2l0,2.2c0,1.3,1.4,2.1,2.5,1.5l36.6-21.1c0.5-0.3,0.8-0.9,0.8-1.5l0-2.2c0-1.3-1.4-2.1-2.5-1.5
						l-36.6,21.1C170.1,175,169.8,175.6,169.8,176.2z"/>
				</g>
			</g>
			<g>
				<g class="st8">
					<g>
						<path class="st9" d="M396.2,172.5c0.5,0.3,0.9,0.9,0.9,1.5l0,15c0,0.5-0.4,0.8-0.9,0.5l-19-11c-0.5-0.3-0.9-0.9-0.9-1.5l0-15
							c0-0.5,0.4-0.8,0.9-0.5L396.2,172.5z"/>
					</g>
				</g>
				<g class="st10">
					<g>
						<path class="st11" d="M403.1,199.2c0.5,0.3,0.9,0.9,0.9,1.5l0,15c0,0.5-0.4,0.8-0.9,0.5l-19-11c-0.5-0.3-0.9-0.9-0.9-1.5l0-15
							c0-0.5,0.4-0.8,0.9-0.5L403.1,199.2z"/>
					</g>
				</g>
			</g>
			<g>
				<g class="st8">
					<g>
						<path class="st9" d="M210,213.3c0.3,0.2,0.6,0.6,0.6,1l0,9.7c0,0.4-0.3,0.5-0.6,0.3l-12.3-7.1c-0.3-0.2-0.6-0.6-0.6-1l0-9.7
							c0-0.4,0.3-0.5,0.6-0.3L210,213.3z"/>
					</g>
				</g>
				<g class="st10">
					<g>
						<path class="st11" d="M214.5,230.6c0.3,0.2,0.6,0.6,0.6,1l0,9.7c0,0.4-0.3,0.5-0.6,0.3l-12.3-7.1c-0.3-0.2-0.6-0.6-0.6-1
							l0-9.7c0-0.4,0.3-0.5,0.6-0.3L214.5,230.6z"/>
					</g>
				</g>
			</g>
			<g>
				<g>
					<linearGradient id="SVGID_4_" gradientUnits="userSpaceOnUse" x1="234.4054" y1="116.6933" x2="365.1307" y2="116.6933">
						<stop  offset="0" style="stop-color:#7F5EFF"/>
						<stop  offset="0.2423" style="stop-color:#8665FF"/>
						<stop  offset="0.5952" style="stop-color:#9978FF"/>
						<stop  offset="0.94" style="stop-color:#B391FF"/>
					</linearGradient>
					<path class="st12" d="M339.8,131c0.1,0.1,0.1,0.1,0.2,0.2c0.6,0.5,1.2,1,1.7,1.5c0.1,0.1,0.1,0.1,0.2,0.2
						c0.6,0.5,1.1,1.1,1.7,1.7c0,0,0.1,0.1,0.1,0.1c0.6,0.6,1.2,1.3,1.7,1.9c0,0,0,0,0,0c0.6,0.7,1.1,1.4,1.7,2.1c0,0,0,0,0,0
						c0.5,0.7,1,1.3,1.4,2c0.3,0.4,0.6,0.9,0.8,1.3c0.2,0.4,0.5,0.7,0.7,1.1c0.1,0.2,0.2,0.4,0.3,0.5c0.4,0.6,0.7,1.3,1,1.9
						c0,0.1,0.1,0.1,0.1,0.2c0.4,0.8,0.8,1.6,1.1,2.4c0,0,0,0.1,0.1,0.1c2.2,5,3.4,10.2,3.4,15l9.1-5.3c0-4.3-1-8.8-2.7-13.3l0,0
						c-0.1-0.3-0.3-0.7-0.4-1c-0.1-0.2-0.2-0.5-0.3-0.7c0,0,0-0.1-0.1-0.1c0,0,0-0.1-0.1-0.1c-0.1-0.3-0.3-0.7-0.4-1
						c-0.2-0.4-0.3-0.7-0.5-1.1c0-0.1-0.1-0.1-0.1-0.2c0-0.1-0.1-0.1-0.1-0.2c-0.1-0.3-0.3-0.6-0.4-0.9c-0.2-0.4-0.4-0.7-0.6-1
						c-0.1-0.2-0.2-0.4-0.3-0.5c0-0.1-0.1-0.1-0.1-0.2c-0.2-0.3-0.4-0.6-0.6-0.9c-0.3-0.4-0.5-0.9-0.8-1.3c0-0.1-0.1-0.1-0.1-0.2
						c-0.4-0.6-0.8-1.2-1.3-1.8c0,0,0,0,0,0c0,0,0,0,0,0c-0.3-0.4-0.6-0.8-0.9-1.2c-0.2-0.3-0.5-0.6-0.8-0.9c0,0,0,0,0,0
						c0,0,0,0,0,0c-0.3-0.3-0.5-0.6-0.8-0.9c-0.3-0.3-0.5-0.6-0.8-0.9c0,0-0.1-0.1-0.1-0.1c0-0.1-0.1-0.1-0.1-0.1
						c-0.2-0.2-0.4-0.4-0.6-0.6c-0.3-0.3-0.6-0.6-0.9-0.8c-0.1-0.1-0.2-0.2-0.3-0.3c-0.1-0.1-0.1-0.1-0.2-0.2
						c-0.1-0.1-0.3-0.3-0.4-0.4c-0.3-0.3-0.6-0.5-0.9-0.8c-0.1-0.1-0.3-0.2-0.4-0.3c-0.1-0.1-0.1-0.1-0.2-0.2
						c-0.1-0.1-0.2-0.2-0.3-0.2c-0.3-0.2-0.6-0.5-0.9-0.7c-0.2-0.2-0.4-0.3-0.7-0.5c0,0-0.1-0.1-0.1-0.1c0,0-0.1-0.1-0.1-0.1
						c-0.3-0.2-0.6-0.4-0.9-0.6c-0.3-0.2-0.6-0.4-0.9-0.5c-0.1,0-0.1-0.1-0.2-0.1L258,72.8c-0.2-0.1-0.4-0.2-0.6-0.4
						c-0.3-0.2-0.6-0.3-0.8-0.4c-0.2-0.1-0.4-0.2-0.5-0.3c0,0-0.1,0-0.1-0.1c-0.1,0-0.1-0.1-0.2-0.1c-0.3-0.1-0.5-0.2-0.8-0.3
						c-0.3-0.1-0.5-0.2-0.8-0.3c0,0-0.1,0-0.1,0c0,0-0.1,0-0.1,0c-0.2-0.1-0.4-0.1-0.6-0.2c-0.3-0.1-0.6-0.2-0.8-0.2
						c-0.1,0-0.3-0.1-0.4-0.1c-0.1,0-0.1,0-0.2,0c-0.1,0-0.2,0-0.3-0.1c-0.3-0.1-0.6-0.1-0.9-0.1c-0.2,0-0.4,0-0.5-0.1
						c-0.1,0-0.1,0-0.2,0c-0.1,0-0.1,0-0.2,0c-0.3,0-0.6,0-1,0c-0.1,0-0.3,0-0.4,0c-0.1,0-0.2,0-0.3,0c-0.1,0-0.2,0-0.3,0
						c-0.4,0-0.8,0.1-1.2,0.2c0,0,0,0,0,0c-0.1,0-0.2,0-0.2,0.1c-0.4,0.1-0.8,0.2-1.2,0.3c0,0-0.1,0-0.1,0.1c-0.1,0-0.1,0.1-0.2,0.1
						c-0.5,0.2-0.9,0.4-1.3,0.6l-9.1,5.3c0.4-0.2,0.9-0.5,1.3-0.6c0.1,0,0.1-0.1,0.2-0.1c0.4-0.2,0.8-0.3,1.3-0.4
						c0.1,0,0.2-0.1,0.2-0.1c0.5-0.1,1-0.2,1.5-0.2c0.1,0,0.2,0,0.3,0c0.5,0,1,0,1.5,0c0.1,0,0.1,0,0.2,0c0.6,0.1,1.1,0.1,1.7,0.3
						c0.1,0,0.1,0,0.2,0c0.6,0.1,1.2,0.3,1.8,0.5c0,0,0.1,0,0.1,0c0.6,0.2,1.3,0.5,1.9,0.8c0,0,0.1,0,0.1,0.1c0.7,0.3,1.3,0.7,2,1
						l86.9,50.2c0.7,0.4,1.4,0.8,2,1.3c0,0,0.1,0.1,0.1,0.1C338.5,130.1,339.1,130.5,339.8,131z"/>
					<linearGradient id="SVGID_5_" gradientUnits="userSpaceOnUse" x1="357.3175" y1="395.834" x2="357.3175" y2="171.1374">
						<stop  offset="0" style="stop-color:#5745FF"/>
						<stop  offset="0.1858" style="stop-color:#5E49FF"/>
						<stop  offset="0.4571" style="stop-color:#7253FF"/>
						<stop  offset="0.7793" style="stop-color:#9164FF"/>
						<stop  offset="0.94" style="stop-color:#A46EFF"/>
					</linearGradient>
					<path class="st13" d="M365.1,157.2c0-0.3,0-0.7,0-1c0-0.3,0-0.7-0.1-1c0-0.3-0.1-0.7-0.1-1c0-0.3-0.1-0.7-0.1-1
						c-0.1-0.3-0.1-0.7-0.2-1c-0.1-0.4-0.1-0.7-0.2-1.1c-0.1-0.4-0.2-0.7-0.2-1.1c-0.1-0.4-0.2-0.7-0.3-1.1
						c-0.1-0.4-0.2-0.7-0.3-1.1c-0.1-0.4-0.2-0.7-0.3-1.1c-0.1-0.3-0.2-0.7-0.4-1c-0.1-0.3-0.2-0.7-0.4-1l-9.1,5.3
						c0.1,0.3,0.3,0.7,0.4,1c0.1,0.3,0.2,0.7,0.4,1c0.1,0.4,0.2,0.7,0.3,1.1c0.1,0.4,0.2,0.7,0.3,1.1c0.1,0.4,0.2,0.7,0.3,1.1
						c0.1,0.4,0.2,0.7,0.2,1.1c0.1,0.4,0.1,0.7,0.2,1.1c0.1,0.3,0.1,0.7,0.2,1c0.1,0.3,0.1,0.7,0.1,1c0,0.3,0.1,0.7,0.1,1
						c0,0.3,0.1,0.7,0.1,1c0,0.3,0,0.7,0,1c0,0.3,0,0.6,0,0.9l-0.6,208.4c0,0.8,0,1.5-0.1,2.2c0,0.1,0,0.1,0,0.2
						c-0.1,0.7-0.2,1.3-0.3,1.9c0,0.1,0,0.2,0,0.2c-0.1,0.6-0.3,1.2-0.4,1.7c0,0.1-0.1,0.2-0.1,0.3c-0.2,0.5-0.4,1-0.6,1.5
						c0,0.1,0,0.1-0.1,0.2c-0.2,0.5-0.5,1-0.8,1.5c0,0.1-0.1,0.1-0.1,0.2c-0.2,0.4-0.5,0.7-0.8,1c-0.1,0.1-0.2,0.2-0.3,0.3
						c-0.2,0.3-0.5,0.5-0.8,0.7c-0.1,0.1-0.2,0.2-0.3,0.3c-0.4,0.3-0.8,0.6-1.2,0.8l9.1-5.3c0.4-0.2,0.8-0.5,1.2-0.8
						c0.1-0.1,0.2-0.2,0.3-0.3c0.3-0.2,0.5-0.5,0.8-0.7c0.1-0.1,0.2-0.2,0.3-0.3c0.3-0.3,0.5-0.7,0.8-1c0-0.1,0.1-0.1,0.1-0.2
						c0,0,0,0,0,0c0.3-0.4,0.5-0.9,0.8-1.4c0,0,0,0,0,0c0-0.1,0-0.1,0.1-0.2c0.1-0.3,0.3-0.6,0.4-1c0.1-0.2,0.1-0.3,0.2-0.5
						c0-0.1,0.1-0.2,0.1-0.3c0-0.1,0.1-0.2,0.1-0.3c0.1-0.3,0.2-0.7,0.3-1c0-0.1,0.1-0.3,0.1-0.4c0-0.1,0-0.2,0-0.2
						c0-0.1,0.1-0.2,0.1-0.4c0.1-0.3,0.1-0.6,0.1-1c0-0.2,0-0.4,0.1-0.6c0-0.1,0-0.1,0-0.2c0-0.1,0-0.2,0-0.2c0-0.3,0-0.6,0.1-1
						c0-0.3,0-0.6,0-1c0,0,0,0,0-0.1l0.6-208.4C365.1,157.8,365.1,157.5,365.1,157.2z"/>
					<g>
						<linearGradient id="SVGID_6_" gradientUnits="userSpaceOnUse" x1="331.842" y1="459.7641" x2="281.9297" y2="173.1978">
							<stop  offset="0" style="stop-color:#7F5EFF"/>
							<stop  offset="0.2423" style="stop-color:#8665FF"/>
							<stop  offset="0.5952" style="stop-color:#9978FF"/>
							<stop  offset="0.94" style="stop-color:#B391FF"/>
						</linearGradient>
						<path class="st14" d="M335.8,128.2c11.2,6.5,20.3,22.2,20.3,35.1l-0.6,208.4c0,12.9-9.2,18.1-20.4,11.6l-86.9-50.2
							c-11.2-6.5-20.3-22.2-20.3-35.1l0.6-208.4c0-12.9,9.2-18.1,20.4-11.6L335.8,128.2z"/>
					</g>
					<g>
						<g>
							<linearGradient id="SVGID_7_" gradientUnits="userSpaceOnUse" x1="292.508" y1="141.3236" x2="292.508" y2="157.6643">
								<stop  offset="0" style="stop-color:#7F5EFF"/>
								<stop  offset="0.2423" style="stop-color:#8665FF"/>
								<stop  offset="0.5952" style="stop-color:#9978FF"/>
								<stop  offset="0.94" style="stop-color:#B391FF"/>
							</linearGradient>
							<path class="st15" d="M303.7,129.8c1.4,0.8,2.5,2.7,2.5,4.3c0,1.6-1.1,2.2-2.5,1.4l-22.4-12.9c-1.4-0.8-2.5-2.7-2.5-4.3
								c0-1.6,1.1-2.2,2.5-1.4L303.7,129.8z"/>
						</g>
						<g>
							<linearGradient id="SVGID_8_" gradientUnits="userSpaceOnUse" x1="291.9131" y1="378.6228" x2="291.9131" y2="310.274">
								<stop  offset="0" style="stop-color:#9A79FF"/>
								<stop  offset="0.94" style="stop-color:#B391FF"/>
							</linearGradient>
							<path class="st16" d="M291.9,328.4c3.7,2.1,6.6,7.3,6.6,11.5c0,4.2-3,5.9-6.7,3.8c-3.7-2.1-6.6-7.3-6.6-11.5
								C285.3,327.9,288.3,326.2,291.9,328.4z"/>
						</g>
						<g>
							<path class="st17" d="M347.1,173.2c1.1,0.7,2,2.2,2,3.5l-0.5,174.2c0,1.3-0.9,1.8-2.1,1.2l-109.3-63.1c-1.1-0.7-2-2.2-2-3.5
								l0.5-174.2c0-1.3,0.9-1.8,2.1-1.2L347.1,173.2z"/>
						</g>
					</g>
					<path class="st17" d="M360.8,233.6L360.8,233.6c-0.7,0-1.3-0.6-1.3-1.3v-38.7c0-0.7,0.6-1.3,1.3-1.3l0,0c0.7,0,1.3,0.6,1.3,1.3
						v38.7C362.1,233,361.5,233.6,360.8,233.6z"/>
					<path class="st17" d="M360.8,281.8L360.8,281.8c-0.7,0-1.3-0.6-1.3-1.3v-38.7c0-0.7,0.6-1.3,1.3-1.3l0,0c0.7,0,1.3,0.6,1.3,1.3
						v38.7C362.1,281.2,361.5,281.8,360.8,281.8z"/>
					<path class="st18" d="M360.8,341L360.8,341c-0.7,0-1.3-0.6-1.3-1.3v-20.1c0-0.7,0.6-1.3,1.3-1.3l0,0c0.7,0,1.3,0.6,1.3,1.3
						v20.1C362.1,340.4,361.5,341,360.8,341z"/>
				</g>
				<g>
					<path class="st0" d="M291.2,185.4c5.6,3.2,10.1,11,10.2,17.5c0,0.1,0,0.1,0,0.2c-0.2,0.1-4.7,1.9-10.4-1.3
						c-0.1,0-0.1-0.1-0.2-0.1c-4.4-2.6-8.1-7.6-9.4-9.6c-0.3-0.5-0.5-0.8-0.5-0.8C281,184.7,285.5,182.1,291.2,185.4z"/>
				</g>
				<g>
					<path class="st19" d="M337.2,241.6c1.3,0.7,2.3,2.6,2.3,4l0,9.8c0,1.5-1.1,2.1-2.3,1.3l-89.8-51.9c-1.3-0.7-2.3-2.6-2.3-4
						l0-9.8c0-1.5,1.1-2.1,2.3-1.3L337.2,241.6z"/>
				</g>
				<linearGradient id="SVGID_9_" gradientUnits="userSpaceOnUse" x1="276.5204" y1="151.9879" x2="305.5643" y2="211.3665">
					<stop  offset="0" style="stop-color:#9A79FF"/>
					<stop  offset="0.3403" style="stop-color:#BA76E8"/>
					<stop  offset="0.94" style="stop-color:#FB6FB9"/>
				</linearGradient>
				<path class="st20" d="M306.5,183.1c0.5,1.7,0.9,3.5,1.1,5.2c0.1,1,0.2,2,0.2,3c0,0.3,0,0.6,0,0.9c0,0,0,0.1,0,0.1
					c0,0.3,0,0.6-0.1,0.8c0,0.1,0,0.1,0,0.2c0,0.3-0.1,0.5-0.1,0.8c-0.1,0.4-0.1,0.6-0.1,0.8c-0.1,0.3-0.1,0.6-0.2,0.8
					c0,0,0,0.1,0,0.1c-0.1,0.2-0.1,0.5-0.2,0.7c0,0,0,0.1,0,0.1c-0.1,0.2-0.2,0.4-0.2,0.7c-0.1,0.3-0.2,0.5-0.3,0.7
					c-0.1,0.3-0.2,0.5-0.3,0.7c0,0,0,0.1-0.1,0.1c-0.1,0.2-0.2,0.4-0.3,0.5c0,0,0,0.1-0.1,0.1c-0.1,0.2-0.2,0.4-0.4,0.5
					c-0.1,0.2-0.3,0.3-0.4,0.5c0,0,0,0-0.1,0.1c-0.1,0.1-0.3,0.3-0.4,0.4c0,0-0.1,0.1-0.1,0.1c-0.1,0.1-0.3,0.3-0.4,0.4
					c0,0,0,0-0.1,0.1c-0.1,0.1-0.3,0.2-0.5,0.3c-0.2,0.1-0.4,0.2-0.5,0.3c0,0-0.1,0-0.1,0.1c-0.2,0.1-0.3,0.2-0.5,0.3
					c0,0-0.1,0-0.1,0c-0.2,0.1-0.4,0.2-0.5,0.2c-0.1,0.1-0.2,0.1-0.3,0.1c-0.1-6.4-4.6-14.2-10.2-17.5c-5.6-3.3-10.2-0.6-10.3,5.8
					c0,0,0.2,0.3,0.5,0.7c-0.1-0.2-0.3-0.4-0.4-0.6c-0.3-0.4-0.4-0.6-0.6-0.9c0,0-0.1-0.1-0.1-0.1c-0.2-0.3-0.4-0.6-0.5-0.8
					c0-0.1-0.1-0.1-0.1-0.2c-0.2-0.3-0.3-0.6-0.5-0.9c-0.2-0.3-0.3-0.6-0.5-0.9c0-0.1-0.1-0.1-0.1-0.2c-0.2-0.3-0.3-0.6-0.5-0.9
					c0-0.1-0.1-0.1-0.1-0.2c-0.1-0.3-0.3-0.6-0.4-0.9c-0.2-0.4-0.3-0.7-0.5-1c0-0.1-0.1-0.1-0.1-0.2c-0.1-0.3-0.3-0.6-0.4-0.9
					c-0.2-0.4-0.3-0.7-0.4-1c0,0,0-0.1-0.1-0.1c-0.1-0.3-0.2-0.6-0.3-0.9c0-0.1,0-0.1-0.1-0.2c-0.2-0.6-0.4-1.3-0.6-1.9
					c0-0.1,0-0.1-0.1-0.2c-0.1-0.3-0.2-0.6-0.2-0.9c0-0.1,0-0.1,0-0.2c-0.1-0.3-0.1-0.6-0.2-0.9c-0.1-0.4-0.1-0.7-0.2-1
					c0-0.1,0-0.1,0-0.2c0-0.3-0.1-0.6-0.1-0.9c0-0.4-0.1-0.7-0.1-1c0-0.1,0-0.1,0-0.2c0-0.3,0-0.6-0.1-0.9c0-0.1,0-0.1,0-0.2
					c0-0.3,0-0.6,0-0.9c0-1,0.1-1.9,0.2-2.8c0.2-1.5,0.6-2.8,1.1-3.9c0.1-0.2,0.2-0.4,0.3-0.7c2.7-4.9,8.5-6,15.1-2.2
					c6,3.5,11.2,10.1,14.2,17.2c0.2,0.5,0.4,0.9,0.6,1.4C306.1,181.7,306.3,182.4,306.5,183.1z M291.4,183.6c3.4,2,6.2,0.4,6.3-3.6
					c0-4-2.8-8.8-6.2-10.8c-3.4-2-6.2-0.4-6.3,3.6C285.2,176.8,288,181.6,291.4,183.6"/>
				<path class="st21" d="M306.5,183.1c0.5,1.7,0.9,3.5,1.1,5.2c0.1,1,0.2,2,0.2,3c0,0.3,0,0.6,0,0.9c0,0,0,0.1,0,0.1
					c0,0.3,0,0.6-0.1,0.8c0,0.1,0,0.1,0,0.2c0,0.3-0.1,0.5-0.1,0.8c-0.1,0.4-0.1,0.6-0.1,0.8c-0.1,0.3-0.1,0.6-0.2,0.8
					c0,0,0,0.1,0,0.1c-0.1,0.2-0.1,0.5-0.2,0.7c0,0,0,0.1,0,0.1c-0.1,0.2-0.2,0.4-0.2,0.7c-0.1,0.3-0.2,0.5-0.3,0.7
					c-0.1,0.3-0.2,0.5-0.3,0.7c0,0,0,0.1-0.1,0.1c-0.1,0.2-0.2,0.4-0.3,0.5c0,0,0,0.1-0.1,0.1c-0.1,0.2-0.2,0.4-0.4,0.5
					c-0.1,0.2-0.3,0.3-0.4,0.5c0,0,0,0-0.1,0.1c-0.1,0.1-0.3,0.3-0.4,0.4c0,0-0.1,0.1-0.1,0.1c-0.1,0.1-0.3,0.3-0.4,0.4
					c0,0,0,0-0.1,0.1c-0.1,0.1-0.3,0.2-0.5,0.3c-0.2,0.1-0.4,0.2-0.5,0.3c0,0-0.1,0-0.1,0.1c-0.2,0.1-0.3,0.2-0.5,0.3
					c0,0-0.1,0-0.1,0c-0.2,0.1-0.4,0.2-0.5,0.2c-0.1,0.1-0.2,0.1-0.3,0.1c-0.1-6.4-4.6-14.2-10.2-17.5c-5.6-3.3-10.2-0.6-10.3,5.8
					c0,0,0.2,0.3,0.5,0.7c-0.1-0.2-0.3-0.4-0.4-0.6c-0.3-0.4-0.4-0.6-0.6-0.9c0,0-0.1-0.1-0.1-0.1c-0.2-0.3-0.4-0.6-0.5-0.8
					c0-0.1-0.1-0.1-0.1-0.2c-0.2-0.3-0.3-0.6-0.5-0.9c-0.2-0.3-0.3-0.6-0.5-0.9c0-0.1-0.1-0.1-0.1-0.2c-0.2-0.3-0.3-0.6-0.5-0.9
					c0-0.1-0.1-0.1-0.1-0.2c-0.1-0.3-0.3-0.6-0.4-0.9c-0.2-0.4-0.3-0.7-0.5-1c0-0.1-0.1-0.1-0.1-0.2c-0.1-0.3-0.3-0.6-0.4-0.9
					c-0.2-0.4-0.3-0.7-0.4-1c0,0,0-0.1-0.1-0.1c-0.1-0.3-0.2-0.6-0.3-0.9c0-0.1,0-0.1-0.1-0.2c-0.2-0.6-0.4-1.3-0.6-1.9
					c0-0.1,0-0.1-0.1-0.2c-0.1-0.3-0.2-0.6-0.2-0.9c0-0.1,0-0.1,0-0.2c-0.1-0.3-0.1-0.6-0.2-0.9c-0.1-0.4-0.1-0.7-0.2-1
					c0-0.1,0-0.1,0-0.2c0-0.3-0.1-0.6-0.1-0.9c0-0.4-0.1-0.7-0.1-1c0-0.1,0-0.1,0-0.2c0-0.3,0-0.6-0.1-0.9c0-0.1,0-0.1,0-0.2
					c0-0.3,0-0.6,0-0.9c0-1,0.1-1.9,0.2-2.8c0.2-1.5,0.6-2.8,1.1-3.9c0.1-0.2,0.2-0.4,0.3-0.7c2.7-4.9,8.5-6,15.1-2.2
					c6,3.5,11.2,10.1,14.2,17.2c0.2,0.5,0.4,0.9,0.6,1.4C306.1,181.7,306.3,182.4,306.5,183.1z M291.4,183.6c3.4,2,6.2,0.4,6.3-3.6
					c0-4-2.8-8.8-6.2-10.8c-3.4-2-6.2-0.4-6.3,3.6C285.2,176.8,288,181.6,291.4,183.6"/>
				<g>
					<path class="st0" d="M291.5,169.3c3.4,2,6.2,6.8,6.2,10.8c0,3.9-2.8,5.6-6.3,3.6c-3.4-2-6.2-6.8-6.2-10.8
						C285.2,168.9,288,167.3,291.5,169.3z"/>
				</g>
				<g>
					<path class="st19" d="M337.1,262.9c1.3,0.7,2.3,2.6,2.3,4l0,9.8c0,1.5-1.1,2.1-2.3,1.3l-89.8-51.9c-1.3-0.7-2.3-2.5-2.3-4
						l0-9.8c0-1.5,1.1-2.1,2.3-1.3L337.1,262.9z"/>
				</g>
				<linearGradient id="SVGID_10_" gradientUnits="userSpaceOnUse" x1="287.5249" y1="246.9572" x2="287.5249" y2="308.9714">
					<stop  offset="0" style="stop-color:#5155D4"/>
					<stop  offset="1" style="stop-color:#45F7FF"/>
				</linearGradient>
				<path class="st22" d="M302.1,278.9c3.1,1.8,5.5,6.1,5.5,9.6l0,2.3c0,3.5-2.5,4.9-5.6,3.2L273,277.1c-3.1-1.8-5.5-6.1-5.5-9.6
					l0-2.3c0-3.5,2.5-4.9,5.6-3.2L302.1,278.9z"/>
			</g>
			<linearGradient id="SVGID_11_" gradientUnits="userSpaceOnUse" x1="206.4123" y1="415.2275" x2="272.4344" y2="415.2275">
				<stop  offset="0" style="stop-color:#5155D4"/>
				<stop  offset="1" style="stop-color:#45F7FF"/>
			</linearGradient>
			<ellipse class="st23" cx="239.4" cy="415.2" rx="33" ry="19.6"/>
			<g>
				<path class="st24" d="M272.9,281.9c0,0,2-1.3,2.5-2c0.5-0.7,1.2-4.4,0.5-4.6c-0.7-0.2-1.2,2.5-1.2,2.5s-0.2-6.9-1-7.9
					c-0.8-1-3.5,3.9-3.6,4.8c-0.2,0.8-0.8,4.3-0.8,4.3S270.3,281.9,272.9,281.9z"/>
				<path class="st18" d="M222.7,301.7c0,0-5.2,5.2-1.5,11.4c3.6,6.2,28.3-9.2,30.9-11.5c2.6-2.3,19.9-17.7,20.9-19.7
					c1-2-1.2-3.9-3.8-3.6c-2.6,0.3-13.1,11.5-21.4,16.8C247.8,295.1,228.2,299.5,222.7,301.7z"/>
				<path class="st18" d="M225.7,411c0,0-0.4,3.1,0.1,4.4c0.6,1.1,2.8,2,4.4,0.8c1.6-1.1,4.2-4,4.2-4s4.5-2.4,4.9-3.7
					c0.4-1.3-1.1-2.4-2.4-2.1c-1.3,0.3-4.9,2.5-6.6,2.5C228.7,409,226.3,409.4,225.7,411z"/>
				<linearGradient id="SVGID_12_" gradientUnits="userSpaceOnUse" x1="230.4586" y1="348.3122" x2="222.0596" y2="413.6786">
					<stop  offset="0" style="stop-color:#6851F5"/>
					<stop  offset="1" style="stop-color:#00CFFF"/>
				</linearGradient>
				<path class="st25" d="M221.1,344.8c0,0,4,65.3,4.4,67.2c0.5,1.9,5.6,3,6.6,0c0.6-1.9,2.1-62.3,2.1-62.3L221.1,344.8z"/>
				<path class="st18" d="M238.8,414.9c-0.2,0.2-0.3,0.5-0.3,0.8c0,0.9,0,2.9,0.5,3.7c0.7,1,2.7,2.1,4.9,0.9c1.8-1,7.5-5.2,8.6-6.1
					c0.7-0.6,1-1.3,1.1-1.8c0.1-0.5-0.1-1-0.6-1.2c-0.8-0.4-2.2-0.8-3.4-0.4c-1.9,0.6-4.2,2.6-6.8,2.5
					C241,413.2,239.5,414.3,238.8,414.9z"/>
				<linearGradient id="SVGID_13_" gradientUnits="userSpaceOnUse" x1="226.1294" y1="379.9809" x2="247.5536" y2="379.9809">
					<stop  offset="0" style="stop-color:#6851F5"/>
					<stop  offset="1" style="stop-color:#00CFFF"/>
				</linearGradient>
				<path class="st26" d="M247.6,345.5c-0.3-2.7-3.5-3.6-6.5-2.7c-5.7-0.3-14.5-0.1-14.9,4.4c-0.5,6.6,2.6,11.2,5.6,14.4
					c2.2,2.4,3.6,6.9,4.3,9c0.5,17.3,1.7,41.7,2.4,44.1c1.2,3.8,6.8,3.6,7.1-0.1C246.6,402.3,247.6,345.5,247.6,345.5z"/>
				<path class="st18" d="M247.6,347.5c-0.7,3.4-10.2,5-15.8,4.1c-5.6-0.9-11.6-3.6-11.4-10.1c0,0,1.1-15.5,0.6-18.2
					c-0.4-2.8-1.5-7.6-1.5-12.7c0-5.1,3.2-8.9,3.2-8.9s3.1-3.6,13-1.6c0,0,8,1.7,11.7,7.7c0,0,2.5,6.5,1.7,20.1
					C248.2,341.5,247.6,347.5,247.6,347.5z"/>
				<path class="st27" d="M228,293c0,0,0.8,4.9,0,7.2c-0.1,1.1,4.8,4.9,9.2,4c2.5-0.6,2.4-1.8,2.4-1.8s-2.1-3.5-1.8-6.9
					C238,292,231,292.3,228,293z"/>
				<g>
					<path class="st24" d="M244.5,283c0,6.4-5.2,11.7-11.7,11.7s-11.7-5.2-11.7-11.7c0-6.4,5.2-11.7,11.7-11.7
						S244.5,276.6,244.5,283z"/>
					<path class="st24" d="M244.5,283.8c0,0,0.1,11.7-2.4,14c-2.5,2.4-6.5-2.2-12.7-3.7c-6.2-1.6,5.1-13.8,5.1-13.8L244.5,283.8z"/>
				</g>
				<path class="st24" d="M270.4,301.1c0,0-1.1-4.6-0.7-4.9c0.4-0.4,1.8,1.6,1.8,1.6s0.7-4.7,1.4-5.2c0.6-0.5,3.1,2,3.5,3.3
					c0.4,1.4-1.5,6.8-2.2,6.9C273.4,302.9,270.8,303.3,270.4,301.1z"/>
				<path class="st18" d="M243.9,306.5c0,0-5.2,2.5-3,8.9c2.2,6.4,18.7,8.9,20.7,6.9c2-2,10.6-12.1,13.1-19.7c0,0-1-3-4.9-1.7
					c0,0-9.4,11.8-10.8,13.1C257.5,315.1,246.4,306,243.9,306.5z"/>
				<path class="st28" d="M222.9,274.1c0,0,3.6-4.4,9.9-4.8c6.3-0.4,9.3,1.6,11.7,1.4c2.4-0.2,4.6,1.8,3.8,4.8
					c-0.8,3-2.6,6.1-6.7,6.1c-4,0-5-0.6-5-0.6s3.2,1.4,3.6,4.2c0.4,2.8,0.4,7.1,0.4,7.1h-1c0,0-0.8-4.6-2.4-4.6
					c-1.6,0-1.6,5-0.2,5.9c1.4,0.8,1.4,0.8,1.4,0.8s-2.7,5-4.2,5.2c-1.5,0.2-6.3-3.4-6.3-3.4s-8.1-3.8-8.9-10.1
					C218.2,279.8,222.9,274.1,222.9,274.1z"/>
			</g>
			<g>
				<g>
					<linearGradient id="SVGID_14_" gradientUnits="userSpaceOnUse" x1="102.3374" y1="382.7269" x2="168.3594" y2="382.7269">
						<stop  offset="0" style="stop-color:#5155D4"/>
						<stop  offset="1" style="stop-color:#45F7FF"/>
					</linearGradient>
					<ellipse class="st29" cx="135.3" cy="382.7" rx="33" ry="19.6"/>
					<g>
						<g>
							<path class="st30" d="M118.6,329.1c0,0,2.2,14,4.1,21.8c0,0,0.4,12.9,0.7,17.4c0.4,4.4,1.5,14,1.5,14s1.3,1.1,2.8,0.4
								c0,0,1.8-27.5,2.2-32c0.4-4.4,1.7-24.4,1.7-24.4S127.3,322.4,118.6,329.1z"/>
							<path class="st30" d="M132.5,323.5c0,0,2.2,14,4.1,21.8c0,0,0.4,12.9,0.7,17.4c0.4,4.4,1.5,14,1.5,14s1.3,1.1,2.8,0.4
								c0,0,1.8-27.5,2.2-32c0.4-4.4,0.6-24.2,0.6-24.2S141.2,316.9,132.5,323.5z"/>
							<path class="st18" d="M121.4,310.1c0,0-5.2,5.7-2.2,25.1c0.2,2.8,2,9.9,2,9.9s6.8,1.1,15-2c8.1-3.1,8.3-4.8,8.3-4.8
								s0.4-24.3-1.5-30.6C141.2,301.4,121.4,310.1,121.4,310.1z"/>
							<path class="st31" d="M141.6,375.8c0,0-0.2,1.4,1.3,2.5c1.5,1.1,4.3,3.1,4.7,4.3c0,0.9-3.5-0.1-5.1-0.9c-1.6-0.8-3-2.8-3-2.8
								l0.1,0.8c0,0-0.6,0-1-0.5c-0.5-0.5,0.1-3.3,0.1-3.3L141.6,375.8z"/>
							<path class="st31" d="M127.8,382.2c0,0-0.2,1.4,1.3,2.5c1.5,1.1,4.3,3.1,4.7,4.3c0,0.9-3.5-0.1-5.1-0.9c-1.6-0.8-3-2.8-3-2.8
								l0.1,0.8c0,0-0.6,0-1-0.5c-0.5-0.5,0.1-3.3,0.1-3.3L127.8,382.2z"/>
						</g>
						
							<linearGradient id="SVGID_15_" gradientUnits="userSpaceOnUse" x1="623.5899" y1="321.0912" x2="637.3889" y2="247.4972" gradientTransform="matrix(-1 0 0 1 785.2031 0)">
							<stop  offset="0" style="stop-color:#7F5EFF"/>
							<stop  offset="0.2423" style="stop-color:#8665FF"/>
							<stop  offset="0.5952" style="stop-color:#9978FF"/>
							<stop  offset="0.94" style="stop-color:#B391FF"/>
						</linearGradient>
						<path class="st32" d="M141.3,273.4c0,0,4.8,0.8,7.9,11.2c1.9,6.9,4.6,7.5,7.7,8.1c3.1,0.6,16.2,0,17.2,0c1,0,2.3,2.3,0.8,3.9
							c-1.5,1.7-19.5,3.3-23.1,3.3c-3.5,0-11.6-6.6-15-12.1C133.6,282.5,137,273,141.3,273.4z"/>
						<path class="st18" d="M139,247.4c0,0,4.8,6.1,3.7,13c-1,6.9-7.1,6.5-8.1,10.3c-1,3.7,2.9,9.1-2.5,12.7
							c-5.4,3.5-7.9,2.7-9.4,10.2s-6.6,11.4-15.6,12.3c-8.9,0.8-15.2-10-12.9-17.9c2.3-7.9,10.2-5.4,11.8-11.8
							c1.7-6.4,1-11.5,6.6-14c5.6-2.5,3.5-11.9,9.1-14.9C127.7,244.2,134.9,242.6,139,247.4z"/>
						<g>
							
								<linearGradient id="SVGID_16_" gradientUnits="userSpaceOnUse" x1="644.9124" y1="312.7232" x2="672.8639" y2="257.1739" gradientTransform="matrix(-1 0 0 1 785.2031 0)">
								<stop  offset="0" style="stop-color:#7F5EFF"/>
								<stop  offset="0.2423" style="stop-color:#8665FF"/>
								<stop  offset="0.5952" style="stop-color:#9978FF"/>
								<stop  offset="0.94" style="stop-color:#B391FF"/>
							</linearGradient>
							<path class="st33" d="M126.6,271.3c0,0-10.3,7.3-11.3,9.8c-1,2.4-2.5,10,0.9,13.8c5.8,6.5,2.3,17.5,3.1,20.8
								c0.8,3.3,8.6,3.7,14,2.6c5.4-1.1,10.5-3.8,10.3-10.2c-0.2-6.3,1.5-15.1,1.8-17.9c0.3-2.9,0-10-1.4-14.9
								c-0.3-1-3.7-2.1-3.7-2.1S136.7,270.9,126.6,271.3z"/>
							<path class="st27" d="M135.5,269.9c0,0,0,0.1,0,0.3c0.1,0.8,0.5,2.7,0.6,3.5c0.1,0.8-0.8,2.1-2.9,2.1c-2.1,0-5.6-0.9-6.8-3.4
								c0.1-0.4-0.1-5-0.3-7.3L135.5,269.9z"/>
							<path class="st24" d="M141.3,256.1c-1.1-6-5.8-9.3-11.2-8.1c0,0-5.8,0.6-8.4,5.7c-2.6,5.1,1.2,9.4,3.6,12.1
								c1,1.1,1.8,2,2.3,2.5c0.2,0.2,0.3,0.4,0.5,0.6c0,0,0.1,0.1,0.1,0.1l0,0c1.7,1.7,3.5,2.6,4.9,3c2.3,0.7,5.1,0.3,6.6-1.3
								C141.3,269,142.4,262,141.3,256.1z"/>
						</g>
						<path class="st18" d="M142.3,260.1c0,0-4.3,0.4-6.8-2.5c-2.5-2.9-6,0-8.9-2.5c0,0,1.2,3.1,0,6.2c-1.2,3.1-1.7,7.9-1.7,7.9
							l-5.4-8.5v-7.5l6.9-6.4l9.1-0.4l4.4,4.2C139.9,250.5,142.7,257,142.3,260.1z"/>
						
							<linearGradient id="SVGID_17_" gradientUnits="userSpaceOnUse" x1="641.7146" y1="302.854" x2="666.9562" y2="302.854" gradientTransform="matrix(-1 0 0 1 785.2031 0)">
							<stop  offset="0" style="stop-color:#FF4F00"/>
							<stop  offset="1" style="stop-color:#FF3D9D"/>
						</linearGradient>
						<path class="st34" d="M118.5,296.4l12.9,4.1l12-3.4c-0.2,0.5-3.4,10.3-10.3,12c-5,1.3-10.8-3.1-13.7-5.7
							c-0.2-1.8-0.5-3.6-1.3-5.3L118.5,296.4z"/>
						<g>
							
								<linearGradient id="SVGID_18_" gradientUnits="userSpaceOnUse" x1="652.9095" y1="260.2078" x2="653.6172" y2="305.8503" gradientTransform="matrix(-1 0 0 1 785.2031 0)">
								<stop  offset="0" style="stop-color:#7F5EFF"/>
								<stop  offset="0.2423" style="stop-color:#8665FF"/>
								<stop  offset="0.5952" style="stop-color:#9978FF"/>
								<stop  offset="0.94" style="stop-color:#B391FF"/>
							</linearGradient>
							<path class="st35" d="M119.1,284.2c0,0-6.9-1.7-3.9,7.7c2.9,9.4,12.7,16.2,16.2,15.8c3.5-0.4,17.9-15.6,17.9-17.5
								c0-1.9-1.7-3.1-3.3-2.7c-1.7,0.4-12.7,12.3-13.7,11.8C131.2,298.9,124.7,288.1,119.1,284.2z"/>
							<path class="st24" d="M147.3,290.9c0,0-1.9-0.6-1.4-2.6c0.6-2.1,4.3-3.7,4.9-3.8c0.6-0.1,6.2,1,6.4,1.7c0.2,0.7-1,1-2.4,0.7
								c-1.4-0.3-3.4-0.5-3.4-0.5s1.5,1.6,1.4,2.3c-0.1,0.7-0.9,2.1-2.1,2.6c-1.1,0.6-2.5-0.7-2.5-0.7L147.3,290.9z"/>
						</g>
						<path class="st24" d="M172.4,293c0,0,4.5-3.9,4.8-3.2c0.3,0.7-1.5,2.6-1.5,2.6s6.1-2.3,6.1-1.5c0.1,0.8-3.2,3.3-4.1,3.8
							c-0.9,0.6-4,1.4-4,1.4S172.1,293.9,172.4,293z"/>
					</g>
				</g>
				<g class="st36">
					<path class="st6" d="M151.9,258.6c-1.5,0.9-2.7,3-2.7,4.7l0.2,63.7c0,4.1,2.9,5.7,6.4,3.7l37.9-21.9c1.5-0.9,2.7-3,2.7-4.7
						l-0.2-63.7c0-4.1-2.9-5.7-6.4-3.7L151.9,258.6z"/>
				</g>
				<g>
					<g>
						<g>
							<path class="st0" d="M157.7,281.7c-0.4,0.3-0.8,0.9-0.8,1.4l0,3.4c0,0.5,0.4,0.7,0.8,0.5l30.9-17.9c0.4-0.3,0.8-0.9,0.8-1.4
								l0-3.4c0-0.5-0.4-0.7-0.8-0.5L157.7,281.7z"/>
						</g>
						<g>
							<path class="st0" d="M157.7,289c-0.4,0.3-0.8,0.9-0.8,1.4l0,3.4c0,0.5,0.4,0.7,0.8,0.5l30.9-17.9c0.4-0.3,0.8-0.9,0.8-1.4
								l0-3.4c0-0.5-0.4-0.7-0.8-0.5L157.7,289z"/>
						</g>
					</g>
					<path class="st0" d="M169.8,294.5c-1.1,0.6-1.9,2.1-1.9,3.3l0,0.8c0,1.2,0.9,1.7,1.9,1.1l10-5.8c1.1-0.6,1.9-2.1,1.9-3.3l0-0.8
						c0-1.2-0.9-1.7-1.9-1.1L169.8,294.5z"/>
				</g>
			</g>
		</g>
		<g>
			<g>
				<g>
					<path class="st37" d="M149.5,125.2c1.3-0.7,2.1-0.9,2.4-0.9l-0.3,1.4c-0.5,0-1.2,0.2-2.1,0.7c-2.4,1.4-4,4.1-4,7.2
						c0,2.9,1.5,3.9,4,2.5c0.8-0.5,1.6-1.1,2.2-1.7l0.3,1c-0.5,0.6-1.5,1.4-2.7,2.1c-2.9,1.7-5.1,0.8-5.1-3
						C144.2,130.8,146.3,127,149.5,125.2z"/>
				</g>
				<g>
					<path class="st37" d="M160.6,128.8c0,0.7,0,1.4,0.1,2l-1.2,0.7l-0.1-1l-0.1,0c-0.4,0.9-1.2,2-2.2,2.6c-1.5,0.9-2.3,0.1-2.3-1.1
						c0-2,1.6-4.1,4.4-5.7c0,0,0,0,0.1,0l0-0.2c0-0.7-0.2-1.9-1.7-1c-0.7,0.4-1.4,1.1-1.9,1.7l-0.3-0.8c0.6-0.8,1.5-1.6,2.4-2.1
						c2.3-1.3,2.8,0.1,2.8,1.8L160.6,128.8z M159.3,128.7l0-1.5c-0.1,0-0.2,0.1-0.2,0.1c-1.4,0.8-2.9,2-2.9,3.6c0,1,0.6,1.1,1.3,0.7
						c1-0.6,1.6-1.6,1.8-2.4C159.3,129,159.3,128.8,159.3,128.7"/>
				</g>
				<g>
					<path class="st37" d="M170.9,122.6c0,0.7,0,1.6,0.1,2.1l-1.2,0.7l-0.1-1.4l0,0c-0.4,1.2-1.3,2.4-2.5,3.1
						c-1.8,1-3.2,0.1-3.2-2.5c0-2.8,1.5-5.4,3.3-6.4c1.1-0.7,1.9-0.5,2.2,0l0,0l0-5.1l1.3-0.8L170.9,122.6z M169.6,122l0-1.5
						c0-0.2,0-0.4-0.1-0.6c-0.2-0.9-0.9-1.2-1.9-0.7c-1.4,0.8-2.2,2.7-2.2,4.5c0,1.7,0.7,2.7,2.2,1.9c0.9-0.5,1.7-1.7,2-3
						C169.6,122.5,169.6,122.3,169.6,122"/>
				</g>
				<g>
					<path class="st37" d="M180.2,117.5c0,0.7,0,1.4,0.1,2l-1.2,0.7l-0.1-1l0,0c-0.4,0.9-1.2,2-2.3,2.6c-1.5,0.9-2.3,0.1-2.3-1.1
						c0-2,1.6-4.1,4.4-5.7c0,0,0,0,0.1,0l0-0.2c0-0.7-0.2-1.9-1.7-1c-0.7,0.4-1.4,1.1-1.9,1.7l-0.3-0.8c0.6-0.8,1.5-1.6,2.4-2.1
						c2.3-1.3,2.8,0.1,2.8,1.8L180.2,117.5z M178.9,117.4l0-1.5c-0.1,0-0.2,0.1-0.2,0.1c-1.4,0.8-2.9,2-2.9,3.6c0,1,0.6,1.1,1.3,0.7
						c1-0.6,1.6-1.6,1.8-2.4C178.8,117.7,178.9,117.5,178.9,117.4"/>
				</g>
				<g>
					<path class="st37" d="M186.4,107.2c0.7-0.4,1.4-0.6,1.8-0.5l-0.3,1.3c-0.3,0-0.8,0-1.5,0.4c-0.8,0.5-1.2,1.2-1.2,1.9
						c0,0.7,0.4,0.8,1.4,0.6c1.3-0.2,1.9,0.2,1.9,1.4c0,1.5-1,3.1-2.8,4.1c-0.8,0.5-1.6,0.7-2.1,0.6l0.3-1.4c0.4,0.1,1.1,0,1.8-0.4
						c1-0.6,1.4-1.4,1.4-2.1c0-0.7-0.4-0.9-1.4-0.8c-1.3,0.2-2-0.3-2-1.3C183.8,109.8,184.8,108.2,186.4,107.2z"/>
				</g>
				<g>
					<path class="st37" d="M193.6,100.8l0,2.4l1.9-1.1l0,1.2l-1.9,1.1l0,4.6c0,1,0.3,1.5,1,1.1c0.4-0.2,0.6-0.4,0.8-0.6l0.1,1.1
						c-0.3,0.3-0.7,0.6-1.2,0.9c-0.6,0.4-1.1,0.4-1.4,0.2c-0.4-0.2-0.5-0.9-0.5-1.9l0-4.6l-1.1,0.7l0-1.2l1.1-0.7l0-2L193.6,100.8z"
						/>
				</g>
				<g>
					<path class="st37" d="M202.1,98.2c0.2-0.1,0.3-0.1,0.4-0.2l0,1.5c-0.1,0-0.3,0.1-0.5,0.2c-0.9,0.5-1.6,1.8-1.8,3
						c0,0.2-0.1,0.5-0.1,0.7l0,4.5l-1.3,0.8l0-5.8c0-1,0-1.8-0.1-2.6l1.2-0.7l0,1.6l0.1,0C200.4,99.9,201.2,98.7,202.1,98.2z"/>
				</g>
				<g>
					<path class="st37" d="M208.8,94.3c2.1-1.2,3.6-0.3,3.6,2.3c0,3.1-1.9,5.6-3.7,6.6c-2,1.2-3.5,0.4-3.5-2.3
						C205.1,98.1,206.7,95.5,208.8,94.3z M208.7,102c1.3-0.7,2.2-2.7,2.2-4.6c0-1.4-0.6-2.9-2.2-2c-1.6,0.9-2.3,3-2.3,4.6
						C206.5,101.9,207.4,102.8,208.7,102"/>
				</g>
			</g>
		</g>
	</g>
	<path class="st0" d="M85.7,491.9c-0.8-4.2-3.3-7.4-6.4-10.2c-2.4-7.7-9.2-14.4-15.9-18.8c-5.5-3.6-11.7-6.6-16-11.6
		c-3.8-4.4-5.3-11.4-11.6-13.3c-3.2-0.9-6.9-0.2-9.5,1.9c-2.1-1.6-4.1-3.2-6.2-4.8c-6.2-4.6-13.2-8.4-20.7-4.5
		c-2.3,1.2-2.8,3.3-2.3,5.2c-1,0.7-1.8,1.7-2.1,3c-1.1,0.8-1.8,2-2,3.7c0,0.1,0,0.1,0,0.2c-0.6,0.6-1.2,1.3-1.6,1.7
		c-1.5,1.6-2.6,3.4-3.2,5.5c-1.3,4.1-0.6,8.2,1.4,11.9c0.8,1.5,2.6,2.5,4.3,2.5c1.6,0,3.3,0,4.9-0.1c-0.9,1.5-1.6,3.2-1.8,5.1
		c-0.4,3.3,0.6,5.8,2.4,7.6c0,0.9,0.1,1.8,0.4,2.6c-0.2,1.8-0.1,3.5,0.1,5.2c-4.4,0.5-8.9,3.1-12.1,5.8c-3.2,2.6-0.8,8.7,3.3,8.5
		c-0.3,1.3,0,2.8,0.5,3.9c0.1,0.2,0.2,0.4,0.3,0.6c0.7,1.6,2.7,2.4,4.3,2.5c5.2,0.4,11.2-2.4,13.8-6.7c0.1,0.2,0.2,0.3,0.4,0.5
		c1.3,1.5,4.4,2,6.1,0.8c0.1-0.1,0.1-0.1,0.2-0.2c6.1,3.3,13.1,6,19.6,3.9c0.6,0.1,1.2,0.3,1.8,0.4c5.2,1.7,10.9,2.4,16.2,3.5
		c4.4,0.9,7-3.4,6.1-6.7c3.7,1,7.3,1.8,11,2.4C78.7,505.1,87.4,500.6,85.7,491.9z"/>
	<path class="st0" d="M501.1,482.2c0-0.8,0-1.6,0-2.4c0.1-8.4,0.2-16.8,0.3-25.2c0-2.4-1.6-4-3.6-4.6c0-2.5,0-5,0-7.6
		c2.2-0.3,4.1-1.9,4.2-4.8c0-1,0.1-2,0.2-2.9c5.2-8.9,8.1-19,8-29.6c0-2-1.3-3.6-2.9-4.4c1.3-12.7-0.8-25.4-3.6-37.9
		c2.9-0.1,5.9-2.5,5.2-6.3c-2.1-11.3-4.1-22.7-6.2-34c1-8.2,1.7-16.4,2.1-24.7c0.1-2.5,0.2-5.1,0.3-7.6c0.1-6.4-9.9-6.4-10,0
		c0,2-0.1,4-0.2,6c-2.5-0.4-5.5,0.8-5.9,3.5c-0.3,1.4-0.5,2.8-0.7,4.2c-1-3.4-2.4-6.7-4.2-9.9c-2.3-4.1-7.6-2.5-9.1,1.2
		c-1.8,4.3-3.4,8.6-4.9,13c-1-3.8-7.5-5.7-9.3-1.4c-0.2,0.4-0.3,0.8-0.5,1.2c0,0,0,0,0,0c0,0,0,0.1,0,0.1c-0.3,0.8-0.7,1.6-1,2.3
		c-2.1-0.4-4.6,0.3-5.8,2.1c-0.6,0.9-1.3,1.9-1.9,2.8c-1.3,0.5-2.4,1.5-2.9,3.2c-0.2,0.7-0.5,1.5-0.7,2.2c-3.1,4.7-6.2,9.4-9.3,14.1
		c0.2-1.7,0.4-3.4,0.6-5.1c0.8-6-8-6.2-9.8-1.3c0,0.1-0.1,0.2-0.1,0.2c-0.2,0.2-0.3,0.3-0.5,0.6c-3.3,4.1-6.5,8.3-9.8,12.4
		c-0.5-2.5-2.9-4-5.2-4.1c0-0.9,0.1-1.8,0.1-2.7c0.2-5.7-8.3-6.7-9.8-1.3c-2.8,9.7-4.2,19.6-4.3,29.7c-0.2-0.2-0.4-0.3-0.6-0.4
		c-0.1-0.3-0.1-0.5-0.2-0.8c-1.1-4.8-8.6-4.8-9.6,0c-1.4,6-2.2,12.1-2.5,18.1c-2,0.4-3.8,2-3.8,4.7c-0.1,6.8-0.2,13.6-0.2,20.4
		c-0.1,0.8-0.2,1.5-0.3,2.3c-0.1,0.8,0,1.6,0.3,2.2c0,0.7,0,1.5,0,2.2c-0.2,5-0.5,9.9-0.8,14.9c-0.1,1.3,0.4,2.4,1.1,3.2
		c0.2,6.2,0.4,12.4,0.6,18.6c0,0.2,0,0.4,0.1,0.6c-4.9,15.4-7,31.6-5.8,47.7c0.4,6.2,0.7,13.2,7.1,16c5.4,2.4,12.8,1.5,18.9,0.7
		c1.4,1.1,3.3,1.4,5.1,0.6c4.5,3.2,10,5.5,15.6,7c0.4,0.1,0.8,0.2,1.2,0.3c0,0.8-0.1,1.5-0.1,2.3c-0.1,4.1,5.7,6.9,8.5,3.5
		c1-1.2,2-2.4,3-3.6c11.9,1.8,24.8,1.7,35.3-2.6c8.7-3.6,15.9-11,18.2-19.9c1-0.3,1.9-0.8,2.5-1.6c0.3,2.4,0.6,4.9,0.7,7.3
		c0.3,6.5,9.4,6.3,10,0c0.7-6.7,0.9-13.4,0.8-20.2C504.7,484.6,503.1,482.9,501.1,482.2z M394.3,449.7c0.3,0.4,0.7,0.8,1.2,1.1
		c-0.9,1.3-1.8,2.6-2.8,3.9C393.2,453,393.7,451.3,394.3,449.7z M398.9,491.9c-0.3,2.1-0.3,4.2,0,6.1c-0.7,1.1-1.3,2.3-1.8,3.4
		c-0.4,0.9-0.6,1.8-0.5,2.6c-0.4,0-0.8,0-1,0c-1.6,0-5.5,0.6-6.7-0.6c-1.2-1.1-0.8-6.6-0.9-8.2c-0.3-5.3-0.2-10.5,0.1-15.8
		c0.3-4.6,1-9.1,1.8-13.6c0.9,0.9,2.1,1.5,3.4,1.5c-1.4,7.1-0.8,14.2,5.7,17.1c0.5,0.2,1,0.4,1.5,0.6c0,0,0,0.1,0,0.1
		C399.8,487.3,399.2,489.5,398.9,491.9z M427.4,511.6c-1.6-0.4-3.3-0.9-4.9-1.5c2.2-0.8,4.3-1.7,6.1-2.8
		C428.1,508.7,427.7,510.2,427.4,511.6z M441.6,501.3c0.6-1.2,1.2-2.4,1.9-3.6c0,0.2,0,0.5,0,0.7
		C442.9,499.4,442.2,500.3,441.6,501.3z M444.6,514.4c0.4-0.6,0.8-1.1,1.2-1.7c0.3,0.8,0.7,1.4,1.2,1.9
		C446.2,514.6,445.4,514.5,444.6,514.4z M479.8,310.3c0.7,2.6,1.1,5.2,1.5,7.9c-0.3,0-0.6,0-0.9,0c-0.7-0.9-1.6-1.5-2.7-1.7
		C478.4,314.4,479.1,312.4,479.8,310.3z M465.2,513.2c-3.8,1-7.8,1.5-11.9,1.6c0.8-0.6,1.5-1.4,1.9-2.5c1.7-4.7,3.3-9.4,4.9-14.1
		c0,0.1,0,0.3,0,0.4c0.4,3.7,4.9,6.4,7.9,4.3c0.9,5.1,8.3,4.1,9.6-0.1c0.4-1.3,0.8-2.6,1.2-3.9c0.9-0.5,1.7-0.9,2.6-1.2
		C480.3,505.3,472.6,511.2,465.2,513.2z"/>
</g>
<g id="DESIGNED_BY_FREEPIK">
</g>
</svg>
