<?xml version="1.0" encoding="utf-8"?>
<!-- Generator: Adobe Illustrator 22.0.1, SVG Export Plug-In . SVG Version: 6.00 Build 0)  -->
<svg version="1.1" id="f080dbb7-9b2b-439b-a118-60b91c514f72"
	 xmlns="http://www.w3.org/2000/svg" xmlns:xlink="http://www.w3.org/1999/xlink" x="0px" y="0px" viewBox="0 0 528.7 699.8"
	 style="enable-background:new 0 0 528.7 699.8;" xml:space="preserve">
<style type="text/css">
	.st0{fill:#535461;}
	.st1{fill:#6C63FF;}
	.st2{opacity:0.1;}
	.st3{fill:#FFFFFF;}
	.st4{opacity:0.1;enable-background:new    ;}
	.st5{opacity:0.1;fill:none;stroke:#000000;stroke-width:2;stroke-miterlimit:10;enable-background:new    ;}
	.st6{fill:#2F2E41;}
	.st7{fill:#FFB8B8;}
</style>
<title>Login</title>
<rect x="153.3" y="157.7" class="st0" width="186.4" height="275.9"/>
<polygon class="st1" points="288.9,440.7 153.3,433.5 153.3,157.7 288.9,150.5 "/>
<circle class="st0" cx="277.6" cy="308.8" r="1.7"/>
<polygon class="st0" points="277.6,309.1 278.7,311.1 279.9,313.1 277.6,313.1 275.2,313.1 276.4,311.1 "/>
<polygon class="st1" points="294.8,440.7 286.5,440.6 286.8,150.5 294.8,150.5 "/>
<g class="st2">
	<polygon class="st3" points="294.9,440.6 286.5,440.6 286.9,150.5 294.9,150.5 	"/>
</g>
<circle class="st4" cx="277.6" cy="296.6" r="5.5"/>
<circle class="st0" cx="277.6" cy="295.8" r="5.5"/>
<line class="st5" x1="175.5" y1="157.3" x2="175.5" y2="434.8"/>
<line class="st5" x1="199.4" y1="155.6" x2="199.4" y2="435.7"/>
<line class="st5" x1="223.3" y1="154.3" x2="223.3" y2="437.3"/>
<line class="st5" x1="247.3" y1="153.1" x2="247.3" y2="439"/>
<line class="st5" x1="271.2" y1="151.8" x2="271.2" y2="439.4"/>
<ellipse class="st6" cx="347.8" cy="190.5" rx="16.6" ry="15.5"/>
<path class="st7" d="M299.5,287.3l-4.2,5.9c0,0-20.2,4.2-12.6,10.5s18.5-5.9,18.5-5.9l5.9-7.6L299.5,287.3z"/>
<path class="st1" d="M321.3,220.5c0,0-5.5,0-6.7,7.6c-1.3,7.6-2.5,32.8-2.5,32.8s-17.6,23.1-14.7,26s6.3,8.4,8.4,7.6
	s20.2-25.6,20.2-25.6L321.3,220.5z"/>
<path class="st4" d="M321.3,220.5c0,0-5.5,0-6.7,7.6c-1.3,7.6-2.5,32.8-2.5,32.8s-17.6,23.1-14.7,26s6.3,8.4,8.4,7.6
	s20.2-25.6,20.2-25.6L321.3,220.5z"/>
<path class="st7" d="M338.1,199.1c0,0-0.4,16.4-5.5,17.2c-5,0.8-3.4,6.3-3.4,6.3s16.4,9.7,27.3,0l2.1-5c0,0-7.6-5.5-4.2-13
	L338.1,199.1z"/>
<path class="st6" d="M310,299.9c0,0-24.8,46.2-15.5,60.5c9.2,14.3,23.1,43.7,25.2,43.7s13.9-5.9,13-9.7
	c-0.8-3.8-13.4-31.9-16.8-34.4s-1.7-9.2-1.3-9.7c0.4-0.4,14.3-22.7,14.3-22.7s-0.4,35.3,1.3,40.7s-0.4,44.5,1.7,46.2
	s11.8,4.6,13.4,2.1c1.7-2.5,6.7-40.7,3.4-49.5l6.3-60.5L310,299.9z"/>
<path class="st6" d="M332.7,412l-10.5,19.3c0,0-15.1,10.9-4.6,12.6c10.5,1.7,16.8-2.5,16.8-2.5l9.2-6.7v-19.3L332.7,412z"/>
<path class="st6" d="M318.4,401.1l5.5,13c0,0,2.1,5.5,0,6.7s-8,8.8-4.2,9.7c0.8,0.1,1.5,0.2,2.3,0.2c6.4,0.1,12.5-2.4,17-6.9
	l3.4-3.4c0,0-11.7-26.9-11.5-26.7C331,394,318.4,401.1,318.4,401.1z"/>
<circle class="st7" cx="348.6" cy="194.9" r="14.3"/>
<path class="st1" d="M356.8,214.9l-4.4,4.4c0,0-13.4,5-19.7,0c0,0,2.3-4.8,2.3-4.4s-18.3,3.1-19.9,10.7s1.3,20.6,1.3,20.6
	s-11.8,55.4-7.1,56.7c4.6,1.3,47.9,11.8,47.4,3.8c-0.4-8,3.4-40.7,3.4-40.7l14.7-28.1c0,0-2.1-9.2-7.1-12.2S356.8,214.9,356.8,214.9
	z"/>
<path class="st7" d="M338.1,297l-5.5,3.4c0,0-21,14.3-10.1,16.8s17.2-10.1,17.2-10.1l4.2-5L338.1,297z"/>
<path class="st4" d="M369.2,235.2l3.8,3.8c0,0,2.5,35.3-2.5,42.4s-28.1,26.5-29.4,25.2c-1.3-1.3-9.2-7.6-7.6-8.4
	c1.7-0.8,24-24.2,24-24.2l-1.8-32.5L369.2,235.2z"/>
<path class="st1" d="M370.9,234l3.8,3.8c0,0,2.5,35.3-2.5,42.4s-28.1,26.5-29.4,25.2s-9.2-7.6-7.6-8.4c1.7-0.8,24-24.2,24-24.2
	l-1.8-32.5L370.9,234z"/>
<path class="st6" d="M342.7,174.7c0,0-4.9-1.8-11.5,2l3.5,0.9c0,0-5.3,0.4-6,7.5h2.4c0,0-1.5,6.2,0,7.9l1-1.9l2.9,5.7l0.7-2.9
	l1.3,0.4l0.9-4.6c0,0,2.2,3.3,4,3.5v-2.9c0,0,4.9,5.5,6.4,5.3l-2.2-3.1l3.1,0.7l-1.3-2.2l7.9,2.2L354,191l5.5,1.8l2.6,1.1
	c0,0,3.7-8.6-1.5-14.6C355.4,173.4,347.7,172.1,342.7,174.7z"/>
</svg>
