<?xml version="1.0" encoding="utf-8"?>
<!-- Generator: Adobe Illustrator 22.0.1, SVG Export Plug-In . SVG Version: 6.00 Build 0)  -->
<svg version="1.1" id="f9eb83fe-2109-496c-8de2-d29751931755"
	 xmlns="http://www.w3.org/2000/svg" xmlns:xlink="http://www.w3.org/1999/xlink" x="0px" y="0px" viewBox="0 0 1166.2 805.1"
	 style="enable-background:new 0 0 1166.2 805.1;" xml:space="preserve">
<style type="text/css">
	.st0{opacity:0.1;fill:#6C63FF;enable-background:new    ;}
	.st1{fill:#6C63FF;}
	.st2{fill:#444053;}
	.st3{fill:#3F3D56;}
	.st4{fill:#FFFFFF;}
	.st5{opacity:0.8;fill:#FA5959;enable-background:new    ;}
	.st6{opacity:0.8;fill:#FED253;enable-background:new    ;}
	.st7{opacity:0.8;fill:#8CCF4D;enable-background:new    ;}
	.st8{opacity:5.000000e-02;enable-background:new    ;}
	.st9{fill:url(#SVGID_1_);}
	.st10{fill:#FBBEBE;}
	.st11{opacity:0.1;enable-background:new    ;}
	.st12{fill:#33313F;}
	.st13{opacity:0.1;}
</style>
<title>authentication</title>
<path class="st0" d="M718.9,259.4c-45.8,0.1-90-12.9-132.2-27.4c-42.2-14.4-84.1-30.6-129.1-37.5c-28.9-4.4-61.8-4-84.5,12
	c-21.8,15.4-28.1,40.8-31.1,64.4c-2.3,17.7-3.3,36.3,5.2,52.4c5.9,11.2,16.1,20.5,23.3,31.2c25,37.2,10,84.8-14.4,122.9
	c-11.4,17.9-24.8,35-33.4,53.9c-8.6,18.9-12.2,40.3-3.4,59c8.7,18.5,28.4,31.9,49.6,41.1c42.9,18.7,92.9,22.7,141.5,24.2
	c107.7,3.4,215.5-3.6,323.1-10.5c39.8-2.6,79.8-5.2,118.8-12.6c21.6-4.1,43.9-10.3,59.3-23.8c19.5-17.1,23.5-45,9.3-65.1
	c-23.8-33.7-86.5-40-103.5-76.4c-9.4-20-1.3-43,10.6-62.4c25.6-41.5,69.7-78.6,70.4-125c0.5-31.8-22.4-62.9-56.7-76.8
	c-35.9-14.5-84.8-10.8-110,16.3C806.2,247.3,759.4,259.4,718.9,259.4z"/>
<path class="st1" d="M923.1,588c0,0-7.5-5-15-1.4c0,0,2.3,4.4,11.8,4L923.1,588z"/>
<path class="st1" d="M924.1,588.2c0,0,2.3,8.7-3.5,14.7c0,0-3.5-3.6,0-12.4L924.1,588.2z"/>
<path class="st1" d="M933.4,579.8c0,0-0.6-7.4-17.3-5c0,0-0.1,4.8,5.8,7.1S930.5,582.3,933.4,579.8z"/>
<path class="st1" d="M934.5,579.8c0,0,7.1,2.3,0.8,18c0,0-4.7-1-5.5-7.3S931.4,582.1,934.5,579.8z"/>
<path class="st1" d="M943.9,569.3c0,0,1-12.2-16.2-11c0,0-1.2,11,13.2,13.9L943.9,569.3z"/>
<path class="st1" d="M955.3,555.5c0,0-2.3-13.9-19.5-9.7c0,0-0.1,12,16.7,13L955.3,555.5z"/>
<path class="st1" d="M963.6,541.2c0,0-3.9-13.5-20.9-9.5c0,0,4,12.1,19.8,11.9L963.6,541.2z"/>
<path class="st1" d="M971.4,527.3c0,0-3.8-14-20.2-9.8c0,0,5.5,13.3,19.2,12.2L971.4,527.3z"/>
<path class="st1" d="M976.5,514c0,0-3-17.1-18.2-13.3c0,0,4.4,15.6,17.1,15.8L976.5,514z"/>
<path class="st1" d="M981.2,498c0,0-3.6-17.3-19-12.3c0,0,6.1,16.3,17.9,14.6L981.2,498z"/>
<path class="st1" d="M984.2,483.2c0,0-5.6-17.3-17.6-16.8c0,0,5.8,18.2,16.6,20.2L984.2,483.2z"/>
<path class="st1" d="M986,468.6c0,0-6.1-20.8-15.9-19.2c0,0,4.2,15.9,15.5,22.4L986,468.6z"/>
<path class="st1" d="M987.1,451.3c0,0-5.8-17.3-15.3-18c0,0,3.9,17,15.1,22.5L987.1,451.3z"/>
<path class="st1" d="M988.3,435.1c0,0-7.2-17.3-13.5-17.7c0,0,3.1,17.1,12.9,20.6L988.3,435.1z"/>
<path class="st1" d="M989.1,420.1c0,0-4.4-18.8-10.7-20.4c0,0,0.9,15.4,10.1,21.8L989.1,420.1z"/>
<path class="st1" d="M991.4,400.4c0,0-4.6-15-9.8-17.3c0,0,1,17.7,8.6,21L991.4,400.4z"/>
<path class="st1" d="M993.4,387.5l0.9-26.5c0,0-9.6,19.9-1.6,31.1L993.4,387.5z"/>
<path class="st1" d="M1000.8,361.2c0,0,6.9-19.3,8.6-20.4c0,0-13.6,12.5-12.2,28.7L1000.8,361.2z"/>
<path class="st1" d="M944.4,569.2c0,0,12.2-1.6,11.8,15.6c0,0-11,1.8-14.6-12.4L944.4,569.2z"/>
<path class="st1" d="M955.8,555c0,0,14,0,12.9,17.5c0,0-11.8,2.1-15.7-14.2L955.8,555z"/>
<path class="st1" d="M963.7,542.3c0,0,12.7-6,20.9,9.5c0,0-11.8,5-22-7L963.7,542.3z"/>
<path class="st1" d="M971.7,527.4c0,0,13.1-6.4,20.7,8.7c0,0-13.6,4.7-21.8-6.3L971.7,527.4z"/>
<path class="st1" d="M976.3,514.4c0,0,12.6-12,22.6,0.1c0,0-12.8,9.9-23.2,2.5L976.3,514.4z"/>
<path class="st1" d="M980.5,497.6c0,0,12.6-12.3,22.6,0.6c0,0-14.2,10.1-23,2L980.5,497.6z"/>
<path class="st1" d="M982.9,482.7c0,0,9.7-15.3,21.2-11.9c0,0-10.1,16.2-21.1,15.5L982.9,482.7z"/>
<path class="st1" d="M985.8,468.5c0,0,9.8-19.3,19.1-15.9c0,0-7.1,14.8-19.3,19.2L985.8,468.5z"/>
<path class="st1" d="M986.4,450.3c0,0,10.1-15.2,19.5-13.3c0,0-8.2,15.4-20.5,17.7L986.4,450.3z"/>
<path class="st1" d="M987.2,434.8c0,0,7.8-17.1,14.2-17.2c0,0-3.8,16.9-13.6,20.1L987.2,434.8z"/>
<path class="st1" d="M988.7,419.7c0,0,8.7-17.3,15.2-17.3c0,0-4.4,14.8-14.9,18.8L988.7,419.7z"/>
<path class="st1" d="M990.1,401.5c0,0,6.5-14.3,11.9-15.9c0,0-3.3,17.4-11.2,19.7L990.1,401.5z"/>
<path class="st1" d="M994.2,387l14.5-22.1c0,0-3.7,21.8-16.6,26.4L994.2,387z"/>
<path class="st1" d="M1004.2,363c0,0,16.9-11.7,17.5-13.5c0,0-8.6,16.3-24.5,19.2L1004.2,363z"/>
<path class="st1" d="M1005.2,357.8c0,0,19.4-18.6,24.3-18.6c0,0-16,0.7-24.8,17.6L1005.2,357.8z"/>
<path class="st2" d="M990.2,404.3l0.7,0.1c3.6-28.5,9-45.4,15-47.4l-0.2-0.7C999.3,358.4,994,375,990.2,404.3z"/>
<path class="st2" d="M984.9,472.4l1.1,0.1c0.2-2.7,0.4-5.4,0.5-8.1c1-23.6,2.6-45.3,4.7-61.5l-0.6-0.8c-2.1,16.3-4.1,38.6-5.1,62.2
	C985.3,467.1,985.1,469.8,984.9,472.4z"/>
<path class="st2" d="M903.2,601.6c0.2-0.1,19-8.5,38.5-28.5c11.4-11.7,20.9-25.2,28.1-39.9c9-18.4,14.5-40.9,16.3-62.8l-1.1,0.5
	c-4.1,49.2-26.5,82.8-44.3,101.1c-19.3,19.8-37.9,28.1-38.1,28.2L903.2,601.6z"/>
<path class="st3" d="M951.8,244.5H362.6c-2.9,0-5.2,2.4-5.2,5.2V265h599.8v-15.3C957.1,246.8,954.7,244.5,951.8,244.5z"/>
<path class="st4" d="M357.3,265v344.2c0,5.8,4.7,10.6,10.6,10.6c0,0,0,0,0,0h578.6c5.8,0,10.6-4.7,10.6-10.6l0,0V265H357.3z"/>
<circle class="st5" cx="366.8" cy="254.6" r="2.5"/>
<circle class="st6" cx="373.6" cy="254.6" r="2.5"/>
<circle class="st7" cx="380.3" cy="254.6" r="2.5"/>
<rect x="413.1" y="322.4" class="st8" width="482" height="212"/>
<rect x="416.8" y="324" class="st3" width="474.7" height="207.3"/>
<path class="st1" d="M546.2,377.3c-26.1,0-47.2,21.1-47.2,47.2s21.1,47.2,47.2,47.2c26.1,0,47.2-21.1,47.2-47.2
	S572.2,377.3,546.2,377.3L546.2,377.3z M554.6,425.7v22.4h-16.7v-22.4c-6.1-4.6-7.3-13.3-2.7-19.4c4.6-6.1,13.3-7.3,19.4-2.7
	c6.1,4.6,7.3,13.3,2.7,19.4C556.5,424,555.6,424.9,554.6,425.7z"/>
<path class="st8" d="M546.2,377.3c-26.1,0-47.2,21.1-47.2,47.2s21.1,47.2,47.2,47.2c26.1,0,47.2-21.1,47.2-47.2
	S572.2,377.3,546.2,377.3L546.2,377.3z M554.6,425.7v22.4h-16.7v-22.4c-6.1-4.6-7.3-13.3-2.7-19.4c4.6-6.1,13.3-7.3,19.4-2.7
	c6.1,4.6,7.3,13.3,2.7,19.4C556.5,424,555.6,424.9,554.6,425.7z"/>
<path class="st1" d="M546.2,363.8c-33.5,0-60.7,27.2-60.7,60.7s27.2,60.7,60.7,60.7c33.5,0,60.7-27.2,60.7-60.7l0,0
	C606.9,391,579.7,363.8,546.2,363.8z M557,426v28.7h-21.5V426c-7.8-5.9-9.4-17.1-3.4-24.9c5.9-7.8,17.1-9.4,24.9-3.4
	c7.8,5.9,9.4,17.1,3.4,24.9C559.5,423.9,558.3,425,557,426z"/>
<rect x="632" y="416.6" class="st4" width="196.2" height="20.9"/>
<rect x="785.9" y="454.6" class="st1" width="42.3" height="20.9"/>
<path class="st1" d="M651.3,426.7h-3.6l3.2-3.2c0.1-0.1,0.1-0.3,0-0.4c-0.1-0.1-0.3-0.1-0.4,0c0,0,0,0,0,0l-3.2,3.2v-3.6
	c0-0.2-0.1-0.3-0.3-0.3c-0.2,0-0.3,0.1-0.3,0.3v3.6l-3.2-3.2c-0.1-0.1-0.3-0.1-0.4,0c0,0,0,0,0,0c-0.1,0.1-0.1,0.3,0,0.4l3.2,3.2
	h-3.6c-0.2,0-0.3,0.1-0.3,0.3c0,0.2,0.1,0.3,0.3,0.3h3.6l-3.2,3.2c-0.1,0.1-0.1,0.3,0,0.4c0.1,0.1,0.3,0.1,0.4,0l3.2-3.2v3.6
	c0,0.2,0.1,0.3,0.3,0.3c0.2,0,0.3-0.1,0.3-0.3v-3.6l3.2,3.2c0.1,0.1,0.3,0.1,0.4,0c0.1-0.1,0.1-0.3,0-0.4l-3.2-3.2h3.6
	c0.2,0,0.3-0.1,0.3-0.3C651.6,426.8,651.5,426.7,651.3,426.7z"/>
<path class="st1" d="M664.2,426.7h-3.6l3.2-3.2c0.1-0.1,0.1-0.3,0-0.4c-0.1-0.1-0.3-0.1-0.4,0c0,0,0,0,0,0l-3.2,3.2v-3.6
	c0-0.2-0.1-0.3-0.3-0.3c-0.2,0-0.3,0.1-0.3,0.3v3.6l-3.2-3.2c-0.1-0.1-0.3-0.1-0.4,0c0,0,0,0,0,0c-0.1,0.1-0.1,0.3,0,0.4l3.2,3.2
	h-3.6c-0.2,0-0.3,0.1-0.3,0.3c0,0.2,0.1,0.3,0.3,0.3h3.6l-3.2,3.2c-0.1,0.1-0.1,0.3,0,0.4c0.1,0.1,0.3,0.1,0.4,0l3.2-3.2v3.6
	c0,0.2,0.1,0.3,0.3,0.3c0.2,0,0.3-0.1,0.3-0.3v-3.6l3.2,3.2c0.1,0.1,0.3,0.1,0.4,0c0.1-0.1,0.1-0.3,0-0.4l-3.2-3.2h3.6
	c0.2,0,0.3-0.1,0.3-0.3C664.5,426.8,664.4,426.7,664.2,426.7z"/>
<path class="st1" d="M677.1,426.7h-3.6l3.2-3.2c0.1-0.1,0.1-0.3,0-0.4c-0.1-0.1-0.3-0.1-0.4,0c0,0,0,0,0,0l-3.2,3.2v-3.6
	c0-0.2-0.1-0.3-0.3-0.3c-0.2,0-0.3,0.1-0.3,0.3v3.6l-3.2-3.2c-0.1-0.1-0.3-0.1-0.4,0c0,0,0,0,0,0c-0.1,0.1-0.1,0.3,0,0.4l3.2,3.2
	h-3.6c-0.2,0-0.3,0.1-0.3,0.3c0,0.2,0.1,0.3,0.3,0.3h3.6l-3.2,3.2c-0.1,0.1-0.1,0.3,0,0.4c0.1,0.1,0.3,0.1,0.4,0l3.2-3.2v3.6
	c0,0.2,0.1,0.3,0.3,0.3c0.2,0,0.3-0.1,0.3-0.3v-3.6l3.2,3.2c0.1,0.1,0.3,0.1,0.4,0c0.1-0.1,0.1-0.3,0-0.4l-3.2-3.2h3.6
	c0.2,0,0.3-0.1,0.3-0.3C677.4,426.8,677.2,426.7,677.1,426.7z"/>
<path class="st1" d="M690,426.7h-3.6l3.2-3.2c0.1-0.1,0.1-0.3,0-0.4c-0.1-0.1-0.3-0.1-0.4,0c0,0,0,0,0,0l-3.2,3.2v-3.6
	c0-0.2-0.1-0.3-0.3-0.3c-0.2,0-0.3,0.1-0.3,0.3v3.6l-3.2-3.2c-0.1-0.1-0.3-0.1-0.4,0c0,0,0,0,0,0c-0.1,0.1-0.1,0.3,0,0.4l3.2,3.2
	h-3.6c-0.2,0-0.3,0.1-0.3,0.3c0,0.2,0.1,0.3,0.3,0.3h3.6l-3.2,3.2c-0.1,0.1-0.1,0.3,0,0.4c0.1,0.1,0.3,0.1,0.4,0l3.2-3.2v3.6
	c0,0.2,0.1,0.3,0.3,0.3c0.2,0,0.3-0.1,0.3-0.3v-3.6l3.2,3.2c0.1,0.1,0.3,0.1,0.4,0c0.1-0.1,0.1-0.3,0-0.4l-3.2-3.2h3.6
	c0.2,0,0.3-0.1,0.3-0.3C690.3,426.8,690.1,426.7,690,426.7z"/>
<path class="st1" d="M702.8,426.7h-3.6l3.2-3.2c0.1-0.1,0.1-0.3,0-0.4c-0.1-0.1-0.3-0.1-0.4,0c0,0,0,0,0,0l-3.2,3.2v-3.6
	c0-0.2-0.1-0.3-0.3-0.3c-0.2,0-0.3,0.1-0.3,0.3v3.6l-3.2-3.2c-0.1-0.1-0.3-0.1-0.4,0c0,0,0,0,0,0c-0.1,0.1-0.1,0.3,0,0.4l3.2,3.2
	h-3.6c-0.2,0-0.3,0.1-0.3,0.3c0,0.2,0.1,0.3,0.3,0.3h3.6l-3.2,3.2c-0.1,0.1-0.1,0.3,0,0.4c0.1,0.1,0.3,0.1,0.4,0l3.2-3.2v3.6
	c0,0.2,0.1,0.3,0.3,0.3c0.2,0,0.3-0.1,0.3-0.3v-3.6l3.2,3.2c0.1,0.1,0.3,0.1,0.4,0c0.1-0.1,0.1-0.3,0-0.4l-3.2-3.2h3.6
	c0.2,0,0.3-0.1,0.3-0.3C703.1,426.8,703,426.7,702.8,426.7z"/>
<path class="st1" d="M715.7,426.7h-3.6l3.2-3.2c0.1-0.1,0.1-0.3,0-0.4c-0.1-0.1-0.3-0.1-0.4,0c0,0,0,0,0,0l-3.2,3.2v-3.6
	c0-0.2-0.1-0.3-0.3-0.3c-0.2,0-0.3,0.1-0.3,0.3v3.6l-3.2-3.2c-0.1-0.1-0.3-0.1-0.4,0c0,0,0,0,0,0c-0.1,0.1-0.1,0.3,0,0.4l3.2,3.2
	h-3.6c-0.2,0-0.3,0.1-0.3,0.3c0,0.2,0.1,0.3,0.3,0.3h3.6l-3.2,3.2c-0.1,0.1-0.1,0.3,0,0.4c0.1,0.1,0.3,0.1,0.4,0l3.2-3.2v3.6
	c0,0.2,0.1,0.3,0.3,0.3c0.2,0,0.3-0.1,0.3-0.3v-3.6l3.2,3.2c0.1,0.1,0.3,0.1,0.4,0c0.1-0.1,0.1-0.3,0-0.4l-3.2-3.2h3.6
	c0.2,0,0.3-0.1,0.3-0.3C716,426.8,715.9,426.7,715.7,426.7z"/>
<path class="st1" d="M728.6,426.7H725l3.2-3.2c0.1-0.1,0.1-0.3,0-0.4c-0.1-0.1-0.3-0.1-0.4,0c0,0,0,0,0,0l-3.2,3.2v-3.6
	c0-0.2-0.1-0.3-0.3-0.3c-0.2,0-0.3,0.1-0.3,0.3v3.6l-3.2-3.2c-0.1-0.1-0.3-0.1-0.4,0c0,0,0,0,0,0c-0.1,0.1-0.1,0.3,0,0.4l3.2,3.2
	H720c-0.2,0-0.3,0.1-0.3,0.3c0,0.2,0.1,0.3,0.3,0.3h3.6l-3.2,3.2c-0.1,0.1-0.1,0.3,0,0.4c0.1,0.1,0.3,0.1,0.4,0l3.2-3.2v3.6
	c0,0.2,0.1,0.3,0.3,0.3c0.2,0,0.3-0.1,0.3-0.3v-3.6l3.2,3.2c0.1,0.1,0.3,0.1,0.4,0c0.1-0.1,0.1-0.3,0-0.4l-3.2-3.2h3.6
	c0.2,0,0.3-0.1,0.3-0.3C728.9,426.8,728.8,426.7,728.6,426.7z"/>
<path class="st1" d="M741.5,426.7h-3.6l3.2-3.2c0.1-0.1,0.1-0.3,0-0.4c-0.1-0.1-0.3-0.1-0.4,0c0,0,0,0,0,0l-3.2,3.2v-3.6
	c0-0.2-0.1-0.3-0.3-0.3c-0.2,0-0.3,0.1-0.3,0.3v3.6l-3.2-3.2c-0.1-0.1-0.3-0.1-0.4,0c0,0,0,0,0,0c-0.1,0.1-0.1,0.3,0,0.4l3.2,3.2
	h-3.6c-0.2,0-0.3,0.1-0.3,0.3c0,0.2,0.1,0.3,0.3,0.3h3.6l-3.2,3.2c-0.1,0.1-0.1,0.3,0,0.4c0.1,0.1,0.3,0.1,0.4,0l3.2-3.2v3.6
	c0,0.2,0.1,0.3,0.3,0.3c0.2,0,0.3-0.1,0.3-0.3v-3.6l3.2,3.2c0.1,0.1,0.3,0.1,0.4,0c0.1-0.1,0.1-0.3,0-0.4l-3.2-3.2h3.6
	c0.2,0,0.3-0.1,0.3-0.3C741.8,426.8,741.6,426.7,741.5,426.7z"/>
<path class="st1" d="M754.4,426.7h-3.6l3.2-3.2c0.1-0.1,0.1-0.3,0-0.4c-0.1-0.1-0.3-0.1-0.4,0c0,0,0,0,0,0l-3.2,3.2v-3.6
	c0-0.2-0.1-0.3-0.3-0.3c-0.2,0-0.3,0.1-0.3,0.3v3.6l-3.2-3.2c-0.1-0.1-0.3-0.1-0.4,0c0,0,0,0,0,0c-0.1,0.1-0.1,0.3,0,0.4l3.2,3.2
	h-3.6c-0.2,0-0.3,0.1-0.3,0.3c0,0.2,0.1,0.3,0.3,0.3h3.6l-3.2,3.2c-0.1,0.1-0.1,0.3,0,0.4c0.1,0.1,0.3,0.1,0.4,0l3.2-3.2v3.6
	c0,0.2,0.1,0.3,0.3,0.3s0.3-0.1,0.3-0.3v-3.6l3.2,3.2c0.1,0.1,0.3,0.1,0.4,0c0.1-0.1,0.1-0.3,0-0.4l-3.2-3.2h3.6
	c0.2,0,0.3-0.1,0.3-0.3C754.6,426.8,754.5,426.7,754.4,426.7z"/>
<path class="st1" d="M767.2,426.7h-3.6l3.2-3.2c0.1-0.1,0.1-0.3,0-0.4c-0.1-0.1-0.3-0.1-0.4,0c0,0,0,0,0,0l-3.2,3.2v-3.6
	c0-0.2-0.1-0.3-0.3-0.3c-0.2,0-0.3,0.1-0.3,0.3v3.6l-3.2-3.2c-0.1-0.1-0.3-0.1-0.4,0c0,0,0,0,0,0c-0.1,0.1-0.1,0.3,0,0.4l3.2,3.2
	h-3.6c-0.2,0-0.3,0.1-0.3,0.3c0,0.2,0.1,0.3,0.3,0.3h3.6l-3.2,3.2c-0.1,0.1-0.1,0.3,0,0.4c0.1,0.1,0.3,0.1,0.4,0l3.2-3.2v3.6
	c0,0.2,0.1,0.3,0.3,0.3s0.3-0.1,0.3-0.3v-3.6l3.2,3.2c0.1,0.1,0.3,0.1,0.4,0c0.1-0.1,0.1-0.3,0-0.4l-3.2-3.2h3.6
	c0.2,0,0.3-0.1,0.3-0.3C767.5,426.8,767.4,426.7,767.2,426.7z"/>
<path class="st1" d="M780.1,426.7h-3.6l3.2-3.2c0.1-0.1,0.1-0.3,0-0.4c-0.1-0.1-0.3-0.1-0.4,0c0,0,0,0,0,0l-3.2,3.2v-3.6
	c0-0.2-0.1-0.3-0.3-0.3c-0.2,0-0.3,0.1-0.3,0.3v3.6l-3.2-3.2c-0.1-0.1-0.3-0.1-0.4,0c0,0,0,0,0,0c-0.1,0.1-0.1,0.3,0,0.4l3.2,3.2
	h-3.6c-0.2,0-0.3,0.1-0.3,0.3c0,0.2,0.1,0.3,0.3,0.3h3.6l-3.2,3.2c-0.1,0.1-0.1,0.3,0,0.4c0.1,0.1,0.3,0.1,0.4,0l3.2-3.2v3.6
	c0,0.2,0.1,0.3,0.3,0.3s0.3-0.1,0.3-0.3v-3.6l3.2,3.2c0.1,0.1,0.3,0.1,0.4,0c0.1-0.1,0.1-0.3,0-0.4l-3.2-3.2h3.6
	c0.2,0,0.3-0.1,0.3-0.3C780.4,426.8,780.3,426.7,780.1,426.7z"/>
<linearGradient id="SVGID_1_" gradientUnits="userSpaceOnUse" x1="802.6384" y1="190.7762" x2="896.5147" y2="190.7762" gradientTransform="matrix(1 0 0 -1 -16.91 758.54)">
	<stop  offset="0" style="stop-color:#808080;stop-opacity:0.25"/>
	<stop  offset="0.54" style="stop-color:#808080;stop-opacity:0.12"/>
	<stop  offset="1" style="stop-color:#808080;stop-opacity:0.1"/>
</linearGradient>
<path class="st9" d="M878.8,501.3c0-0.7-0.1-1.5-0.3-2.2c-0.6-2.1-1.8-4.6-3.8-5.2c-2.1-0.6-4.2-1.5-6.1-2.6
	c-0.4-6.6,1.1-13.3-0.5-19.7c-0.6-2.3-1.6-4.6-1.9-6.9c-0.3-3,0.5-6.1-0.7-8.9c-0.9-2.2-3-3.7-5.2-4.5c-2.2-0.8-4.6-1-6.9-1.2
	c-2.9-0.2-12.5-1.4-15.8,1.3l0,0c-0.2,0.2-0.4,0.4-0.6,0.6l0,0c-0.1,0.1-0.1,0.2-0.2,0.3l0,0c-0.1,0.1-0.1,0.3-0.2,0.4l0,0
	c0,0.2-0.1,0.3-0.1,0.5c0,0,0,0.1,0,0.1c0,0,0,0.2,0,0.3v0.2c0,0.1,0,0.2,0,0.3c0,0.1,0,0.1,0,0.1c0,0.6,0.1,1.1,0.1,1.6
	c0,0.3,0,0.5-0.1,0.8c-0.2,0.7-0.6,1.4-1,2l0,0l-0.1,0.2c-0.1,0.1-0.1,0.2-0.2,0.3c-0.1,0.1-0.1,0.2-0.2,0.3s-0.1,0.1-0.1,0.2
	c-0.1,0.1-0.1,0.2-0.2,0.3c0,0.1-0.1,0.1-0.1,0.2c-0.1,0.2-0.1,0.3-0.2,0.5c-0.1,0.5-0.2,1.1,0,1.6c0.2,0.7,0.4,1.3,0.8,1.9
	c0.2,0.3,0.3,0.5,0.5,0.7l0.4,0.6c-0.1,0.6-0.1,1.1-0.1,1.7c0,3.9,1.8,7.6,4.8,10c0.2,2.6,0.2,5.2-0.1,7.8c-0.1,0.5-0.1,1.1-0.2,1.6
	c-0.1,0.5-0.1,0.9-0.2,1.3c-0.9,0.1-1.8,0.1-2.7-0.2c-0.4-0.2-0.8-0.3-1.2-0.5c-1.8-0.4-3.6,1.3-5.4,0.8c0,0.1,0,0.2-0.1,0.2
	c-0.4-0.2-0.8-0.4-1.2-0.4c-1,0-1.9-0.8-2.7-1.5l-2.3-2.2c-0.2-0.1-0.3-0.3-0.4-0.5c-0.1-0.2-0.2-0.5-0.3-0.8
	c-0.4-1.3-1.3-2.3-2.3-3.2c-0.2-0.2-0.4-0.4-0.7-0.5c-0.1,0-0.2,0-0.3,0c-0.1-0.1-0.1-0.2-0.2-0.2c-0.2-0.2-0.3-0.4-0.5-0.5
	c-1.1-1-1.2-1.9-2.2-3.1c-0.8-1.1-1.6-2.3-2.3-3.5c-0.1-0.6-0.2-1.3-0.3-2c-0.3-1.5-0.8-3-1.3-4.5l-1.2-2.7l-0.1,0.1
	c-0.9-1.3-1.8-2-2.7-1.9c-1.4,0.3-2.1,3.1-1.9,6.7l0.5,3.7c0,0.1,0,0.2,0.1,0.3c-0.1,0.4-0.1,0.9-0.1,1.3c0,0.5,0.5,0.9,0.7,1.4
	c0.4,0.6,0.6,1.3,0.6,2.1c0,0.3-0.1,0.5-0.1,0.8c0,0.6,0.2,1.1,0.6,1.6l3.1,5.2l0.6,1.1l0,0c0.2,0.4,0.5,0.7,0.8,0.9
	c0.1,1.3,0.5,2.5,1,3.7c0.1,0.2,0.2,0.5,0.3,0.7c0.8,1.4,1.8,2.6,2.9,3.8l1.5,1.6c1.4,1.6,2.9,3.2,4.4,4.7c0.6,0.6,1.2,1.1,2,1.4
	c0.7,0.3,1.6,0.2,2.2-0.3c0,0.8,0,1.5,0,2.3c0.7,0,1.2,0.7,1.2,1.4c0,0.2-0.1,0.5-0.2,0.7c-1.3,3.3-2.6,6.6-4.5,9.6
	c1.4,0.8,2.7,1.8,3.8,2.9c0.7,0.8,1.4,1.7,2,2.7c0.1,0.5,0.1,0.9,0.1,1.3c0.5,7.3-2.4,14.6-4.9,21.5c-0.7,2-1.5,4-1.5,6.1
	c-0.5,0.3-0.9,0.6-1.4,1c0.5,1.3,0.3,2.5,0.3,3.9c0,0.8-0.2,1.7-0.5,2.5c-0.3,0.5-0.6,1.1-0.9,1.6c-1.6,2.8-1.9,6.1-2.3,9.3
	c-0.2,1.9,0.6,4.3-0.3,6c-1.5,3-2.9,6.1-3.1,9.4c0,0.7-0.1,1.5-0.3,2.2c-0.2,0.6-0.5,1.1-0.7,1.7c-0.2,0.8-0.2,1.6-0.1,2.5
	c0.1,2.9-0.3,5.9-1.3,8.7c-0.8,2.2-1.6,4.5-1,6.8c-1.5,1.6-2.4,3.6-2.6,5.7c0,0.5-0.1,1.1-0.2,1.6c-0.2,0.5-0.4,1.1-0.7,1.6
	c-1.2,2.2-1.8,4.8-1.7,7.4c-1.8,2.5-2.8,5.6-3.3,8.6c-0.5,3.1-0.8,6.2-1.5,9.2c-0.9,4-2.6,8-2.9,12.1c-2,1.3-2.8,3.7-3.2,6.1
	s-0.4,4.8-1.4,6.9c-0.5,1.1-1.2,2.1-1.7,3.3c-0.3,0.9-0.6,1.8-0.7,2.8c-0.3,1.5-0.6,3.2-0.2,4.6c-0.5,0.6-1.1,1-1.8,1.4
	c0.1-0.4,0.2-0.8,0.2-1.1c-1.6,1.4-4.5,0.9-5.7,2.7c-0.8,1.2-0.5,2.7,0.6,3.6c0.4,0.2,0.8,0.4,1.3,0.5c3.1,1,6.2,2,9.4,1.4
	c0.4,0,0.7-0.2,1.1-0.3c0.4-0.3,0.7-0.7,1-1.1c0.5-0.7,0.9-1.5,1.4-2.2c1.1,0.3,2.3,0.6,3.4,0.8c0.1,1,0.2,2,0.2,2.9
	c0.6,0.1,1.4,0.2,1.7-0.4c0.1-0.2,0.1-0.4,0.1-0.7c0-0.4,0.1-1,0.1-1.6h0.1c1.9,0.1,3.7-0.3,5.4-1.1c-0.7-5.4,1.5-10.7,3.4-15.9
	c2-5.4,3.7-10.9,5.4-16.4c1.2-3.9,2.6-7.6,3.8-11.5c1.5-4.9,3-9.8,4.6-14.7c0.7-2.2,1.3-4.3,2.1-6.4c1.6-4.3,3.5-8.6,5.7-12.7
	c0.6-1.2,1.2-2.3,1.7-3.5c0.6-1.5,1-3,1.5-4.5c1.1-3.1,2.4-6.1,3.9-9.1c0-0.1,0.1-0.2,0.1-0.2c0.5,2,1,4.1,1.3,6.1
	c0.4,2.5,0.5,5.1,0.1,7.6c-0.3,1.7-0.9,3.4-0.8,5.1c0.1,2.4,1.4,4.6,2,6.9c0.4,1.7,0.6,3.5,0.7,5.3c0.2,2.8,1.7,5.9,0.6,8.4
	c-3.3,8.1-1.7,17.3-3.6,25.8c-1,4.4-3.9,8.5-3.7,12.9c0.2,3.2,0.4,6.3,0.8,9.5c0.1,1,0.4,2,0.8,2.9c0.2,0.5,0.5,0.9,0.8,1.4
	c-0.3,0.1-0.5,0.4-0.7,1c-0.5,1.5,0,3.4,1.4,4.3c0.6,0.3,1.2,0.5,1.8,0.6c0.8,0.2,1.7,0.4,2.6,0.4c0.3,0,0.5,0,0.8-0.1
	c0.9,0.4,1.9,0.7,2.9,1c0,0.3,0,0.5,0.1,0.8c0,0.3,0.1,0.5,0.3,0.7c0.2,0.1,0.3,0.1,0.5,0.1h3.3c0-0.3,0-0.6,0-0.8
	c0.8,0.1,1.5-0.2,2.1-0.7c0.3-0.4,0.5-0.8,0.6-1.3c0.9-3.1,1.8-6.2,2.7-9.2c1.1-3.4,1.5-7,1.3-10.5c-1.2-11.3,1.4-22.6,0.6-34
	c-0.5-6.8-0.2-13.7,1-20.4c0.3-1.5,0.6-3.1,0.7-4.6c0.3-2.9-0.1-5.7,0.1-8.6c0.1-1,0.2-2,0.3-3c0.8-6.1,1.3-12.3,1.3-18.5
	c0-2-0.1-4.1-0.4-6.1c0.6-0.2,1.2-0.5,1.7-1c0.5-0.7,0.4-1.7,0.4-2.6c0-2.2,0.9-4.2,1.6-6.3c0.9-2.8,1.7-5.7,2.3-8.6
	c0.6-2.4,1-4.8,1-7.2c0-0.2,0-0.5,0-0.7c0.2-0.2,0.4-0.4,0.6-0.6c0.2-0.4,0.3-0.7,0.3-1.1c0.2-1.6,0.4-3.1,0.7-4.7
	c0.2-1.1,0.3-2.2,0.5-3.4l2-13.6c0.2-1.2,0.3-2.4,0.5-3.5l0.5-3.5c0.1-0.4,0.1-0.8,0.2-1.2C880.4,507.5,879,504.2,878.8,501.3z
	 M862.6,552.3c-0.7-1.7-1.4-3.5-1.2-5.3h-0.1c0.2-0.6,0.1-1.2-0.1-1.7c-0.2-0.4-0.5-0.8-0.7-1.3c-0.2-0.5-0.3-1.1-0.3-1.7
	c-0.2-3.7,0.1-7.5,0.9-11.1c0.1-0.4,0.2-0.9,0.2-1.3c0.3-0.1,0.5-0.3,0.7-0.5c0.3-0.4,0.6-0.8,0.8-1.2c0.7-1.4,1.3-2.8,1.9-4.2
	c0.2-0.5,0.5-1,0.9-1.1c-0.1,3.6,0.3,7.2-1.2,10.5c-0.3,0.5-0.5,1.1-0.6,1.7c-0.1,0.9,0.2,1.8,0.1,2.7c-0.1,0.5-0.3,0.9-0.3,1.4
	c-0.1,0.5,0,1,0.4,1.3c0.1,0.1,0.2,0.1,0.3,0.1c0,0.2-0.1,0.5-0.1,0.7c0,0.5-0.1,1-0.1,1.3c-0.1,1.5-0.2,3-0.2,4.5
	c0,1.6,0.1,3.3,0,4.9c0,0.5-0.1,1-0.2,1.4c-0.1,0.2-0.3,0.4-0.5,0.6C863,553.2,862.8,552.7,862.6,552.3L862.6,552.3z"/>
<ellipse transform="matrix(0.9796 -0.2007 0.2007 0.9796 -78.1165 172.6334)" class="st10" cx="812.2" cy="471.5" rx="3.5" ry="9.8"/>
<path class="st3" d="M842.7,678.2c-0.5,1.5,0,3.4,1.4,4.2c0.6,0.3,1.1,0.5,1.8,0.6c0.8,0.2,1.7,0.4,2.6,0.3c1.1,0,2.1-0.5,3.1-0.6
	c0.1,0,0.3,0,0.4,0c0.1,0.1,0.2,0.3,0.1,0.4c0,0.6,0.1,1.2,0.1,1.8c0,0.3,0.1,0.5,0.3,0.7c0.2,0.1,0.3,0.1,0.5,0.1h3.3
	c0.1-2.9-0.2-5.8-1-8.7c0-0.2-0.1-0.4-0.2-0.6c-0.3-0.3-0.7-0.5-1.1-0.6c-0.8-0.3-1.7-0.5-2.6-0.4c-1.1,0.1-2,0.8-2.9,1.4
	c-0.9,0.6-2.2,1.1-3.3,0.8C844.2,677.4,843.3,676.5,842.7,678.2z"/>
<path class="st10" d="M793.9,675.5c-0.9,1-2.1,1.8-3.4,2.3l-0.6,0.3c-0.1,0-0.1,0.1-0.2,0.2c0,0.1,0,0.2,0.1,0.3
	c1,1.5,2.8,2.2,4.5,1.6c0.4-0.1,0.7-0.3,1-0.5c0.5-0.6,0.7-1.2,0.8-2c0.2-0.7,0.2-1.5-0.1-2.3C795.2,673.5,794.9,674.3,793.9,675.5z
	"/>
<path class="st3" d="M806.7,683.1c0,0.2,0,0.5-0.1,0.7c-0.3,0.6-1.1,0.5-1.7,0.4c-0.1-2.1-0.3-4.2-0.8-6.2c-1.2-0.1-2,1.1-2.7,2.1
	l-1.6,2.6c-0.2,0.4-0.6,0.8-1,1.1c-0.3,0.2-0.7,0.3-1.1,0.3c-3.1,0.5-6.3-0.5-9.3-1.4c-0.4-0.1-0.9-0.3-1.3-0.5
	c-1.1-0.8-1.4-2.4-0.6-3.5c1.3-1.7,4.1-1.2,5.7-2.6c-0.2,1-0.4,2-0.8,2.9c2.1-0.3,3.5-2.3,5.2-3.6c0.4-0.4,0.9-0.6,1.5-0.7
	c0.4,0,0.8,0,1.2,0.1c2,0.5,3.8,1.4,5.4,2.7c0.6,0.5,1.6,1.2,1.9,2C807,680.4,806.7,682.1,806.7,683.1z"/>
<circle class="st10" cx="848.9" cy="468.1" r="12.7"/>
<path class="st3" d="M873.8,542.9c-0.1,2.4-0.4,4.8-1,7.2c-0.6,2.9-1.4,5.8-2.3,8.6c-0.7,2-1.6,4.1-1.6,6.3c0,0.9,0.1,1.9-0.4,2.6
	c-0.5,0.5-1.1,0.9-1.8,1c-0.7,0.2-1.2,0.7-1.5,1.3c-0.6-0.9-1-1.8-1.3-2.8c-1.1-3.4-2.1-6.8-3.1-10.2c-0.2-0.4-0.1-0.9,0.1-1.2
	c0.2-0.1,0.3-0.2,0.5-0.3c0.6-0.3,1.2-0.6,1.7-1.1c0.2-0.2,0.4-0.5,0.6-0.7c0.2-0.4,0.3-0.9,0.2-1.4c0-1.6,0-3.2,0-4.9
	c0-1.5,0-3,0.2-4.5c0-0.3,0.1-0.8,0.1-1.3c0.1-1,0.3-2.1,0.8-2.5c0.8-0.5,3.1,0.2,4,0.3c1.5,0.2,3.1,0.5,4.6,0.7
	C873.7,541,873.8,541.9,873.8,542.9z"/>
<path class="st3" d="M822.7,482.3c-0.5,1-1.7,1.5-2.6,2.1l-3.1,2.1c-0.4,0.4-1,0.6-1.5,0.5c-0.5-0.2-0.9-0.6-1.1-1.1c0,0,0,0,0,0
	l-0.6-1.1l-3.1-5.1c-0.3-0.5-0.5-1-0.6-1.6c0-0.3,0.1-0.5,0.1-0.8c0-0.7-0.2-1.5-0.6-2.1c-0.2-0.5-0.7-0.8-0.7-1.4
	c0-0.7,0.1-1.4,0.3-2c0.3-0.6,0.8-1.1,1.3-1.4c0.3-0.2,0.6-0.4,0.9-0.6c0.2-0.1,0.3-0.2,0.5-0.2c0.5-0.1,1,0.3,1.5,0.3
	c2.2,1.5,3.1,4.3,4.8,6.3c1,1.2,1.1,2,2.2,3.1c0.2,0.2,0.3,0.3,0.5,0.5c0.2,0.2,0.4,0.5,0.6,0.8
	C821.7,481.1,822.9,481.8,822.7,482.3z"/>
<path class="st10" d="M844.4,480.7c0.9,1.9,1.6,4.1,1.4,6.2c-0.1,0.6-0.2,1.1-0.5,1.6c-0.9,1.4-2.7,1.6-4.3,1.7
	c-0.7-0.1-1.4,0.2-1.9,0.6c-0.4,0.6-0.4,1.5,0.1,2.1c0.5,0.6,1.2,1,1.9,1.2c2.6,1.1,5.3,2,8.1,1.8c1.3-0.1,2.5-0.5,3.8-0.7
	c1.4-0.2,2.8-0.2,4.2-0.2c1.7-0.1,3.3-0.2,5-0.4l4.4-0.4c0.2,0,0.5-0.1,0.7-0.2c0.3-0.4-0.1-0.9-0.5-1.2c-2.3-1.7-5.3-2.9-6.6-5.5
	c-0.6-1.2-0.8-2.7-1.3-4c-0.5-1.3-1.2-2.5-1.5-3.9c-0.2-1.2-0.2-2.4-0.2-3.6c0-1.2-0.4-2.4-1.2-3.3c-0.9-0.8-2.1-1-3.3-1.1
	c-2.9-0.1-6.1,0.6-8.1,2.6c-0.6,0.6-1,1.2-1.6,1.7c-0.6,0.5-1.4,0.7-1,1.3c0.4,0.7,1.1,1.1,1.5,1.7
	C843.7,479.4,844.1,480.1,844.4,480.7z"/>
<path class="st3" d="M869.4,498.6c-0.8,4.7-2,9.4-3.8,13.8c-0.9,2-1.6,4.1-2.2,6.2c-0.5,1.9-0.4,3.9-0.8,5.8
	c-0.5,2.4-1.1,4.8-1.5,7.1c-0.7,3.7-1,7.4-0.9,11.1c0,0.6,0.1,1.2,0.3,1.7c0.2,0.4,0.5,0.8,0.7,1.3c0.3,0.8,0.2,1.7-0.2,2.5
	c-0.3,0.7-0.7,1.3-1.3,1.9c-5.7,1.7-11.8,1.1-17.8,1.5c-5.5,0.3-11,1.5-16.4,0.5c-0.6-2.5,0.4-5,1.3-7.4c2.5-6.9,5.4-14.2,4.9-21.5
	c0-0.8-0.1-1.7-0.3-2.5c-0.9-5.2,0.1-10.5,1.6-15.5c1-3.1,0.9-6.4,0.7-9.7c-0.1-1.1-0.1-2.1,0-3.2c0.1-1.1,0.5-2.1,1.2-3
	c0,0,0.1-0.1,0.1-0.1s0.3,0,0.5,0l0,0c0.1,0,0.2,0,0.3,0l0.1,0c0.1,0,0.1,0,0.2,0c0.1,0.1,0.2,0.4,0.5,0.4c0.5,0.1,0.9,0.1,1.4,0.1
	c0.6,0,1.1,0.1,1.6,0.2h0.1c0.8,0.1,1.6,0.1,2.4-0.2c0.5-0.1,1-0.3,1.5-0.6c0.1-0.1,1-0.3,1.2-0.4c0.6-0.3,0.4-1.9,0.6-2.6
	c0.1-0.7,0.2-1.3,0.5-1.9c0.6-0.9,1.6-1.5,2.6-1.5c1.1,0,2.1,0.1,3.1,0.3c2.3,0.3,4.6,0.3,6.9,0.8c1.1,0.3,2.4,0.7,3.4,0.1
	c0.3,0.1,0.3,0.3,0.3,0.6c0,0.3-0.1,0.6-0.2,0.8c-0.4,1.7,0.9,3.3,2.2,4.5c0.5,0.6,1.1,1.1,1.8,1.4c0.6,0.3,1.2,0.4,1.8,0.7
	c0.5,0.3,0.9,0.7,1.2,1.1c0.4,0.5,0.6,1.1,0.7,1.8C869.7,496.2,869.7,497.4,869.4,498.6z"/>
<path class="st11" d="M869.4,498.6c-0.8,4.7-2,9.4-3.8,13.8c-0.9,2-1.6,4.1-2.2,6.2c-0.5,1.9-0.4,3.9-0.8,5.8
	c-0.5,2.4-1.1,4.8-1.5,7.1c-0.1,0.1-0.3,0.1-0.4,0.2c-0.8,0.4-1.6,0.6-2.4,0.8c-1.5,0.2-3,0.1-4.5-0.1l-8.8-1.2
	c-3.5-0.5-7.2-1-9.8-3.4c-1.4-1.3-2.4-3-3.4-4.7c0-0.8-0.1-1.7-0.3-2.5c-0.9-5.2,0.1-10.5,1.6-15.5c1-3.1,0.9-6.4,0.7-9.7
	c-0.1-1.1-0.1-2.1,0-3.2c0.1-1.1,0.5-2.1,1.2-3c0.2-0.1,0.4-0.1,0.5-0.1l0,0c0.1,0,0.2,0,0.4,0h0.2c0.2,0,0.4,0,0.6,0.1
	c0.4,0.1,0.8,0.3,1.2,0.5h0.1c0.5,0.2,1.1,0.3,1.6,0.2c0.8,0,1.6-0.1,2.5-0.2c1-0.2,2,0,2.9,0.5c0.6,0.5,1.1,1,1.6,1.5
	c0.6,0.5,1.3,0.9,2,1.1c5.3,2,11.1,1.9,16.3-0.3c0.5-0.3,1.1-0.4,1.6-0.4c0.4,0.1,0.8,0.3,1.2,0.5c0.4,0.2,0.7,0.4,1.1,0.6
	c0.4,0.5,0.6,1.1,0.7,1.8C869.7,496.2,869.7,497.4,869.4,498.6z"/>
<path class="st1" d="M874.7,494.5c-2.4-0.7-4.8-1.8-7-3.1c-0.4-0.2-0.8-0.4-1.2-0.5c-0.6,0-1.1,0.1-1.6,0.4
	c-5.2,2.2-11,2.4-16.3,0.3c-0.7-0.3-1.4-0.6-2-1.1c-0.5-0.5-1.1-1-1.6-1.5c-2-1.3-4.8,0.2-7.1-0.6c-0.4-0.2-0.8-0.3-1.2-0.5
	c-1.8-0.4-3.6,1.3-5.4,0.8c-0.7,1.8-1.1,3.6-1.4,5.5c-0.2,2.1-0.4,4.3-0.4,6.5c0,1.3-0.1,2.6,0,3.9c0.4,0.1,0.8,0.3,1.1,0.7
	c0.2,0.4,0.1,0.9-0.1,1.3c-1.3,3.3-2.6,6.6-4.5,9.6c1.4,0.8,2.6,1.8,3.8,2.9c2.1,2.3,3.2,5.5,5.5,7.5c2.6,2.4,6.3,2.9,9.8,3.4
	l8.8,1.2c1.5,0.3,3,0.3,4.5,0.2c0.8-0.2,1.6-0.4,2.4-0.8c0.5-0.2,1-0.5,1.3-0.9c0.3-0.4,0.6-0.8,0.8-1.2c0.7-1.4,1.3-2.8,1.9-4.2
	c0.2-0.5,0.5-1.1,1.1-1.1c3.3-2.9,6.3-5.9,9.6-8.9c1.3-1.1,2.5-2.3,3.5-3.7c1.6-2.4,0.1-5.8,0-8.6c0-0.7-0.1-1.5-0.3-2.2
	C878,497.6,876.8,495.1,874.7,494.5z"/>
<path class="st11" d="M822.7,482.3c-0.5,1-1.7,1.5-2.6,2.1l-3.1,2.1c-0.4,0.4-1,0.6-1.5,0.5c-0.5-0.2-0.9-0.6-1.1-1.1
	c0-0.1,0-0.3,0-0.4c0-0.5,0-1,0.2-1.5c0.3-0.7,0.8-1.3,1.4-1.8c1.2-1.1,2.5-1.9,4-2.5c0.2-0.1,0.5-0.1,0.7-0.1
	c0.1,0,0.2,0.1,0.3,0.1c0.2,0.2,0.4,0.5,0.6,0.8C821.7,481.1,822.9,481.8,822.7,482.3z"/>
<path class="st1" d="M830,488.7c-1,0-1.9-0.8-2.7-1.5L825,485c-0.2-0.1-0.3-0.3-0.4-0.5c-0.1-0.2-0.2-0.5-0.3-0.8
	c-0.5-1.2-1.3-2.3-2.3-3.2c-0.2-0.2-0.4-0.4-0.7-0.5c-0.2,0-0.5,0-0.7,0.1c-1.5,0.5-2.9,1.4-4,2.5c-0.6,0.5-1.1,1.1-1.4,1.8
	c-0.2,0.5-0.2,1-0.2,1.5c0,1.6,0.4,3.2,1.1,4.7c0.1,0.2,0.2,0.5,0.3,0.7c0.8,1.4,1.8,2.6,2.9,3.7l1.5,1.6c1.4,1.6,2.9,3.2,4.4,4.7
	c0.6,0.6,1.2,1.1,2,1.4c0.8,0.3,1.6,0.2,2.3-0.4c0.3-0.3,0.5-0.7,0.7-1.2c0.9-2.5,1.8-5,1.9-7.6c0-1.1,0-2.1-0.1-3.2
	C831.8,489.2,831,488.8,830,488.7z"/>
<path class="st12" d="M867.1,574.6c0,6.2-0.5,12.3-1.3,18.4c-0.1,1-0.3,2-0.3,3c-0.2,2.9,0.1,5.7-0.1,8.6c-0.1,1.5-0.5,3.1-0.7,4.6
	c-1.2,6.7-1.5,13.5-1,20.3c0.8,11.3-1.7,22.6-0.6,33.9c0.1,2.2,0,4.4-0.4,6.6c-0.2,1.3-0.5,2.7-1,4c-0.9,3.1-1.8,6.1-2.7,9.2
	c-0.1,0.5-0.3,0.9-0.6,1.3c-0.6,0.5-1.5,0.8-2.3,0.7c-3.5-0.1-6.9-1.6-10.1-3.1c-0.4-0.1-0.7-0.4-1-0.6c-0.7-0.7-0.6-1.8-0.9-2.7
	c-0.3-0.9-1.1-1.8-1.5-2.7c-0.4-0.9-0.6-1.8-0.7-2.8c-0.4-3.1-0.7-6.3-0.8-9.5c-0.2-4.5,2.7-8.5,3.7-12.9c1.8-8.5,0.3-17.6,3.6-25.7
	c1-2.6-0.5-5.6-0.6-8.4c-0.1-1.8-0.3-3.5-0.7-5.3c-0.6-2.3-1.9-4.5-2-6.9c-0.1-1.7,0.5-3.4,0.8-5.1c0.4-2.5,0.3-5.1-0.1-7.6
	c-0.3-2.1-0.8-4.1-1.3-6.1l-0.1,0.2c-1.5,2.9-2.8,5.9-3.8,9c-0.5,1.5-0.9,3-1.5,4.5c-0.5,1.2-1.1,2.3-1.7,3.5
	c-2.2,4.1-4.1,8.3-5.7,12.6c-0.8,2.1-1.4,4.3-2.1,6.4l-4.5,14.7c-1.2,3.9-2.6,7.6-3.8,11.5c-1.7,5.5-3.4,11-5.4,16.4
	c-1.8,5.1-4,10.4-3.4,15.8c-1.7,0.8-3.5,1.2-5.4,1.1c-3.2-0.3-6.3-1-9.2-2.2c-1.2-0.4-2.4-0.9-3.2-1.9c-1.4-1.7-1-4.1-0.6-6.2
	c0.2-1,0.4-1.9,0.7-2.8c0.5-1.1,1.2-2.1,1.7-3.2c1-2.1,1-4.6,1.4-6.9c0.4-2.3,1.2-4.8,3.2-6c0.3-4.1,2-8.1,2.9-12.1
	c0.7-3,0.9-6.1,1.5-9.2c0.6-3.1,1.4-6.1,3.3-8.6c-0.1-2.6,0.4-5.1,1.7-7.4c0.3-0.5,0.5-1,0.7-1.6c0.1-0.5,0.2-1.1,0.2-1.6
	c0.2-2.1,1.1-4.1,2.6-5.7c-0.6-2.2,0.2-4.6,1-6.7c1-2.8,1.4-5.7,1.3-8.6c-0.1-0.8-0.1-1.6,0.1-2.5c0.2-0.6,0.5-1.1,0.7-1.7
	c0.2-0.7,0.3-1.5,0.3-2.2c0.2-3.3,1.6-6.4,3.1-9.4c0.9-1.7,0.1-4.1,0.3-6c0.3-3.2,0.7-6.5,2.3-9.3c0.3-0.5,0.6-1,0.9-1.6
	c0.3-0.8,0.5-1.6,0.5-2.5c0.1-1.4,0.3-2.6-0.3-3.9c3.3-2.7,7.8-3.5,12-3.7c4.3-0.2,8.6,0.2,12.8-0.7c1.2-0.3,2.5-0.7,3.7-0.8
	c2.9-0.4,5.9,0.2,8.8,0.9c-0.2,1.8,0.5,3.6,1.2,5.3C865.5,559.6,867.1,567,867.1,574.6z"/>
<path class="st11" d="M852.7,576l-7,15.8c-0.3-2.1-0.8-4.1-1.3-6.1l-0.1,0.2v-0.3l3.8-8.4L852.7,576z"/>
<path class="st11" d="M873.8,542.9c-0.4,0.3-0.9,0.5-1.4,0.5c-0.8,0-1.6-0.1-2.3-0.3l-5.5-1.4c-0.2,0-0.3-0.1-0.5-0.2
	c0.1-1,0.3-2.1,0.8-2.5c0.8-0.5,3.1,0.2,4,0.3c1.5,0.2,3.1,0.5,4.6,0.7C873.7,541,873.8,541.9,873.8,542.9z"/>
<path class="st1" d="M878.5,506.4c0.1,0.5,0.3,1,0.4,1.5c0.2,1.3,0.1,2.5-0.1,3.8l-0.5,3.5l-0.5,3.5l-1.9,13.6l-0.5,3.4l-0.7,4.7
	c0,0.4-0.1,0.8-0.3,1.1c-0.4,0.7-1.1,1.1-1.9,1.1c-0.8,0-1.6-0.1-2.3-0.3l-5.5-1.4c-0.2,0-0.5-0.1-0.7-0.3c-0.3-0.3-0.5-0.8-0.4-1.3
	c0.1-0.5,0.3-0.9,0.3-1.4c0.1-0.9-0.2-1.8-0.1-2.7c0.1-0.6,0.3-1.1,0.6-1.6c1.8-4.1,0.8-8.8,1.4-13.2c0.6-3.5,2-6.7,4.3-9.5
	c1.4-1.7,3-3.3,4.7-4.6c0.7-0.5,1.8-1.6,2.6-1.8C878.5,504.2,878.3,505.6,878.5,506.4z"/>
<path class="st12" d="M836.7,453.6c-0.4,1.3,0.2,2.7-0.1,4c-0.3,1.4-1.7,2.5-2.1,3.9c-0.6,2.2,1.3,4.2,2.6,6.1
	c5.1,6.8,4.4,16.3,2.7,24.6c-1.4,6.7-3.3,13.2-5.8,19.6c-0.8,2-1.6,4-3.1,5.5c2.8-0.8,5.8-1.6,8.6-0.8c3.6,1,6.7,4.5,10.3,3.7
	c2.2-0.5,3.7-2.4,5.7-3.5c3.7-2,8.1-0.7,12.2-0.1c0.9,0.2,1.8,0.2,2.7-0.1c0.7-0.4,1.2-0.9,1.6-1.5c1.8-2.3,2.9-5.2,3.2-8.2
	c0.2-3-0.9-5.9-3-8.1c-0.9-0.8-1.9-1.5-2.6-2.5c-0.7-1.1-1-2.4-1-3.7c-0.5-6.7,1.2-13.6-0.5-20.2c-0.6-2.3-1.6-4.6-1.9-6.9
	c-0.3-3,0.5-6.1-0.7-8.8c-0.9-2.2-3-3.7-5.2-4.5c-2.2-0.8-4.6-1-6.9-1.2C850.1,450.6,838.1,449.2,836.7,453.6z"/>
<g class="st13">
	<path d="M839.9,492.2c-1.4,6.7-3.3,13.2-5.8,19.5c0.4-0.8,0.8-1.7,1.1-2.6c2.5-6.4,4.4-12.9,5.8-19.6c1.7-8.3,2.4-17.8-2.7-24.6
		c-1.2-1.6-2.8-3.4-2.7-5.3c-0.5,0.6-0.8,1.2-1,1.9c-0.6,2.2,1.3,4.2,2.6,6.1C842.3,474.4,841.7,483.8,839.9,492.2z"/>
	<path d="M836.7,457c0.5-0.6,0.9-1.3,1.1-2.1c0.1-0.9,0.1-1.8-0.1-2.7c-0.5,0.4-0.8,0.8-1,1.4C836.4,454.6,836.8,455.8,836.7,457z"
		/>
	<path d="M873.3,512.2c-0.4,0.6-1,1.1-1.6,1.5c-0.9,0.3-1.8,0.3-2.7,0.1c-4.1-0.6-8.6-1.9-12.2,0.1c-2,1.1-3.5,3-5.7,3.5
		c-3.6,0.8-6.7-2.7-10.3-3.7c-2.5-0.7-5.2-0.1-7.8,0.6c-0.5,1.1-1.2,2.1-2,2.9c2.8-0.8,5.8-1.6,8.6-0.8c3.6,1,6.7,4.5,10.3,3.7
		c2.2-0.5,3.7-2.4,5.7-3.5c3.7-2,8.1-0.7,12.2-0.1c0.9,0.2,1.8,0.2,2.7-0.1c0.7-0.4,1.2-0.9,1.6-1.5c1.1-1.5,2-3.1,2.5-4.9
		C874.3,510.8,873.8,511.5,873.3,512.2z"/>
</g>
</svg>
