<?xml version="1.0" encoding="utf-8"?>
<!-- Generator: Adobe Illustrator 22.0.1, SVG Export Plug-In . SVG Version: 6.00 Build 0)  -->
<svg version="1.1" id="adc239e9-c38c-4229-b70b-50c7df3ef2aa"
	 xmlns="http://www.w3.org/2000/svg" xmlns:xlink="http://www.w3.org/1999/xlink" x="0px" y="0px" viewBox="0 0 606.4 650"
	 style="enable-background:new 0 0 606.4 650;" xml:space="preserve">
<style type="text/css">
	.st0{fill:#E6E6E6;}
	.st1{fill:#3F3D56;}
	.st2{fill:#2F2E41;}
	.st3{fill:#9F616A;}
	.st4{fill:#FFB8B8;}
	.st5{fill:#6C63FF;}
</style>
<path class="st0" d="M1.5,579c0,0,29.9,2,44.4,21.3s7.9,48.6,7.9,48.6s-29.9-2-44.4-21.3C-5.1,608.2,1.5,579,1.5,579z"/>
<path class="st0" d="M88,602.7c0,0-19.8,1.3-29.3,14.1s-5.2,32.1-5.2,32.1s19.8-1.3,29.3-14.1S88,602.7,88,602.7z"/>
<polygon class="st1" points="331,651.1 73.3,651.1 73.3,649 331.4,649 "/>
<path class="st2" d="M111.4,343.4c0,0-14.1,33.1-16.2,41.6s10.6,110,10.6,110l-1.4,119.9c14.8,9.2,24.7-1.4,24.7-1.4l7.1-105.8
	l10.6-93.1l12,83.2l11.3,117.1c14.8,16.2,26.1,0.7,26.1,0.7c4.2-31.7-6.3-120.6-6.3-120.6s2.8-24.7,6.3-59.9s-9.9-72.6-9.9-72.6
	l-2.8-16.2L111.4,343.4z"/>
<path class="st2" d="M174.1,614.1l-2.8,14.8l-1.6,13.6c-1.1,9.6,7.6,5.3,17.3,5.3c0.1,0-0.1,0,0,0c13.4,0,2.7-16.8,2.7-16.8
	l0.7-14.8L174.1,614.1z"/>
<path class="st2" d="M124.9,614.1l2.8,14.8l1.6,13.6c1.1,9.6-7.6,5.3-17.3,5.3c-0.1,0,0.1,0,0,0c-13.4,0-2.7-16.8-2.7-16.8
	l-0.7-14.8L124.9,614.1z"/>
<circle class="st3" cx="150.5" cy="201.3" r="22.6"/>
<path class="st4" d="M140,214c0.7,4.2-9.2,42.3-9.2,42.3s43.7,2.1,35.3-2.8c-8.5-4.9-5.6-37.4-5.6-37.4L140,214z"/>
<path class="st5" d="M99.4,244.6c0,0,12,59.2,13.4,71.9s-4.2,31-4.2,31c14.8-6.3,76.9,2.1,76.9,2.1c0.8-7.1,0.3-14.2-1.4-21.2
	c-2.8-11.3,22.9-75.8,20.8-81.4s-19.4-10.2-19.4-10.2c-39.5-12.7-67.7,0-67.7,0C105.8,238.3,99.4,244.6,99.4,244.6z"/>
<path class="st3" d="M87.4,404.7l-1.4,8.5c0,0-4.9,25.4,6.3,24.7s0.7-33.1,0.7-33.1L87.4,404.7z"/>
<path class="st5" d="M117,321.5l-19,87.4l-16.2-5.6l10.6-81.1c0,0-1.4-54.3-1.4-62.8c0-8.5,8.5-14.8,8.5-14.8l14.8,4.2L117,321.5z"
	/>
<path class="st3" d="M214.3,404.7l1.4,8.5c0,0,4.9,25.4-6.3,24.7s-0.7-33.1-0.7-33.1L214.3,404.7z"/>
<path class="st5" d="M184.7,321.5l19,87.4l16.2-5.6l-10.6-81.1c0,0,1.4-54.3,1.4-62.8c0-8.5-8.5-14.8-8.5-14.8l-14.8,4.2
	L184.7,321.5z"/>
<path class="st2" d="M104,225.2c-5.6,7.1-4.2,9.2,0,20.4c4.2,11.3-4.9,7.1-10.6,16.9c-5.6,9.9,36.7,21.9,55,13.4s40.9-5.6,33.8-16.2
	c-7.1-10.6-2.1-12.7-0.7-18.3s-0.7-9.2-7.8-12s-4.9-12.7-9.2-38.8s-24-22.6-24-22.6C101.2,174.5,109.6,218.2,104,225.2z"/>
</svg>
