<?xml version="1.0" encoding="utf-8"?>
<!-- Generator: Adobe Illustrator 22.0.1, SVG Export Plug-In . SVG Version: 6.00 Build 0)  -->
<svg version="1.1" id="Camada_1" xmlns="http://www.w3.org/2000/svg" xmlns:xlink="http://www.w3.org/1999/xlink" x="0px" y="0px"
	 viewBox="0 0 750 1980" style="enable-background:new 0 0 750 1980;" xml:space="preserve">
<style type="text/css">
	.st0{fill:#F2F2F2;}
	.st1{fill:#3F3D56;}
	.st2{fill:#FFFFFF;}
</style>
<circle class="st0" cx="534.7" cy="1479" r="56.9"/>
<rect x="460.1" y="867.1" class="st0" width="139.1" height="165.2"/>
<rect x="460.1" y="919.5" class="st1" width="115.5" height="2.3"/>
<rect x="460.1" y="950.2" class="st1" width="115.5" height="2.3"/>
<rect x="460.1" y="980.9" class="st1" width="115.5" height="2.3"/>
<circle class="st0" cx="600" cy="1806.9" r="68.3"/>
<polygon class="st2" points="642.9,1800.1 606.7,1800.1 606.7,1763.9 593.2,1763.9 593.2,1800.1 557,1800.1 557,1813.6 
	593.2,1813.6 593.2,1849.9 606.7,1849.9 606.7,1813.6 642.9,1813.6 "/>
<path class="st1" d="M538.5,1537c-38.3,0-69.4-31.1-69.4-69.4s31.1-69.4,69.4-69.4s69.4,31.1,69.4,69.4
	C607.8,1505.9,576.8,1537,538.5,1537z M538.5,1400.5c-37.1,0-67.1,30.1-67.1,67.1c0,37.1,30.1,67.1,67.1,67.1
	c37.1,0,67.1-30.1,67.1-67.1l0,0C605.6,1430.6,575.5,1400.5,538.5,1400.5L538.5,1400.5z"/>
<path class="st1" d="M555.9,1487.5v-12h-58.2v-15.7h58.2v-12.2l24,20.7L555.9,1487.5z M500,1473.2h58.2v9.6l18.2-14.6l-18.2-15.7
	v9.5H500V1473.2z"/>
<circle class="st0" cx="595.7" cy="233" r="56.9"/>
<path class="st1" d="M599.5,291c-38.3,0-69.4-31.1-69.4-69.4s31.1-69.4,69.4-69.4s69.4,31.1,69.4,69.4
	C668.8,259.9,637.8,291,599.5,291z M599.5,154.5c-37.1,0-67.1,30.1-67.1,67.1s30.1,67.1,67.1,67.1c37.1,0,67.1-30.1,67.1-67.1l0,0
	C666.6,184.6,636.5,154.5,599.5,154.5L599.5,154.5z"/>
<path class="st1" d="M616.9,241.5v-12h-58.2v-15.7h58.2v-12.2l24,20.7L616.9,241.5z M561,227.2h58.2v9.6l18.2-14.6l-18.2-15.7v9.5
	H561V227.2z"/>
<circle class="st0" cx="419.6" cy="640.2" r="56.9"/>
<path class="st1" d="M426,698.2c-38.3,0-69.4-31.1-69.4-69.4s31.1-69.4,69.4-69.4s69.4,31.1,69.4,69.4
	C495.3,667.1,464.3,698.2,426,698.2z M426,561.7c-37.1,0-67.1,30.1-67.1,67.1c0,37.1,30.1,67.1,67.1,67.1s67.1-30.1,67.1-67.1l0,0
	C493.1,591.7,463,561.7,426,561.7L426,561.7z"/>
<path class="st1" d="M470.1,636.7h-88.3V621H470L470.1,636.7z M384.1,634.4h83.7v-11.2h-83.7V634.4z"/>
</svg>
