<?xml version="1.0" encoding="utf-8"?>
<!-- Generator: Adobe Illustrator 22.0.1, SVG Export Plug-In . SVG Version: 6.00 Build 0)  -->
<svg version="1.1" id="Camada_1" xmlns="http://www.w3.org/2000/svg" xmlns:xlink="http://www.w3.org/1999/xlink" x="0px" y="0px"
	 viewBox="0 0 1200 1200" style="enable-background:new 0 0 1200 1200;" xml:space="preserve">
<style type="text/css">
	.st0{fill:#9477FF;}
	.st1{fill:#DFDFDF;}
	.st2{fill:none;stroke:#000000;stroke-width:2.5;stroke-linecap:round;stroke-linejoin:round;}
	.st3{fill:none;stroke:#DFDFDF;stroke-width:4;stroke-linecap:round;stroke-linejoin:round;}
</style>
<title>Artboard 1</title>
<g id="Shadows">
	<path class="st0" d="M1063.1,973.8c0-4.6,0.1-31.5,5.5-44.8c3.2-4.1,5.5-6.9,5.5-6.9l-5.5-6.7l0.8-5.9l11.1-15.3l15.3-15.6
		l11.2-5.7l9.6,0.6l1.9,0.9l-9,11.5l-6.5,15.4l-4,11.9l-3.2,9.1l-2.4,13.5l-2,8.8l-1.8,12.8l-9.8,7.8l-12.2,9.7L1063.1,973.8z"/>
</g>
<g id="Vector">
	<path class="st1" d="M1286,987.3c-5.2-0.7-21.7-2.7-38.9-5v5.6h39.8C1286.5,987.7,1286.2,987.5,1286,987.3z"/>
	<path class="st2" d="M1149,945.3c12.7,10,42.1,27.5,50.4,29.8c8.7,2.4,75,10.7,86.6,12.2c3.7,2.7,8.1,4,12.7,4
		c9.7,0,17.7-5.9,17.7-13.1c0-7.2-7.9-13.1-17.7-13.1c-3.4,0-6.8,0.7-9.9,2.2c-32.4-5.2-68.9-19.1-77.5-21.4
		c-6.4-7.5-19.3-18.1-27.7-24.8"/>
	<path class="st2" d="M964.4,906.8c22.4,33.4,52,70.6,61.4,70.6c4,0,15.3-9.3,24.3-18"/>
	<path class="st2" d="M1033.9,924.8c-3.2,3.9-7.2,9-8.5,11.5c-5.1-4.4-90.7-83.1-92.7-83.1c-1.9,0-3.4,1.5-3.6,3.3
		c0,10.4,7.5,10.9,16.9,20.8"/>
	<path class="st2" d="M1078.1,877.1c-19.8-10-50.3,32.6-49.7,39.8c0.4,4.8,12.9,15.5,24.8,21.7"/>
	<path class="st2" d="M1155.2,949.9c4.7,42,1.2,84.3-4,88.4c-12.9,10.5-97,0.8-101.7-4.9c-4.5-5.5-7.9-158.9,50.7-169.4"/>
	<path class="st2" d="M1116.1,864.9c7.1,2.4,13.1,7.7,18.1,14.8"/>
	<path class="st2" d="M1127.4,887c1.3-2.8,3.5-5.2,6.1-6.8c19.8-12,51.3,31.9,50.7,39.2s-29.7,28.7-41.8,26.3
		c-2.5-0.5-6.3-5.8-9.7-13.4"/>
	<path class="st2" d="M946.1,877.3c-7.3,6.5-7.9,17.6-1.4,24.9c4.9,5.5,12.8,7.4,19.7,4.6"/>
	<path class="st3" d="M896.2,796.4c-11.1-1-21.3-4.6-29-9.6c-18.2-11.8-28.7-23-38.1-32.3"/>
	<path class="st3" d="M973.1,704.4c2.5,20.7,1,41.1-10.7,59c-9.6,14.7-21.7,23.8-34.4,28.7"/>
	<path class="st3" d="M961.9,594.6c-9.1,14-5.5,34.6,0.1,57.8"/>
	
		<rect x="958.3" y="666.7" transform="matrix(0.5453 -0.8383 0.8383 0.5453 -127.599 1121.7201)" class="st0" width="23.6" height="23.6"/>
	
		<ellipse transform="matrix(0.5453 -0.8383 0.8383 0.5453 -251.2779 1127.4659)" class="st0" cx="913.5" cy="795.3" rx="10.4" ry="10.4"/>
	<polygon class="st0" points="812.9,760 831.7,739.9 804.9,733.6 	"/>
	<path class="st2" d="M1116.1,842.2c0,0-0.6,28-0.6,32c0,2.4-8.6,3.8-15.3,3.2"/>
	<path class="st2" d="M1100.4,857.2c-1,0.2-2,0.2-3.1,0.2c-12.8-0.2-22.9-14.8-22.5-32.5c0-6.9,1.9-13.7,5.3-19.7"/>
	<path class="st2" d="M1118.6,820.3c4.1,0.1,7.3,3.5,7.2,7.7c-0.1,4.1-3.5,7.3-7.7,7.2c-1.5,0-2.9-0.5-4.1-1.4"/>
	<path class="st2" d="M1127.8,824.4c4-2.9,4.6-22.9-5.3-29.4c-9.6-6.3-36.4-7.5-49.2-23.7"/>
	<path class="st2" d="M1079.3,793.5c-2.9-2-11.9-13.9-13.4-17.1"/>
	<path class="st2" d="M1070.7,798.4c-3.2-3.3-5.4-8.9-6.5-12.8"/>
	<ellipse transform="matrix(0.986 -0.1669 0.1669 0.986 -121.7916 193.916)" cx="1092.5" cy="821.4" rx="1.8" ry="2"/>
	<path class="st2" d="M1084.9,819.1c0,2.2-1.2,8.2-3.5,13.6"/>
	<path class="st2" d="M1089.7,841.5c1.8-0.5,3.3-1.8,3.9-3.6"/>
	<path d="M1049.6,1033.4v172h98v-165.1C1127.1,1047.5,1053.9,1038.7,1049.6,1033.4z"/>
	<path class="st2" d="M1199.3,975.1c8.7,2.4,75,10.7,86.6,12.2"/>
</g>
</svg>
