<?xml version="1.0" encoding="utf-8"?>
<!-- Generator: Adobe Illustrator 22.0.1, SVG Export Plug-In . SVG Version: 6.00 Build 0)  -->
<svg version="1.1" id="Camada_1" xmlns="http://www.w3.org/2000/svg" xmlns:xlink="http://www.w3.org/1999/xlink" x="0px" y="0px"
	 viewBox="0 0 850 1980" style="enable-background:new 0 0 850 1980;" xml:space="preserve">
<style type="text/css">
	.st0{fill:#F4F4F4;stroke:#D4145A;stroke-width:0.25;stroke-miterlimit:10;}
	.st1{fill:url(#SVGID_1_);}
	.st2{fill:none;stroke:#000000;stroke-width:0.5;stroke-linecap:round;stroke-linejoin:round;}
	.st3{fill:none;stroke:#FFFFFF;stroke-miterlimit:10;}
	.st4{fill:#FFFFFF;stroke:#FFFFFF;stroke-miterlimit:10;}
</style>
<polygon class="st0" points="1124.4,585 1335,700.8 1286.4,2176.8 1229.7,2472 749.4,2527 231,2419.9 62,2364.9 "/>
<g id="XMLID_1_">
	<g>
		<g>
			
				<linearGradient id="SVGID_1_" gradientUnits="userSpaceOnUse" x1="1005.0609" y1="1916.3405" x2="716.8857" y2="1417.2063" gradientTransform="matrix(0.5818 2.049431e-02 -1.918124e-02 0.5445 273.0812 887.0657)">
				<stop  offset="0" style="stop-color:#6C63FF"/>
				<stop  offset="0.159" style="stop-color:#6C63FF"/>
				<stop  offset="0.9538" style="stop-color:#6C63FF;stop-opacity:0"/>
			</linearGradient>
			<polyline class="st1" points="893,1739.3 667.7,2027.1 561.7,1806.8 625.7,1698 837.4,1690 			"/>
		</g>
	</g>
	<g>
		<g>
			<polyline class="st2" points="893,1739.3 667.7,2027.1 561.7,1806.8 625.7,1698 837.4,1690 			"/>
		</g>
	</g>
	<g>
		<g>
			<polyline class="st3" points="893,1739.3 667.7,2027.1 561.7,1806.8 625.7,1698 837.4,1690 			"/>
		</g>
	</g>
</g>
<g>
	<path class="st4" d="M708.9,1835.6c29.3,138.5-38.5,259.6-154.2,333.7c-130.7,83.7-294.5,105-445.8,83.1
		c23.3-584.2,55.9-1167.9,73.8-1752.3c5.8-187.9,10.6-375.8,14.3-563.8C512.1-34,826.7-0.2,1141.9,28.9
		c-4.4,176.2-10.7,352.3-20.1,528.3c-12.7,236.9-27.5,475-62.7,709.8c-18.7,124.9-39.6,254.8-91.1,371
		c-26.8,60.3-63.2,121.4-119.8,158.2C806.3,1823.4,758,1832.2,708.9,1835.6z"/>
</g>
</svg>
