<?xml version="1.0" encoding="utf-8"?>
<!-- Generator: Adobe Illustrator 22.0.1, SVG Export Plug-In . SVG Version: 6.00 Build 0)  -->
<svg version="1.1" id="Camada_1" xmlns="http://www.w3.org/2000/svg" xmlns:xlink="http://www.w3.org/1999/xlink" x="0px" y="0px"
	 viewBox="0 0 750 750" style="enable-background:new 0 0 750 750;" xml:space="preserve">
<style type="text/css">
	.st0{fill:#6C63FF;}
</style>
<g id="Character_x2F_clumsy">
	<g id="Ink" transform="translate(27.999643, -0.500294)">
		<path id="Fill-62" class="st0" d="M206,232.6c1.5,2.6-1.8,8.3-3,10.5c-3.9,7.4-10.4,12.9-17.1,17.8c-2.5,1.8-6.3,6.1-9.5,5.4
			c-2-0.4-2.5-2.1-4.7-0.7c-1.5,1-2.1,3-2.3,4.7c-1,10.7,11.9,16.1,19.2,20.7c10.7,6.8,22,12.4,33.2,18.4c-3,3.8-7.7,6.4-11.8,8.7
			c-6.1,3.5-12.5,6.4-19,9c-11.1,4.5-24.3,9.9-36.5,9.5c0.5-2.8,0.3-6-1.8-8.2c-1.2-1.2-2.7-1.4-4.2-2.1c-1.5-0.7-2.2-1.4-3.3-2.6
			c-6.9-7-14.1-13.6-20.7-20.9c-13.1-14.5-24.1-30.8-35.7-46.5c17.9-0.9,32.7-8.6,45.8-20.5c6.9-6.3,13.1-13.5,18.1-21.4
			c1.3-2,2.4-4.1,3.5-6.2c0.6-1.2,1.4-3.6,2.9-4.1c3-0.9,8.1,4.8,10.2,6.4c8.5,6.4,17.4,11.8,26.6,17c1.8,1.1,3.7,2,5.7,2.8
			C202.8,231,205.2,231.3,206,232.6 M196.5,276.5c10.4-8.4,18-17.1,22.8-29.7c5.3-13.9,7.5-28.2,7.3-43.1c-0.1-7.4,0.1-15.1-1-22.4
			c-1.1-7.5-3.8-14.8-6.7-21.8c-1.2-2.9-2.9-5-5.2-7.2c-1.6-1.6-5.5-4.3-5.3-6.9c0.2-2.3,3.2-2.2,4.9-2.1c3.9,0.1,7.7-0.2,11.5-1
			c7.3-1.5,14.4-3.9,21.7-5.6c7.5-1.8,15.1-3.5,22.5-5.5c6.7-1.9,13.5-5.4,20.4-6.4c5.5-0.8,7.5,5,9.6,9.1
			c3.2,6.2,5.9,12.6,7.9,19.2c2.1,7.2,3.1,14.6,4.9,21.9c0.9,3.6,1.9,7.3,2.7,10.9c0.9,3.9,0.6,7.5,0.7,11.5
			c0.2,7.6,1,15.1,1.4,22.7c1.2,27.2-4,55.6-18.7,78.9c-3.8,6-7.7,10.7-13.3,15c-3.7,2.8-12.2,7.4-10.4,13.3 M274.1,327.2
			c1.6,5.3,10.6-0.1,13.5-1.6c5.9-3.1,10.4-7.4,14.5-12.6c17.9-22.7,25.7-51.7,27.5-80.2c1-15.5-0.3-31.3-2.2-46.7
			c-1.9-15-5.2-29.7-11.2-43.7c-2.5-5.8-5-11.6-8.7-16.7c-1.8-2.5-3.9-4.8-6.3-6.7c-0.8-0.7-2.6-1.4-3.2-2.1
			c-0.7-0.8-0.7-2.2-1.4-3.3c-2.3-3.8-6.6-2.9-10.3-2.7c-7.3,0.4-14.4,0.7-21.6,1.8c-15.6,2.4-31,6.5-46.5,9.8
			c-10.7,2.3-31.6,3.7-34.2,17.4c-0.4,1.8-1,6.1-0.1,7.7c1.5,2.6,4.3,0.4,5.9-0.6c3,5.7,5.8,11.4,9.2,16.9c3.3,5.3,6,11.1,7.5,17.2
			c3.1,12.5,2.6,26.5,3.5,39.3c-7.8-5.4-15.6-10.7-23.2-16.3c-8.4-6.1-16.5-12.8-25.3-18.3c-2.9-1.8-7.9-3.7-11.5-3.1
			c-5.4,0.9-2.7,5.7-2.3,9c0.5,3.7-2,6.3-4.3,8.8c-3.2,3.4-6.5,6.6-10.1,9.5c-14.2,11.8-30.8,18.1-48.7,22.3c-4.1,1-9.6,1-13.4,2.7
			c-3.3,1.5-4.6,8.8-4.1,12.1c0.5,3.4,4.7,4.9,6.6,7.5c2.9,3.9,3.9,9.1,5.6,13.5c7.5,18.9,19.7,34.9,29.8,52.4
			c4.4,7.6,8.8,14,16.2,18.9c3.2,2.1,6.6,3.5,9.9,5.3c3.1,1.8,1.5,5.2,4.6,6.9c3.6,2,9.3,2,13.4,2.1c5.4,0.2,10.8-0.3,16.1-1.2
			c9.7-1.7,19.3-4.5,28.2-8.8c8.1-3.8,15.7-8.9,22.3-15c3.1-2.9,5.9-6.1,8.2-9.7c1.4-2.3,2.6-6.3,5.8-6.4c3.7-0.1,9.1,4,12.3,5.5
			c4.9,2.4,9.9,4.8,14.9,6.9c4.6,1.9,8.9-1.3,5.8-6.2c-2.5-3.9-6.5-7.3-10-10.2"/>
		<path id="Fill-67" class="st0" d="M-58.6-16.8"/>
	</g>
</g>
</svg>
