<?xml version="1.0" encoding="utf-8"?>
<!-- Generator: Adobe Illustrator 22.0.1, SVG Export Plug-In . SVG Version: 6.00 Build 0)  -->
<svg version="1.1" id="Camada_1" xmlns="http://www.w3.org/2000/svg" xmlns:xlink="http://www.w3.org/1999/xlink" x="0px" y="0px"
	 viewBox="0 0 1024 768" style="enable-background:new 0 0 1024 768;" xml:space="preserve">
<style type="text/css">
	.st0{fill:#575A89;}
	.st1{fill:#FF5678;}
	.st2{fill:#6C63FF;}
</style>
<title>Character/clumsy</title>
<desc>Created with Sketch.</desc>
<g id="Character_x2F_clumsy">
	<g id="Accent" transform="translate(256.999643, 190.499706)">
		<path id="Fill-1" class="st0" d="M211.1,147.1c-0.4,0.6-0.5,1.9-1,2.3c-0.6,0.5-2.4,0.5-3.1,0.6c3.7,2.6,7.6,5.3,12,6.5
			c-0.4-1-0.2-2-0.5-3c-0.2-0.9-0.8-1.7-1.2-2.5c-0.5-1.2-0.9-2.5-1.5-3.7c-0.7-1.6-0.7-2.1,0.1-3.7
			C214.3,144.6,212.2,145.4,211.1,147.1"/>
		<path id="Fill-3" class="st0" d="M105.7,132.3c0.2,1.9-0.4,3.1-2,4.1C103.8,133.8,103.8,133.8,105.7,132.3 M198.3,139.1
			c-1.5-0.1,0-2.9,0.4-3.3c0.3,0,0.6,0.1,0.9,0.1C199.4,136.6,199.2,139.2,198.3,139.1 M65.5,165.2c1.3,7,2,14,2.3,21.1
			c0.1,3.5,0.1,7.1,0.1,10.6c0,1.8-0.1,3.6-0.1,5.3c-0.1,1.9-0.2,2.9-1,4.6c5.5,2.5,11.6,3.2,17.6,2c5.8-1.1,11.3-4,16.6-6.6
			c5.3-2.7,10.1-6.2,15.1-9.4c2.2-1.4,4.4-2.6,6.7-3.9c0.8-0.4,1.9-1.1,2.3-1.9c0.4-1-0.7-2.5-1.1-3.4c-1.2,2.9-3.8,2.7-6.1,1.2
			c-1.2-0.8-1.9-2.3-3.1-3c-1-0.5-2.1,0.3-2.9-0.8c-0.4-0.6-0.4-2-1.1-2.3c-0.5-0.2-1.1,0.3-1.6,0.3c-0.8,0.1-1.6-0.2-2.3-0.6
			c-1.1-0.5-3.1-1.6-3.1-3c0-0.8,0.5-0.8-0.1-1.4c-0.4-0.4-1.5-0.3-2-0.3c-1.2-0.1-2.4-0.1-3.2-1.1c-0.7-0.8-0.3-1-1.3-0.9
			c-0.9,0-1,0.5-1.7-0.3c-0.9-1.1-1.2-3-1.6-4.3c-0.3-0.9-1.3-2.9-0.8-3.8c0.4-0.8,1.8-0.9,2.6-1c2.2-0.4,4.4-0.7,6.6-1.1
			c4.1-0.8,7.9-2.2,12.2-2.6c2.2-0.2,4.4-1,6.5-1.2c2.1-0.3,4.5-0.2,6.6-0.4c3.5-0.4,7.7-2.9,10,1.1c1.1-1.2-0.4-2.2,1.8-2.6
			c2.4-0.4,4.9-0.8,7.4-1c2.3-0.2,4.7,0,7-0.5c1.6-0.3,3.5-1.5,4.7,0.3c3.3-4.3,6.6-8.5,9.8-12.8c1.3-1.7,2.8-3.4,4.1-5.2
			c0.9-1.3,1.4-2.5,1.1-4.1c-0.5-1.9-1.8-3.6-2.7-5.2c-1.1-2-2.1-4-2.7-6.2c-1.1-3.5-2.7-9.8,1.1-12.3c1.9,3.2,4.5,5.9,6.3,9.2
			c0.9,1.7,1.4,3.6,2.6,5.1c1.3,1.6,3,2.6,4.5,3.9c2.9,2.5,5.4,5.5,8,8.4c3,3.4,6.3,6.5,9.5,9.7c2.6-3.1,6.6-4.7,9-8
			c0.6-0.9,1.1-1.9,1.5-2.9c0.1-0.4,0.2-1.1,0.4-1.5c0.2-0.3,0.5-0.2,0.7-0.4c1.4-1.4-0.5-2.3-1.5-3.4c-0.4-0.4-1.1-1.3-1-1.9
			c0.1-0.8,0.9-0.7,1.1-1.2c0.5-1.1-0.6-1-1.1-1.5c-0.5-0.5-0.2-1.2-0.1-1.9c0.1-1,0.9-2.5,0.6-3.5c-0.3-0.9-1.5-0.7-1.8-1.4
			c-0.3-0.6,0.2-1.6-0.1-2.4c-0.3-0.8-1-1.4-1.2-2.2c-0.2-0.8,0.1-1.5-0.1-2.2c-0.3-1.1-1.5-2-1.7-3.1c-0.2-1.4,0.8-0.4,1.1-1.3
			c0.2-0.7-1-1.1-1.3-1.5c-0.6-0.6-0.8-1.4-0.9-2.2c-0.2-1.6,0.3-3.9-1.4-4.8c-1-0.6-1.5-0.4-2.3-1.4c-0.6-0.8-1.1-1.6-1.6-2.4
			c-1-1.9-1.6-4.1-2.9-5.9c-0.5-0.7-1.8-1.4-2.1-2c-0.2-0.5,0.2-1.2,0-1.8c-0.3-0.7-0.7-0.8-1.4-0.8c-1.2,0.1-1.2,0.5-1.7-0.8
			c-0.5-1-0.8-1.7-1.8-2.3c-1-0.6-2-0.7-2.5-1.9c-0.3-0.7,0-1.4-0.8-1.7c-0.6-0.2-2.1,0.5-2.3-0.6c-0.2-1,1.2-0.8,1.4-1.5
			c0.3-1-1.5-1.6-2.1-1.6c-0.8,0-1.2,0.5-1.6-0.4c-0.1-0.3,0.1-0.7,0-1.1c-0.2-0.6-0.7-1-1.1-1.4c-0.3,0.7-0.5,1.5-0.8,2.2
			c-0.8-0.9-1.7-1.8-2-3c-0.2-1.2,0.6-2.7-0.2-3.7c-0.3-0.4-2.3-1.6-2.7-1.5c-0.4,0.1-0.3,0.6-0.5,0.9c-0.5,0.6-0.7,0.6-1.5,0.8
			c0-1.2,0.4-2.7-1-3.3c-0.9-0.3-1.9-0.1-2.9-0.5c-1-0.4-2-1.1-2.7-1.9c-0.4-0.4-0.7-0.8-0.9-1.3c-0.1-0.3,0-0.9-0.2-1.1
			c-0.6-0.6-1.9,0.1-2.8,0c-1.5-0.3-1.8-1.1-2.1-2.5c-0.4-1.9-1.1-2.6-3.1-2.3c-1,0.2-2.2,0.7-2.9-0.3c-0.7-0.9,0-1.6-1.3-2.1
			c-1.9-0.8-4.2-0.1-6-1.3c-0.5-0.3-0.7-0.8-1.1-1.2c-0.9-0.9,0.1-0.2-1.1-0.6c-1.1-0.4-1.4-0.5-1.8-1.7c-0.5-1.3-0.4-1.4-1.7-1.2
			c-1.6,0.3-2.5-0.6-4-0.9C131,52.1,125.2,60.7,121,70c5.2,1.4,9.9,5,14.3,7.9c4.8,3.1,8.7,7.4,12.3,11.7c2.8,3.4,3.9,8.1,3,12.4
			c-0.4,1.8-1.2,4.4-3.4,3.8c-1-0.3-0.9-0.5-1.4,0.5c-0.4,0.9-0.5,1.2-1.4,1.7c-0.9,0.5-1.7,1.2-2.6,1.6c-1.3,0.7-2.2,0.1-3.5-0.1
			c-1.3-0.2-2.4,0.5-3.7,0.7c-1,0.2-2,0-2,1.3c-0.7-0.3-1.4-0.8-2.2-0.9c-0.6-0.1-1.4,0.3-1.9-0.1c-0.9-0.6-0.6-2.2-0.8-3.1
			c-1.3,4.9-7.4,0.6-9.9-0.7v1.9c-0.8-0.3-1.6-0.8-2.4-0.9c-0.6,0-1,0.3-1.6,0.3c-0.5,0-0.6,0.2-0.9-0.2c-0.1-0.3-0.2-0.6-0.2-1
			c-0.3,0-0.7-0.1-1-0.2c-1.3-0.3-2.5-1.2-3.9-1.2c-1.9,0-2.2,1.6-2.9,3.1c-3.4,6.9-6.4,14-9.9,20.9c-3.4,6.8-7.4,13-11.9,19.1
			c-2.3,3-4.6,6.1-6.8,9.1c-1,1.4-2,2.9-3.1,4.3c-1,1.3-2.3,1.7-3.7,2.4c-0.7-1.8-1.3-2.7-0.9-4.6c0.4-1.8,0.9-3.8,1.7-5.4
			c0.8-1.6,1.8-2.7,1.8-4.6c-0.1-1.7-1-3.2-2-4.5c-2.5-3.2-5.2-6.3-7.8-9.4c-2.7-3.3-5.3-6.8-8.5-9.7c0.3,2.9,2.3,6,3.4,8.8
			c1.2,3.2,2.3,6.5,3.3,9.8C62.7,151.4,64.2,158.3,65.5,165.2"/>
		<path id="Fill-13" class="st0" d="M2.6,160.1c-0.7,2.3-1.3,6.7-4.6,6.4c11.9,7.3,24.2,14.2,35.6,22.2c2.6,1.9,5.5,3.4,8.2,5.1
			c2.6,1.7,5,3.5,7.9,4.9c2.8,1.3,5.6,2.4,8.3,3.9c0.9,0.5,2.5,2.2,3.6,1.9c0.5,0.1,0.8-0.1,0.6-0.8c0.1-0.5,0.2-1,0.3-1.5
			c0.2-1,0.4-2,0.6-3c-0.6,0.3-1.2,0.5-1.9,0.8c-0.6-2.1,0.2-4.2-0.1-6.4c-0.2-1.9-0.7-4.3,0-6.1c0.3-0.8,0.8-1.2,0.6-2.1
			c-0.1-0.8-0.7-1.6-0.9-2.4c-0.2-0.9-0.3-1.8,0-2.6c0.2-0.7,0.7-0.9,0.2-1.5c-0.2-0.3-0.8-0.2-1.1-0.5c-0.4-0.5-0.3-2.2-0.5-2.9
			c-0.3-1.6-1.1-4-0.2-5.6c0.3-0.7,1-0.8,0.7-1.6c-0.3-0.8-1.4-1-1.7-1.9c-0.3-0.8,0.1-1.2-0.5-1.9c-0.5-0.5-1.3-0.8-1.9-1.2
			c0.5-0.2,3.1-0.6,2.4-1.7c-0.3-0.6-1.1,0-1.5-0.5c-0.3-0.4,0-1.5,0.1-1.9c0-0.9,0-1.9-0.1-2.8c-0.2-1.6-0.6-3.2-1.2-4.7
			c-0.5-1.4-1.4-2.8-1.3-4.4c0.1-1,0.7-2,0.3-2.9c-0.5-1-1.7-0.8-2.3-1.7c-0.3-0.5-0.1-0.7-0.3-1.2c-0.2-0.6-0.4-0.8-0.8-1.3
			c-1.3-1.6-3.4-3.2-3.2-5.5c0.1-1.5,0.5-2.4-0.1-3.9c-0.5-1.1-1.1-2.3-1.8-3.3c-1.2-1.8-3.2-3.3-3.2-5.6c0-1.6,0-1.5-1.4-2
			c-1.2-0.5-1.8-1.6-2.2-2.8c-0.3,0.5-0.7,1-1,1.5c-0.4-2.7-0.5-4.9-1.7-7.4c-0.5-1.1-1.2-2.6-2.1-3.5c-0.8-0.9-1.8-0.6-3-0.7
			c0.9-0.9,1.4-1.2,0.5-2.2c-1.1-1.3-2.5-2.3-3.7-3.5c-1.2-1.2-1.8-2.5-2.8-3.8c-0.8-1-1.7-1-2.9-1.1c-1-0.1-2.2-0.2-3.1,0.4
			c-1.2,0.9-1.6,3.2-2.1,4.6c-1.3,3.7-2.3,7.4-3.1,11.2c-0.3,1.6-0.8,3.1-1.2,4.7c-0.4,1.7-0.4,3.4-0.6,5.1c-0.2,1.6-0.5,3.2-1,4.8
			c-0.6,1.7-1.7,3.2-2.2,4.9c-1,3.1-1.1,6.4-2.3,9.5c-0.5,1.4-1.1,2.7-1.3,4.2c-0.1,0.6,0.2,1.6,0,2.1c-0.2,0.6-0.9,0.8-1.2,1.4
			c-0.9,1.2-0.3,3.4-0.4,4.8C3.7,156.2,3.1,158.2,2.6,160.1"/>
		<path id="Fill-17" class="st0" d="M-10.5,68.3c1-0.3,1.9-0.1,1.5,1c-0.3,0.9-1.5,1.7-2.2,2.3C-11.9,70.3-12.3,68.8-10.5,68.3
			 M-60.3,112.9c-0.9,1.3-1.8,2.5-2.7,3.8c2.5,1.6,5.1,3,7.5,4.6c2.5,1.6,4.5,4.3,6.5,6.5c4.1,4.3,8.6,8.2,11.6,13.3
			c1.3,2.2,3.3,3.8,5.4,5.2c2.6,1.9,5.2,3.7,7.8,5.5c5.5,3.8,10.9,7.5,16.7,10.8c0.2-1.3,0.2-1.3-0.3-2.6c-0.4-1.1-0.2-2.2,0.1-3.3
			c0.7-2.4,1.4-4.8,2.2-7.2c0.6-2,0.9-4.6,2.3-6.2c1.3-1.7,2.6-3.4,3.8-5.2c-1.9,0-3.1-0.1-2.6-2.1c0.7-3.1,1.5-6,1.9-9.1
			c0.1-0.9,0.4-2.1,1.1-2.8c0.5-0.6,1.8-0.7,2.1-1.4c0.3-0.7-0.6-1.4-0.8-2.1c-0.4-1.5,0.6-0.6,1.4-1.1c1-0.6-0.1-1.1-0.1-1.6
			c-0.2-1,0.9-0.6,1.3-1.3c0.6-1.2-0.5-1.5-1-2.2c-0.6-0.9-0.4-1.9,0.1-2.8c0.9-1.7,3.5-3.2,2.7-5.4c-0.2-0.5-0.7-0.8-0.6-1.4
			c0.1-0.4,0.8-0.8,1.1-1.2c0.3-0.4,0.5-0.7,0.5-1.1c0-0.4-0.3-0.6-0.4-1c-0.1-0.5,0-0.7,0.3-1.2c1.3-2.8,2.3-6.3,4.3-8.7
			c0.9-1,1.7-2,2.3-3.2c0.7-1.3,1.9-2,3-3c-3.9-4-7.8-8-11.7-12c-3.7-3.9-7.1-7.9-10.8-11.8C-12.6,54-20,46.7-27.3,39.5
			c-2.7,7.9-4.8,16.2-6.5,24.4c0.4,0,0.9-0.1,1.3,0.2c0.5,0.3,0.5,1.1,1.2,1.2c1,0.3,1.7-0.9,2.2-1.7c0,1.5-0.7,3.6,0.7,4.7
			c0.6,0.5,1.4,0.7,2,1.1c0.9,0.7,1.8,1.6,2.6,2.5c2.8,3,5.6,6.1,7.8,9.5c2.5,3.7,4.2,7.9,6.4,11.8c2,3.6,2.7,7.3,2.4,11.4
			c-0.1,1.2-0.1,2.7-0.7,3.8c-0.4,0.6-0.8,0.9-1.4,1.3c-0.5,0.4-0.5,0.2-0.9,0.7c-0.3,0.4-0.5,0.8-0.9,1.2c-1,1-2.2,1.6-3.2,2.6
			c-1.3,1.4-2.7,2-4.4,2.8c-0.2,0.1-0.8,0.4-1.1,0.5c-0.9,0.2-0.3-0.1-1.1-0.2c-0.7-0.1-1.2-0.2-1.8,0.2c-1.3,0.7-1.8,1.6-3.4,1.7
			c-0.7,0-1.4-0.1-2.1,0c-0.4,0-1.6,0.5-1.9,0.4c-1.2-0.3,0.3-1.5-1.3-1.2c-0.7,0.1-1.4,0.6-2.2,0.8c-1.2,0.2-2.6,0.3-3.9,0.3
			c-1.7-0.1-3.4-0.4-5-0.7c-3.7-0.7-6.5-2.4-8.2-5.8c0,2.1-0.4,3.5-2.7,2.9c-1.3-0.3-2.4-0.6-3.7-0.5c-0.4,0-2.1,0.4-2.4,0.1
			C-60.1,115.2-60.2,113.3-60.3,112.9"/>
		<path id="Fill-35" class="st0" d="M121.3,180.8c1.1,0.5,2.3,0.9,3.5,1.4c1.2,0.5,2,1.6,3,2c0.8,0.4,0.7,0.2,1.5-0.5
			c0.5-0.4,0.9-0.7,1.4-1.1c1-0.8,2-1.6,3.1-2.4c2.2-1.8,4.3-3.7,6.3-5.7c3.8-3.7,7.9-7.4,10.9-11.7c-2-1.7-4.2,1.5-6.4,1
			c-1.5-0.3-1.8-1-3.4-0.5c-1.2,0.4-2.4,0.9-3.6,1.4c-1.3,0.4-2.7,0.8-4.1,0.7c-1.4-0.1-2.4-0.4-3.8-0.1c-0.8,0.1-2.3,0.9-3.2,0.8
			c-0.4-0.1-0.6-0.6-1-0.6c-0.6,0-0.2,0.1-0.5,0.6c-0.4,0.6-0.2,1.1-1.1,1.2c-0.5,0-1.2-0.6-1.6-0.8c-1.9-1.1-2.6-1.3-4.4,0
			c-1,0.7-1.9,1.3-3.1,1.5c-1.2,0.2-2.3-0.2-3.5-0.2c-2.7,0-5,1.5-7.4,2.4c0.9,0.7,1.8,1.6,2.8,2.2c0.8,0.4,1.5,0.7,2.2,1.3
			c1.7,1.5,3.5,2,5.5,3.1C116.8,178.2,119,179.7,121.3,180.8"/>
		<path id="Fill-37" class="st0" d="M119.8,85.4c1.1,0.2,0.6,1.3,0.6,2.3c-0.1,1-0.1,1.9-0.2,2.9C118.5,89,119.8,87.4,119.8,85.4
			 M121.8,76.9c-0.2-0.5-0.2-1.4-0.9-1.4c-0.9,0-1.9,3.3-2.3,0.8c-2,3.6-3.5,7.2-5.1,11c-0.8,1.9-1.5,3.7-2.2,5.6
			c-0.8,2.1-1,3.7-1.3,5.8c2.4,2.1,6.3,1.8,9.3,2.1c1.6,0.1,3.1,0.6,4.7,0.6c1.9,0,3.7-0.3,5.5-0.7c1.7-0.4,3.5-0.2,5.2-0.6
			c1.5-0.3,2.8-0.9,4.1-1.6c0.3-0.2,1.3-0.4,1.5-0.7c0.6-0.6,0.1-0.6,0.2-1.4c0.2-1,1.7-1.9,2.4-2.6c-2.4-1.5-4.7-2.9-7.1-4.4
			c-0.7-0.4-1.9-0.8-2.4-1.4c-0.4-0.5-0.4-1.2-0.6-1.8c-0.2-0.6-0.3-1.3-0.9-1.6c-0.5-0.3-1,0.2-1.6-0.2c-0.4-0.3-0.4-0.9-0.7-1.2
			c-0.4-0.3-0.8-0.1-1.1-0.4c-1.1-0.7-1-2.8-1.8-3.7c-0.8-0.9-2.4,0.1-3.6-0.5C122.4,78.3,122,77.7,121.8,76.9"/>
		<path id="Fill-45" class="st0" d="M-43,104.1c-0.3-0.8-0.8-2-1-2.7c-0.7,0-1.5,0.3-2.2,0.2c-0.7-0.2-1-0.8-1.6-1.1
			c-0.2-0.1-0.4-0.2-0.7-0.2c-0.3,0-0.7,0.5-0.9,0.5c-0.5-0.1-1.2-1.8-1.5-2.2c-1.7,1.6-3.4,3.3-5.1,4.9c1.5,0.1,3,0.1,4.4,0.2
			c0.6,0,1.3-0.1,1.9,0.2c0.6,0.3,0.6,0.9,1.1,1.3c0.8,0.7,1.1,0.5,2,0.1C-45.4,104.5-44.3,104.4-43,104.1"/>
		<path id="Fill-47" class="st0" d="M-40.9,82.9c0.3,1.2,1.3,1.8,2.1,2.6c0.6-1,1.1-2,0.7-3.2c-0.3-0.6-0.8-1.1-1.2-1.7
			c-0.4-0.7-0.7-1.4-1-2.1c-0.1,0.2-0.3,0.4-0.4,0.6C-40.6,80.4-41.2,81.6-40.9,82.9"/>
		<path id="Fill-51" class="st0" d="M-30.8,85.5c-1,0-2.7,1.3-3.5,1.8c-0.7,0.5-1.7,1.8-2.5,2c-0.7,0.1-1.5-1.3-2.1-0.6
			c-1,1.2,1.5,1.9,1.9,2.4c1.3,1.5-1.4,0.2-2.1-0.1c0.5,0.9,1.4,1.7,1,2.8c-0.2,0.9-1.2,1.9-1.6,2.7c-1,1.8-2.2,4.1-4.3,4.7
			c1.1,0.4,2.6,0.2,2.7,1.7c0.1,0.8-0.3,0.8,0.2,1.4c0.3,0.4,1.2,0.7,1.6,0.9c0.8,0.3,1,0.2,1.8-0.2c0.6-0.3,1.8-1.3,2.5-1.4
			c0.8-0.1,1.6,0.4,2.6,0.2c0.9-0.2,1.7-0.8,2.6-1.1c1.3-0.5,3-0.6,4.1-1.5c0.9-0.8,0.8-2,0.8-3.1c0-0.4,0.3-2.5,0.1-2.7
			c-0.3-0.2-0.6,0.1-0.9,0c-0.5-0.2-4.1-3.8-3.6-4.3c0.5-0.5,0.5,0.7,1.2-0.2c0.7-1.1-0.5-1.9-1.1-2.8c-0.3-0.4-0.5-0.8-0.6-1.3
			C-30.2,86-29.8,85.5-30.8,85.5"/>
		<path id="Fill-5" class="st0" d="M220.2,127.5c0.1,3.6-0.3,7.2,0.4,10.7c0.7,4,2.6,7.7,4,11.4c0.8,2,1.5,4,2.2,6
			c0.3,0.9,0.7,1.9,1,2.8c0.5,1.3,0.6,1.3-0.1,2.3c3.9,1.9,7.9,3.8,11.8,5.7c0.8,0.4,1.8,1.1,2.7,1.1c1-0.1,0.6-0.8,0.6-1.7
			c-0.2-2,0.7-3.7,0.6-5.7c-0.1-1.8-0.8-3.4-1.3-5.1c-0.6-1.9-0.5-2.9,0.1-4.7c0.5-1.5-0.7-2.6-0.7-4.2c0-0.8,0.4-1.6,0.4-2.4
			c0-0.9-0.4-1.6-0.7-2.5c-0.2,0.8-0.3,1.6-0.5,2.5c-0.9-1.1-1.5-1.7-1.8-3.1c0.7,0.2,1.5,0.4,2.2,0.7c-0.3-0.5-0.5-1-1-1.4
			c-0.5-0.4-1.2-0.5-1.6-1c-0.8-0.9-0.9-2.1-1-3.2c-0.1-1-0.5-2.4-0.3-3.3c0.2-0.8,0.6-1.3,0.5-2.2c-0.1-0.8-0.4-1.5-0.7-2.3
			l-1.3,0.6c-0.2-0.5-0.6-1.3-0.6-1.9c0-0.7,0.5-0.6,0.8-1.2c0.4-1-0.6-2.2-0.7-3.2c-0.1-1.3,0.3-3-0.9-3.9c-1.1-1-3.3-0.4-4.3-1.5
			c-1.1-1.2,1-1.6,1.1-2.8c0-1.1-1.5-2.1-2.1-2.8c-2-2.1-0.4-5.5-2.9-7.2c1-0.8,0.4-1.3,0-2.1c-0.4-0.8-0.6-1.5-0.3-2.4
			c0.2-0.7,0.7-1.1,1.1-1.7c0.3-0.6,0.2-1.8,0.8-2.1c-0.1,0,1,0,1.2,0c0.5-0.2,0.9-0.8,1.5-0.5c0.7,0.3,0.4,1.4,1.4,0.6
			c0.7-0.6,0.3-1.2,1.5-1.3c1.8-0.2,3.8,0.7,5.6,1c2.4,0.5,4.2,1.4,6.4,2.6c1.5,0.8,3.5,1.1,4.8,2.3c1.6,1.5,3.8,2,5.7,3.3
			c4.1,2.9,7.7,6.8,11.2,10.3c3.4,3.5,6.5,7.3,9.2,11.4c5.6,8.6,9.2,18.1,10.4,28.3c0.6,5,0.5,10.9-1.2,15.7c-0.4,1.2-1,2.4-1.7,3.5
			c-0.6,1-0.7,1.8-1,2.8c-0.6,1.9-0.9,4.4-2.8,5.4c4.1,1.2,8.2,2.8,12.4,3.7c4.4,1,9,1.1,13.5,1.6c2,0.2,4.5,0,6.4,0.6
			c1.1,0.3,1.7,0.7,2.9,0.6c0.8,0,2.3,0,2.6-0.5c0.4-0.8-0.3-2.2,0.7-2.6c0.9-0.4,2.4,0.6,3.3,0.6c-1.9-5.8-3.8-11.6-5.8-17.4
			c-0.5-1.6-1.1-3.2-1.6-4.7c-0.3-0.7-1-3.8-1.7-4.2c-0.8-0.4-2,0.4-2.9-0.1c-0.6-0.3-1.2-1.5-1.7-2c-1.3-1.3-2.8-2.6-3.1-4.5
			c-0.1-0.4,0.1-1.2,0-1.6c-0.3-0.8,0-0.3-0.8-0.7c-0.8-0.4-1.4-0.5-1.8-1.5c-0.3-0.8,0.1-1.6,0-2.4c-0.1-0.9-0.6-1.5-1-2.4
			c-0.4-1-0.4-1.9-1.1-2.8c-0.5-0.7-1.2-1.1-0.6-2.1c-2.3-0.3-1.3-2.9-1.6-4.5c-0.5-2.6-1.8-5.4-1.8-8c0-1,0.5-2.1,0.2-3.1
			c-0.3-1.2-1.1-1.8-1.2-3.1c0-0.7-0.2-2.7,0.3-3.3c0.2-0.3,0.9-0.2,1.1-0.5c0.5-0.5,0.3-0.1,0.2-0.8c0-0.4-0.3-0.9-0.4-1.3
			c-1.9-6.4-3.2-12.9-4.6-19.4c-0.7-3.3-1.5-6.5-2.2-9.8c-0.5-2.4-1.4-7,0.2-9.1c1.9-2.5,4.3,4.1,4.8,5.5c1.4,3.6,2.7,7.2,4,10.9
			c0.4-0.6,0.9-1,1.1-1.6c0.3-0.7,0.3-1.6,0.6-2.4c0.6-1.5,1.4-2.9,2.4-4.1c2.2-2.8,4.6-5.4,6.8-8.3c0.9-1.2,1.9-2.9,3.2-3.7
			c1.3-0.8,2.7-1.3,4-2.3c2.2-1.7,4.5-4.2,7-5.3c2.7-1.2,5.6-2.4,8.4-3.3c3.2-1,6.7-0.6,10-1.2c1.8-0.3,3.7-0.8,5.5-0.6
			c1.4,0.2,2.7,0.5,4.1,0.6c0.5-0.3,0.8-0.3,1.1,0.3c0.3,0.3,0.6,0.5,1,0.6c0.7,0.3,1.3,0.4,2.1,0.4c1.4,0,2.8-0.5,4.3-0.6
			c-5.6-5.6-11-11.6-17.3-16.4c-6.3-4.8-12.9-9.7-19.9-13.4c0.2,6,0.4,12-0.1,18c-0.3,2.9-0.8,5.7-1.2,8.6c-0.4,2.4-1.3,4.8-2.8,6.8
			c-2.1,2.7-5.3,6.6-9.1,6.1c-1.4-0.2-1.3-0.1-2.5,0.5c-0.7,0.4-1.4,0.3-2.2,0.1c-1.5-0.5-3.1-1.9-4.7-0.7c-0.4-1.4-2-1.9-3.3-2.2
			c-0.4-0.1-1.1,0-1.4-0.3c-0.2-0.3,0-0.5-0.2-0.8c-0.4-0.6-0.7-0.9-1.3-1.4c-1.2-0.9-2.2-2.1-3.2-3.1c-1.2-1.2-2.4-2.4-2.9-4
			c-0.2-0.8,0.1-1.9-0.2-2.6c-0.3-0.9-1-0.9-1.6-1.5c-1.6-1.3,0.5-2.5,0.4-3.9c0-0.6-0.5-1-0.9-1.5c-1-1.3-0.1-0.9,0.3-2.3
			c0.5-1.6-0.4-4-0.8-5.6c-0.6,1.2-0.7,1.6-1.9,2.2c0.5-0.9-0.5-1.6-0.5-2.5c0.1-1.5,2.2-0.5,1.9-2c-0.4-1.5-2.9-1.4-3-3.3
			c0-1,0.2-1.5,0.9-1c0.6,0.4,1.1,1.7,1.5,2.3c-0.1-0.9-0.7-2.6-0.3-3.5c0.5-1,1.9-1.1,2.8-1.4c-1-0.9-1.9-1.8-2.8-2.7
			c1.4-0.6,2.3-0.7,3.8-0.7c-0.3-0.4-1.8-2.4-2.3-2.3c-0.4,0.1-0.3,1.1-0.8,1c-0.7-0.1-0.4-2.4-0.6-3c-0.5-1.5-1.4-0.9-2.6-1.1
			c0.4-1.5,2.6-1.3,1.7-3.4c-1.1-2.3-2.2-3.6-1.7-6.3c1.8,0.2,0.8,3.7,3.3,2c-0.5-0.9-1.5-2-1.8-2.9c-0.4-1.1,0.9-1.7,0.5-2.5
			c-0.4-0.8-1.8-0.4-2.2-1.5c-0.3-0.9,0.4-2,0.8-2.7c-7.8-2.8-15.4-5.2-23.6-5.9c2,6,4.3,11.9,6.1,17.9c1,3.2,1.8,6.4,2.5,9.6
			c0.3,1.4,0.5,2.7,0.8,4.1c0.3,1.5,1,2.5,1.7,3.8c0.8,1.8-1.6,3.7-3.1,4.4c-1.6,0.8-3.6-0.4-5.1-1c-2.7-1.1-5.3-2.4-8.2-3.1
			c-1.1-0.3-2.8-1-3,0.5c-0.2,1.4,1.3,2.4,2.1,3.3c4.5,4.8,8.3,10.3,12.4,15.4c2,2.5,4.1,4.8,5.6,7.7c1.3,2.4,2.1,5,2.8,7.7
			c0.3,1.3,0.6,2.7,0.9,4c0.3,1.6,0.7,2.4-0.5,3.6c-1.5,1.7-3.1,3.7-5.3,4.4c-1,0.3-2.1,0.3-3.2,0.4c-0.5,0.1-1,0.1-1.4,0.3
			c-0.6,0.2-1.1,1-1.7,1.2c-1.1,0.4-1.2-0.6-1.9-1c-1-0.5-1.6,0.2-2.3,0.8c-2.1,1.4-3.3-1.5-5.2-2.1c-1.2-0.4-2.4-0.3-3.4-1
			c-0.5-0.3-1.2-0.8-1.5-1.3c-0.3-0.5,0-1-0.1-1.6c-0.2-1.2-0.6-0.9-1.3-0.5c-0.4,0.3-0.1,0.7-0.7,0.5c-0.3-0.1-0.9-1.2-1.1-1.4
			c-1.1-1.2-1.7-1.8-3.1-2.4c-1.2-0.5-1.7-1.5-2.4-2.4c-2.4,2.9-5.2-0.4-7-2.5c-2.3-2.8-4.5-5.6-6.7-8.4c-2.2-2.8-4.3-5.8-6.8-8.3
			c-1.3-1.4-2.8-2.6-4.3-3.7c-0.8-0.6-1.6-1.5-2.5-1.9c-0.8-0.4-1.2-0.1-2,0c1.4,2.4,0.3,6.3-0.5,8.8c-0.1,0.5-0.4,1-0.4,1.4
			c0,0.6,0.5,1.2,0.4,1.7c-0.1,0.8-1.4,1-2,1.4c0.9,0.4,1.3,0,1.6,1c0.3,1.3,0,3.1-0.1,4.3c0,3.6,0.1,7.2,0.2,10.8
			c0.1,3.7,0.1,7.4,0.8,11c0.7,3.4,0.4,6.9,1.1,10.3c1.4,7.1,5.9,13.1,7.9,20C219.6,120.6,220.2,124,220.2,127.5"/>
		<path id="Fill-7" class="st0" d="M461.7,415.1c0-1.3-0.6-2.9,0-4.2c0.5-1.2,0.9-0.7,1.7,0c0.8,0.6,1.5,1.2,2.3,1.7
			C464.3,413.5,463,414.3,461.7,415.1 M463.4,405.6c1.9-2.3,2.7,2,2.9,3C465,408.4,461.5,407.8,463.4,405.6 M423.1,398.1
			c-0.5,1.6-1.1,3.2-1.7,4.8c-0.6,1.8-0.4,3.2,0.1,5c0.3,1.1,0.6,2.6,1.1,3.6c0.7,1.2,1.8,0.5,2.8,1.2c1.8,1.5-1.3,4.9-0.9,6.8
			c0.2,1.1,1.2,1.7,1.5,2.7c0.4,1.3,0.3,2.9,0.5,4.3c0.1,1.5,0.3,3,1,4.4c0.3,0.7,0.9,1.2,1.3,1.8c0.5,0.9,0.3,0.8,0.2,2
			c-0.5,3.8,0.5,7.7,0.9,11.5c1.2-1.2,2.4-2.4,3.6-3.5c0.5,1.9,1.6,2.9,0.8,4.9c-0.8,2-1.6,4-2.4,6.1c0.9,0.1,1.7,0.1,2.6,0.2
			c-1,2.4-0.9,4.8,1.1,6.6c1.2,1.1,2,1,2,2.7c0,1.2,0.3,1.8,1.2,2.7c0.6,0.6,1.8,1.3,1.8,2.3c0,0.7-0.7,1.2-0.9,1.8
			c-0.1,0.4,0.3,1.1-0.1,1.4c-0.4,0.4-1.1-0.4-1.5-0.1c-0.4,0.3,1,3.5,1.2,4c-0.8-0.7-1.6-1.4-2.5-2.1c-0.7,1.8-1.4,3.7-0.3,5.4
			c0.1-1,0.2-2.1,0.2-3.1c2.4,0.7,1.7,2.5,1.7,4.4c0,0.4,0,0.8,0.1,1.2c0.1,0.3,0.6,0.7,0.6,0.9c0.1,0.8-0.9,2.1-1.2,2.9
			c3.2,0.4,6,0.9,9.3,0.6c3.3-0.3,6.5-0.6,9.8-1c6.3-0.9,12.5-2.4,18.3-5c5.7-2.5,11.4-5,16.4-8.8c5-3.7,9.4-8.1,13.8-12.5
			c1.8-1.8,5.2-3.8,4.3-6.7c-0.9-3.1-2.4-6.1-3.5-9.1c-2.4-6.4-4.8-12.9-7.2-19.3c-2.3-6.2-4.4-12.5-7.3-18.5
			c-0.3-0.6-0.6-1.9-1.1-2.2c-0.4-0.3-1.6-0.3-2.1-0.3c-1.7-0.3-3.3-0.3-5-0.4c-3.2-0.2-6.3-1.6-9.5-2.2c-1.6-0.3-3.2-0.4-4.7-0.8
			c-1.4-0.4-2.7-1-4.1-1.3c-1.5-0.4-2.8-0.3-4.3-0.3c-1.1,0-2.3-0.4-3.5-0.5c-0.5-0.1-1.1-0.1-1.6-0.3c-0.6-0.2-0.9-0.8-1.4-1.1
			c-1.2-0.5-2.8,0.4-4.1,0.3c-1.1-0.1-2.1-0.5-3,0.4c-0.5,0.5-0.5,1.1-0.7,1.6c-0.3,0.5-0.7,0.8-1,1.2c0.3-1.8,0.4-3.7-1.7-4.3
			c-1.2-0.4-2.5-0.3-3.8-0.3c-1.8-0.1-2.9-0.9-4.6-1.4c-1.4-0.5-2.9-0.5-4.4-0.4c-0.7,0.1-1.3,0.2-2,0.2c-0.8-0.1-1.4-0.7-2-0.8
			C424.6,391.2,423.7,396.2,423.1,398.1"/>
		<path id="Fill-11" class="st0" d="M394.3,306.3c-0.8,1.9-0.9,4.4-1.1,6.4c-0.5,5-0.1,10.1,0.7,15.1c0.2,1.1,0.1,3.3,1.6,3.4
			c0.9,0,1.7-0.5,2.7-0.4c0.8,0.1,2.1,0,2.8,0.4c1.6,0.8,1.2,4,1.3,5.4c0.2,2.1-0.3,1.4-2.1,1.6c-1.5,0.2-1.5,1.9-1.7,3.1
			c-0.2,2.3,1,0,2,1.6c0.5,0.9,0.7,2.1,1,3c0.3,1,0.5,3,1.2,3.8c0.3,0.3,0.9,0.3,1,0.8c0,0.3-0.5,0.4-0.6,0.6
			c-0.3,0.6-0.3,1.1-0.5,1.7c0.7-0.1,1.4-0.2,2.2-0.2c-0.1,1.7-0.4,3-0.9,4.6c-0.3,1-0.2,1.8,0.1,2.8c0.6,1.8,1.7,3.9,3.3,5
			c0.8,0.6,1.7,1,1.9,2.1c0.1,1.1-0.8,1.8-1,2.8c-0.5,2.1,2.1,2.6,3.6,2.8c-2.7,0.6-2.3,1.9-1.4,3.9c0.6,1.3,1.4,2.7,1.8,4.1
			c0.4,1.2,0.3,1.9,1.6,2.3c1.6,0.5,3.4,0.5,5,0.5c1.2,0,2.6,0.1,3.8-0.3c0.7-0.3,2.3-1.2,2.4-2.1c0.1-0.9-0.8-1.3-0.3-2.3
			c0.4-0.8,1.2-1.5,1.7-2.3c0.9-1.6,1.1-3.2,1.7-4.9c0.9-3,3.1-5.7,4.6-8.4c1.3-2.1,3.5-3.6,4.9-5.6c0.5-0.7,0.3-0.6,1.2-0.8
			c0.5-0.1,0.8,0.1,1.1-0.4c0.2-0.3,0.2-1,0.5-1.3c0.4-0.6,1-1,1.5-1.6c0.3,0.8,0.7,1.7,1,2.5c0.3-2.2,2.8-8.6,5.5-5.2
			c0.4-0.4,0.9-0.6,1.1-1.1c0.2-0.5,0-1.1,0.4-1.6c0.6-0.9,1.7-1.3,2.4-2.1c0.9,1.1,1.7,2.2,2.6,3.2c0.6-2.2,0.9-5.2,3.6-5.6
			c1.7-0.3,2.9,0.2,3.9-1.2c1.1-1.5,2.2-0.8,3.6-0.2c-2.7-7.6-5.5-15.3-9.4-22.4c-1.9-3.5-4-6.9-5.6-10.6c-1.6-3.8-3.5-7.3-5.7-10.8
			c-1,1-3,1.4-4.3,1.8c-2,0.5-4.1,0.9-6.1,1.1c-1.7,0.2-3.4,0.3-5.1,0.2c-0.9-0.1-1.6-0.2-2.5,0c-1,0.3-2,0.9-3.1,1
			c-2.1,0.1-4.3-1.3-6.4-0.8c-1.1,0.3-2.1,0.9-3.2,1.1c-1.3,0.3-2.6,0.5-4,0.6c-4.7,0.4-9.4,0.4-14.1,1.3
			C395.5,305,394.8,305.2,394.3,306.3"/>
		<path id="Fill-15" class="st0" d="M354,109.1c-1.1-1.5-2.5-2.7-1.9-5C354.1,105.4,354.1,105.4,354,109.1 M317.2,118.4
			c0.4,0.8-0.6,2.5-1,3.3c-0.4-1.4-1.6-3.2-2-3.9C315,117.8,316.8,117.5,317.2,118.4 M321.9,144.2c0.1-0.8,0.2-1.5,0.5-2.2
			c0.3,0.5,0.7,1.4,0.6,2c-0.1,0.8-0.6,0.6-1,1.3c-0.6,1.2,0.8,2.1,1.2,3.1c0.6-1.4,1.3-2.8,1.9-4.2c2.1,3.6,3.4,9-0.2,12.1
			c1.2,0.5,2.1,1.1,3.3,1.1c1.2,0.1,2.5-0.1,3.8-0.3c2.5-0.4,4.8-1.2,7.1-2.2c2.3-1,4.1-2.5,6.2-3.7c1.7-1,4-1.1,4.9-3
			c0.1,0.8,0.2,1.7,0.4,2.5c0.3-1.1,0.4-2.3,0.8-3.3c0.6-1.3,2.1-2.2,3.2-3.2c2.2-2.1,4.2-4.4,5.7-7c1.3-2.3,3-4.7,3.9-7.2
			c0.4-1.1,0.7-2.2,1.2-3.2c0.2-0.4,0.5-0.8,0.9-1.2c0.1-0.1,0.5-0.4,0.6-0.5c0.2-0.5-0.2-0.8-0.5-1.3c-3.4-5.8-5.8-12.2-8.4-18.4
			c-1.3-3-2.4-6-3.6-9.1c-1.2-3-2.8-5.8-3.9-8.9c-2.4-6.7-5.1-14-5.1-21.1c-1.4,0.2-2.7,0.7-4.1,0.9c-1.2,0.2-2.5-0.1-3.7-0.1
			c-2.5,0.1-5,1.2-7.2,2.2c-2.2,1-4.4,1.5-6.5,2.8c-2.1,1.3-4,2.8-6,4.3c-3.9,2.9-7.8,6.3-10.5,10.4c-2.9,4.5-4.5,9.8-6.5,14.7
			c0.3,0.9,0.7,1.9,1,2.8c0.1,0.3,0.5,1.9,0.8,2.1c0.5,0.3,1.5-0.4,2.1-0.2c0.6,0.2,0.8,0.7,1.2,1.2c0.8,1.3,1.3,1.9,2.6,2.8
			c1.4,1,1.5,1.8,2,3.3c0.9-1,1.8-2,2.8-3c0.2,2.1,0.2,3.7-0.2,5.8c-0.3,1.6-1.3,4-0.3,5.5c0.5,0.7,2.6,2,3.2,0.9
			c0.1-0.3,0.1-0.6,0-1c0.8,0.2,1.1,0.4,1.2,1.3c0.1,0.4-0.1,0.9,0.1,1.3c0.3,0.6,1.1,0.8,1.3,1.5c0.8,2.4-3.5,3.6-3.4,6
			c0,1.2,1.5,1.3,2,2.3c0.6,1.4,0.5,3.4,0.8,4.9c0.3,1.7,0.5,1.7,1.8,2.5c0.6,0.4,0.6,0.7,0.8,1.3
			C321.3,143.6,321.1,143.6,321.9,144.2"/>
		<path id="Fill-19" class="st0" d="M332.5,167.5c-0.4,0.8-0.2,1.5-1.1,2.2c-0.7,0.5-1.6,0.6-2.4,0.8c1.1,0.4,2.3,0.5,3.4,0
			c1.4-0.6,1.4-1.1,2.9-0.9c-0.3,0.8-0.4,1.4-1.3,1.6c-0.6,0.2-1.4-0.2-2,0.3c-0.4,0.3-0.4,0.8-0.4,1.2c0.1,0.9,0.4,0.9,1.2,0.6
			c1.1-0.4,1.9-1.3,2.6,0.1c0.5,1,0.1,2.5,1,3.3c0.8,0.7,1.7-0.1,2.6,0.2c1.1,0.4,0.4,0.8,0,1.5c-0.3,0.6-0.6,1.2-0.5,1.9
			c0.3,1.2,1.7,1.7,1,3c-0.4,0.8-0.9,0.6-0.6,1.6c0.2,0.8,0.7,1.4,0.9,2.3c2.1-0.6,3.8-0.5,5.3,1.3c1.3,1.5,1.6,3.2,1.1,5.1
			c-0.3-0.6-2.3-4.3-2.9-2.2c-0.5,1.6,2.1,1.9,2,3.5c-0.1,1.6-1.7,2.3-3,1.6c-1.9-1-1.3-2-0.1-3.2c-0.6,0-2.3,0.3-2.7,0
			c-0.6-0.3-0.3-2.2-0.3-3.1c-0.9,0.1-1.8,0.1-2.7,0.2c-0.1,1.5-0.4,11,3.1,9c0.7-0.4,0.7-1,1.6-1.1c0.7-0.1,1.2,0,1.6,0.6
			c0.8,1.4-0.7,4-1.1,5.3c1-0.6,3.5-2.9,4.8-2.7c1.7,0.3,1.3,2.8,2.2,3.7c0.8,0.8,3.2-0.1,4.3-0.2c0.7,0,1.4,0,2.1,0.3
			c0.8,0.3,1.3,1.1,2.1,1c0.7,0,1.1-0.7,1.7-0.9c0.8-0.3,1.7-0.2,2.6-0.2c2.2,0.1,4.1-0.4,6.2-0.8c2.2-0.5,3.8-0.3,6-0.2
			c1.7,0.1,3.8-1.5,5.3-2.4c3.4-1.9,6.5-4.6,9.2-7.5c1.2-1.3,2.3-2.6,3.2-4.1c0.5-0.8,0.9-1.6,1.6-2.3c0.2-0.3,1-0.6,1.1-0.9
			c0.1-0.3-0.5-1.4-0.6-1.7c-3.1-8.4-6.5-16.7-10.1-25c-2-4.6-4-9.2-6.1-13.7c-1.7-3.6-2.4-8.3-5.2-11.3c-1.6,2.4-2.8,5-4.6,7.3
			c-1.5,1.9-3.3,3.3-4.5,5.4c-1.2,2.1-3.3,3.5-5,5.3c-0.8,0.9-1.5,1.6-2.6,2.1c-1.1,0.5-1.9,0.7-2.8,1.6c-1.9,1.9-4,3-6.3,4.3
			c-2.5,1.3-5.2,2.9-7.9,3.5C336.6,165.2,333.3,165.7,332.5,167.5"/>
		<path id="Fill-21" class="st0" d="M236.8,115.5c1.5,2.7,3,5.5,4.3,8.3c1.3,3,1.7,5.9,2.5,9c0.3,1.4,1.1,2.7,1.5,4.1
			c0.4,1.6,0.7,3.3,0.9,4.9c0.5,3.2,1.4,6.3,1.9,9.4c0.5,3.7,0.9,7.4,1.3,11.1c0.2,2,1.8,7.5-1.3,8c8,2.7,16,5.4,24.1,8.1
			c0-3.2,2.2-4.5,4-6.8c0.9-1.2,1.4-2.4,1.8-3.8c0.4-1.5,1.3-2.5,2-3.8c-1.3-0.6-1.5-1.1-1.3-2.6c0.2-1.3,0.8-2.2,1.5-3.3
			c0.7-1.1-0.4-2.1-0.5-3.4c-0.1-1.5-0.2-2.4-0.8-3.7c-0.6-1.4,0.3-2.5,0.1-3.9c-0.1-1.2-0.4-2.6-0.8-3.7c-0.5-1.3-1.7-1.8-2.3-2.9
			c-0.6-1.1-0.5-2.7-0.5-4c-0.2-2.9-2-5.4-3.3-7.9c-0.7-1.3-1.4-2.7-2.3-3.9c-0.9-1.2-2.1-1.9-3.1-3c-0.7-0.8-0.6-2.4-1.5-3.1
			c-0.4-0.3-1.2-0.1-1.7-0.4c-0.5-0.3-0.8-0.8-1-1.3c-0.5-1.1-0.4-1.2-1.4-2c-0.8-0.6-1.1-1-0.4-1.9c-0.3-0.2-1-0.6-1.3-0.6
			c-0.1,0-0.2,0.5-0.5,0.5c-0.2,0-1.1-0.2-1.3-0.3c-1.2-0.4-1.2-1.1-1.9-2.1c-0.6-0.8-1.6-1-2.3-1.8c-0.8-1-0.6-2.4-0.3-3.6
			c-0.6,0.8-1.7,2.2-2.8,1.7c-0.5-0.2-0.6-0.5-0.8-1c-0.3-0.8-0.2-1.3-0.6-2.1c-0.6,0.7-1,1.3-1.4,2.1c-0.5-0.5-1.1-0.9-1.4-1.5
			c-0.4-0.6-0.3-1-0.9-1.5c-0.8-0.6-2.1-0.4-2.5-1.5c-2.1,2.4-3-1.3-4.5-1.9c-1.8-0.7-4.4,0.6-5.9,1.6c-2.1,1.4-0.3,3.9,0.5,5.6
			C233.9,109.8,235.2,112.7,236.8,115.5"/>
		<path id="Fill-23" class="st0" d="M470.5,392.1c0.7,0.5,0.6,0.7,1.6,0.8c5,0.3,9.9,0.8,14.9,1.6c-3.2-8.3-6.6-16.5-10.1-24.7
			c-1.7-3.9-2.8-7.8-4.1-11.8c-0.7-2-1.9-3.7-2.6-5.7c-0.8-2.1-0.9-4.1-2.5-5.8c-3,1.3-5.9,2.6-9,3.8c-2.8,1.1-5.8,1.9-8.5,3.4
			c-4.9,2.7-9.3,7.5-12.7,11.8c-3.5,4.4-5.7,9.6-8.4,14.5c-0.5,0.9-1.4,2.4-1.2,3.6c0.2,1.2,1.4,1.1,2.5,1.2
			c2.9,0.4,5.5,0.4,7.3,2.9c2-2,3.4-0.9,5.9-0.8c2.2,0.1,3.9,0.7,6.1,1.3c2.1,0.6,4.3,0.5,6.5,0.9c2.3,0.4,4.6,0.8,6.9,1.4
			c1.9,0.5,3.5,1,5.4,1.2C469.2,391.8,469.8,391.7,470.5,392.1"/>
		<path id="Fill-25" class="st0" d="M206,85.8c-1.6-0.7-2.8-0.9-2.9-2.9c0-0.8-0.1-1.6,0.3-2.3c0.6-1,0.9-0.9,1.2-2.2
			c-0.7,0-2.1,0.5-2.5-0.1c-0.5-0.7,0.2-2.5,0.3-3.2c0.2-1.2,0.4-2.4-0.1-3.7c-0.6-1.7-0.3-1.5,1.2-2.6c-0.3-0.3-0.9-0.6-1.1-1.1
			c-0.1-0.5,0.3-1.1,0.3-1.5c0-0.9-0.5-1.8-0.7-2.7c-0.2-1.1-0.2-2.2,0.3-3.3c0.4-1,1.3-1.4,1.1-2.6c-0.2-1.1-0.9-1.9-1-3.2
			c0-1.1,0.2-2.3,0.6-3.3c0.3-1,0.9-2.1,0.8-3.2c0-0.3-0.7-1.7-0.7-1.8c0-0.3,1.2-0.9,1.4-1c-2.9-1.5-5.8-2.9-8.7-4.4
			c-2.6-1.3-5.2-2.9-8-3.8c-1.8-0.6-3,0-4.1,1.6c-1.6,2.2-2.6,5-4.7,6.9c-2.3,2.2-7.6,3.7-10.7,2.8c-2.3-0.7-3.5-3.7-4.1-5.8
			c-0.7-2.7-0.8-5.7-0.8-8.4c0-3.4,0.5-6.8,0.5-10.2c0-3.4-0.6-6.8-0.9-10.2c-4.2,3.4-8.3,6.8-11.9,10.8c-3.8,4.3-7.5,8.8-11.3,13.1
			c11.9,6,23.5,12.8,33.9,21.2c5.2,4.2,9.9,8.8,14.7,13.4c4.8,4.8,9.5,9.8,13.4,15.4C202.9,86.3,204.6,85.9,206,85.8"/>
		<path id="Fill-27" class="st0" d="M437.4,294.1c2-0.6,3.9-0.4,5.6,0.9c-3.9-9.1-8.1-17.9-12.8-26.5c-1.5,1-3.2,1.7-4.7,2.6
			c-0.8,0.4-1.6,0.9-2.3,1.4c-0.7,0.5-1.3,1.4-2.1,1.8c-0.6,0.4-1.3,0.3-1.9,0.5c-0.8,0.2-1.6,0.8-2.4,1.2c-1.8,1-3,2.4-4.6,3.7
			c-1.5,1.3-3.1,2.3-4.4,3.7c-1.3,1.4-2.5,3-3.9,4.4c-2.8,2.7-4.2,6.3-6,9.7c2.2,0,4.5,0,6.7,0c2.1,0,4.2-0.4,6.3-0.4
			c2.4-0.1,4.7-0.1,7.1-0.2c0.9,0,1.7,0,2.5-0.2c0.6-0.2,1-0.6,1.5-0.2c0.6,0.4,0.3,1,1.2,1c0.7,0,1.4-0.8,2.1-1.1
			c1.8-0.8,3.7-0.9,5.6-1C433.3,295.2,435.3,294.7,437.4,294.1"/>
		<path id="Fill-29" class="st0" d="M314.7,28.4c0.3-0.4,1.2-1.1,1.3-1.6c0.1-0.7-0.1-0.6-0.7-1.1c-0.6-0.5-1.2-0.9-1.8-1.4
			c-4.4-3.3-8.8-6.6-13.2-9.9c-0.9-0.7-2.3-1.3-3-2.1c-0.5-0.6-0.5-1.4-1-2c-1-1.2-2.7-1.3-4.1-1.7c-0.4,4.9,0,9.9,0.1,14.8
			c0.1,4.7,0.6,9.2,1.6,13.8c1.7,7.8,3.4,16.9,11.8,20.2c1.6,0.6,2.4,0.1,3.3-1.3c1.1-1.6,2.5-4.2,2.8-6.1c0.2-0.9-0.1-1.8-0.1-2.7
			c0.1-0.9,0.4-1.7,0.5-2.5c0.1-0.8,0.3,0,0.1-0.8c-0.1-0.4-0.6-0.8-0.7-1.3c-0.2-0.8,0.1-1.6,0.5-2.3c0.7-1.2,2.4-2.6,1.9-4.1
			c-0.3-0.8-1.2-1-1.6-1.7c-0.6-1.1,0.4-1.4,0.6-2.3c0.2-0.7,0-1.4,0.3-2.1C313.7,29.4,314.2,28.9,314.7,28.4"/>
		<path id="Fill-31" class="st0" d="M255.7,55.8c-0.9-1.2-1.7-2.6-2.7-3.9c-1.2-1.5-2.5-3.7-4.1-4.9c-1-0.8-2.4-1.2-3.3-2.3
			c-1-1.1-1.4-2.7-2.2-3.9c-0.9-1.4-2-2.6-3.4-3.4c-0.8-0.5-1.3-0.6-1.6-1.5c-0.3-0.7-0.3-1.6-0.6-2.4c-1.9,1.3-3.5,2.9-5.4,4.2
			c-2,1.4-4.3,2.2-6.4,3.4c4.4,6.6,8.4,13.4,13.5,19.5c4.5,5.3,10.2,11,17.6,11.7c1.5,0.2,3.3,0.2,4.8-0.2c1.1-0.3,1.1-0.6,1-1.7
			c-0.2-1.6-0.8-3-0.8-4.7c0-1.7-0.7-2.9-1.3-4.5c-0.4-1.2-1-2.4-1.9-3.3C258,57.1,256.5,56.8,255.7,55.8"/>
		<path id="Fill-33" class="st0" d="M392.5,122.7c0.3-0.9,0.9-1.8,1.1-2.6c0.3-1.2-0.5-1.6-1.1-2.7c-0.6-1.1-1.1-2.3-1.3-3.6
			c-0.3-1.4-0.2-2.1-1.2-3.1c-0.7-0.7-1.2-1.6-1.2-2.6c0-1.2,0.8-2.1,0.2-3.4c-0.5-1.2-1.8-1.7-2.3-2.9c-0.5-1.3,0.4-2.4,0.7-3.6
			c0.5-2.4-2.8-1.7-3.2-3.9c-0.1-0.5,0.1-1.1,0.2-1.6c0.3-1.1,0.3-1.1-0.5-2c-1-1.1-1.8-2.2-2.6-3.5c-0.9-1.5-1.5-3.1-2.4-4.5
			c-1-1.4-2.1-2.8-3-4.2c0.6,3.6,0.7,7.3,1.2,11c0.3,1.8,0.8,3.5,1.1,5.3c0.1,0.7,0.2,1.3,0.2,2c0,0.9-0.5,1.9-0.4,2.7
			c0.1,0.8,0.5,1.4,0.5,2.3c0,0.6-0.1,1.2-0.2,1.7c-0.2,1.7,0.2,3.3,0,5c-0.2,1.5-0.6,3-0.7,4.5c-0.1,0.7,0,1.5-0.1,2.1
			c-0.2,0.1-0.4,0.3-0.6,0.4c0.2,0.3,0.3,0.6,0.5,0.9c7.2,12.6,12.2,26.2,18.7,39.2c0.2-1.3,0.1-2.7,0.5-4c0.3-1,0.8-1.6,0.2-2.6
			c-0.4-0.7-1.3-0.8-1.5-1.7c-0.1-0.8,0.6-1.6,0.7-2.4c0.1-0.6,0.2-1.6-0.2-2.1c-0.5-0.7-1.1-0.5-1.1-1.6c0-0.9-0.2-2.4-0.1-3.2
			c0.1-0.6-0.1-0.5,0.3-0.8c0.3-0.2,1.2-0.3,1.6-0.4c-0.9-1.1-1.2-0.9-2.7-0.7c0.1-0.9,0.6-1.8,0.6-2.7c0-1-0.8-1.5-1-2.4
			c-0.2-0.9,0.1-1.7,0.4-2.6c0.3-1.3,0.5-2.5,0.7-3.8c-0.8,0.4-1.6,2.6-2.3,1.1C391.7,124.5,392.3,123.4,392.5,122.7"/>
		<path id="Fill-39" class="st0" d="M407.9,142.5c0.6-2.1,0.9-4.3,1-6.5c0.1-2.3,0.3-4.9,0-7.2c-0.3-2-2.2-4.1-3.2-5.7
			c-1.3-2-2.5-4.1-3.8-6.1c-2.6-4.2-5.2-8.4-7.8-12.5c1.8,8.3,3.4,16.7,5.2,25.1c0.8,4,1.6,8,2,12c0.2,2.2,0.3,4.3,0.4,6.5
			c0.1,2.2,0.7,4.3,1.1,6.4C405.1,150.8,406.8,146.8,407.9,142.5"/>
		<path id="Fill-41" class="st0" d="M371,92.5c0.1-1.1-0.6-0.9-1.1-1.6c-0.5-0.8,0.4-1.4,0.8-2.1c0.7-1.3,0-2.3-0.5-3.5
			c-0.5-1.3-1.1-2.8-1.2-4.3c-0.1-1.3,0.2-2.2-0.5-3.4c-0.8-1.5-0.5-2.5-0.5-4.2c-0.5,0.1-1.1,0.2-1.5-0.1c-0.8-0.7,0-0.5,0-1.3
			c0.1-0.9-0.5-1-1.2-1.3c-2.3-1-4.5-2.4-6.9-3.2c-1-0.3-2.2-0.2-3.2-0.7c-0.7-0.4-1.2-1.4-2.1-1.2c-0.3,0.1-0.8,0.4-0.9,0.7
			c-0.3,0.6,0,0.9,0.3,1.6c0.7,1.4,1.4,2.7,2.1,4.1c1.3,2.5,2.3,5.1,3.3,7.6c1,2.3,2.5,4.4,3.8,6.6c3.1,5,5,10.6,8.4,15.4
			c0.1-1.7,0.1-3.4,0.2-5.1c0-0.7,0-1.4,0.1-2.1C370.5,93.7,370.9,93,371,92.5"/>
		<path id="Fill-43" class="st0" d="M380.9,310.6c0.1,1.4,2.5,2.9,0,4.4V310.6z M384.7,306.5c-1.3-0.1-2.6,0.4-3.8,0.5
			c-1.3,0.2-2.6,0.2-3.9,0.4c1.1,3,2.1,6,3.2,9c0.9,2.6,1.5,5.3,3.5,7.2c0.2-0.5,0.5-2.3,1.3-2c0.2,0.1,0.3,2.5,0.3,2.8
			c1.5-0.4,2.1-4,1.6-5.4c-0.3-1-1.1-1.6-1-2.8c0.1-1.2,0.7-2.4,0.8-3.6c0.1-1.2-0.1-2.5-0.1-3.7c0-0.2,0.2-1.8,0.1-2
			C386.4,306.7,385.1,306.5,384.7,306.5L384.7,306.5z"/>
		<path id="Fill-49" class="st0" d="M419.2,391.7c-1-0.4-2.6-0.2-3.1,0.9c-0.5,1.4,1.3,4.5,1.8,5.9c1.4-0.9,1.9-2.2,2-3.8
			C420,393.5,420.3,392.2,419.2,391.7"/>
		<path id="Fill-106" class="st1" d="M206,58.5c-0.3-2-0.5-4-0.8-6c-0.3,1-1.3,2.8-1.2,3.8C204.1,57.4,205.3,57.8,206,58.5"/>
		<path id="Fill-9" class="st0" d="M367.4,264.1c-2.5,0-1.1-3.8-0.5-4.8C367.2,260.1,369.3,264,367.4,264.1 M351.6,214.3
			c-1.4,1.2-3,1.9-3.6,3.6c-0.6,1.8-0.7,3.8-1,5.7c0.5,0,1.4-0.7,1.9-0.4c0.6,0.3,0.1,1.8,0.2,2.5c0.3,2,2.2,3.4,2.3,5.4
			c0.3-1.4,0.3-2.8,0.4-4.2c0.1-1.6,0.4-1.8,1.4-3c-0.5,1.6,0.4,2.9,1.2,4.2c0.4,0.6,0.8,1.2,1,1.9c0.2,0.7-0.3,1.7-0.2,2.1
			c0.3,0.8,2.9,1.1,0.9,2.1c-0.9,0.5-1.5-0.1-2.3-0.3c-1.2-0.4-2.2,0.1-3.2,0.7c0.9,0.4,2,0.6,2.7,1.3c0.7,0.7,1.1,1.5,1.9,2.1
			c1.4,1.1,2.8,2.2,1.8,4.1c-0.5,0.9-1.1,1.2,0.1,1.8c1.1,0.6,1.6,0.1,2.5-0.5c1.5-1,2.9-1.1,3.5,0.9c-2.9,0.6-6,0.9-7,4.2
			c-0.3,1.1,0.7,2.2,1.9,2.2c1.4,0.1,2.1-2.4,2.6-3.5c0.3,0.7,0.9,1.6,0.9,2.4c0,1.1-0.6,1.2-1.2,2c-1.1,1.7,1.3,2.1,2.5,2.5
			c-0.8,0.5-2,1.1-1.7,2.3c0.2,1.1,1.3,1,1.8,1.7c0.7,1.1-0.6,1.6-0.7,2.7c-0.1,1.1,0.4,2.1,0.5,3.2c0.1,0.8-0.4,2.7,0.5,3.3
			c1.2,0.9,3.1-0.2,4.3,0.9c-1,0.6-1.9,1.3-2.9,1.9c-1,0.6-1,0.8-1.8,0c-0.5,2.1,0.8,3.9,2.1,5.4c0.1-1.1,0-2.8,0.3-3.8
			c0.2-0.8,0.4-0.9,1.2-0.8c1.3,0.3,0.7,1.1,0.4,2.2c-0.1,0.5-0.2,1.3-0.5,1.8c-0.5,0.8-0.3,0.6-1.4,0.6c0.4,1.1,1.2,2.5,2.2,3.3
			c0.9,0.7,1.4,0,2.2-0.6c0.6,1,1.8,2.8,1,4c-0.6,0.8-1.7,0.3-2.6,0.2c0.1,0.6,0.2,2.3,0.5,2.8c0.5,0.5,2,0.4,2.6,0.8
			c2,1.2-1.1,1.1-1.6,2.1c-0.2,0.4,0.6,2.3,0.7,2.7c0.2,0.7,0.4,1.3,0.6,2c0.2,1,0.2,2.2,1.6,2.2c0-0.5,0-1.1,0.6-1.1
			c0.8,0,1,1.3,1.4,1.7c0.4,0.4,1.3,0.5,1.1,1.1c-0.3,0.7-2,0.5-2.5,0.5c0.4,1,0.8,2.1,1.3,3.1c0.7-0.4,1.4-0.9,2.2-1.4
			c0.3-0.2,0.6-0.4,0.9-0.5c0.3-0.1,0.4,0,0.5,0.4c1,0.5,1.3,0.1,2.4,0c2.9-0.4,6.6,0.9,9-1.3c1.1-1.1,1.3-2.7,2-4.1
			c0.7-1.5,1.6-2.9,2.5-4.3c1.6-2.4,2.8-5.6,5.1-7.4c1.4-1.1,2.4-2.1,3.3-3.7c0.8-1.4,1.6-2.4,2.9-3.5c2.6-2.4,5.4-4.7,8.2-6.9
			c0.4-0.3,0.8-0.7,1.4-0.8c0.4-0.1,1.2,0.4,1.4,0.3c0.4-0.1,0.7-0.9,1-1.2c0.5-0.6,0.5-0.8,1.3-1.2c2.8-1.6,6.1-3.2,9.4-3.3
			c-4.8-11.2-10.4-22.1-15.3-33.3c-2.4-5.5-4.8-11.1-7-16.7c-1.1-2.8-2.2-5.6-3.3-8.4c-1.1-2.9-2.4-5.3-4.1-7.9
			c-2.7,3.3-5.3,6.9-8.8,9.3c-1.6,1.1-3.8,1.6-5.1,2.9c-1.2,1.2-1.4,2.9-1.7,4.5c-0.9-0.8-1.5-2.6-2.7-2.9c-1.2-0.4-2.8,0.8-4,1.2
			c-1.9,0.5-3.3-0.1-5.1-0.2c-1.1-0.1-1.3,0.5-2.2,0.9c-0.7,0.3-1.4,0.1-2.1,0.1c-2-0.1-4.1,0.5-6-0.4c-0.5-0.3-1.3-0.9-1.9-0.8
			c-0.6,0.1-1.1,1-1.6,1.3c-0.9,0.6-1.4,0.4-2.4,0.2c-1-0.2-2.3-0.1-3.3-0.1c-0.8,0.1-1.8,0-1.3,1
			C349.5,213.4,350.9,213.9,351.6,214.3"/>
	</g>
	<g id="Ink" transform="translate(27.999643, -0.500294)">
		<path id="Fill-53" d="M62.3,205c-2.7-0.6-5.3-0.7-8-1.5c-6-1.8-12.3-2.8-18.4-4.2c-6-1.4-11.9-2.9-17.9-4.5
			c5.7-1.4,11.5-2.1,17.3-2.7c6.1-0.7,12.4-1.3,18.5-0.8c2.9,0.2,5.7,0.5,8.6,0.2c2.9-0.4,5.5-0.1,8.4,0.4c1.4,0.3,2.8,0.6,4.2,0.7
			c1.4,0.1,2.8-0.2,4.2-0.1c3.1,0.2,6.2,1.1,9.3,1.4c6.2,0.7,12.4,0.9,18.5,2c5.5,1,11,2.9,16.6,3.4c2.2,0.2,4.3,0.3,5.6-1.6
			c1.7-2.6,1.3-5.6,0.5-8.4c-1.5-5.3-4.3-9.5-8-13.6c-4.6-5.1-9.5-9.9-14.2-15c-2.4-2.6-4.8-5.2-7.2-7.8c-1.2-1.3-2.5-2.5-3.6-3.9
			c-0.7-0.9-1.1-2-1.6-3.1c5.4,0.8,10.2,1.6,15,4.3c5,2.8,9.5,6.4,14.2,9.7c4.3,3.1,8.8,6,12.6,9.7c4,3.9,8.3,7.6,12.4,11.4
			c4.3,3.9,8.6,7.7,12.8,11.8c1.9,1.9,4,3.6,5.9,5.5c2.2,2.3,4.2,4.9,6.3,7.3c0.8,0.9,1.6,1.9,2.5,2.8c0.8,0.8,1.9,1.3,2.6,2.1
			c0.8,0.9,1.3,2.2,2.1,3.2c0.9,1.2,1.9,2.4,2.9,3.6c1.7,2,3.5,3.9,5.1,5.9c1.6,2.1,2.2,5,3.7,6.8c1.3,1.6,0.1,3.4-0.5,5.2
			c-1.1,3.1-2.1,6.2-3.2,9.3c-2,6-4,12-6.1,17.9c-2,5.6-5,10.3-8.6,15.1c-1.3,1.8-2.8,4.7-5.1,5.5c-2.3,0.8-4.8-1-6.9-1.7
			c-2.2-0.7-4.4-1.1-6.4-2.1c-1.3-0.6-1.8-1-3.3-1.1c-1.5-0.1-3-0.5-4.4-1.1c-2.3-0.9-4.4-1.9-6.7-2.8c-1-0.4-2-0.7-3-1.3
			c-1.2-0.7-1.9-1.6-2.8-2.6c-1.6-1.6-4.7-2.4-6.8-3.3c-2.9-1.3-5.7-2-8.7-2.8c-2.9-0.8-5.5-1.2-8.5-0.8c-3,0.4-6.1,1-9.1,1.6
			c-6.5,1.3-12.8,3.1-19.1,4.9c-6.5,1.8-13.3,3-19.6,5.6c-1.3,0.5-2.5,1.2-3.9,1.5c-1.6,0.3-3.1,0.5-4.7,1c-3,0.9-6.1,2-9,3.1
			c-3,1.1-5.9,2-8.9,2.9c-1.6,0.5-3,1.3-4.6,1.9c-1.3,0.4-2.4,0.3-3.7,0.3c2.9-3.7,6.2-7,10.1-9.7c1.9-1.3,3.9-2.5,5.9-3.5
			c2.3-1.1,4.4-2.4,6.6-3.7c4-2.4,8.7-4,13-5.9c1.9-0.9,4-1.6,5.9-2.4c2.3-1,4.3-2.3,6.4-3.5c1.5-0.9,2.7-0.8,3.3-2.7
			c0.5-1.6,0.9-3.7,0.4-5.4c-0.7-2.6-2.1-7-5.2-7.6c-1.7-0.4-3.6,0.1-5.4,0.2c-2.3,0.1-4.7,0-7,0.7c-0.5,0.2-1,0.5-1.5,0.7
			c-0.6,0.1-1-0.1-1.6-0.1c-1.1-0.1-2.2,0-3.3,0.2c-2.9,0.4-5.9,0.8-8.8,1c-3,0.3-6.1,0.5-9.1,0.7c-3,0.2-6.1,0.1-9.1,0.6
			c-6,1-12.7,0.9-18.7-0.1c1.5-1.7,3.6-3,5.5-4.2c2.2-1.5,4.6-2.6,7-3.6c4.8-1.9,9.8-3.6,14.8-4.9c11-2.7,22.1-5.4,33.4-6.9
			c2.4-0.3,4.5-1.1,6.8-1.9c2.1-0.7,4.9-0.2,6.5-1.7c3.4-3.3,0.9-8.8-1.6-11.9c-1.3-1.7-3.2-2.2-5.2-2.4c-3-0.4-6-1-9-1.5
			C67.2,206.3,64.8,205.5,62.3,205L62.3,205z M534.1,331.3c-0.5-1.8-1-3.7-1.6-5.5c-0.4-1.3-0.8-2.2-1.3-3.1
			c0.3,0.4,0.6,0.8,0.8,1.4C532.8,326.4,533.5,328.9,534.1,331.3L534.1,331.3z M535.4,333.7c-0.1-0.3-0.3-0.6-0.4-0.9
			C535.1,333.1,535.3,333.4,535.4,333.7L535.4,333.7z M535.9,334.9c-0.1-0.3-0.2-0.6-0.3-0.9C535.7,334.3,535.8,334.6,535.9,334.9
			L535.9,334.9z M534.3,331.8c0.2,0.3,0.4,0.6,0.6,0.9C534.7,332.3,534.5,332,534.3,331.8L534.3,331.8z M169.4,309.6
			c-2.7-1.7-5.3-3.7-7.9-5.6c2.9-2.5,5.7-5,8.6-7.5c2.7-2.3,5.8-4.6,8.1-7.3c4.6-5.4,7.4-12.7,10.6-18.9c1.7-3.3,2.7-7,4.1-10.4
			c0.6-1.6,1.4-3.1,1.9-4.6c0.6-1.6,0.7-3.3,1.1-5c1.6-6.7,3.4-13.6,5.6-20.1c7.7,7.6,15.5,15.1,22.8,23c3.8,4.1,7.4,8.3,11.3,12.4
			c1.9,2,3.9,4,5.8,6c0.9,0.9,1.8,1.8,2.7,2.7c1.1,1.1,2.4,1.9,3.4,3c1.4,1.5,2.5,3.3,4,4.7c1.9,1.8,3.9,3.3,5.7,5.2
			c3.9,4.2,7.6,8.6,11.4,12.9c7.4,8.5,15.1,16.8,22.3,25.4c2.1,2.6,4.3,5.2,6.4,7.8c1.6,2,3.7,4,4.2,6.6c0.5,2.8-1.6,5-2.4,7.5
			c-0.4,1.3-0.9,2.6-1.1,4c-0.2,1.6,0.5,2.5,1,4c1-0.5,2-0.8,2.9-1.5c0.9-0.8,1.5-1.9,2.2-2.8c1.9-2.6,3.9-5.2,5.8-7.8
			c3.7-5,7.6-9.9,10.6-15.3c3-5.3,5.5-10.9,8.1-16.4c2.4-5.3,5.4-10.5,7.6-16c0.4-1.1,0.7-2.3,1.1-3.4c0.4-1.1,1.4-2,1.8-3
			c0.4-1.1,0.1-2.5,0.5-3.7c0.5-1.7,1.3-3.3,1.9-4.9c1.1-2.8,2.3-5.5,3.5-8.3c1.2-2.8,2.8-5.3,3.9-8.1c2.2-5.4,5-10.3,7.9-15.4
			c1.5-2.6,3-5.1,4.5-7.7c1.6-2.6,3-5.6,5.1-7.9c1-1.1,2-2.2,2.6-3.5c0.8-1.5,1.8-2.7,2.9-4c2.3-2.6,4.6-5.2,6.8-7.8
			c4.1-5,8.9-9.2,13.9-13.3c0.3,2.7,0.6,5.4,0.8,8.1c0.2,3.1-0.1,6.2-0.3,9.3c-0.3,5-0.7,11.8,2.9,15.9c2.5,2.9,8,1.1,10.8-0.4
			c1.7-0.9,2.7-2.3,3.7-3.9c1.1-1.7,2.2-4.8,4.2-5.7c1.8-0.8,4,0.8,5.6,1.6c2.9,1.4,5.8,2.9,8.7,4.3c2.7,1.4,5.4,2.9,8.3,3.4
			c1.2,0.2,2-0.3,3,0.4c1.4,0.8,2.6,2,3.8,3c4.1,3.4,7,7.7,10.3,11.8c1.6,2,3.3,3.9,4.8,5.9c1.3,1.7,3.4,4.9,5.8,5.3
			c1,0.2,1.8-0.5,2.3-1.3c0.9-1.4,0.5-2.6,0-4c-1-3.1-2.5-5.8-4.4-8.5c-3.9-5.5-8.3-10.4-12.9-15.3c1-0.2,1.5-1.1,2.3-1.7
			c1-0.8,1.9-0.6,2.9-1c3-1.2,5.8-3,8.2-5.2c1.1-1,2.4-1.7,3.5-2.7c1.1-0.9,2.3-1.6,3.7-1.6c3.5-0.1,6.3,3.1,9.6,3.7
			c3.2,0.6,6.1,2.1,9.2,3.3c1.8,0.7,4,2,5.8,0.8c0.9-0.6,2.2-1.6,2.7-2.5c0.7-1.2-0.7-2.3-1.2-3.4c-1.4-3.1-1.5-6.9-2.3-10.1
			c-2-8-5-15.7-7.7-23.5c5.9,0.5,11.7,1.7,17.3,3.7c2.6,0.9,5.1,2,7.8,2.6c3,0.6,6,1.2,8.8,2.3c1.5,0.6,3.6,0.7,4.7,2
			c0.5,0.6,0.4,1.4,0.8,1.9c0.7,1,2.7,1.9,3.7,2.7c2.4,1.9,4.8,3.7,7.3,5.6c2.4,1.9,4.9,4.3,7.6,5.8c0.9,0.5,2.1,0.7,3,1.3
			c1,0.6,1.8,1.4,2.6,2.3c1.9,2.1,4.9,3.2,7.2,4.8c4.8,3.1,9.5,6.5,14.1,10c4.4,3.4,8.2,7.5,12.2,11.5c2.1,2,4.1,4.2,6.3,6
			c2.3,1.9,4.5,3.4,6.4,5.7c3.5,4.4,6.9,9,10.2,13.6c1.4,1.9,2.3,4.1,3.6,6.1c0.7,1,1.5,2,2.3,3c1,1.1,1.6,2.4,2.6,3.5
			c1.6,2.1,3.6,3.7,5.1,5.9c1.5,2.3,2.9,4.8,4.4,7.1c3.4,5.3,6.8,10.6,10.2,16c1.4,2.3,3.1,4.1,3.1,6.9c0,3.1,0.2,6.2-0.3,9.3
			c-1,5.5-3.4,10.1-6,15c-1.1,2.1-1.5,5-3.5,6.3c-0.9,0.6-1.4,0.2-1.8-0.9c-0.4-0.9,0.1-1.7-0.3-2.6c-0.4-0.8-1.2-1.5-1.6-2.3
			c-0.7-1.2-1.3-2.5-1.9-3.8c-1.4-2.9-2.7-5.8-4-8.7c-2.4-5.5-4.9-11-7.4-16.5c-1.1-2.4-2.3-4.7-3.7-7c-1.6-2.6-2.6-5.3-3.9-8
			c-0.9-2.1-2.8-3.9-3.4-6.1c-0.3-1.2-0.1-1.7-0.9-2.7c-0.9-1-1.6-2-2.2-3.1c-2.8-5.2-5.2-10.4-8.3-15.4c-1.3-2.1-2.1-4.2-3-6.5
			c-1.2-2.8-2.6-5.5-3.9-8.2c-0.9-1.8-1.9-4.3-3.5-5.6c-1.8-1.4-3.5,1.7-3.9,3.2c-0.5,2.5,0.5,6,1.1,8.4c0.6,2.7,1.5,5.4,2.3,8.1
			c1.8,5.6,4.4,10.8,6.5,16.4c2.1,5.6,4.5,11.1,6.9,16.5c2.3,5.4,5.2,10.4,7.7,15.6c0.3,0.6,0.7,1.3,1,2c0.2,0.5,0.1,1.2,0.3,1.6
			c0.4,1,1.4,1.9,1.9,3c1,2.1,1.5,4.5,2.5,6.6c2.6,5.7,5.2,11.4,7.6,17.2c2.4,5.6,4.7,11.2,7,16.9c1,2.6,1.7,5.6,3,8
			c1.3,2.4,2.4,4.4,3.2,7.1c0.7,2.6,2.5,4.5,3.5,7c1.1,2.8,2.2,5.6,3.3,8.4c2.3,5.8,4.7,11.6,7.2,17.4c4.8,11,10.3,21.6,15,32.7
			c4.7,11.2,11.2,21.6,15.9,32.8c2.3,5.5,5.6,10.3,8,15.7c2.4,5.3,5.3,10.3,8,15.6c2.6,5.2,4.8,10.7,6.6,16.1c1,2.8,2,5.4,3.9,7.8
			c0.9,1.1,1.1,2.3,1.5,3.6c0.5,1.6,1.1,3,1.8,4.5c1.2,2.3,1.7,4.5,2.5,6.9c0.9,2.9,2.1,5.7,3.3,8.4c2.2,5.2,4.6,10.2,6.5,15.5
			c2.1,5.6,4.4,11,6.9,16.4c2.6,5.6,4.8,11.3,7,17.2c2.2,5.8,4.3,11.6,6.4,17.4c1,2.8,2.1,5.6,3.1,8.4c0.4,1.1,0.9,2.3,1.3,3.4
			c0.5,1.3,1.5,2.9,1.4,4.3c-0.1,1.3-1.2,2-2,2.8c-1,1-2.1,2-3.1,3.1c-2.1,2.1-4.3,4.3-6.5,6.3c-4.1,3.7-8.5,7.3-13.4,9.9
			c-4.9,2.6-10.2,5.1-15.5,6.8c-5.6,1.8-11.4,2.7-17.2,3.3c-2.9,0.3-5.8,0.7-8.7,0.7c-1.4,0-2.7-0.3-4.1-0.5c-0.4-0.1-1.8-0.1-2-0.3
			c-0.3-0.3-0.4-1.8-0.5-2.3c-0.3-1.1-0.5-2.3-0.8-3.4c-0.4-1.3-1-2.2-0.7-3.6c0.3-1.3,0.9-2.2,0.7-3.6c-0.2-1.5-0.7-2.9-0.9-4.3
			c-0.1-1.2,0.2-2.3-0.3-3.4c-0.4-0.9-1.1-1.7-1.6-2.5c-0.6-1.1-1.1-2.3-1.4-3.6c-0.3-1.4-0.2-3.1-0.6-4.4c-0.4-1.2-1.3-2.3-1.7-3.5
			c-0.5-1.4-0.9-2.8-1.3-4.3c-0.8-3-1.7-5.9-2.6-8.9c-0.4-1.3-0.9-2.3-1.5-3.5c-0.2-0.4-0.3-0.9-0.5-1.4c0.3,0.9,0.8,1.8,1.3,2.6
			c0.9-4.1-1-7.7-3-11.1c0.2,0.9,0.3,1.8,0.4,2.7c-0.4-2.1-0.9-4.2-1.6-6.2c-1.9-5.8-4-11.4-6.1-17.1c-2-5.5-3.8-11-5.9-16.5
			c-2.1-5.5-3.4-11.2-5.4-16.8c-2.2-5.9-4.6-11.7-7.1-17.4c-2.4-5.5-5.4-10.7-7.8-16.2c-0.9-2.2-1.4-4.4-2-6.7
			c-0.3-1.2-0.8-1.9-1.6-2.9c-0.8-1-1.1-2.4-2-3.4c-0.8-1-1.4-1.4-1.9-2.7c-0.5-1.3-1-2.7-1.5-4c-1-2.8-2-5.6-3-8.4
			c-1-2.7-2.2-5.2-3.3-7.9c-0.5-1.2-1.1-2.5-1.4-3.7c-0.1-0.4-0.2-1.4-0.4-1.7c-0.3-0.4-0.9-0.1-1.3-0.7c-0.3-0.5-0.4-1.6-0.5-2.1
			c-0.4-1.4-0.7-2.7-1.1-4.1c-0.8-2.7-1.3-5.4-2.9-7.8c-1.1-1.7-0.7-3.6-1.8-5.2c-0.6-0.9-1.3-1.7-1.6-2.8c-0.4-1.2,0-2.4-0.5-3.6
			c-0.4-0.9-1-1.7-1.3-2.6c-0.4-1.1-0.1-2.1-0.3-3.1c-0.4-2.3-2.2-4.6-3-6.7c-1-2.6-2.5-5.3-3-8.1c-0.4-2.5-1.6-4.6-2.5-7
			c-0.8-2.3-2-4.4-2.8-6.8c-1-3.2-2-6.4-3.2-9.5c-1-2.7-2.1-5.3-3-8c-1-2.9-1.8-5.8-2.8-8.6c-0.9-2.5-2-5.1-2.2-7.8
			c-0.1-0.8-0.1-1.1-0.4-1.7c-0.2-0.4-0.6-0.7-0.9-1.2c-0.6-1.2-0.8-2.5-0.8-3.8c-0.1-1,0.5-3,0.1-3.9c-0.1-0.3-1-0.9-1.3-1.2
			c-0.4-0.4-0.7-0.9-0.9-1.4c-0.5-1-0.8-2.1-1.2-3.1c-0.2-0.6-0.5-0.9-0.7-1.5c-0.1-0.2-0.2-0.4-0.3-0.6c0.2-0.6,0.7-1.7,1.1-1.7
			c0.3,0,1,1.1,1.3,1.3l0.4-3.5c0.1-0.5,0.1-0.9,0.2-1.4c0.1-0.9,0.5-1.4-0.5-1.5c-0.1,1.1,0.1,2.8-0.6,3.6
			c-0.6,0.8-1.5,0.6-2.4,0.5l0.1,0.7v0c-0.4-2.2-0.8-4.5-1.6-6.6c-0.5-1.2-1-2.1-1.3-3.2c-0.4-1.3-1.1-2.7-1.5-4.1
			c-1.7-5.7-3.9-11.3-6-16.9c-1-2.7-2-5.4-3.1-8.1c-1-2.5-2.5-4.6-3.4-7.1c-1-2.5-1.6-5.2-2.7-7.7c-1.2-2.8-2.5-5.5-3.5-8.3
			c-0.8-2.2-2-4.4-2.7-6.6c-0.4-1.1-0.5-2.2-1-3.2c-0.6-1.4-1.5-2.5-2-4c-0.9-2.5-1.3-5.1-2.3-7.6c-1-2.5-1.7-5-2.7-7.5
			c-1-2.8-2.1-5.6-3.1-8.4c-0.4-1.1-2.3-6.4-4-5.8c-2.2,0.7-1.4,5.7-1.3,7.3c0.3,3.3,1.3,6.5,2,9.7c1.3,6,2.6,12,4.1,18
			c1.3,5.4,3.4,10.6,5.2,15.8c0.2,0.7,0.5,1.4,0.7,2.1c0.1,0.6,0,1.5,0.3,2c0.5,2.4,1,4.7,1.5,7.1c0.3,1.6,0.4,3.7,2.5,3.5
			c0,1.8,0,2.8,0.8,4.4c0.8,1.6,1.7,3.1,2.5,4.7c-0.6-1.9-0.9-3.8-1.6-5.7c0.8,2.4,1.2,4.9,2.4,7.1c1,1.8,1.8,3.7,2.4,5.7
			c0.6,2.2,1.5,4.3,2.3,6.4c2.9,8.2,4.9,17.1,8.9,24.9c-2.6-0.4-5-0.9-7.7-0.7c-1.5,0.1-2.2-0.2-3.6-0.6c-1.5-0.4-3.4-0.3-4.9-0.4
			c-5.9-0.6-11.9-0.8-17.6-2.4c-5.8-1.6-11.2-3.9-16.9-5.9c-6-2.2-12.1-4.1-18.2-6.1c-2.9-1-5.8-1.9-8.6-3.2
			c-0.7-0.3-1.4-0.7-2.1-0.9c-0.7-0.2-1-0.1-1.6-0.2c-1.6-0.4-3.1-1.4-4.6-2.1c-5.5-2.6-10.9-5.3-16.3-8.1c-1.3-0.7-2.5-1-3.9-1.5
			c-1.3-0.5-2.5-1.3-3.7-2c-2.7-1.6-5.4-3.3-7.9-5.2c-2.4-1.8-4.9-3.5-7.1-5.7c-2.3-2.3-4.6-4.5-6.8-6.9c-2.1-2.3-4-4.7-6.2-6.9
			c-2.2-2.2-4.9-3.9-7-6.1c-2-2.2-2.7-5.2-4.3-7.7c-1.6-2.4-3.5-4.6-5-7.1c-4.1,2.7-2,9.8-0.7,13.6c0.9,2.5,2.2,4.7,3.5,7
			c0.9,1.5,2,3.3,1.6,5.1c-0.4,2-2.2,3.5-3.4,5c-1.8,2.3-3.5,4.6-5.3,6.9c-3.6,4.7-7.3,9.5-11.1,14.1c-1.6,1.9-2.9,4.1-4.6,5.9
			c-2.2,2.3-4.4,4.5-6.6,6.8c-4.1,4.1-8.3,7.8-12.9,11.3c-0.9,0.7-1.9,1.3-2.9,1.8c-1.1,0.6-1.5,1.5-2.5,2.2
			c-1.9,1.6-4.5,2.5-6.6,3.9c-4.8,3.1-9.4,6.5-14.4,9.2c-10,5.4-21,10.4-32.4,6.9c-2.8-0.9-5.2-2.5-7.9-3.4
			c-0.9-0.3-1.6-0.2-2.5-0.8c-1.3-0.8-2.5-1.6-3.9-2.3c-2.3-1.2-4.7-2.1-7.1-3.2c-2.4-1.2-4.5-2.7-6.7-4.2c-2.1-1.4-4.3-2.6-6.4-4
			c-2.6-1.7-5-3.6-7.6-5.2c-4.9-3.2-9.8-6.2-14.8-9.2c-5.1-3.1-10.1-6.2-15.1-9.4c-0.6-0.4-1.3-0.7-1.9-1.2c-0.8-0.6-1.1-1.5-1.8-2
			c-0.8-0.6-1.9-0.9-2.7-1.3c-1.3-0.7-2.6-1.4-3.9-2.2c-5.7-3.3-11.1-7.4-16.5-11.2c-2.4-1.7-5.1-3.3-7.2-5.4
			c-1.9-1.8-2.8-4.2-4.5-6.2c-4.2-4.9-9-9.3-13.3-14.1C174.1,312.1,171.8,311.1,169.4,309.6L169.4,309.6z M407.2,351.2
			c-0.4,0.9-0.7,1.8-1,2.8c0.4-1,0.7-2.1,1.1-3.1c0.2-0.4,0.4-0.6,0.6-0.7C407.6,350.4,407.4,350.7,407.2,351.2L407.2,351.2z
			 M392.6,642.3c1.6,0.9,3,2.1,4.5,3.1c1.8,1.3,3.6,2,5.8,2.5c2.1,0.5,3.2,1.6,5.1,2.6c2.1,1.1,4.3,0.6,6.6,1.1
			c2.3,0.5,4.4,1.1,6.7,1.2c5.4,0.3,10.8-0.3,16.1-1.4c5-1,9.8-3,14.6-4.6c0.9,7.9-4.4,12.4-9.5,17.5c-3.3,3.3-6.3,6.7-9.6,10
			c-3.1,3.2-6.6,5.9-9.9,8.8c-6.3,5.6-12.1,11.3-19.8,15.1c-8.3,4.2-17,8.3-25.8,11.4c-4.6,1.6-7.9,0.1-11.9-2.1
			c-3.2-1.7-7.7-3.2-9.3-6.8c-1.7-3.9,0.6-7.5,2.3-11c1.9-4.1,3.8-8.3,6.3-12.1c2.4-3.7,5.3-7.1,7.9-10.6c2.8-3.8,5.6-7.6,8.3-11.3
			c2.9-3.9,5.7-7.8,8.5-11.7C390.5,642.7,390.9,641.4,392.6,642.3L392.6,642.3z M545.4,432.4c0,0-0.1,0-0.1,0.1
			C545.3,432.5,545.3,432.4,545.4,432.4L545.4,432.4z M551,429.2c-0.1,0-0.1,0.1-0.2,0.1C550.9,429.3,551,429.3,551,429.2L551,429.2
			z M654.8,708.6c2.2-3.9,4.8-7.5,6.8-11.4c2.2-4.2,2.6-8.1,3-12.7c6.1,0.8,11.9,1.2,18,0.4c5.8-0.7,11.7-1.6,17.3-3.5
			c5.5-1.8,10.7-4.4,16-6.9c5.2-2.4,10.6-4.5,15.3-7.9c4-3,7.6-6.5,10.5-10.6c0.7-1,1.3-2.1,2.2-3c0.8-0.8,0.5-0.7,1.4-0.3
			c0.6,0.3,1.2,1.1,1.7,1.5c2.1,1.9,4.2,3.8,6.4,5.5c9.1,7.3,20.2,11.6,30.2,17.5c2.8,1.7,5.3,3.7,8,5.4c2.4,1.6,5.1,2.9,7.6,4.3
			c5.5,3.2,11,6.4,16.5,9.6c-9.2,0-17.8-5.2-27.1-4.9c-2.1,0.1-3.5-1.1-5.6-1.4c-2.2-0.4-4.6-0.3-6.8-0.6c-2.2-0.3-4.3-0.4-6.5-0.5
			c-1.2-0.1-2.5,0.1-3.6-0.2c-1.1-0.3-2.3-0.8-3.4-1.1c-4.9-1.4-9.8-3-14.9-3.7c-1.8-0.3-3.8-0.5-5.4,0.6c-1.6,1.1-2.5,3.3-2.1,5.2
			c0.4,2.1,2,3.4,3.6,4.7c1.8,1.6,3.7,3,5.6,4.5c4.1,3.1,8.3,6,12.5,8.9c4.6,3.3,9.1,6.8,13.6,10.3c3.9,3,7.8,5.9,10.9,9.8
			c-4.2-0.6-8.1-2.1-11.9-4.1c-1.9-1.1-3.7-2.2-5.6-3.2c-2-1.1-4.1-1.8-6.1-2.9c-4-2.1-7.8-4.6-11.9-6.7c-4.2-2.2-8.5-3.9-12.8-5.7
			c-4.3-1.8-8.5-3.7-12.5-6.1c-1.4-0.8-3.1-2.3-4.8-1.8c-1.7,0.5-2.6,2.9-2.9,4.5c-0.9,4.1,1.9,8.4,3.7,11.9
			c2.1,4.2,4.4,8.3,6.6,12.5c2.4,4.5,4.5,9,6.4,13.7c0.9,2.2,1.6,4.4,2.7,6.5c0.9,1.8,1.8,3.5,1.3,5.6c-3.3-3.3-6.9-6.4-9.9-9.9
			c-2.8-3.2-5.6-5.9-8.9-8.5c-1.5-1.2-2.8-2.5-4-4c-1.3-1.5-3.2-2.6-4.7-3.9c-3.3-3-6.1-6.8-8.7-10.3c-1.1-1.6-2.4-3-3.7-4.5
			c-1.4-1.6-2.4-3.3-4-4.7c-1.4-1.2-2.9-2.2-4.6-3c-1.2-0.6-3.4-1.9-4.8-1c-0.7,0.4-0.9,1.5-1.4,2c-0.5,0.5-1,0.8-1.6,1.1
			c-1.8,1.1-3.6,2.2-5.2,3.6c-3.6,2.9-7,6-10.3,9.2c-3.4,3.3-6.9,6.3-10.9,8.8c-3.8,2.4-8.4,5.1-13,5.6c0.1-2.1,1-3.6,1.9-5.6
			c1-2.1,2-4.2,3.1-6.2C650.2,716.8,652.5,712.7,654.8,708.6L654.8,708.6z M631.6,358.1c-0.1,0-0.2,0.1-0.3,0.1
			c-0.3,0.1-0.8,0.1-1.1,0.2C630.6,358.3,631.1,358.2,631.6,358.1L631.6,358.1z M629.9,360.8c-0.2-0.4-0.5-0.9-0.5-1.4
			C629.5,359.8,629.8,360.3,629.9,360.8L629.9,360.8z M768.4,328.6c-1.4,1.2-3.4,1.9-4.6,3.4c-1.4,1.7-1.9,4.8-2.6,6.9
			c-4.1-2.5-8.3-5.1-12.6-7.2c-2-1-4-1.6-6-2.4c-0.9-0.4-1.7-0.8-2.7-1.1c-0.9-0.2-1.9,0-2.6-0.8c-0.8-0.9,0.6-2-0.8-1.8
			c-0.7,0.1-1.4,0.9-2.2,1c-1.1,0.2-1.9-0.3-2.2-1.4c-0.4-2,0.4-4.3,0.8-6.2c0.5-2.7,0.9-5.3,1-8.1c0-2.5-0.1-5-0.3-7.5
			c-0.1-1.8-0.8-4.9,0.1-6.5c0.7-1.2,2.7-1.5,4-1.8c2.5-0.6,5.1-0.7,7.7-1c2.4-0.3,4.6-0.9,7-1.3c2.6-0.4,5.3-0.5,7.9-0.8
			c2.2-0.2,4.4,0.1,6.6,0.2c1.1,0.1,2.2,0.1,3.2-0.1c1.4-0.2,2.2-0.9,3.6-0.7c4.9,1,9.8,1.2,14.8,1.7c2.4,0.2,4.6,0.8,7.1,0.9
			c2.8,0.1,5.6,0.1,8.5,0.3c10.1,0.9,19.8,5,29.2,8.6c2.3,0.9,4.6,1.8,7,2.7c1.9,0.7,3.7,1.7,4.6,3.7c0.8,2,0.5,4.7,0.5,6.8
			c-0.1,2.2,0.2,5.2-0.9,7.1c-0.8,1.5-2.3,2-3.9,2.1c-2.5,0.2-5,0.5-7.5,1c-5,1-10.2,1.5-15.3,1.6c-5.8,0.1-11.6-0.2-17.3-0.5
			c-5.8-0.4-11.5-1.5-17.3-1.5C778.1,326.2,772.5,325.2,768.4,328.6L768.4,328.6z M483.9,198.5c1,2.8,2,5.6,3,8.5
			c0.5,1.4,1,2.8,1.4,4.2c0.5,1.6,0.6,3.2,0.8,4.9c-4.6-0.8-8.7-3.2-13.3-4.2c-1-0.2-2-0.3-3-0.5c-1.2-0.2-2.2-1-3.5-0.8
			c-2,0.2-3.4,2.1-5.2,2.9c1.8-5.9,3.4-11.7,5-17.6c0.4-1.4,0.7-2.8,0.7-4.2c0-1-0.8-2.5-0.3-3.4c0.5-0.8,1.6-0.6,2.4-0.6
			c1.6,0,3.2,0,4.7,0c0.9,0,2.3-0.3,3.1,0.2c1,0.5,1,1.9,1.3,2.9C481.7,193.3,483,195.9,483.9,198.5L483.9,198.5z M468.9,158.8
			c-1.5,2.5-3.1,5-4.6,7.5c-0.6,1.1-1.3,2.2-2.1,3c-0.8,0.8-1.8,1.4-2.7,2.2c-0.7,0.7-1.4,1.6-2.3,2.1c-0.9,0.6-1.9,0.5-2.6,1.3
			c-1.7,2.1-2.3,5.6-1.9,8.2c0.4,2.9,2,5.8,3.3,8.4c0.6,1.3,1.2,2.7,1.9,3.9c0.7,1.1,1.6,2.3,1.6,3.7c0.1,2.6-2.6,5.2-4,7.2
			c-1.7,2.5-3.6,5-5.2,7.6c-3.3,5.7-5.2,12.1-2.5,18.4c-3.2-1.7-6.4-3.3-9.5-5.2c-3.2-2-5.6-5.1-8.2-7.7c-2.6-2.6-5.6-4.9-8.1-7.6
			c-1.2-1.4-2.4-2.8-3.5-4.3c-0.4-0.5-1.1-1.1-1.4-1.6c-0.4-0.8-0.2-1.6-0.2-2.5c1.9,1.1,2.8,2.6,4.1,4.4c0.6,0.8,1.3,1.8,2,2.5
			c0.7,0.7,1.7,0.9,2.5,1.4c0.4-0.9,1.1-1.9,1.2-3c0.1-1-0.5-2-0.9-2.8c-1-2.2-2-4.3-2.8-6.7c-1.4-4.6-2.5-9.3-4-13.9
			c-1.4-4.3-6.1-4.8-9.9-6c-2.4-0.7-4.9-1.4-7.3-1.9c-1.9-0.4-4.6-0.4-6.2-1.6c-1.4-1-1.1-2.7-1.2-4.2c-0.2-2.4-1.2-4.7-1.5-7.1
			c-0.7-4.7-0.3-9.5,0.1-14.2c0.5-4.9,1.2-9.8,1.5-14.7c0.1-1.2-0.3-3.2,0.4-4.3c0.7-1.1,2.5-1.1,3.6-1.2c2-0.3,4.3-0.2,6-1.5
			c1.1-0.9,2.4-2.3,2-3.8c-1.4-5.1-7.2-3.4-10.8-2.7c0.3-1.7,0.2-4.4,1.2-5.9c0.9-1.3,2.6-0.8,4-0.7c3.3,0.4,6.7,0.1,10,0.2
			c3.5,0.1,6.9,0.3,10.4,0.5c3.5,0.2,6.9,0,10.4-0.4c3.4-0.4,7,0,10.4,0.3c3,0.2,6.4,0,8.9,1.7c2.3,1.5,3.8,4.2,5.7,6.2
			c2,2.1,2.2,4.6,2.4,7.3c0.2,3.5,0.4,7,0.4,10.4c0,2.2,0.1,6.4,2.5,7.7c2.3,1.3,3.5-1.8,4.3-3.3c0.3-0.6,0.4-1.1,1.2-1.1
			c0.5,0,0.8,0.6,1.2,0.5c0.6-0.1,0.7-0.7,1-1.1c1.5-2.2,3.6-1.5,5.9-1.8c1.4-0.2,1.8-0.5,3,0.6c1,1,1.9,2.2,2.6,3.4
			c1,2,2.2,5.4,1.5,7.7c-1,3.4-8.7-1.6-10.7-2c-1.4-0.3-4.2-1-5.3,0.3C464.5,155.1,466.7,157.9,468.9,158.8L468.9,158.8z
			 M459.3,103.2c1.6,0,6.1,1.2,4.6,3.5c-0.6,1-1.8,1.4-2.8,1.8c-0.4,0.2-0.9,0.4-1.3,0.7c-0.4,0.3-0.6,0.9-0.9,1.2
			c-1.8,1.5-4-2.3-4.8-3.6C455.3,104.7,456.7,103.3,459.3,103.2L459.3,103.2z M408.1,201.4c0.4,0.1,1.4,2.8,1.6,3.3
			c2.1,4.2,4.2,8.5,6.3,12.7c-3.2,0.3-5.9,0.4-7.9,3.2c-2.3,3.2-4.5,6.4-6.8,9.5c-0.2-1.8-0.2-3.6-0.3-5.4c0.3-3.1,0.7-6.2,1-9.3
			c0.2-1.6,0.4-3.3,0.4-5c0-1.6-0.6-3.1-0.9-4.6c-0.2,5.7-0.3,11.4-0.5,17.2c0-5.7,0.3-11.5,0.5-17.2c0.5-0.8,0.8-1.6,1.5-2.2
			c0.8-0.6,1.8-0.9,2.7-1.3C406.2,202.2,407.7,201.3,408.1,201.4L408.1,201.4z M36.7,211.1c3.4,0.9,6.8,1.8,10.2,2.4
			c3.5,0.6,6.9,1,10.2,2.4c-3.5,1.4-7.3,2-11,3c-3.8,1-7.6,2.4-11.3,3.9c-3.6,1.4-7.7,2.7-11,4.8c-3.1,2-6.3,3.7-9.4,5.6
			c-4.9,2.9-11.8,8.8-10.3,15.2c1.6,6.9,9.1,8.2,15.2,8.3c4.5,0.1,9,1.4,13.5,1.2c2-0.1,4,0,6-0.1c2.4,0,4.7-0.4,7.1-0.1
			c-5.9,4.2-12.2,8-17.1,13.4c-4.6,5-9.1,12.7-6.8,19.8c0.8,2.6,3,4.7,5.7,5.4c1.3,0.3,2.4,0.2,3.7-0.1c2.1-0.5,4.2-0.8,6.3-1.1
			c4-0.6,8-1.3,11.9-2.6c3.9-1.3,7.9-1.4,11.9-2.3c1.6-0.4,3.2-1.1,4.8-1.6c2.1-0.7,4.4-0.9,6.5-1.3c4.3-0.7,8.4-1.8,12.6-2.9
			c4.2-1,8.4-2.1,12.6-2.9c4.2-0.8,8.5-1.2,12.7-2c1.9-0.3,3.6-0.9,5.5-0.6c1.8,0.3,3.6,0.6,5.5,0.7c4.3,0.4,7.5,1.7,11.2,3.8
			c3.8,2.1,7.5,4.2,11.3,6.3c1.3,0.7,3.4,1.4,4,2.9c0.6,1.5,0.2,3.8,0.1,5.4c0,2.1-0.3,4.4-0.1,6.4c0.2,1.9,1.5,2.8,2.9,3.9
			c3.2,2.5,6.2,5.4,9.6,7.7c1.7,1.1,3.5,1.9,5.1,3.1c1,0.8,1.9,1.6,2.8,2.4c-0.2,3,2.1,4.7,4.2,6.4c1.4,1.2,2.8,2.3,4.3,3.4
			c1.4,1.1,2.5,2.2,4.2,2.5c-3.6-3.5-7.2-7-10.8-10.5c0,0,0,0,0,0c3.6,3.5,7.2,7,10.8,10.4c3.7,3.2,7.8,6.2,11.2,9.8
			c3.2,3.3,6.8,6.3,10.4,9.1c7.6,5.9,15.6,11.3,23.5,16.7c3.8,2.6,7.7,5.1,11.5,7.6c3.8,2.4,7.3,5.2,11.3,7.2
			c3.9,2.1,7.4,4.9,11.1,7.4c3.8,2.7,7.7,5.1,11.7,7.4c4,2.3,7.8,5,11.9,7.2c4.2,2.3,8.6,4.3,13,6c4.5,1.8,9.1,3.1,14,2.8
			c4.8-0.2,9.3-1.7,13.8-3.5c4.4-1.8,8.6-3.9,12.7-6.2c1.9-1,3.6-2.2,5.5-3.4c1.9-1.2,3.9-1.8,5.7-3.1c1.5-1.1,2.8-2.4,4.4-3.4
			c1.9-1.2,3.8-2.1,5.6-3.5c3.5-2.6,6.6-5.6,10.1-8.2c1.7-1.3,3.5-2.6,5.3-3.9c1-0.7,2-1.4,2.9-2.1c0.4-0.3,0.9-0.8,1.4-0.9
			c0.5-0.2,1,0.1,1.5,0c0.9-0.2,0.3-0.2,0.9-0.8c0.5-0.4,0.9-0.4,1.4-0.5c1.6-0.3,2.7-2.2,4.1-3.2c1.7-1.1,3.7-1.9,5.3-3.1
			c1.1-0.8,1.4-1.7,2.6-2.3c0.6-0.3,0.9-0.5,1.5-1c0.4-0.4,0.7-0.7,1.1-1c0.9-0.9,1.8-1.7,2.7-2.6c1.7-1.7,3.4-3.4,4.8-5.4
			c0.7-1,1.3-1.8,1.7-2.9c-0.1,0.4-0.3,0.8-0.4,1.2c1.6-1.7,3.4-3.3,3.7-5.7c-0.2,0.1-0.4,0.1-0.5,0.2c0,0,0.1,0,0.1-0.1
			c0.9-0.5,1.5-1.6,2.1-2.5c1.4-1.9,2.8-3.8,4.2-5.7c1.1-1.6,2.2-2.3,3.8-0.9c3.5,3.2,6.7,6.3,10.8,8.8c4.1,2.4,8.3,4.7,12.5,6.9
			c4.1,2.2,8.1,4.1,12.5,5.5c2,0.6,4,1,5.7,2.1c2.1,1.4,4.1,2.7,6.3,3.9c4.1,2,8.3,3.9,12.4,5.8c1.2,0.5,4.2,1.2,4.3,2.8
			c0.1,0.8-0.5,1.9-0.7,2.7c-0.3,1.3-0.5,2.6-0.9,3.9c-1.1,4.6-5.8,6.9-9.3,9.7c-3.9,3.1-7.2,6.7-10.6,10.4
			c-6.7,7.4-13.3,15-19.8,22.5c-3.3,3.7-6.5,7.5-9.7,11.3c-3.1,3.7-5.3,7.4-7.4,11.7c-4.3,8.9-8.4,17.9-11.3,27.4
			c-2.9,9.4-5.1,19-7.5,28.5c-2.4,9.6-5.3,19-7.6,28.6c-1.2,5-2.5,10-3.7,15c-1.1,4.7-2.5,9.4-2.6,14.3c-0.2,9.8-3.1,18.9-6.1,28.1
			c-1.5,4.5-2.1,9.2-3,13.9c-0.4,2.2-0.8,4.3-1.2,6.5c-0.4,2.3-1.4,5-0.6,7.3c0.3,0.9,0.8,1.6,1,2.6c0.1,0.8,0,1.7,0.3,2.4
			c0.3,0.8,1.1,1.1,1.5,1.9c0.5,0.8,0.4,1.8,0.5,2.7c0,1.9-0.2,3.8,0.5,5.6c0.3,0.9,1.1,1.7,0.9,2.7c-0.1,1.2-1.3,2.1-2,2.9
			c-3.1,3.5-5.9,7.1-9.3,10.4c-3.3,3.3-6.4,6.7-9.4,10.3c-3,3.7-5.5,7.6-8.4,11.3c-2.8,3.6-5.7,7-8.1,10.9c-2.3,3.7-4.2,7.7-5.2,12
			c-0.9,4.2-2.3,9.2-0.7,13.4c1.3,3.5,4.4,5.7,7.6,7.5c1.9,1.1,3.8,2.3,5.6,3.5c1.9,1.3,3.8,3,6,3.9c3.2,1.4,7.3,1.4,10.5,0
			c4.1-1.9,8.3-3.2,12.6-4.6c4.4-1.6,8.5-3.6,12.7-5.7c4.2-2.2,8.6-4,12.7-6.5c4-2.4,7.8-4.9,11.2-8.2c3.6-3.3,7.1-6.8,10.9-9.9
			c7.2-6,13.4-12.8,19.7-19.7c5.7-6.3,11-13.8,8.9-22.8c-0.5-2.1,0.1-2.6,1.4-4.2c1.4-1.5,3-3,4.1-4.7c0.8-1.1,2-3.3,2-4.7
			c0-1-0.7-2-0.7-3.1c0-1.1,0.3-2.2,0.5-3.4c0.4-2.1,0.1-4.1,0.6-6.2c0.5-2.5,1-5,1.5-7.5c1-5.1,2-10.1,3-15.2
			c1.9-9.9,3.2-19.8,5.4-29.6c2.1-9.7,3.4-19.8,4.5-29.7c0.6-4.9,0.4-9.9,0.9-14.8c0.4-4.9,1.1-9.7,1.7-14.6c0.6-4.9,1.3-9.9,2-14.8
			c0.4-2.4,0.7-4.8,1.1-7.2c0.4-2.4,0.4-5.2,1.5-7.3c1-1.9,2.8-3.4,4.2-5c1.6-1.7,3.3-3.6,5.2-5c1.5-1.1,3.4-1.6,4.9-2.7
			c1.9-1.4,3.8-2.8,5.7-4.1c3.6-2.4,7.4-4.5,10.8-7.3c1.8-1.5,3.6-3.1,5.3-4.7c1-0.9,1.6-1.4,2-2.7c0.3-1.2,0.7-2.3,1-3.5
			c-0.5,1.6-0.9,3.2-1.4,4.8c1.2-1,2.4-2.1,3.6-3.1c0.6,0,2.5-2.1,3-2.6c1.9-1.5,4-2.6,5.9-4c0.8-0.6,1.6-1.2,2.3-2
			c0.3-0.4,0.8-0.8,1-1.2c0.2-0.4,0-0.7,0.1-1.2c-0.2,2.6,2.2,0.2,2.9-0.3c-0.1,0-0.2,0-0.2,0c1-0.2,1.5-0.9,2-1.8
			c-0.1,0.3-0.3,0.5-0.4,0.8c1.5-1,2.9-2,4.4-3c-0.2,0-0.4-0.1-0.6-0.1c0,0,0.1,0,0.1,0c1.1-0.2,2-1,3-1.7c1.6-1.1,3.3-2.2,4.6-3.6
			c0.7-0.8,1.2-1.7,1.7-2.6c0.5-0.9,1.2-1.5,1.9-2.3c2.9,6.5,4.9,13.4,7.2,20.1c2.4,6.8,4.6,13.7,7.4,20.3c2.7,6.5,5.2,13,7.5,19.7
			c2.3,6.4,4.6,12.8,7,19.1c5,13.3,11.5,25.8,17.3,38.8c5.8,13.1,11.1,26.5,16.1,39.9c2.5,6.7,4.7,13.5,6.9,20.3
			c2.3,7,5.1,13.8,7.6,20.7c2.5,6.7,4.2,13.4,5.9,20.3c1.7,6.9,4.3,13.5,6.3,20.3c0.4,1.5,0.8,3,1.5,4.4c0.5,1.2,1.9,2.6,1.9,4
			c0.1,1.4-1.1,3.3-1.6,4.6c-0.6,1.6-1.2,3.2-1.5,4.8c-0.3,1.9-1.1,6.6,1.5,7c1.2,0.2,1.7-0.1,2.1,1.2c0.4,1.2,0.2,2.9-0.1,4.1
			c-0.8,3-3,5.5-4.6,8c-1.8,3-3.5,6-5.2,9.1c-3.4,6.1-6.7,12.1-9.7,18.4c-1.5,3.1-3.1,6.2-3.8,9.6c-0.5,2.4-1.3,6.7,0.1,8.9
			c3,4.6,11,1.2,14.8-0.3c5.8-2.2,10.8-5.7,15.4-9.8c5.1-4.6,10-9.1,14.1-14.6c1.8-2.5,4.5-5.2,5-8.3c3.7,0.6,5.4,4.6,7.6,7.2
			c3.3,3.9,6.2,8.2,9.4,12.1c3.2,3.9,7.3,6.7,10.6,10.4c3.5,3.9,7.3,7.3,11.2,10.8c3.8,3.4,7.5,7,11,10.8c1.8,1.9,3.5,3.9,5.4,5.8
			c1.3,1.3,3.1,2.6,5,2.1c4.4-1.2,4.6-8.1,4.3-11.6c-0.4-5-1.9-9.8-3.8-14.4c-4.5-11-10-21.6-15.1-32.3c1.9-0.2,4.1,1.4,5.8,2.2
			c2.1,1,4.2,2,6.2,3c3.9,1.9,8,3.6,11.7,5.9c7.5,4.7,15.1,9.2,23,13c4,2,7.6,3.9,12.2,3.6c3.6-0.2,6.5-0.8,7.3-4.7
			c0.6-3.2,0.3-6.7-1.2-9.6c-1.9-3.6-5.7-6-8.8-8.5c-3.8-3.1-7.5-6.3-11.4-9.1c-3.9-2.9-7.9-5.6-11.7-8.5c1.6,0,2.9-0.1,4.4,0.3
			c1.5,0.5,3,1.2,4.6,1.4c1.4,0.2,2.9,0,4.3,0.2c1.5,0.2,3,0.6,4.6,0.9c1.5,0.3,2.8,0.2,4.3,0.1c1.4,0,2.8,0.7,4.1,1.1
			c3.2,0.9,6.5,1.6,9.7,2.3c3.3,0.7,6.7,1.5,10,2.2c1.5,0.3,3.1,0.6,4.7,0.8c1.6,0.2,3.3,0.1,4.9,0.5c1.4,0.3,2.6,1.1,4,1.4
			c1.7,0.3,3.5,0.4,5.2,0.4c2.5-0.1,6.7,0.1,8.4-2.1c2.6-3.3,2.8-8.6,0.1-11.9c-1.8-2.2-4.6-3.3-7.1-4.6c-3.1-1.5-6.1-3-9.2-4.6
			c-5.9-2.9-11.3-6.4-16.9-9.8c-2.9-1.7-5.7-3.4-8.6-5.2c-2.6-1.6-5.2-3.4-8-4.8c-2.9-1.4-5.8-3-8.8-4.2c-3.4-1.4-6.9-2.8-10.4-4.2
			c-3.4-1.4-6.9-2.7-10.1-4.4c-3.1-1.6-5.9-3.6-8.9-5.1c1.7-2.7,3.8-5.4,3.6-8.8c-0.2-3.7-1.6-7.1-3.1-10.4
			c-3.2-7.1-6.6-14.1-10.9-20.7c-2-3-3.1-6.4-4.3-9.7c-1.3-3.6-2.9-7.1-4.3-10.7c-2.8-7.3-5.7-14.5-8.9-21.6
			c-3.2-7.1-5.3-14.7-8.6-21.7c-1.5-3.2-2.5-6.4-3.9-9.7c-0.6-1.5-1.5-2.7-2.3-4.1c-0.8-1.4-0.5-3.3-1.1-4.8
			c-2.7-6.9-5.9-13.6-8.9-20.4c-1.6-3.7-3.3-7.4-4.9-11.1c-1.4-3.2-3.6-6-5.1-9.3c-3.6-7.9-6.8-15.9-10.8-23.6
			c-4-7.8-7.4-15.9-11.2-23.8c4.5,1.3,8.6,3.5,12.6,6c4.1,2.5,7.6,5.8,11.5,8.7c8,6,16.3,12.1,25.3,16.7c3.7,1.9,7.8,4.5,12,4.8
			c3.5,0.3,7.2-0.8,10.1-2.9c3.4-2.5,5.5-6.7,7.9-10.1c2.8-4.1,5.4-8.1,7.4-12.7c4-9,6.5-18.7,9.9-28c3.5-9.7,6.4-19.7,8.9-29.8
			c2.4-9.7,5-19.8,4.9-29.7c0-2.4-0.1-4.9-0.5-7.2c-0.4-2.4-1.5-4.3-3-6.3c-1.1-1.5-2.1-2.8-3.3-4.1c-1-1.1-0.2-2.6,0.3-3.8
			c1.7-3.9,8.3-2.9,11.7-2.6c5.1,0.4,10.2,1,15.3,1.5c5,0.4,9.8,1.7,14.8,1.8c5,0.1,9.9-0.6,14.8-1.5c4.7-0.9,9.5-1.1,14.1-2.5
			c4-1.3,8.3-2.4,10.8-6c2.4-3.4,3.3-7.9,3.8-11.9c0.6-5,0.4-10.3-0.8-15.2c-2.1-8.9-10.7-11-18.2-13.8c-4.7-1.7-9.3-3.7-14.1-5
			c-4.9-1.3-9.7-1.9-14.7-2.5c-2.4-0.3-4.6-1-7-1.1c-2.6-0.1-5.2,0.1-7.8,0c-2.1-0.1-4-0.2-6.1-0.8c-2.3-0.7-4.1-0.1-6.4,0.3
			c-2,0.3-3.6-1-5.7-1.1c-2.4,0-4.7,0.5-7,0.4c-2.3-0.1-4.6-0.2-6.8-0.1c-2.3,0.1-4,1.3-6.2,1.7c-4.8,1-9.7,0.5-14.2,2.5
			c-3.4,1.5-6.3,3.4-7.9,7c-3.6,8.2-0.8,17.8-2.2,26.3c-0.3,1.9-0.4,4.7-1.2,6.5c-0.8,1.8-3.3,1-4.9,1.4c-3.3,0.8-5.4,3.3-6.4,6.3
			c-1.6,4.5-2.2,9.4-3.1,14c-1,5.2-2.2,10.3-2.7,15.6c-0.4,4.9-0.7,9.8-1,14.7c-4.4-4.1-8.9-8.2-13.2-12.5
			c-4.1-4.2-8.2-8.3-12.6-12.1c-4.3-3.7-8.4-7.6-12.8-11.1c-2.1-1.7-3.6-3.5-5.4-5.4c-1.7-1.9-3.8-3.4-5.8-4.9
			c-1.9-1.5-3.7-3.2-5.5-4.9c-0.9-0.8-1.8-1.7-2.8-2.4c-1.1-0.7-1.9-0.9-2.2-2.2c-0.5-2-0.3-4.1-0.7-6.1c-0.2-1.2-0.6-2.4-0.7-3.7
			c-0.1-1.6-0.1-2.7-0.9-4.2c-2.7-5-5.5-10-8.4-14.9c-1.5-2.4-3-4.9-4.8-7.1c-1.6-2-3.5-2.9-5.5-4.4c-1-0.7-1.4-2-2.1-3.1
			c-0.7-1.1-1.5-2.2-2.4-3.3c-1.7-2.1-3.6-4-5-6.3c-3.2-5-6.1-10.3-9.4-15.2c-3.2-4.7-6.9-9.1-11-13.1c-4-4.1-8.7-7.5-12.9-11.4
			c-3.9-3.6-7.6-7.5-12.4-9.9c-2.6-1.3-4.9-3.2-7.3-4.9c-1.3-0.9-2.5-1.7-3.8-2.6c-1.4-0.9-2.9-2.3-4.4-3c-1.5-0.7-3.1-0.6-4.5-1.9
			c-0.9-0.8-1.5-1.8-2.3-2.5c-1.1-0.9-2.4-1.6-3.5-2.5c-4.4-3.1-8.6-6.8-13.6-9.1c-2.8-1.3-5.7-2.2-8.6-3.1
			c-2.9-0.9-5.6-2.1-8.4-3.2c-3-1.2-6.1-2.4-9.2-3c-2.6-0.5-4.9-1.8-7.5-2c-3.5-0.4-6.7,0.3-10.2,0.4c-1.2,0-3,0.4-3.9-0.4
			c-0.9-0.7-0.9-1.6-2.1-2.1c-2-0.8-5-0.2-7.2-0.1c-3.2,0.2-6.5,0.5-9.7,0.7c3.4-4.3,5.6-8.9,7.8-13.9c1.1-2.5,2.8-0.7,4.8-0.1
			c2.1,0.7,4.3,1.6,6.5,1c4.1-1.1,5.5-5.9,5.7-9.6c0.3-4.2-0.6-8.6-2.3-12.5c-1.6-3.7-4.2-7.4-8.3-8.5c-2.2-0.6-4,0-6.2,0.2
			c-1.5,0.1-1.7-0.4-1.8-1.9c-0.3-6,0.1-11.9-0.1-17.9c-0.2-5-0.4-11.2-3-15.7c-1-1.8-2.6-2.9-4.6-3.3c-2.6-0.5-4.6-2.2-7.2-2.7
			c-1.2-0.2-2.5-0.3-3.7-0.2c-0.7,0.1-1.8,0.5-2.5,0.3c-1.2-0.2-2.1-0.9-3.5-0.9c-1.6-0.1-3.2-0.2-4.8-0.4
			c-6.1-0.6-12.2-0.5-18.4-0.4c-2.8,0-5.6,0-8.4,0c-2.8,0-5.8,0.8-8.6,1.2c-5.9,0.8-11.8,0.6-17.6,2.1c-2,0.5-4.9,0.9-5.8,3
			c-0.8,2,0.6,4.4,1.5,6.1c1.1,2.1,2.5,4,4.3,5.5c0.8,0.7,1.8,1,2.5,1.7c1,0.9,1,2.9,1,4.1c0.1,2.6-0.9,5.1-1.6,7.5
			c-0.9,3-1.5,6-2,9c-0.9,6.3-1.8,12.7-2.7,19c-0.9,6.5-0.1,13.3,0.9,19.7c0.9,5.6,1.7,11.3,6.4,14.9c2.2,1.6,4.6,2.7,7.3,3.3
			c3.1,0.7,6.5,0.8,9.3,2.5c-4.4,1.6-9.7,2.8-13.6,5.4c-0.6,0.4-1.1,0.8-1.9,0.6c-0.8-0.2-1.1-0.8-1.9-0.9c-0.9-0.1-1.9,0.2-2.8,0.2
			c-1.2,0-2.3-0.2-3.4,0.4c-1.5,0.8-2.6,2.5-3.8,3.6c-1.7,1.6-3.5,3.1-5.2,4.7c-3.4,3.2-5.9,6.9-9.1,10.2
			c-6.1,6.2-10.7,13.9-15.1,21.4c-4.8,8.1-9.5,16.4-13.2,25.1c-1.8,4.4-3.2,8.9-5.1,13.3c-1.9,4.4-3.8,8.8-5.4,13.3
			c-3.3,8.9-7.3,17.4-11.3,26c-2.1,4.5-4.9,8.6-7.5,12.8c-0.6,1-1.2,1.9-1.8,2.9c-0.4,0.7-0.9,2-1.7,2.4c-2,1.2-2.7-2.2-3.3-3.3
			c-2-4-4.1-8-6.7-11.6c-2.7-3.9-5.9-7.3-8.8-11.1c-5.8-7.6-11.6-14.9-17.9-22c-3-3.4-6.3-6.6-9.2-10c-2.9-3.4-6.1-6.2-9.1-9.4
			c-1.5-1.7-3-3.4-4.4-5.1c-0.6-0.7-1.2-1.6-1.9-2.3c-0.8-0.6-1.6-0.9-2.4-1.7c-1.3-1.3-2.2-2.8-3.5-4.1c-1.6-1.6-3.3-3.1-4.9-4.7
			c-6.7-6.6-13.1-13.3-20.1-19.6c-1.7-1.5-3.5-2.6-5.3-3.9c-1.7-1.2-3.3-2.6-5.2-3.6c-0.9-0.5-1.8-0.8-2.6-1.5
			c-0.6-0.5-1-1.1-1.7-1.5c-2-1.1-3,0.5-4.9,0.7c-1.3,0.2-1.9-1.5-2.6-2.4c-1.2-1.8-2.4-3.7-3.7-5.5c-1.2-1.7-2.4-3.4-3.8-5.1
			c-1.5-1.8-3.2-3.3-4.6-5.1c-1.2-1.5-2.1-3.2-3.2-4.7c-1.3-1.9-2.9-3.5-4.4-5.2c-3.2-3.5-6.6-6.9-10.2-10.1
			c-6.8-5.9-12.8-12.9-20-18.4c-3.3-2.5-6.6-5-9.9-7.6c-3.2-2.5-6.8-4.2-10-6.8c-3.2-2.6-7.1-4.4-10.6-6.5c-3.7-2.2-7.7-3.8-12-4.4
			c-3.3-0.5-8.5-1.1-10.9,1.9c-2.7,3.4-1.9,8.6-0.3,12.3c3.7,8.5,10.2,15.8,16.3,22.6c3,3.3,6,6.6,9,9.9c-2.9,0.9-5,0.4-7.9-0.4
			c-2.9-0.8-6-0.7-9-0.8c-3.2-0.2-6.5-0.3-9.7-0.7c-3-0.4-5.8-1.2-8.9-0.6c-2.9,0.6-6-0.5-9-0.3c-3.3,0.2-6.6,0-9.9,0
			c-6.4-0.1-12.8,0.9-19.1,1.7c-12.3,1.6-24.2,4-36,8c-2.3,0.8-4.3,1.1-4.7,3.9c-0.3,2.4,0.6,4.9,2.3,6.5c1.7,1.6,3.9,2.3,6,3
			c2.8,1,5.6,1.7,8.4,2.5c3.2,0.9,6.1,2.4,9.4,2.8C29.8,208.8,33.3,210.1,36.7,211.1L36.7,211.1z"/>
		<g id="XMLID_2_">
			<g>
				<path d="M761.7,350c2.5,1.7,1.5,3.9,0.9,6.4c-1.5,6.6-3.1,13.3-4.4,19.9c-1.2,6.5-1.9,13.1-2.9,19.6c-0.5,3.4-1.4,6.8-1.9,10.2
					c-0.2,1.2-0.2,2.5-0.5,3.7c-0.4,1.5-1.2,2.8-1.8,4.2c-1,2.8-1.3,5.6-1.9,8.5c-1.1,0-1.1,0.3-1.7,1.2c-0.5,0.9-1.1,1.7-1.6,2.6
					c-1,2-1.1,4,0.1,6c0,0,0,0,0,0c-0.7,3.7-2.4,6.9-3.6,10.4c-1.4,3.8-3.6,7.4-5.5,10.9c-1.3,2.5-2.8,6.1-5,7.9
					c-1.2,1-2.7,0.9-4.2,1.1c-1.7,0.2-3.5,0.5-5.2,0c-1.6-0.5-3.1-1.5-4.6-2.1c-1.8-0.7-3.5-1.6-5.2-2.4c-3.5-1.8-7-3.8-10.3-6
					c-6.6-4.4-12.8-9.5-19.7-13.6c-6.5-3.9-13.5-7.7-20.7-10.3c-1.8-0.6-3.5-1.1-4.7-2.7c-1.1-1.5-1.7-3.4-2.3-5.1
					c-1.5-3.8-3.2-7.6-4.9-11.3c-1.8-3.7-3.4-7.5-4.8-11.4c-1.4-3.8-2.5-7.7-4.3-11.3c-0.8-1.5-1.8-2.9-2.5-4.5
					c-0.9-1.7-1.1-3.6-1.7-5.5c-1.1-3.4-2.8-6.6-4-10c-0.7-2-1.7-3.7-2.5-5.6c0-0.1-0.1-0.2-0.1-0.3c1.7-1.1,2.6-2,3.6-3.7
					c-0.1,0.1-0.3,0.2-0.4,0.3c0.4-0.3,0.7-0.6,1-1c1.3-1.4,2.7-2.9,3.6-4.5c0.9-1.5,2-3.2,2.6-4.8c0.3-0.8,0.2-1.8,0.6-2.6
					c0.4-0.8,1.3-1.4,1.8-2.2c1.1-1.7,1.5-4,2.2-5.9c0.7-2.1,1.3-4.1,2.2-6.1c3.4,3.2,5.4,7.6,8.8,10.8c0.8,0.7,1.9,1.2,2.6,2
					c0.7,0.8,1.3,1.9,2.1,2.7c1.9,2,3.8,3.9,5.7,6c3.9,4.3,8.2,8.3,12.3,12.3c1.9,1.8,3.9,3.6,5.7,5.6c1.8,2,3.5,4.1,5.5,5.9
					c4.4,3.9,8.9,7.6,13,11.7c1.7,1.7,3.3,3.6,5.1,5.3c2.1,1.9,4.5,3.4,6.7,5.2c2,1.6,3.9,3.4,5.8,5c2,1.7,4.1,4.2,6.7,5
					c2.2,0.8,2.7-1.1,3.1-2.9c0.5-2.4-1-4.2-2.1-6.2c-1.4-2.3-3-4.1-4.8-6c-1.9-2-3.6-4.1-5.4-6.2c-1.6-1.9-3.3-3.7-5.1-5.4
					c-0.7-0.7-1.4-1.2-1.5-2.3c-0.1-1.4,0.6-3.1,0.8-4.5c0.9-5.7,1.4-11.5,2.3-17.2c0.9-5.8,2-11.6,3.1-17.4c0.3-1.5,0.6-3,0.9-4.5
					c0.2-0.9,0.3-2.4,1-3.1c1.3-1.4,4.2,0.4,5.6,1c2.6,0.9,5.1,1.8,7.7,2.7c1.4,0.5,2.8,1,4.2,1.5c1.4,0.5,2.6,0.4,3.8,1.2
					c2,1.3,4,2.1,6.2,3c2.5,1.1,4.9,2.4,7.3,3.8C756.7,347,759.3,348.4,761.7,350z"/>
				<path d="M746.1,432.4c1-3.3,2.1-6.5,3.2-9.8C748.5,425.9,747.1,429.2,746.1,432.4z"/>
			</g>
			<g>
			</g>
		</g>
		<g id="XMLID_1_">
			<g>
				<path d="M560.3,405.6c0.7,1.8,2.1,4.1-0.2,5c-2.7,1.1-5.2,2.3-7.7,3.8c-5,3-9.9,6-14.9,9c-4.7,2.8-8.6,6.6-12.8,9.9
					c-9.1,7.3-17,15.9-25.2,24.1c-2.1,2.1-4.2,4.2-6.3,6.4c-1,1-1.9,2.1-3,3c-0.9,0.7-1.9,0.6-2.9,1.1c-1.8,0.8-2.5,2.7-3.1,4.5
					c-1.1,3-2.1,5.9-3.1,8.9c-2,5.7-4.2,11.5-5.7,17.3c-1.5,5.7-1.5,11.6-2.8,17.4c-0.6,2.4,0.1,4.7-0.2,7.2
					c-0.4,3.2-1.3,6.4-1.8,9.6c-0.8,5.9-1.6,11.8-2.4,17.6c-0.8,5.9-1.4,11.8-2.4,17.7c-1.1,6.1-2.3,12.2-3.1,18.3
					c-1.6,11.9-2.9,23.8-5.6,35.6c-0.6,2.8-1.3,5.7-2.1,8.5c-0.3,1.2-0.7,2.4-0.6,3.6c0,0.6,0.3,1.2,0.3,1.8
					c0.4,0.5,0.3,0.8-0.4,0.9c-0.4,0.2-0.8,0.4-1.2,0.6c-5,2.3-10.5,2.6-15.9,2.6c-4.9,0-10.9,0.6-15.5-1.3
					c-1.2-0.5-2.2-1.4-3.5-1.5c-1.3-0.2-2.5,0-3.7-0.3c-2.6-0.6-4.9-2.1-7.3-3.2c-4.5-2.1-8.4-5.6-11.2-9.7c-1.4-2.1-1.6-4-1.7-6.5
					c0-1.4-0.3-2.6-0.6-4c-0.4-1.6,0.1-3.1,0.5-4.8c2.4-11.6,6.8-22.6,9.4-34.1c2.6-11.9,4.3-23.9,6.7-35.8
					c1.2-5.9,3.1-11.6,4.4-17.4c1.3-5.8,2.1-11.6,3.4-17.4c2.7-11.9,5.5-23.8,8.3-35.7c0.3-1.3,0.5-2.9,1-4.1c0.5-1.1,1.5-2,2.3-2.9
					c1.7-2,3.1-4.2,4.3-6.6c2.7-5,5.4-9.7,9-14.2c3.6-4.4,7.6-8.5,11.4-12.7c3.9-4.5,7.6-9,11.2-13.7c1.7-2.2,3.1-4.4,5-6.4
					c2-2.2,4.1-4.3,6.1-6.5c3-3.3,5.1-7.2,9.1-9.4c1.8-1,3.1-3.6,3.8-5.5c0.9-2.4,1.3-5,1.7-7.5c5.5,2.6,11,5.4,16.7,7.4
					c5.4,1.9,11,3.2,16.6,4.2c2.6,0.4,5.2,0.5,7.8,0.7c1.4,0.1,2.9,0.1,4.2,0.4c1.6,0.3,2.3,0.2,3.9,0c2.3-0.4,5,0.7,7.3,0.8
					c1,0.1,2.1,0,3.1-0.3c1.4-0.4,2-1.3,3.5-0.6c2.2,1.2,2.6,4,3.3,6.2C558.3,399.9,559.2,402.8,560.3,405.6z"/>
			</g>
			<g>
			</g>
		</g>
		<path id="Fill-56" class="st2" d="M16,464.2c-1.1-4.6,0.4-10.2,0.9-14.7c0.7-5.5,0.7-11.1,1.5-16.5c0.4-2.3,1.2-4.5,1.8-6.8
			c0.7-2.4,1.4-4.7,2.4-7c4-8.3,8.7-16.5,15-23.3c1.6-1.7,3.4-3.1,4.9-4.8c1.2-1.3,2.2-2.9,3.8-3.8c0.6-0.4,1.7-0.4,2.2-0.8
			c0.6-0.5,0.4-1.4,1.2-1.7c0.7-0.3,1.7,0.2,2.3,0.5c1.4,0.5,2.8,1,4.2,1.5c10.1,3.4,20.3,6.6,30.4,10c2.7,0.9,5.3,1.8,8,2.7
			c1.1,0.4,2.3,0.7,3.4,1c1,0.2,2.4,0.2,3.3,0.8c1.3,0.9,0.4,2.6,0,3.8c-0.8,2.6-1.7,5.1-2.5,7.7c-1.6,5.1-3.1,10.3-3.8,15.6
			c-0.3,2.4-0.4,4.8-0.3,7.3c0,0.7,0.3,1.7-0.2,2.3c-0.7,0.9-2.4,0.7-3.4,0.9c-5.9,0.9-11.9,1.6-17.9,2.2c-3,0.3-6.1,0.6-9.1,0.8
			c-1.5,0.1-3.1,0.2-4.6,0.2c-1.2,0.1-2.9-0.2-3.9,0.4c-4.6,2.6-4.7,9.5-5.1,14c-0.5,6.2,0.9,12,2.2,18.1c-3.8-2.1-8.1-3.6-12.4-4.7
			c-4.6-1.1-9.3-1.3-14-1.9c-2.5-0.3-5.3-0.4-7.8-1C17.2,466.5,16.3,465.7,16,464.2 M56.3,451.9c0-0.8-0.2-1.9,0.4-2.2
			c0.5-0.3,1.8-0.2,2.4-0.3c1.5-0.2,2.9-0.3,4.4-0.4c0.7-0.1,1.5-0.3,2.2,0.2c0.5,0.4,0.3,0.9,0.6,1.3c0.5,0.7,1.5,0.6,2.3,0.6
			c3.6,0,7.3,0.2,10.9-0.1c3.7-0.4,7.5-1.2,11.1-1.9c7.1-1.4,14.2-2.3,21.3-3.4c3.3-0.5,6.7-1,10-2c1.7-0.5,6.4-3.7,7.9-1.7
			c0.8,1,0.9,3.2,1.2,4.5c0.5,2,1,3.9,1.5,5.9c0.7,3.3,1.5,6.4,2.9,9.5c2.8,6.2,6.9,11.9,10.5,17.6c1.7,2.7,3.9,5,5.8,7.5
			c2,2.6,4,5.2,6.5,7.3c5.2,4.4,10.2,9.3,15.7,13.3c2.7,2,5.7,3.3,8.7,4.9c-0.4,1.4-1.4,2.1-2.5,3.1c-1.5,1.4-2.9,2.8-4.4,4.2
			c-2.7,2.5-5.3,5-8,7.5c-5.2,4.8-10.9,9.2-15.2,14.9c-1.9,2.5-3.8,4.4-1.9,7.5c1.9,3.1,2.8,6.3,3.1,10c0.2,3,0.7,6.5-0.7,9.3
			c-1.3,2.7-2.9,4.7-6,4.8c-6.7,0.3-13.4-3.3-19.2-6.3c-2.9-1.5-5.5-3.3-8.1-5.4c-2.7-2.1-5.6-4-8.2-6.2c-2.6-2.2-5-4.6-7.3-7
			c-1.2-1.3-2.2-3.8-4.1-4.1c-1.3-0.2-1.8,0.6-2.9-0.5c-1.2-1.2-2.5-2.5-3.6-3.9c-2.2-2.7-3.8-6-5.5-9.1c-3.6-6.3-6.8-12.7-9.7-19.4
			c-2.8-6.5-6.9-12.5-9.2-19.2c-1.1-3.3-3-6.2-4.4-9.4c-1.4-3.2-2.4-6.6-3.7-9.9c-1.3-3.5-2.8-7-3.6-10.7
			C56.5,459.2,56.3,455.5,56.3,451.9 M158.5,549.3c-0.6-1.2-2.2-2.5-1.4-4c0.7-1.3,2.8-2.5,3.9-3.6c3-2.9,6.5-5.4,9.8-8
			c6.5-5.2,12.7-10.8,18.7-16.5c6-5.7,11.2-12.1,16.8-18.2c2.9-3.2,5.8-6.4,8.7-9.7c1.3-1.5,3.7-5.8,6-4.1c2.5,1.8,5.1,4.8,6.6,7.4
			c1.8,3.2,2,7.3,2.2,10.9c0.3,7.7-6.2,15-10.7,20.7c-5.1,6.5-10.4,12.6-16.7,18c-3.5,3-7.1,6-10.6,9.1c-3.2,2.9-6.3,6-9.6,8.7
			c-3.1,2.6-6,5.3-9.8,6.8c-4.4,1.8-8.6,3.9-12.9,5.9c-0.3-1.7,0.7-3.7,1-5.5c0.4-2,0.7-4,0.7-6.1
			C161.1,557.5,160.2,552.7,158.5,549.3 M10.3,464.8c-0.4,0.1-1.9,0-2.1,0.3c-0.4,0.4,0.3,3.2,0.6,3.8c0.6,1.2,2,1.9,3.1,2.6
			c5.4,3,11.4,4.1,17.4,5.1c6.5,1.1,12.8,2.3,19.3,3c1.6,0.2,3.3,0.3,5,0.6c1.4,0.2,1.9,0.7,2.4,2c1.2,3.1,2.3,6.2,3.6,9.3
			c2.5,6.3,5.5,12.2,8.5,18.2c5.6,11.3,10.2,23.4,17.8,33.7c3.7,5,8.1,9.7,12.2,14.5c4.3,5,9,8.9,14.6,12.3
			c5.4,3.3,10.7,6.9,16.2,10c2.7,1.5,5.6,2.7,8.6,3.7c2.9,1,5.9,2.3,8.9,1.3c6.3-2,12.5-4.5,18.9-6.4c5.8-1.7,10.8-4,15.8-7.5
			c2.6-1.8,5-3.8,7.4-5.9c2.3-2,4.4-4.3,6.9-6.1c2.5-1.7,4.7-3.6,6.9-5.7c2.1-1.9,4.4-3.6,6.4-5.5c4.3-4.1,8.5-8.4,11.9-13.2
			c1.7-2.4,3.2-5,5.3-7.1c1.9-2,4-3.7,5.6-5.9c3.3-4.8,4.3-11.1,4.7-16.7c0.2-3-0.2-5.9-0.7-8.8c-0.4-2.8-1.1-5.5-2.7-7.8
			c-1.6-2.2-3.1-4.8-5-6.7c-1.8-1.8-4.4-2.8-6.6-4c-2.2-1.2-4.7,0-6.2,1.8c-2.1,2.4-4.5,4.5-6.7,6.8c-4.5,4.8-9,9.4-13.4,14.2
			c-1.1,1.2-2.2,2.4-3.4,3.7c-0.9,1-2,2.8-3.3,3.1c-1.2,0.2-2.2-1-3-1.7c-1.1-0.8-2.2-1.5-3.3-2.3c-2-1.5-2.8-3.9-4.7-5.6
			c-1.9-1.8-3.5-3.7-5.4-5.6c-2-1.9-4.2-3.6-6.1-5.6c-1.9-2.1-3.8-4.1-5.8-6.1c-2-2-3.9-4-5.5-6.3c-0.8-1.1-1.4-2.3-2.2-3.4
			c-0.9-1.1-2-2.1-2.8-3.3c-1.8-2.6-3.5-5.4-4.9-8.2c-1.3-2.6-2.8-5-4.1-7.7c-2.8-5.8-3.8-12.2-6.3-18.1c-0.5-1.1-1.1-1.8-2.2-1
			c-1.3,0.8-2.1,1.5-3.7,1.7c-3.2,0.4-6.3,0.8-9.5,1.2c-6.3,0.8-12.6,1.3-19,1.7c0.5-6.5,2-12.8,3.8-19.1c1.7-5.8,4-11.8,4.5-17.9
			c0.2-1.7-0.3-3-1.7-4c-2.4-1.7-5.6-2.6-8.3-3.7c-6.1-2.6-12.3-5.2-18.5-7.5c-6.2-2.4-12.3-5.4-18.7-7.2c-3-0.8-6.3-1.8-9.4-2.1
			c-3-0.3-5.1,0.4-7,2.7c-0.5,0.6-0.7,1.5-1.3,2c-1,0.9-2.7,1.3-3.8,2.1c-2.3,1.7-4.3,3.7-6.3,5.7c-4.4,4.2-8,9.1-11.1,14.3
			c-6.8,11.3-9.5,24-10.6,37c-0.6,6.6-0.9,13.5-0.2,20.2c0.1,1.4,0.6,3,0.5,4.4C11.1,464.8,11.2,464.7,10.3,464.8"/>
		<path id="Fill-58" class="st2" d="M276.8,53.8c1,0.5,3.9,1.5,4,2.9c0.1,1.1-1.9,2.7-2.4,3.3c-1.6,1.9-3.2,3.8-4.6,5.9
			c-5.8,9-9.2,19.2-11.3,29.6c-1.2,5.7-1.4,11.5-1.4,17.3c0,2.6-0.2,5.4,0.1,8c0.3,2.8,0.8,5.6,1.2,8.4c-9.8-3.2-19.6-6.3-29.5-9.4
			c-9.5-3-18.8-6.6-28.1-10c-1.7-0.6-4.4-1.1-5.4-2.8c-1-1.7-0.7-5.1-0.8-6.9c-0.2-5.1,0.3-10.1,0.3-15.1c0-5,0.9-9.8,1.8-14.7
			c0.8-4.8,1.6-9.5,3.1-14.2c2.9-8.4,7.6-17.4,14.3-23.4c1.2-1.1,2.6-3,4.4-2.8c1.1,0.1,2.5,0.9,3.6,1.3c1.4,0.5,2.9,1.1,4.3,1.6
			c4.7,1.8,9.3,3.7,13.8,5.8c2.1,1,4.3,2.1,6.5,3c2.1,0.8,4.2,1.4,6.3,2.3c4.5,2.1,8.9,4.4,13.4,6.6
			C272.6,51.7,274.7,52.7,276.8,53.8 M165,52.7c11.1-0.5,22.3-0.7,33.5-0.7c-3.5,9.1-4.9,19-5.8,28.7c-0.9,9.4-1.8,19.9,1.1,29.1
			c0.5,1.7,1.2,3.3,2.4,4.6c1.5,1.6,3.6,2.4,5.6,3.2c4.5,1.9,9,3.7,13.6,5.5c4.4,1.8,8.9,3.4,13.5,4.6c0.8,0.2,1.6,0.4,2,1.2
			c0.4,1,0.2,2.8,0.3,3.8c0.1,1.1,0.1,2.3,0.2,3.4c0,0.6,0.2,1.3,0.1,1.9c-0.2,1.1-0.2,0.8-1.3,0.9c-2.3,0.3-4.6,0.4-6.9,0.8
			c-2.3,0.4-4.5,1.1-6.8,1.2c-4.9,0.2-9.9,0-14.9,0.3c-5,0.2-10,0.7-15,1.1c-1.1,0.1-2.4,0.3-3.4,0.2c-1-0.1-1.4-0.6-2.1-1.3
			c-1.6-1.7-2.8-3.3-3.9-5.2c-2.3-4-4.9-7.8-6.7-12.1c-1.9-4.4-3.6-8.9-5.1-13.4c-3-9.4-4.1-19.3-4.3-29.1
			c-0.1-5.6,0.1-11.3,0.3-16.9c0.1-2.9,0.1-5.9,0.3-8.8C161.4,53.3,162.8,52.8,165,52.7 M289.4,61.1c1.4-0.5,2.4,0.2,2.6-1.7
			c0.2-1.8-0.4-3.4-1.6-4.7c-2.8-2.9-6.6-5.3-10-7.6c-6.9-4.8-14.3-8.7-21.8-12.4c-3.7-1.9-7.6-3.4-11.3-5.3
			c-1.7-0.8-3.4-1.7-5.2-2.4c-1.8-0.7-3.8-1.1-5.6-1.8c-4.1-1.7-8.3-2.7-12.7-3.6c-2-0.4-3.8-0.2-5.2,1.4c-0.6,0.7-0.8,1.4-1.2,2.1
			c-0.5,0.9-1.4,1.2-2.2,1.8c-7,5.1-11,13.1-15.2,20.4c-8.2-3.2-17.1-3.2-25.8-3.9c-4-0.3-8.3,0.4-12.2,1.6c-3,0.9-7,2.3-7,6.1
			c0,1.6,1.4,2.6,1.3,4.2c0,0.8-0.4,1.5-0.6,2.3c-0.2,1.1-0.1,2.3-0.2,3.5c-0.5,4.5-1,8.9-1.3,13.5c-0.3,4.6-0.2,9.1,0,13.8
			c0.2,4.4,0.4,8.9,1.2,13.3c0.8,4.2,1.4,8.5,2.2,12.7c0.9,4.2,2.3,8.3,3.9,12.3c1.5,3.9,3.4,7.5,5.4,11.2c1.9,3.5,3.8,7.1,6.4,10.1
			c2.5,2.9,5.6,5.3,9,7c1.7,0.9,3.4,1.2,5.2,1.3c1.3,0.1,4,0.8,4.8-0.6c0.6-1-0.3-2.5,0.9-3.3c1.1-0.7,3.4,0,4.7,0.1
			c4.2,0.4,8.3,0,12.5,0.1c1.1,0,2.3,0.1,3.4,0c1.2-0.1,2.2-0.7,3.4-0.9c0.9-0.2,1.5,0.1,2.3,0.3c1.1,0.2,2.1,0.1,3.2,0
			c5-0.3,9.9-1.1,14.9-1.7c1.8-0.2,3.5-0.2,4.1-2.2c0.7-1.8,0.5-4.3-0.1-6.1c-0.8-2.1-2.6-3.7-3.9-5.5c-1.4-1.9-1.8-3.9-2.5-6.2
			c8.4,0.6,16.5,3.6,24.7,5.4c2.2,0.5,4.4,0.9,6.5,1.4c1.5,0.3,3.3,1,3.8-0.9c0.4-1.3,0.6-3.3,0.2-4.6c-0.6-2-1.7-3.7-2.1-5.8
			c-1.5-7.8-0.9-16.6,0.5-24.4c1.4-8.2,3.8-16.4,7.5-23.8c1.8-3.5,3.9-6.8,6.1-10.1C284.3,64.9,286.3,62.2,289.4,61.1"/>
		<path id="Fill-60" class="st2" d="M779.9,75.3c0.4,5.3,0.5,10.7,0.5,16.1c-0.1,5.4-0.5,10.8-2.3,15.9c-2-1.3-4.4-2.4-6.2-4
			c-1.9-1.6-1.3-4.5-1.3-6.7c-0.1-5.1-0.9-10-1-15.1c-0.3-9.9-2-20.1-5.4-29.5c-1.4-3.7-2.8-7.5-5.1-10.8c-1-1.5-2.3-2.8-3.7-3.9
			c-0.8-0.6-1.6-1.1-2.5-1.6c-1.1-0.6-1.2-1.1-1.6-2.3c-0.6-1.6-1.3-2.2-3-1.8c-2.4,0.5-4.7,1.1-7.2,1.6c-5.1,0.9-10.3,1.8-15.5,2.4
			c-2.7,0.3-5.5,0.6-8.3,0.8c-2.2,0.1-2.5-0.7-2.5-2.9c-0.1-5.4-0.7-10.7-2.9-15.7c1.8-0.4,4.2,0.7,6,1.1c2.3,0.6,4.7,1.2,7.1,1.6
			c4.6,1,9.2,1.2,13.9,1.7c4.9,0.5,9.7,1.2,14.6,1.7c2.2,0.2,4.5,0.3,6.7,0.4c2.2,0.1,4.8-0.3,7,0.2c1.7,0.4,2.1,1.9,2.7,3.3
			c1,2.3,2,4.7,3,7c1.8,4.2,3.5,8.2,4.4,12.7c0.9,4.4,1.8,9,2.1,13.6C779.7,65.8,779.5,70.6,779.9,75.3 M704.4,48.3
			c2.4-0.7,4.6-0.2,7.1-0.4c2.2-0.2,4.3-0.8,6.5-1c1.1-0.1,2.2,0,3.3-0.3c1.3-0.3,2.6-0.8,3.9-1c2.5-0.4,5-0.4,7.4-0.8
			c2.5-0.4,4.8-1.5,7.2-2.2c2.2-0.6,4.5-1,6.6-2c1-0.4,2-1,2.9-1.5c1-0.5,0.8-0.7,1.6,0c0.5,0.4,0.8,1.3,1.1,1.8
			c5.4,8.4,8,18.9,9.4,28.7c0.7,5.2,0.7,10.4,1.1,15.7c0.2,2.4,0.7,4.7,0.7,7.1c-0.1,2.7-0.1,5.1,0.2,7.8c0.6,5.8,0.1,11.9-0.2,17.8
			c-0.3,6.1-1.1,12-2.9,17.9c-3.1-2.5-6.1-4.8-9.7-6.5c-3.8-1.8-7.9-2.8-11.9-4.2c-4-1.4-8-3.1-11.8-4.9c-4-1.9-8.2-2.8-12.2-4.4
			c-4-1.6-7.9-3.5-11.8-5.3c-1-0.4-3.3-1-4-1.9c-0.6-0.9-0.2-2.4,0-3.4c0.9-4.4,1.9-8.6,2.3-13.1c0.4-4.3,0.5-8.7,0.4-13.1
			c-0.3-9.8-0.2-19.9-4-29.1C699.9,49.4,702.2,48.9,704.4,48.3 M785.2,90.8c0.8-6.2,0.7-12.5,0.7-18.8c0.1-6.2-0.1-12.4-0.6-18.6
			c-0.5-5.8-1.4-11.5-3.3-17c-2-5.8-5.2-10.9-8.7-15.8c-1.9-2.6-3.7-3-6.8-3.5c-3-0.5-6-0.9-8.9-1.5c-5.9-1.2-12-1.4-18.1-2.1
			c-3.5-0.4-7-0.9-10.5-1.3c-3.3-0.4-6.8-0.4-10-1.2c-2.9-0.7-6.7-0.5-9.4,0.9c-2.4,1.2-1.2,4,0.4,5.4c-2.7,2.4-2.7,5.5-2.3,8.9
			c0.3,2.1,0.4,4.2,0.6,6.2c0.1,1.1,0.9,4.2,0.2,5.2c-0.7,1-3.8,0.8-4.9,1c-2.1,0.4-4.1,1-6.1,1.7c-2.3,0.8-6.3,1.6-7.1,4.3
			c-0.4,1.2-0.1,2.6,0.2,3.8c0.5,2.2,1,4.4,1.5,6.6c1,4.1,2,7.9,2,12.2c0,8.6,0.3,17.1-0.4,25.6c-0.2,2.1-0.4,4.1-0.7,6.2
			c-0.1,1-0.2,2-0.4,2.9c-0.1,1.2,0.2,2.5-1.4,2.2c-1-0.2-2.1-1.3-3.2-1c-1.2,0.3-2.3,2.1-2.7,3.2c-1.3,3.5,1.6,6.5,4.2,8.4
			c3.2,2.4,6.8,4.3,10.2,6.3c7.2,4.1,15,6.6,22.8,9.4c3.7,1.3,7.3,2.6,11.2,3.3c1.9,0.3,3.5,1.1,5.3,1.7c2.1,0.7,4.4,1.2,6.6,1.8
			c4.5,1.1,9,2.2,13.3,3.8c1,0.4,2.3,1.1,3.3,0.4c1-0.7,1.7-2.6,2.2-3.6c3.9-8.1,4.5-17.2,6-26c1.9,0.5,4.3,2,6.3,1.5
			c2.2-0.5,3-3,3.8-4.8C782.9,102.7,784.5,96.8,785.2,90.8"/>
		<path id="Fill-62" class="st2" d="M911.4,336.1c0.7,1.2-0.8,3.8-1.4,4.8c-1.8,3.4-4.8,5.9-7.8,8.1c-1.1,0.8-2.9,2.8-4.3,2.5
			c-0.9-0.2-1.1-1-2.1-0.3c-0.7,0.4-1,1.4-1,2.1c-0.5,4.9,5.4,7.3,8.8,9.5c4.9,3.1,10.1,5.7,15.2,8.4c-1.4,1.7-3.5,2.9-5.4,4
			c-2.8,1.6-5.7,2.9-8.7,4.1c-5.1,2-11.1,4.5-16.7,4.3c0.2-1.3,0.2-2.7-0.8-3.7c-0.6-0.6-1.2-0.7-1.9-1c-0.7-0.3-1-0.6-1.5-1.2
			c-3.1-3.2-6.4-6.2-9.5-9.6c-6-6.6-11-14.1-16.3-21.2c8.2-0.4,14.9-3.9,20.9-9.3c3.2-2.9,6-6.1,8.3-9.8c0.6-0.9,1.1-1.9,1.6-2.8
			c0.3-0.5,0.7-1.7,1.3-1.9c1.4-0.4,3.7,2.2,4.6,2.9c3.9,2.9,7.9,5.4,12.1,7.8c0.8,0.5,1.7,0.9,2.6,1.3
			C910,335.3,911,335.5,911.4,336.1 M942.5,379.3c0.7,2.4,4.9,0,6.2-0.7c2.7-1.4,4.7-3.4,6.6-5.7c8.2-10.4,11.7-23.6,12.6-36.6
			c0.5-7.1-0.1-14.3-1-21.3c-0.8-6.8-2.4-13.6-5.1-19.9c-1.1-2.6-2.3-5.3-4-7.6c-0.8-1.1-1.8-2.2-2.9-3.1c-0.4-0.3-1.2-0.6-1.5-1
			c-0.3-0.4-0.3-1-0.6-1.5c-1-1.7-3-1.3-4.7-1.2c-3.3,0.2-6.6,0.3-9.9,0.8c-7.1,1.1-14.2,2.9-21.2,4.5c-4.9,1.1-14.4,1.7-15.6,8
			c-0.2,0.8-0.5,2.8,0,3.5c0.7,1.2,1.9,0.2,2.7-0.3c1.4,2.6,2.6,5.2,4.2,7.7c1.5,2.4,2.7,5.1,3.4,7.9c1.4,5.7,1.2,12.1,1.6,17.9
			c-3.5-2.5-7.1-4.9-10.6-7.4c-3.8-2.8-7.5-5.8-11.6-8.4c-1.3-0.8-3.6-1.7-5.2-1.4c-2.4,0.4-1.2,2.6-1.1,4.1c0.2,1.7-0.9,2.9-2,4
			c-1.4,1.5-3,3-4.6,4.3c-6.5,5.4-14.1,8.3-22.2,10.2c-1.9,0.4-4.4,0.4-6.1,1.3c-1.5,0.7-2.1,4-1.9,5.5c0.2,1.5,2.2,2.2,3,3.4
			c1.3,1.8,1.8,4.1,2.6,6.2c3.4,8.6,9,15.9,13.6,23.9c2,3.5,4,6.4,7.4,8.6c1.4,1,3,1.6,4.5,2.4c1.4,0.8,0.7,2.4,2.1,3.2
			c1.7,0.9,4.3,0.9,6.1,1c2.5,0.1,4.9-0.1,7.3-0.5c4.4-0.8,8.8-2.1,12.9-4c3.7-1.7,7.2-4.1,10.2-6.9c1.4-1.3,2.7-2.8,3.7-4.4
			c0.6-1,1.2-2.9,2.6-2.9c1.7,0,4.2,1.8,5.6,2.5c2.2,1.1,4.5,2.2,6.8,3.1c2.1,0.9,4.1-0.6,2.7-2.8c-1.1-1.8-3-3.3-4.5-4.7
			c-3.8-3.3-8.3-5.2-12.8-7.4c-4.9-2.5-9.9-4.9-14.8-7.4c4.7-3.8,8.2-7.8,10.4-13.6c2.4-6.4,3.4-12.9,3.3-19.7c0-3.4,0-6.9-0.4-10.2
			c-0.5-3.4-1.7-6.7-3.1-9.9c-0.6-1.3-1.3-2.3-2.4-3.3c-0.7-0.7-2.5-2-2.4-3.1c0.1-1.1,1.5-1,2.2-1c1.8,0,3.5-0.1,5.3-0.5
			c3.3-0.7,6.6-1.8,9.9-2.6c3.4-0.8,6.9-1.6,10.3-2.5c3.1-0.8,6.2-2.5,9.3-2.9c2.5-0.4,3.4,2.3,4.4,4.2c1.5,2.8,2.7,5.7,3.6,8.8
			c1,3.3,1.4,6.7,2.2,10c0.4,1.7,0.9,3.3,1.2,5c0.4,1.8,0.3,3.4,0.3,5.2c0.1,3.5,0.5,6.9,0.6,10.3c0.6,12.4-1.8,25.4-8.6,36
			c-1.7,2.7-3.5,4.9-6.1,6.8C945.5,374.5,941.7,376.6,942.5,379.3"/>
		<path id="Fill-65" class="st2" d="M849.3,532.1c-0.8-1-2.1-2.4-2-3.9c0.1-1.5,1.8-2.6,2.8-3.5c12.5-11.3,18-27.5,25.6-42
			c1.1-2.1,2.3-0.8,4,0.2c2,1.1,4.1,2,6.2,2.9c4.2,1.8,8.4,3.5,12.8,4.9c2.1,0.7,4.3,1.2,6.5,1.7c1.8,0.4,4.2,0.4,5.7,1.6
			c1.6,1.2,1.6,3.3,1.8,5.1c0.3,2.5,0.6,5.1,0.9,7.6c-1,0.1-0.5,1.6-0.5,2.5c0,0.9,0.1,1.9,0.1,2.8c0,2.1-0.5,4.1-1,6.2
			c-0.9,4-2,8.1-3.3,12c-2.3,7.1-5.5,14.2-9.7,20.5c-4,6-9.3,10.8-15.7,14.2c-3.2,1.7-6.6,2.7-10.2,2.9c-2.7,0.1-2.8-2.7-3.8-4.8
			c-1.7-3.6-4.1-6.9-6.3-10.3c-2.2-3.5-4.4-7.1-6.7-10.5C854.3,538.6,851.8,535.4,849.3,532.1 M839.3,521.9
			c-2.1,1.4-1.1,3.1-0.3,5.1c1.1,2.6,2.2,5.3,3.5,7.8c2.2,4.6,5.1,9,7,13.7c-0.4-0.2-1.6,0.1-2,0c-1.2-0.1-2.1-1.1-3.4-1
			c-2.3,0.1-4,3.1-3.6,5.2c0.4,2.6,2,5.7,3.3,8c1.6,2.9,3.5,5.5,5.3,8.2c3.2,4.9,5.9,10,9.9,14.4c1.9,2,3.8,3.9,5.6,6
			c1.7,1.9,4.2,3.2,5.2,5.6c0.4,1,0.6,1.8,1.7,2.2c1.4,0.4,3.3,0.2,4.7,0.3c3.4,0.1,6.8,0,10.2-0.4c5.7-0.6,11.3-2,16.5-4.6
			c10.5-5.2,18-14.6,24.8-24c3.5-4.9,6.5-10.1,8.8-15.7c2.3-5.4,4.5-11.1,4.6-17c0-2.9,0-4.6-2.7-6c-2.4-1.2-4.5-2.9-6.6-4.6
			c-1.3-1-4-3.9-5.7-3.6c-3.2,0.7,1.1,4.8,2,5.9c1.9,2.3,4,4.3,6.3,6.2c2.4,2,1.9,3.8,1,6.6c-1.9,5.3-4.3,10.5-7.4,15.2
			c-1.6,2.4-3.3,4.6-5.1,6.8c-1.8,2.3-3.4,4.8-5.3,7.1c-3.6,4.4-8.7,8.5-13.7,11.3c-2.4,1.4-5,2.1-7.4,3.6c-1,0.6-1.9,0.8-3.1,0.9
			c-1.4,0.1-2.6,0.9-3.9,1.3c-2.6,0.8-5.4,0.9-8.1,1.4c-1.2,0.2-2.6,0.9-3.9,0.8c-1.4-0.1-2.4-1.1-3.3-2c-4.6-4.3-8.6-9.2-12.5-14.1
			c-4-5-8-10-11.8-15.2c-0.6-0.9-1.7-2.1-1.9-3.2c-0.1-0.9-0.2-0.3,0.2-1.1c0.1-0.3,0.4-0.6,0.6-0.8c0.5-0.7,1-1.3,1.5-2
			c1.8,0,2.3,2.1,2.9,3.4c1.1,2.2,2.4,4.3,3.8,6.4c2.7,4,5.6,7.8,8.2,11.9c0.7,1.1,1.9,3.3,3.3,3.5c0.6,0.1,1.3-0.4,1.8-0.6
			c1.1-0.6,2.2-1.1,3.4-1.4c4-0.7,7.7-1.1,11.5-2.8c16.2-7.1,24.4-25.9,29-41.8c1.5-5,2.5-10.2,3.3-15.4c0.7-5.1,0.1-10.2-0.7-15.3
			c-0.1-0.5-0.2-1-0.2-1.5c-0.1-0.8-0.4-1.1,0.2-1.6c0.7-0.6,1.6-0.6,2.2-1.4c1.7-2.1-0.3-3.7-2-4.8c-4.4-2.7-9.8-3.8-14.6-5.5
			c-4.9-1.7-9.6-3.8-14.5-5.3c-2.4-0.7-5-1.7-7.5-2c-1-0.1-2,0.4-3,0.3c-0.3,0-0.5,0.1-0.8,0c-0.5-0.2-0.5-1-1.2-1
			c-1.4-0.1-3.2,3-3.8,3.9c-1.6,2.1-3,4.3-4.3,6.6c-2.6,4.4-5.1,8.9-7.8,13.3c-3,4.8-6.3,9.4-9.7,14c-1.4,1.9-2.7,4.8-4.8,6.1
			C843.2,520.5,841,520.7,839.3,521.9"/>
		<path id="Fill-67" class="st2" d="M808.2,149.2c9.9,4.5,19.7,9.1,29.6,13.6c-5.9,11.2-11.4,23.1-20,32.6
			c-4.2,4.7-8.8,9.3-13.7,13.2c-2.3,1.8-4.8,3.2-7.5,4.4c-2.1,1-3.7,2.5-4,5c-2.6-5.1-6.4-9.4-10.3-13.5c-4.2-4.5-8.5-8.9-12.2-13.8
			c3.8-2.8,7.5-5.5,11.3-8.4c4-3,7.4-6.5,10.7-10.2C798.3,165,804.4,158,808.2,149.2 M839.9,171.4c0.8-2.2,1.2-4.6,2.3-6.6
			c1.1-2.3,1.2-3.4-0.1-5.6c-0.8-1.4-1.4-2.2-2.9-2.7c-0.4-0.1-0.6-0.1-1-0.2c-0.5-0.2-0.9-0.9-1.3-1.2c-0.8-0.6-1.7-1.1-2.5-1.5
			c-3.9-2-7.5-4.3-11.5-6.2c-2.2-1-4.4-2.1-6.6-2.9c-2.2-0.9-4.6-1.2-6.9-1.8c-3-0.4-4.6,1.3-6.1,3.6c-1.9,2.9-4.1,5.7-6.4,8.3
			c-2.8,3.4-5.7,6.7-8.8,9.8c-2.9,2.8-6.3,5.3-9,8.4c-2.5,2.8-5.3,5.3-8.2,7.6c-2.4,1.9-6.7,4.3-6.8,7.7c-0.1,1.8,1.2,3.2,2.2,4.6
			c1.3,2,2.6,3.9,3.9,5.9c2.4,3.5,4.7,7.2,7.5,10.4c2.9,3.3,5.9,6.5,8.9,9.8c1.2,1.3,2.6,2.9,4.2,3.6c2,0.9,1.6-1,2.6-1.9
			c0.9-0.9,2.5,0.1,3.7,0.2c1.9,0.1,3.8-0.5,5.4-1.4c3.6-1.8,7-4.2,10.2-6.5c6.5-4.8,11.7-11.3,15.8-18.2c2.2-3.6,4.2-7.4,6.1-11.2
			C836.3,179.3,838.4,175.4,839.9,171.4"/>
		<path id="Fill-69" d="M683.5,280.6c0.4-0.6,0.1-4.1,0.5-4.2c-0.3-1.8-0.4-3.6-1.1-5.3c-0.7-1.8-1.5-3.6-2.3-5.5
			c-1.6-3.6-3.3-7.1-5.6-10.4c-4.8-6.7-9.4-13.4-15-19.4c-2.6-2.8-4.8-6-7.3-8.9c-2.6-2.9-5.7-5.2-8.5-7.7c-2.7-2.4-5.1-5.1-7.9-7.5
			c-2.7-2.3-5.6-4.3-8.2-6.7c-1.2-1.1-2.6-2.2-4-3c-1.6-0.9-3.2-1.5-4.7-2.5c-2-1.4-5.5-5.2-8.2-3.6c-1.2,0.7-2.1,2.4-2.2,3.8
			c-0.1,2,1.5,3.4,2.8,4.7c2.9,2.9,6,5.6,9,8.4c12.3,11.3,23.8,23.5,34.9,36c3,3.3,5.9,6.7,8.8,10.2c2.9,3.4,5.2,7.1,7.7,10.8
			c2.5,3.6,5.1,7.3,7.9,10.6C680.9,281.4,682.5,282.2,683.5,280.6"/>
		<path id="Fill-71" d="M60.6,576.2c2.1,2.5,4.7,4.8,7,7.1c1.9,1.9,4.3,5,7.1,5.7c1.7,0.4,2.2-0.1,3.3,1.5c0.9,1.2,2,1.9,3.4,2.4
			c1.6,0.5,3.1,0.8,4.5,1.6c1.7,1,3.4,1.8,5.3,2.4c3.6,1.2,7.4,1.6,11.1,2.3c0-0.1,0.1-0.3,0.1-0.4c2.2,0.3,6.1,1.6,7.8-0.5
			c1.6-1.9,0.6-5.7-1.2-7.1c-1.1-0.9-2.6-1.1-3.9-1.5c-1.6-0.5-3.2-0.9-4.8-1.5c-3.1-1-5.7-2.9-8.7-4c-1.3-0.5-2.7-0.8-3.9-1.3
			c-1.5-0.6-2.4-1.7-3.6-2.6c-1.1-0.8-2.4-1.3-3.7-1.6c-1.6-0.4-1.8-0.8-2.7-2.1c-1.5-2.3-4-3.5-6-5.2c-2.3-1.9-4.6-4-6.6-6.3
			c-2.1-2.3-3.7-4.9-5.1-7.7c-1.4-2.9-3.7-5.6-4.6-8.7c-0.4-1.3-0.6-2.7-0.6-4c0-1.2,0.3-2.8-1.2-3.1c-2.6-0.6-3.4,4.6-3.6,6.3
			c-0.1,1.6,0.4,3,0.7,4.6c0.4,1.7,0.6,3.4,0.9,5.1c0.7,3.5,2.2,6.4,3.9,9.5C57.1,570,58.5,573.7,60.6,576.2"/>
		<path id="Fill-73" d="M590.3,129c0.6,1-0.4,1.4-1.2,2c-1,0.8-2,1.7-2.8,2.7c-1.5,2-2.4,4.4-2.6,6.9c-0.1,1.3,0.5,4.4-1.2,5
			c-1.9,0.7-4.8-1.7-6.6-2.1c-1.4-0.3-3.7-0.2-4.7-1.3c-1.1-1.2-0.7-3.7-0.7-5.1c-0.3-5,1.3-9.3,5.4-12.4c2.2-1.7,3.9-2.9,6.4-1.1
			c1.4,1,2.8,1.9,4.2,2.8C587.4,127,589.7,128,590.3,129 M597.8,136.5c1.8-0.3,4.1,0.7,5.5-0.9c1.4-1.6,0.8-3.9-0.5-5.2
			c-4-3.9-8.9-7.1-13.4-10.5c-2.1-1.6-4.2-3.1-6.3-4.6c-1.5-1-4.4-3.5-6.4-2.9c-1.9,0.6-1.6,3.3-2.8,4.6c-0.8,0.9-2,1.2-2.8,1.9
			c-0.9,0.8-1.5,1.9-2.1,2.9c-2.9,4.8-4.9,10.1-4.8,15.7c0.1,5.1,0.9,10.2,4.7,14c0.6,0.6,1.5,1.8,2.3,2c1,0.3,1.2-0.4,1.7-1.1
			c1.4-2,3-0.5,4.8,0.1c2.3,0.8,4.7,0.9,7.1,1.2c2,0.3,3.7,1.3,5-0.7c0.7-1.1,1.8-3,1-4.3c-0.6-0.9-1.7-1.1-2.1-2.2
			c-0.3-0.9,0.1-1.7,0.3-2.6c0.3-1.5-0.2-3.4,1.1-4.6c0.8-0.7,2.1-1.1,3.1-1.5C594.5,137.6,596.2,136.8,597.8,136.5"/>
		<path id="Fill-75" d="M360.6,540.2c-0.9,5.2-0.8,10.4-1.5,15.6l0.4,0c-0.1,4.8-0.2,9.6-0.4,14.4c0,2-1.2,9.9,3.3,8.1
			c1.5-0.6,2.2-2.3,2.8-3.7c0.9-2.1,1.7-4.2,2.2-6.5c1.1-4.5,1.3-9.3,2-13.9c1.4-9.3,2.4-18.8,4.1-28c0.4-2.4,3.5-8.3-1.1-8.6
			c-4.1-0.3-6.7,5-7.9,8.1C362.9,530.3,361.5,535.2,360.6,540.2"/>
		<path id="Fill-77" d="M897.5,627.3c-3.2-1.1-6.1,5-3.5,6.8c1.4,0.9,2.9,1.9,4.5,2.4c2,0.6,4.2,0.7,6.3,0.9
			c2.2,0.3,4.3-0.1,6.5-0.5c2.3-0.4,4.6-0.8,6.9-1.4c4.1-1,7.9-3,11.3-5.3c3.5-2.4,6.6-5.3,9.1-8.7c1.2-1.7,2.3-3.4,3.3-5.2
			c1.2-2.3,1.7-4.2,2.2-6.7c-1.7,0.2-2.8,1.2-3.9,2.4c-1.6,1.7-3.2,3.4-4.9,4.9c-3.3,2.9-7.1,5.1-11.2,6.9c-4.4,2-9.1,3.3-13.9,3.9
			c-1.9,0.2-3.7,0.6-5.6,0.8C901.8,628.7,900,628.1,897.5,627.3"/>
		<path id="Fill-79" d="M816.9,64.3c1.4-1.9,2.5-4.3,3.3-6.5c1.7-4.9,1.4-10.6,1.9-15.8c-0.3-4.4-0.2-8.9-0.7-13.3
			c-0.4-4.2-1.4-8.5-2.7-12.5c-1.4-4.5-3.9-8.2-6.3-12.2c-0.7-1.2-1.8-3.8-3.6-3.5c-2.2,0.3-1.9,3.3-1.5,4.8
			c1.2,4.9,3.2,9.5,4.3,14.4c1.1,5,1.7,10.1,2.7,15.1c1,5.2,1.2,10.4,1.1,15.7c0,2.2,0.1,4.5-0.6,6.7c-0.7,2.1-1.4,4.3-1.6,6.5
			C813,66,815.6,66,816.9,64.3"/>
		<path id="Fill-82" d="M127.3,84.5c-0.9-2.1-1.7-4.3-2.3-6.6c-2.3-8.8-1.8-17.7-0.9-26.6c0.5-4.5,0.5-9.2,2.6-13.2
			c0.9-1.7,1.4-3.7,1.2-5.6c-0.2-1.8-1.2-2.7-2.8-1.5c-3.6,3-4.8,7.6-5.9,12c-1.2,5-1.9,10.2-2.3,15.3c0.1,4.4-0.2,9,0.5,13.3
			c0.7,4.2,2.1,8.3,3.3,12.4c0.5,1.9,4.1,8.6,6.4,5.7C128.4,88.1,128.1,86.3,127.3,84.5"/>
		<path id="Fill-84" d="M893.4,184.3c0.3-1.1,0.6-2.1,0.6-3.2c0-0.3,0-1.1-0.1-1.4c-0.2-0.8-0.1-0.8-1.1-1.2
			c-1.1,1.2-2.4,2.1-3.3,3.5c-1,1.6-1.9,3.3-2.9,4.9c-2,3.1-4.1,6.2-6.2,9.2c-2.1,3-4.2,6.2-6.9,8.6c-2.7,2.5-5.4,5-8,7.5
			c-1.3,1.2-5.6,5.4-2.4,7c2.3,1.2,6.7-2.4,8.5-3.6c5.5-3.9,10.5-9.1,14.3-14.6c2.3-3.3,4.2-7,5.6-10.7
			C892.3,188.4,892.9,186.4,893.4,184.3"/>
		<path id="Fill-86" d="M664,215.8c6.1,5.5,12,11.2,18,16.7c2.1-3,0.7-5.8-1.2-8.5c-1.8-2.6-3.9-4.9-6.1-7.1
			c-5-4.8-10.8-8.8-16.3-12.9c-2.7-2-5.4-4.3-8.2-6.1c-1.2-0.8-2-0.2-2.7,0.9c-1,1.7-0.1,2.4,1.1,3.6
			C653.3,207.3,658.9,211.2,664,215.8"/>
		<path id="Fill-88" d="M46.4,593.5c-1,0.2-1.1,1.6-1.4,2.4c0.6,5.4,4.8,9.2,9.4,11.7c2.6,1.4,5.4,2.4,8.2,3.4c1.1,0.4,2,0.9,3,1.4
			c1.4,0.7,1.9-0.7,2.3-1.9c0.7-2.6-0.6-4.3-2.7-5.7c-2.5-1.6-4.9-3.3-7.4-4.9c-2.7-1.7-5.5-3.4-8.2-5.1
			C48.8,594.3,47.3,593.3,46.4,593.5"/>
		<path id="Fill-90" d="M343.3,539.2c-1.1,1.2-1.4,3.4-1.8,4.9c-0.5,1.7-1,3.4-1.5,5.1c0.2,1.2,0.3,6.9,2.6,6.2
			c1.5-0.5,1.7-4.1,1.9-5.3c0.3-2,0.7-4,1-6.1c0.2-1.2,0.8-3.4,0.3-4.6C345.3,538.2,344.2,538.2,343.3,539.2"/>
		<path id="Fill-92" d="M742.8,439.7c-1,0.5-1.1,1-1.8,2c0.7,0.3,1.4,0.6,2.1,0.8c0.6-1.5,1.3-3.1,1.9-4.6c-0.7-0.5-2.5-2.4-2-0.6
			c0.1,0.5,1,1.1,0.9,1.6C743.8,439.5,743.4,439.4,742.8,439.7"/>
		<path id="Fill-94" d="M411,160.4c2.7-0.9,3.4-4.2,2.9-6.6c-0.4-1.7-0.8-1.7-2.3-1.7c-1.4,0-2.9-0.1-4.3-0.2
			c1.6-3.3,3.4-6.6,4.4-10.1c0.4-1.4,1.6-7.3-0.9-7.3c-1.6,0-2.3,1.8-2.9,3c-0.7,1.7-1.5,3.3-2.2,4.9c-1.5,3.1-3.4,6.4-4.3,9.8
			c-0.6,2.5-0.9,5.8,1.9,6.8c1.1,0.4,2.4,0.8,3.6,1C408.1,160.2,409.8,160.8,411,160.4"/>
		<path id="Fill-96" d="M433.6,131.4c1.7,0.1,5,0.4,5.4-1.9c0.3-1.8-2.6-2.9-4-3.6c-3.6-1.8-7.5-2.3-11.5-2.4
			c-1.5,0-3.8-0.5-4.8,0.8c-0.8,1.1-1,3.4-0.1,4.5c1.4,1.6,4.9,1.6,6.8,1.8C428.2,131,430.9,131.3,433.6,131.4"/>
		<path id="Fill-98" d="M422.3,162.6c-1.4-0.4-3.4,0.8-4.6,1.4c-1.4,0.7-3.5,1.5-4.3,2.9c-0.6,1.1-0.6,3,0.2,4
			c0.9,1,2.5,0.6,3.7,0.7c2.4,0.2,5-0.4,6.1-2.9C424.1,167,424.6,163.1,422.3,162.6"/>
		<path id="Fill-100" d="M422,142.5c0,1.9,0.1,4.6,2.3,5c2.7,0.5,3.6-2.7,4.1-4.8c0.3-1.2,0.7-2.6,0.4-3.9c-0.3-1.2-1.5-3.2-2.9-3.3
			C423.1,135.3,421.8,140.3,422,142.5"/>
		<path id="Fill-102" d="M400.7,144.7c1.3-1.3,1.9-3.6,2.2-5.4c0.2-1.7,0.1-4.3-2.3-3.8c-2.4,0.5-2.9,4.6-3.6,6.6
			c0.1,0,0.3,0.1,0.4,0.1c0,1.1-0.2,2.5,1,3.1C399.3,145.7,400.1,145.3,400.7,144.7"/>
		<path id="Fill-104" d="M475.8,144.5c-2,0.2-3.9,0.8-5.1,2.4c-1.9,2.6,0.9,2.8,2.9,2.5c1.7-0.2,5.1-0.6,5.4-2.8
			C479.2,145.2,477,144.6,475.8,144.5"/>
		<path id="Fill-108" d="M575.7,403.5c-0.7,0.6-2.8,1.9-2.7,3c1.3-0.2,2.7-0.3,4-0.5C576.6,405.2,576.2,404.3,575.7,403.5"/>
	</g>
</g>
</svg>
