<?xml version="1.0" encoding="utf-8"?>
<!-- Generator: Adobe Illustrator 22.0.1, SVG Export Plug-In . SVG Version: 6.00 Build 0)  -->
<svg version="1.1" id="Layer_1" xmlns="http://www.w3.org/2000/svg" xmlns:xlink="http://www.w3.org/1999/xlink" x="0px" y="0px"
	 viewBox="0 0 400 300" style="enable-background:new 0 0 400 300;" xml:space="preserve">
<style type="text/css">
	.st0{fill:#6C63FF;}
	.st1{opacity:0.2;fill:#FFFFFF;enable-background:new    ;}
	.st2{opacity:0.45;fill:#E6E6E6;enable-background:new    ;}
	.st3{opacity:0.58;fill:#6C63FF;enable-background:new    ;}
	.st4{opacity:0.73;fill:#6C63FF;enable-background:new    ;}
	.st5{fill:#24285B;}
	.st6{fill:#F4A28C;}
	.st7{opacity:0.31;fill:#CE8172;enable-background:new    ;}
	.st8{fill:#C9C9C9;}
	.st9{fill:#E6E6E6;}
	.st10{fill:#FFD200;}
	.st11{opacity:8.000000e-02;enable-background:new    ;}
	.st12{fill:#FFFFFF;}
	.st13{fill:#FEFEFE;}
	.st14{fill:#6D64FE;}
	.st15{fill:#7269FE;}
	.st16{fill:#F8F8FE;}
	.st17{fill:#FDFCFE;}
	.st18{fill:#FDFDFE;}
</style>
<title>#37 digital nomad</title>
<path class="st0" d="M205.4,137.9c9.2,16.6,30.3-1.5,30.3-1.5l7.2,7.2c-40.3,42.2-53.4,9.5-74-22.3c-9.6-14.8-10.5-25.7-8.8-33.2
	c0.5-2.1,1.6-4,3.1-5.5c4.6-4.5,11.9-4.4,16.4,0.1C193.6,96.6,198,124.5,205.4,137.9z"/>
<path class="st1" d="M205.4,137.9c9.2,16.6,30.3-1.5,30.3-1.5l7.2,7.2c-40.3,42.2-53.4,9.5-74-22.3c-9.6-14.8-10.5-25.7-8.8-33.2
	c0.5-2.1,1.6-4,3.1-5.5c4.6-4.5,11.9-4.4,16.4,0.1C193.6,96.6,198,124.5,205.4,137.9z"/>
<ellipse class="st2" cx="157" cy="244.1" rx="132.1" ry="20.9"/>
<path class="st3" d="M65.1,230.1c0.5-17.4,17.4-13.9,17.4-13.9c-2.4,10.1-13.3,13-13.3,13L65.1,230.1z"/>
<path class="st4" d="M61.7,228.1c-5.6-15.1,7.2-23.2,7.2-23.2c6.6,11.2-1,23.2-1,23.2H61.7z"/>
<path class="st0" d="M57.6,228.1c-10.1-6.9-7.8-15.1-7.8-15.1c12.1,2.4,16.1,15.1,16.1,15.1H57.6z"/>
<polygon class="st5" points="55.7,227.8 57.7,242.9 71.5,242.9 73.8,227.8 "/>
<path class="st6" d="M155.3,44.3c-2.4,1-3.8,3.4-3.6,6l1.1,6.1c0.2,3.6,2.8,5.5,4.9,6.4c0,0,0,0,0,0c1.7,0.7,3.7-0.1,4.4-1.8
	c1.8-4.2,2.2-10.9,2.2-10.9C164.8,46.1,159.5,42.2,155.3,44.3z"/>
<polygon class="st6" points="155.1,61.2 151.5,76.8 138.8,73.3 152.6,51.3 "/>
<path class="st6" d="M161.8,58.8l2.6-0.1c0.2,0,0.3,0,0.5-0.1c0.5-0.3,0.7-0.9,0.5-1.4l-1.4-2.8L161.8,58.8z"/>
<path class="st7" d="M154,65.9c-5.9-5.2-1.4-10.4-1.4-10.4c0.2,4,2.5,5.7,2.5,5.7L154,65.9z"/>
<path class="st8" d="M159.4,169.9c16.1-96-24.8-106.4-51.7-99c-73.8,20.4,0,120.1,0,120.1L159.4,169.9z"/>
<polygon class="st9" points="122.2,196.3 114.6,243.7 121.2,243.7 130.8,199.3 "/>
<polygon class="st9" points="185.4,193.4 193.1,240.8 186.5,240.8 176.8,196.4 "/>
<path class="st8" d="M107.7,191c0-5.3,4.3-9.6,9.6-9.6H177c5.4,0,13.4,0.1,13.4,5.4l2.7,2.9c0,5.3-4.3,9.6-9.6,9.6
	c0,0-38.5,8.8-56.8,9.7C121.3,209.3,110.2,198,107.7,191C107.7,191,107.7,191,107.7,191z"/>
<path class="st0" d="M179.8,123.8c-7.3,19,3.5,49,3.5,49l-56.2,8.6c-25-22.9-42.6-98.7-12.6-106.5c16.4-4.3,41.1-2,52.8,1.2
	c10.2,2.8,17.2,12.3,16.9,22.9C184.1,106.4,183,115.5,179.8,123.8z"/>
<path class="st10" d="M156.9,46.4c-2.8,1.2-2.6,7.2-2.6,7.2l-3.2,0.6c-0.7-8-2.9-8.5-4.7-11.2c-0.8-1.3-0.2-2,0.8-2.5
	c1-0.5,1.6-1.5,1.5-2.6c0-0.7,0.1-1.4,0.3-2c1-3.2,2.5,0.4,6.3,0.8s-0.7-3.5,2.3-4s2.8,1,5.4,4.1s4.8-1.5,5.5,2
	c0.3,0.9,0.1,1.9-0.5,2.7c-1.8,2-2.9,4.5-3.4,7.1l-0.2,1.5C164.6,47.5,159.7,45.2,156.9,46.4z"/>
<path class="st11" d="M110.3,116.2l-5.8,34.5l18.8,26.8l3.7,3.8l10.4-1.6l21.9-8.5l-0.9-16.7c-43.8,12.8-26.4-31.8-24.9-45.5
	c2.2-20-12.4-25.9-12.4-25.9L110.3,116.2z"/>
<polygon class="st10" points="202.4,175.1 138.1,182.2 136.8,176.8 153.1,170.4 154.4,131.1 208.3,126.8 "/>
<circle class="st12" cx="181.2" cy="149" r="5"/>
<path class="st0" d="M163.5,232.3l-0.3,6.1c0,0,9.8,4.9,13.7,3.8s2.7-5.2-1.5-5.6s-5.9-5.1-5.9-5.1L163.5,232.3z"/>
<path class="st5" d="M150.4,193.3c0.7-0.1,1.4-0.1,2-0.1c5.8,0.2,10.4,5.1,10.2,10.9l-1,27.9h11.6l3-29.8c0.2-1.9,0.1-3.8-0.1-5.6
	c-1.8-12.2-13.3-20.6-25.5-18.8l-23.4,3.5C128.1,194.3,140.4,195,150.4,193.3z"/>
<path class="st0" d="M187.4,232.3l-0.3,6.1c0,0,9.8,4.9,13.7,3.8s2.7-5.2-1.5-5.6s-5.9-5.1-5.9-5.1L187.4,232.3z"/>
<path class="st5" d="M174.2,193.3c0.7-0.1,1.4-0.1,2-0.1c5.8,0.2,10.4,5.1,10.2,10.9l-1,27.9h11.5l3.1-29.8c0.2-1.9,0.1-3.8-0.1-5.6
	c-1.8-12.2-13.3-20.6-25.5-18.8l-23.4,3.5C151.9,194.3,164.3,195,174.2,193.3z"/>
<path class="st0" d="M113.4,149c-2,18.9,25.7,16.1,25.7,16.1l1.8,10.1c-57.2,11.4-49.2-22.8-47.8-60.7c0.6-17.6,6.1-27.1,11.9-32.2
	c1.6-1.4,3.6-2.4,5.7-2.7c6.3-1.1,12.3,3.2,13.4,9.5C127.5,108.4,115.1,133.7,113.4,149z"/>
<path class="st1" d="M113.4,149c-2,18.9,25.7,16.1,25.7,16.1l1.8,10.1c-57.2,11.4-49.2-22.8-47.8-60.7c0.6-17.6,6.1-27.1,11.9-32.2
	c1.6-1.4,3.6-2.4,5.7-2.7c6.3-1.1,12.3,3.2,13.4,9.5C127.5,108.4,115.1,133.7,113.4,149z"/>
<path class="st6" d="M140.9,175.2l12.2-4.7c-1.9-8.9-13.7-3.9-13.7-3.9L140.9,175.2z"/>
<path class="st6" d="M154,55.4c-2.6-0.7-2-4.4-0.1-4.3s1.6,2.7,1.6,2.7L154,55.4z"/>
<path class="st0" d="M134.4,72.5c1.8-6.8,8.6-5.8,16.6-4.4s6.3,5.9,6.3,5.9"/>
<path class="st1" d="M134.4,72.5c1.8-6.8,8.6-5.8,16.6-4.4s6.3,5.9,6.3,5.9"/>
<path class="st11" d="M153.1,170.4l-16.3,6.3l1.4,5.5l64.3-7.1l1.2-9.9c-22.4-9.4-50.1-9.4-50.1-9.4L153.1,170.4z"/>
<path class="st10" d="M248.6,138c0-4.6,3.7-8.3,8.3-8.3h5.5v3h-5.5c-2.9,0-5.3,2.4-5.3,5.3c0,2.9,2.4,5.3,5.3,5.3h5.5v3h-5.5
	C252.3,146.3,248.6,142.5,248.6,138z"/>
<path class="st6" d="M242.9,143.6c12.1,3.7,14.2-9.6,5.2-11.4c-9-1.8-11.3,5.3-11.3,5.3L242.9,143.6z"/>
<rect x="258.5" y="125.2" class="st5" width="18.3" height="24.9"/>
<path class="st2" d="M276.8,125.2c0,0,10.5,5.8,14.3-3.8s8.8,4.5,29.8,5.3s14.5-38.8,4-41s-19,1-21.5,14.3s-8.8-0.2-19.8,0
	s-5.7,6.5-8.2,14.5s-7,0.3-12.9,2.5s-1.1,8.2-1.1,8.2L276.8,125.2z"/>
<g>
	<path class="st13" d="M235.2,106.8c-9.2,0-18.5,0-27.7,0c-0.9,0-1.2-0.1-1.2-1.1c0-15.8,0-31.7,0-47.5c0-0.9,0.2-1.1,1.1-1.1
		c15.8,0,31.7,0,47.5,0c0.8,0,1.1,0,1.1,1c0,15.9,0,31.8,0,47.7c0,0.8-0.2,1-1,1c-1.2-0.1-2.4,0-3.7,0c2.1-1.1,2.8-2.8,2.7-5.2
		c-0.1-9.4,0-18.9,0-28.3c0-3.8-1.3-5-5.1-5c-4.1,0-4.1,0-4.1-4.2c0-3.7-1.3-5-4.9-5c-9,0-18.1,0-27.1,0c-3.6,0-4.9,1.3-4.9,4.8
		c0,12.2,0,24.4,0,36.5c0,3.4,1.4,4.8,4.8,4.8c6,0,11.9,0.1,17.9,0C232.3,105.2,233.9,105.5,235.2,106.8z"/>
	<path class="st14" d="M235.2,106.8c-1.3-1.3-2.9-1.6-4.7-1.6c-6,0.1-11.9,0-17.9,0c-3.4,0-4.8-1.4-4.8-4.8c0-12.2,0-24.4,0-36.5
		c0-3.5,1.3-4.8,4.9-4.8c9,0,18.1,0,27.1,0c3.6,0,4.9,1.3,4.9,5c0,4.2,0,4.2,4.1,4.2c3.8,0,5.1,1.3,5.1,5c0,9.4-0.1,18.9,0,28.3
		c0,2.3-0.6,4.1-2.7,5.2C246,106.8,240.6,106.8,235.2,106.8z M209.4,82c0,6.2,0,12.3,0,18.5c0,2.4,0.8,3.2,3.2,3.2
		c5.9,0,11.8-0.1,17.7,0c1.7,0,2.2-0.4,2.2-2.2c-0.1-9.6-0.1-19.2,0-28.8c0-2.9,1.5-4.4,4.3-4.4c0.6,0,1.3,0,1.9,0
		c4.6,0,4.6,0,4.5-4.6c0-2.3-0.8-3.1-3.1-3.1c-9.2,0-18.3,0-27.5,0c-2.5,0-3.2,0.7-3.2,3.2C209.4,69.8,209.4,75.9,209.4,82z
		 M234.1,86.5c0,3.1,0,6.3,0,9.4c0,1.1,0.1,1.6,1.4,1.6c5.2-0.1,10.5-0.1,15.8,0c1,0,1.3-0.2,1.3-1.3c0-6.3,0-12.7,0-19
		c0-1-0.4-1.3-1.3-1.3c-5.3,0-10.5,0.1-15.8,0c-1.3,0-1.5,0.5-1.4,1.6C234.1,80.5,234.1,83.5,234.1,86.5z M243.5,99.1
		c-2,0-4.1,0-6.1,0c-3.6,0-3.6,0-3.3,3.7c0.1,1.5,0.9,2.4,2.4,2.4c4.5,0,9.1,0,13.6,0c1.5,0,2.3-0.9,2.4-2.4c0-0.8,0-1.5,0-2.3
		c0.1-1.1-0.3-1.5-1.4-1.4C248.6,99.1,246,99.1,243.5,99.1z M243.3,74.4c2.4,0,4.7,0,7.1,0c2.2,0,2.7-0.5,2.1-2.7
		c-0.4-1.5-1.5-1.9-2.9-1.9c-4.2,0-8.3,0-12.5,0c-0.4,0-0.9,0-1.3,0.1c-1.8,0.6-1.8,2.1-1.7,3.6c0.1,1.6,1.4,0.8,2.1,0.8
		C238.5,74.5,240.9,74.4,243.3,74.4z"/>
	<path class="st13" d="M209.4,82c0-6.1,0-12.2,0-18.3c0-2.4,0.8-3.2,3.2-3.2c9.2,0,18.3,0,27.5,0c2.4,0,3.1,0.8,3.1,3.1
		c0.1,4.6,0.1,4.6-4.5,4.6c-0.6,0-1.3,0-1.9,0c-2.9,0.1-4.3,1.5-4.3,4.4c0,9.6-0.1,19.2,0,28.8c0,1.8-0.5,2.2-2.2,2.2
		c-5.9-0.1-11.8,0-17.7,0c-2.5,0-3.2-0.7-3.2-3.2C209.4,94.3,209.4,88.2,209.4,82z M211,80.5c0,4.8,0,9.6,0,14.4
		c0,2.3,0.3,2.6,2.5,2.6c5.3,0,10.5,0,15.8,0c0.4,0,0.9,0,1.3-0.1c0.3-0.1,0.5-0.3,0.5-0.7c0-0.3-0.2-0.6-0.6-0.7
		c-0.5-0.1-1-0.1-1.5-0.1c-4.9,0-9.9,0-14.8,0c-1.3,0-1.8-0.2-1.8-1.6c0.1-9.2,0.1-18.5,0-27.7c0-1.2,0.3-1.5,1.5-1.5
		c8.3,0,16.5,0,24.8,0c0.7,0,1.4-0.1,1.5,0.9c0,0.4,0.4,0.7,0.9,0.5c0.4-0.1,0.5-0.5,0.6-0.9c0.1-1.6-0.9-2.1-2.3-2.1
		c-8.7,0-17.4,0-26.2,0c-1.8,0-2.4,0.8-2.3,2.5C211,70.9,211,75.7,211,80.5z M227.9,100.6c-0.1-0.9-0.6-1.5-1.5-1.5
		c-1,0-1.6,0.6-1.5,1.5c0,0.9,0.6,1.4,1.4,1.5C227.3,102.1,227.8,101.5,227.9,100.6z M215.6,92.9c-0.1-0.6,0.1-1.5-0.8-1.4
		c-0.9,0-0.7,0.9-0.7,1.5c0,0.6-0.1,1.3,0.7,1.3C215.7,94.4,215.5,93.5,215.6,92.9z M219.4,92.9c-0.1-0.6,0.1-1.5-0.8-1.4
		c-0.9,0-0.7,0.9-0.8,1.5c0,0.6-0.1,1.3,0.7,1.4C219.5,94.4,219.4,93.6,219.4,92.9z M223.3,92.9c-0.1-0.6,0.1-1.5-0.8-1.4
		c-0.9,0-0.7,0.9-0.7,1.5c0,0.6-0.1,1.3,0.7,1.4C223.4,94.4,223.2,93.6,223.3,92.9z M227.1,92.9c-0.1-0.6,0.1-1.5-0.8-1.4
		c-0.9,0-0.7,0.9-0.7,1.5c0,0.6-0.1,1.3,0.7,1.4C227.2,94.4,227.1,93.6,227.1,92.9z M231,92.9c-0.1-0.6,0.1-1.5-0.8-1.4
		c-0.9,0-0.7,0.9-0.8,1.5c0,0.6-0.1,1.3,0.7,1.4C231.1,94.4,230.9,93.6,231,92.9z"/>
	<path class="st13" d="M234.1,86.5c0-3,0-6,0-9c0-1.1,0.1-1.6,1.4-1.6c5.2,0.1,10.5,0.1,15.8,0c1,0,1.3,0.3,1.3,1.3
		c0,6.3,0,12.7,0,19c0,1-0.4,1.3-1.3,1.3c-5.3,0-10.5-0.1-15.8,0c-1.3,0-1.4-0.5-1.4-1.6C234.1,92.8,234.1,89.7,234.1,86.5z"/>
	<path class="st13" d="M243.5,99.1c2.6,0,5.1,0.1,7.7,0c1.1,0,1.5,0.4,1.4,1.4c-0.1,0.8,0,1.5,0,2.3c-0.1,1.5-0.9,2.4-2.4,2.4
		c-4.5,0-9.1,0-13.6,0c-1.5,0-2.3-0.9-2.4-2.4c-0.3-3.7-0.3-3.7,3.3-3.7C239.4,99.1,241.4,99.1,243.5,99.1z M243.3,103.7
		c0.9-0.2,1.5-0.7,1.5-1.6c-0.1-0.9-0.6-1.4-1.5-1.4c-1,0-1.5,0.6-1.5,1.6C241.8,103.1,242.4,103.6,243.3,103.7z"/>
	<path class="st13" d="M243.3,74.4c-2.4,0-4.7,0.1-7.1,0c-0.7,0-2,0.7-2.1-0.8c-0.1-1.5-0.1-3,1.7-3.6c0.4-0.1,0.9-0.1,1.3-0.1
		c4.2,0,8.3,0,12.5,0c1.4,0,2.5,0.4,2.9,1.9c0.5,2.2,0.1,2.7-2.1,2.7C248,74.4,245.6,74.4,243.3,74.4z M245.1,72.9
		c0.7-0.2,1.9,0.4,1.9-0.9c0-0.9-1.1-0.7-1.7-0.7c-0.7,0-1.8-0.4-1.8,0.7C243.4,73.1,244.4,72.8,245.1,72.9z M241.7,72.1
		c-0.1-0.4-0.4-0.7-0.9-0.7c-0.5,0-1.1,0-1.2,0.6c-0.1,0.6,0.4,0.9,0.9,0.9C241,72.9,241.5,72.8,241.7,72.1z"/>
	<path class="st14" d="M211,80.5c0-4.8,0-9.6,0-14.4c0-1.7,0.6-2.5,2.3-2.5c8.7,0,17.4,0,26.2,0c1.4,0,2.4,0.4,2.3,2.1
		c0,0.4-0.2,0.8-0.6,0.9c-0.4,0.1-0.8-0.1-0.9-0.5c-0.1-1.1-0.8-0.9-1.5-0.9c-8.3,0-16.5,0-24.8,0c-1.2,0-1.5,0.3-1.5,1.5
		c0,9.2,0.1,18.5,0,27.7c0,1.4,0.5,1.7,1.8,1.6c4.9-0.1,9.9,0,14.8,0c0.5,0,1,0,1.5,0.1c0.3,0,0.5,0.3,0.6,0.7
		c0,0.4-0.2,0.6-0.5,0.7c-0.4,0.1-0.9,0.1-1.3,0.1c-5.3,0-10.5,0-15.8,0c-2.2,0-2.5-0.3-2.5-2.6C210.9,90.1,211,85.3,211,80.5z"/>
	<path class="st14" d="M227.9,100.6c-0.1,0.9-0.6,1.5-1.6,1.5c-0.9,0-1.4-0.6-1.4-1.5c0-1,0.6-1.5,1.5-1.5
		C227.3,99.1,227.7,99.7,227.9,100.6z"/>
	<path class="st14" d="M215.6,92.9c0,0.6,0.1,1.5-0.8,1.4c-0.8,0-0.7-0.8-0.7-1.3c0-0.6-0.2-1.5,0.7-1.5
		C215.7,91.4,215.5,92.3,215.6,92.9z"/>
	<path class="st14" d="M219.4,92.9c0,0.6,0.1,1.5-0.9,1.4c-0.8,0-0.7-0.8-0.7-1.4c0-0.6-0.2-1.5,0.8-1.5
		C219.6,91.5,219.4,92.3,219.4,92.9z"/>
	<path class="st14" d="M223.3,92.9c0,0.6,0.1,1.5-0.9,1.4c-0.8,0-0.7-0.8-0.7-1.4c0-0.6-0.2-1.5,0.7-1.5
		C223.4,91.5,223.2,92.3,223.3,92.9z"/>
	<path class="st14" d="M227.1,92.9c0,0.6,0.1,1.5-0.9,1.4c-0.8,0-0.7-0.8-0.7-1.4c0-0.6-0.2-1.5,0.7-1.5
		C227.3,91.5,227.1,92.3,227.1,92.9z"/>
	<path class="st14" d="M231,92.9c0,0.6,0.1,1.5-0.9,1.4c-0.8,0-0.7-0.8-0.7-1.4c0-0.6-0.2-1.5,0.8-1.5
		C231.1,91.5,230.9,92.3,231,92.9z"/>
	<path class="st14" d="M243.3,103.7c-0.9-0.1-1.5-0.6-1.5-1.4c0-1,0.5-1.6,1.5-1.6c0.9,0,1.4,0.5,1.5,1.4
		C244.8,103,244.2,103.5,243.3,103.7z"/>
	<path class="st14" d="M245.1,72.9c-0.7-0.1-1.7,0.2-1.7-0.8c0.1-1.1,1.2-0.7,1.8-0.7c0.6,0,1.7-0.3,1.7,0.7
		C247,73.3,245.8,72.7,245.1,72.9z"/>
	<path class="st14" d="M241.7,72.1c-0.2,0.8-0.7,0.8-1.2,0.8c-0.6,0-1.1-0.3-0.9-0.9c0.1-0.6,0.7-0.6,1.2-0.6
		C241.3,71.4,241.6,71.7,241.7,72.1z"/>
</g>
<g>
	<path class="st15" d="M232.5,43c0-0.2,0-0.3,0-0.5c1.1-1.7,2.4-3.8,2.2-5.6c-0.3-3.5-0.1-7-0.2-10.4c-0.1-3.1,0.9-3.9,4-4
		c4.3,0,8.6,0,13,0c3.9,0,4.5,0.7,4.6,4.7c0.1,5.2-1,10.5,1.6,15.5c0,0.1,0,0.2-0.1,0.5c-2,0-4.1,0-6.2,0c-1.2,0-2.3,0-3.2-1.2
		c-1-1.3-5.1-1.1-6.2,0.3c-0.6,0.8-1.3,0.9-2.1,0.9C237.5,43.1,235,43,232.5,43z M245.3,36.2c2.3,0,4.7,0,7,0c1.2,0,1.8-0.5,1.8-1.8
		c0-2.7,0-5.5,0-8.2c0-1.3-0.6-1.7-1.8-1.7c-4.7,0-9.3,0-14,0c-1.5,0-1.8,0.7-1.8,2c0,2.6,0.1,5.2,0,7.7c-0.1,1.6,0.7,2,2.1,2
		C240.8,36.1,243.1,36.2,245.3,36.2z"/>
	<path class="st16" d="M232.5,43c2.5,0,5,0.1,7.5,0.1c0.9,0,1.5-0.2,2.1-0.9c1.1-1.3,5.1-1.6,6.2-0.3c1,1.2,2,1.2,3.2,1.2
		c2.1,0,4.1,0,6.2,0c0.1-0.3,0.1-0.4,0.1-0.5c-2.6-4.9-1.5-10.3-1.6-15.5c-0.1-4-0.7-4.7-4.6-4.7c-4.3,0-8.6,0-13,0
		c-3.1,0-4.1,0.9-4,4c0.1,3.5-0.1,6.9,0.2,10.4c0.2,1.8-1.1,3.9-2.2,5.6c0-6.8,0-13.6,0-20.4c0-1.1,0-1.6,1.4-1.6
		c7.7,0.1,15.4,0.1,23.2,0c1.5,0,1.4,0.6,1.4,1.6c0,7.5,0,14.9,0,22.4c-1-0.5-2.1-0.4-3.2-0.4c-7.6,0-15.2-0.1-22.8-0.1
		C232.5,43.7,232.5,43.3,232.5,43z"/>
	<path class="st15" d="M232.5,44c7.6,0,15.2,0.1,22.8,0.1c1.1,0,2.2-0.1,3.2,0.4c-0.2,0.6,0.5,1.6-0.5,2c-0.7-0.8-1.7-0.4-2.6-0.4
		c-7.6-0.1-15.3-0.1-22.9-0.1C232.5,45.3,232.5,44.7,232.5,44z"/>
	<path class="st16" d="M232.5,46c7.6,0,15.3,0,22.9,0.1c0.9,0,1.8-0.4,2.6,0.4c-8,0-16,0-24,0C233.5,46.5,232.7,47.1,232.5,46z"/>
	<path class="st13" d="M245.3,36.2c-2.2,0-4.5,0-6.7,0c-1.4,0-2.2-0.4-2.1-2c0.1-2.6,0.1-5.2,0-7.7c0-1.3,0.3-2,1.8-2
		c4.7,0,9.3,0,14,0c1.2,0,1.9,0.4,1.8,1.7c0,2.7,0,5.5,0,8.2c0,1.3-0.6,1.8-1.8,1.8C250,36.2,247.6,36.2,245.3,36.2z"/>
</g>
<g>
	<path class="st17" d="M262.5,66.2c6.4,0,12.8,0,19.3,0c0.8,0,1,0.2,1,1c0,6.1,0,12.2,0,18.3c0,0.8-0.2,1-1,1c-6.1,0-12.2,0-18.3,0
		c-0.8,0-1-0.2-1-1C262.5,79.1,262.5,72.7,262.5,66.2z M273,70.1c-2.8,0.1-4.9,0.2-7,1.1c-2.4,1-2.7,2.4-2.7,4.4
		c0,0.8,0.1,1.6-0.1,2.3c-0.2,1.7,0.6,2.5,2.1,2.9c1.4,0.4,2.8,0.7,4.2,1c3.7,0.8,7.1-0.2,10.6-1.2c0.7-0.2,1.5-0.7,1.5-1.6
		c0-2,0.2-4-0.3-6c-0.1-0.6-0.4-1-1-1.3C277.6,70.9,275.2,69.4,273,70.1z"/>
	<path class="st15" d="M273,70.1c2.3-0.7,4.7,0.8,7.2,1.8c0.6,0.2,0.8,0.7,1,1.3c0.4,2,0.3,4,0.3,6c0,0.9-0.8,1.4-1.5,1.6
		c-3.4,1-6.9,2-10.6,1.2c-1.4-0.3-2.8-0.6-4.2-1c-1.4-0.4-2.3-1.2-2.1-2.9c0.1-0.8,0-1.5,0.1-2.3c0.1-2,0.4-3.4,2.7-4.4
		C268.1,70.4,270.1,70.3,273,70.1z M272.3,78.6c3.8,0,3.8,0,3.8-3.8c0-0.3,0-0.6,0-0.8c0.1-0.9-0.4-1.2-1.2-1.1
		c-1.6,0-3.2,0.1-4.8,0c-1.4-0.1-1.8,0.4-1.8,1.8C268.4,78.6,268.4,78.6,272.3,78.6z M265.8,74.1c-0.7,0.2-1.2,0.5-1.3,1.3
		c0,0.8,0.6,1.2,1.2,1.3c0.8,0.1,1.4-0.5,1.3-1.3C267,74.7,266.4,74.3,265.8,74.1z"/>
	<path class="st13" d="M272.3,78.6c-4,0-3.9,0-4-4c0-1.4,0.4-1.9,1.8-1.8c1.6,0.1,3.2,0.1,4.8,0c0.8,0,1.3,0.3,1.2,1.1
		c0,0.3,0,0.6,0,0.8C276.2,78.6,276.2,78.6,272.3,78.6z"/>
	<path class="st17" d="M265.8,74.1c0.7,0.2,1.3,0.6,1.3,1.3c0,0.8-0.6,1.4-1.3,1.3c-0.6-0.1-1.2-0.5-1.2-1.3
		C264.5,74.7,265.1,74.3,265.8,74.1z"/>
</g>
<g>
	<path class="st18" d="M330,34c0,9.8-0.1,19.6,0.1,29.4c0,2-0.2,2.7-2.5,2.6c-19.8-0.1-39.6-0.1-59.4,0c-2,0-2.2-0.6-2.2-2.4
		c0.1-19.8,0.1-39.6,0-59.4c0-2.5,1-2.4,2.8-2.4c19.6,0.1,39.3,0.1,58.9,0c2.2,0,2.5,0.6,2.5,2.6C329.9,14.4,330,24.2,330,34z
		 M298,54c7.5,0,15-0.1,22.4,0.1c2.8,0.1,3.5-0.9,3.7-3.6c0.9-11.9-3.4-22.9-5.9-34.1c-0.4-1.9-1.5-2.3-3.2-2.3
		c-11.3,0-22.6,0-33.9,0c-1.6,0-2.8,0.2-3.2,2.2c-2.4,11.1-6.8,21.9-6,33.6c0.2,3.1,0.8,4.4,4.1,4.2C283.3,53.8,290.7,54,298,54z"/>
	<path class="st14" d="M298,54c-7.3,0-14.6-0.2-21.9,0.1c-3.4,0.1-3.9-1.1-4.1-4.2c-0.8-11.8,3.6-22.5,6-33.6c0.4-2,1.6-2.2,3.2-2.2
		c11.3,0,22.6,0,33.9,0c1.7,0,2.7,0.4,3.2,2.3c2.5,11.3,6.9,22.2,5.9,34.1c-0.2,2.8-0.9,3.7-3.7,3.6C312.9,53.9,305.4,54,298,54z
		 M297.8,38c6.1,0,12.3,0,18.4,0c1.5,0,3.3,0.1,2.7-2.2c-1.5-5.8-1.8-12.3-5-16.9c-2-2.8-8.4-0.6-12.9-0.8c-1.2-0.1-2.3-0.1-3.5,0
		c-5.3,0.3-12-2.2-15.4,1c-3.3,3.1-3.1,9.8-4.5,14.9c-0.1,0.3-0.2,0.6-0.3,0.9c-0.8,2.4,0,3.3,2.5,3.2C285.8,37.9,291.8,38,297.8,38
		z M298.3,42c-6.1,0-12.3,0.2-18.4-0.1c-3.1-0.1-4,0.9-3.9,3.9c0.1,2.6,0.2,4.3,3.6,4.2c12.3-0.2,24.6-0.2,36.9,0
		c3.5,0.1,3.6-1.6,3.7-4.2c0.1-3-0.8-4.1-3.9-4C310.2,42.2,304.2,42,298.3,42z"/>
	<path class="st18" d="M297.8,38c-6,0-12-0.1-17.9,0c-2.5,0.1-3.3-0.9-2.5-3.2c0.1-0.3,0.2-0.6,0.3-0.9c1.4-5.1,1.2-11.8,4.5-14.9
		c3.4-3.2,10.1-0.7,15.4-1c1.2-0.1,2.3-0.1,3.5,0c4.4,0.3,10.9-2,12.9,0.8c3.2,4.6,3.6,11.2,5,16.9c0.6,2.4-1.2,2.2-2.7,2.2
		C310,38,303.9,38,297.8,38z"/>
	<path class="st18" d="M298.3,42c6,0,12,0.2,17.9-0.1c3.1-0.1,4,0.9,3.9,4c-0.1,2.6-0.2,4.3-3.7,4.2c-12.3-0.2-24.6-0.2-36.9,0
		c-3.5,0.1-3.5-1.6-3.6-4.2c-0.1-3,0.8-4.1,3.9-3.9C286,42.2,292.1,42,298.3,42z M282,44.1c-1.2-0.2-2,0.3-2,1.9c0,1.1,0.2,2,1.5,2
		c1.2,0,2.4,0.1,2.4-1.6C284,45.1,283.9,44,282,44.1z M288.2,44c-1.4-0.1-2.2,0.4-2.1,1.9c0,1.1,0.2,2,1.6,2c1.2,0,2.4,0,2.4-1.7
		C290,45,289.8,44,288.2,44z M295.9,45.9c0.2-1.4-0.6-1.9-2-1.9c-1.1,0-1.9,0.4-1.9,1.7c0,1.3,0.2,2.3,1.8,2.3
		C295.2,48,296.1,47.6,295.9,45.9z M302,45.9c0.1-1.6-0.9-1.9-2.2-1.8c-1.3,0-1.7,0.7-1.7,1.9c-0.1,1.4,0.5,2.1,2,2.1
		C301.5,48,302.1,47.3,302,45.9z"/>
	<path class="st14" d="M282,44.1c1.8-0.1,2,1,1.9,2.3c0,1.7-1.2,1.7-2.4,1.6c-1.3,0-1.5-1-1.5-2C280,44.4,280.8,43.9,282,44.1z"/>
	<path class="st14" d="M288.2,44c1.6-0.1,1.8,1,1.8,2.2c0,1.7-1.2,1.7-2.4,1.7c-1.3,0-1.5-0.9-1.6-2C286,44.4,286.8,43.9,288.2,44z"
		/>
	<path class="st14" d="M295.9,45.9c0.1,1.7-0.7,2.1-2.1,2.1c-1.6,0-1.8-1-1.8-2.3c0-1.3,0.8-1.7,1.9-1.7
		C295.3,44,296.1,44.5,295.9,45.9z"/>
	<path class="st14" d="M302,45.9c0.1,1.4-0.4,2.1-1.9,2.1c-1.5,0-2-0.7-2-2.1c0-1.2,0.4-1.8,1.7-1.9C301.1,44,302.1,44.2,302,45.9z"
		/>
</g>
</svg>
