<?xml version="1.0" encoding="utf-8"?>
<!-- Generator: Adobe Illustrator 22.0.1, SVG Export Plug-In . SVG Version: 6.00 Build 0)  -->
<svg version="1.1" id="Camada_1" xmlns="http://www.w3.org/2000/svg" xmlns:xlink="http://www.w3.org/1999/xlink" x="0px" y="0px"
	 viewBox="0 0 750 1980" style="enable-background:new 0 0 750 1980;" xml:space="preserve">
<style type="text/css">
	.st0{fill:#FEFEFE;}
	.st1{fill:#6D64FE;}
	.st2{fill:#7269FE;}
	.st3{fill:#F8F8FE;}
	.st4{fill:#FDFCFE;}
	.st5{fill:#FDFDFE;}
	.st6{fill:#726AFE;}
	.st7{fill:#F9F9FE;}
	.st8{fill:#766EFE;}
	.st9{fill:#FCFCFE;}
	.st10{fill:#6C63FE;}
	.st11{fill:#6E65FE;}
	.st12{fill:#8179FE;}
	.st13{fill:#6F66FE;}
	.st14{fill:#736AFE;}
	.st15{fill:#FCFBFE;}
</style>
<g>
	<path class="st0" d="M299.3,1472.3c-28.6,0-57.3,0-85.9,0.1c-2.8,0-3.8-0.3-3.8-3.7c0.1-51.1,0.1-102.2,0-153.3
		c0-3,0.7-3.4,3.4-3.4c49.1,0.1,98.2,0.1,147.3,0c2.5,0,3.5,0,3.5,3.3c-0.2,51.3-0.1,102.6,0,153.9c0,2.7-0.5,3.4-3.1,3.2
		c-3.8-0.3-7.5-0.1-11.3-0.1c6.5-3.6,8.6-9.2,8.5-16.7c-0.3-30.4-0.1-60.8-0.1-91.3c0-12.1-4-16.2-15.8-16.2
		c-12.8,0-12.8,0-12.8-13.6c0-11.9-4-16.2-15.3-16.2c-28,0-56.1,0-84.1,0c-11,0-15.2,4.3-15.2,15.6c0,39.3,0,78.6,0,118
		c0,11,4.2,15.5,14.8,15.5c18.5,0,37,0.2,55.5-0.1C290.5,1467.2,295.3,1468.2,299.3,1472.3z"/>
	<path class="st1" d="M299.3,1472.3c-4.1-4.2-8.9-5.2-14.5-5.1c-18.5,0.3-37,0.1-55.5,0.1c-10.5,0-14.8-4.4-14.8-15.5
		c0-39.3,0-78.6,0-118c0-11.3,4.2-15.6,15.2-15.6c28,0,56.1,0,84.1,0c11.3,0,15.3,4.3,15.3,16.2c0,13.6,0,13.6,12.8,13.6
		c11.9,0,15.8,4.1,15.8,16.2c0,30.4-0.2,60.8,0.1,91.3c0.1,7.6-2,13.2-8.5,16.7C332.8,1472.3,316.1,1472.3,299.3,1472.3z
		 M219.4,1392.5c0,19.9,0,39.7,0,59.6c0,7.9,2.4,10.3,10,10.3c18.3,0,36.6-0.2,54.9,0.1c5.3,0.1,6.9-1.2,6.9-7
		c-0.3-31-0.2-62.1-0.1-93.1c0-9.4,4.6-14.1,13.5-14.3c2,0,4,0,6,0c14.2,0,14.2,0,14-14.9c-0.1-7.4-2.5-9.9-9.8-9.9
		c-28.4,0-56.9,0-85.3,0c-7.7,0-10,2.4-10,10.3C219.3,1353.2,219.4,1372.9,219.4,1392.5z M295.8,1407.1c0,10.1,0.1,20.3-0.1,30.4
		c-0.1,3.4,0.4,5.2,4.4,5.1c16.3-0.2,32.6-0.2,48.9,0c3,0,4.2-0.8,4.1-4.1c-0.1-20.5-0.1-40.9,0-61.4c0-3.3-1.1-4.2-4.1-4.2
		c-16.3,0.1-32.6,0.2-48.9,0c-4-0.1-4.5,1.7-4.4,5.1C295.9,1387.7,295.8,1397.4,295.8,1407.1z M325,1447.5c-6.4,0-12.7,0-19.1,0
		c-11.2,0-11.2,0-10.2,12c0.4,4.9,2.8,7.8,7.5,7.8c14.1,0.1,28.2,0.1,42.3,0c4.7,0,7.2-3,7.5-7.8c0.1-2.5-0.1-5,0.1-7.4
		c0.3-3.4-0.8-4.7-4.3-4.6C340.9,1447.7,333,1447.5,325,1447.5z M324.3,1368c7.3,0,14.7,0,22,0c6.9,0,8.2-1.7,6.5-8.7
		c-1.2-4.8-4.6-6.2-9-6.2c-12.9,0.1-25.8,0-38.7,0c-1.4,0-2.9-0.1-4.1,0.4c-5.6,2-5.6,6.9-5.2,11.7c0.4,5,4.3,2.5,6.5,2.6
		C309.6,1368.2,317,1368,324.3,1368z"/>
	<path class="st0" d="M219.4,1392.5c0-19.7,0-39.3,0-59c0-7.9,2.3-10.3,10-10.3c28.4,0,56.9,0,85.3,0c7.3,0,9.6,2.5,9.8,9.9
		c0.2,14.9,0.2,14.9-14,14.9c-2,0-4,0-6,0c-8.9,0.2-13.5,4.9-13.5,14.3c0,31-0.2,62.1,0.1,93.1c0.1,5.8-1.6,7.1-6.9,7
		c-18.3-0.3-36.6-0.1-54.9-0.1c-7.6,0-10-2.4-10-10.3C219.3,1432.2,219.4,1412.4,219.4,1392.5z M224.1,1387.6c0,15.5,0,31,0,46.6
		c0,7.3,1,8.4,7.9,8.4c16.3,0,32.6,0,48.9,0c1.4,0,2.8,0,4.1-0.3c1-0.2,1.7-1.1,1.6-2.2c0-1.1-0.6-2.1-1.7-2.2
		c-1.6-0.2-3.2-0.2-4.7-0.2c-15.3,0-30.6-0.1-45.9,0.1c-3.9,0.1-5.5-0.6-5.5-5.3c0.2-29.8,0.2-59.6,0-89.4c0-3.8,1-4.9,4.7-4.9
		c25.7,0.2,51.3,0.1,77,0.1c2.1,0,4.4-0.5,4.7,3c0.1,1.3,1.3,2.1,2.7,1.6c1.3-0.4,1.7-1.6,1.7-3c0.2-5.3-2.7-6.7-7.2-6.6
		c-27,0.1-54.1,0.1-81.1,0c-5.5,0-7.3,2.4-7.3,7.9C224.2,1356.6,224.1,1372.1,224.1,1387.6z M276.6,1452.4c-0.4-2.8-1.9-4.7-4.6-4.7
		c-3,0-4.8,1.8-4.8,5c0,2.8,1.8,4.6,4.5,4.7C274.7,1457.4,276.3,1455.4,276.6,1452.4z M238.5,1427.7c-0.2-1.9,0.4-4.7-2.5-4.6
		c-2.8,0.1-2.2,2.9-2.3,4.8c0,1.8-0.2,4.2,2.2,4.3C238.8,1432.3,238.3,1429.7,238.5,1427.7z M250.4,1427.7c-0.2-1.9,0.4-4.7-2.4-4.7
		c-2.8,0-2.3,2.8-2.3,4.8c0,1.8-0.2,4.2,2.1,4.4C250.6,1432.4,250.3,1429.8,250.4,1427.7z M262.4,1427.7c-0.2-1.9,0.4-4.7-2.4-4.7
		c-2.8,0-2.3,2.8-2.3,4.8c0,1.8-0.2,4.2,2.1,4.4C262.6,1432.4,262.2,1429.7,262.4,1427.7z M274.3,1427.7c-0.2-1.9,0.4-4.7-2.4-4.7
		c-2.8,0-2.3,2.8-2.3,4.8c0,1.8-0.2,4.2,2.1,4.4C274.5,1432.4,274.2,1429.7,274.3,1427.7z M286.2,1427.7c-0.2-1.9,0.4-4.7-2.4-4.7
		c-2.8,0-2.3,2.8-2.3,4.8c0,1.8-0.2,4.2,2.1,4.4C286.5,1432.4,286.1,1429.8,286.2,1427.7z"/>
	<path class="st0" d="M295.8,1407.1c0-9.7,0.1-19.4-0.1-29.1c-0.1-3.5,0.4-5.2,4.4-5.1c16.3,0.2,32.6,0.2,48.9,0
		c3,0,4.2,0.8,4.1,4.2c-0.1,20.5-0.1,40.9,0,61.4c0,3.4-1.1,4.2-4.1,4.1c-16.3-0.1-32.6-0.2-48.9,0c-4,0.1-4.5-1.7-4.4-5.1
		C295.9,1427.4,295.8,1417.2,295.8,1407.1z"/>
	<path class="st0" d="M325,1447.5c7.9,0,15.9,0.2,23.8-0.1c3.5-0.1,4.6,1.2,4.3,4.6c-0.2,2.5,0,5-0.1,7.4c-0.3,4.9-2.8,7.8-7.5,7.8
		c-14.1,0.1-28.2,0.1-42.3,0c-4.7,0-7.1-3-7.5-7.8c-1-12-1-12,10.2-12C312.3,1447.5,318.7,1447.5,325,1447.5z M324.5,1462.4
		c2.8-0.5,4.7-2.1,4.6-5.3c-0.2-2.8-1.9-4.6-4.7-4.5c-3,0.1-4.8,2-4.6,5.1C319.9,1460.6,321.8,1462,324.5,1462.4z"/>
	<path class="st0" d="M324.3,1368c-7.3,0-14.7,0.2-22-0.1c-2.2-0.1-6.1,2.4-6.5-2.6c-0.4-4.9-0.4-9.8,5.2-11.7
		c1.3-0.4,2.7-0.4,4.1-0.4c12.9,0,25.8,0,38.7,0c4.5,0,7.9,1.4,9,6.2c1.7,7,0.3,8.7-6.5,8.7C339,1368,331.7,1368,324.3,1368z
		 M330.1,1363.1c2.1-0.6,5.8,1.3,5.8-2.8c0-3-3.3-2.2-5.3-2.2c-2.1,0.1-5.5-1.2-5.7,2.4C324.7,1363.7,327.9,1362.8,330.1,1363.1z
		 M319.5,1360.3c-0.3-1.3-1.2-2.2-2.8-2.3c-1.7-0.1-3.5,0-3.9,2c-0.4,2.1,1.1,2.8,2.9,2.9C317.4,1363,318.9,1362.8,319.5,1360.3z"/>
	<path class="st1" d="M224.1,1387.6c0-15.5,0.1-31-0.1-46.6c-0.1-5.5,1.8-7.9,7.3-7.9c27,0.1,54.1,0.1,81.1,0c4.5,0,7.4,1.3,7.2,6.6
		c-0.1,1.3-0.5,2.5-1.7,3c-1.4,0.5-2.6-0.4-2.7-1.6c-0.3-3.4-2.6-3-4.7-3c-25.7,0-51.3,0.1-77-0.1c-3.7,0-4.7,1.1-4.7,4.9
		c0.1,29.8,0.2,59.6,0,89.4c0,4.6,1.6,5.3,5.5,5.3c15.3-0.2,30.6-0.1,45.9-0.1c1.6,0,3.2,0,4.7,0.2c1.1,0.2,1.7,1.1,1.7,2.2
		c0,1.1-0.6,2.1-1.6,2.2c-1.4,0.3-2.8,0.3-4.1,0.3c-16.3,0-32.6,0-48.9,0c-6.9,0-7.9-1.1-7.9-8.4
		C224.1,1418.6,224.1,1403.1,224.1,1387.6z"/>
	<path class="st1" d="M276.6,1452.4c-0.4,3-1.9,5-4.9,4.9c-2.7-0.1-4.5-1.9-4.5-4.7c0-3.1,1.8-5,4.8-5
		C274.8,1447.7,276.2,1449.6,276.6,1452.4z"/>
	<path class="st1" d="M238.5,1427.7c-0.1,2,0.3,4.7-2.6,4.6c-2.4-0.1-2.2-2.5-2.2-4.3c0-2-0.5-4.7,2.3-4.8
		C238.8,1422.9,238.3,1425.7,238.5,1427.7z"/>
	<path class="st1" d="M250.4,1427.7c-0.1,2,0.2,4.7-2.7,4.5c-2.3-0.2-2.2-2.6-2.1-4.4c0-2-0.5-4.7,2.3-4.8
		C250.8,1423,250.2,1425.8,250.4,1427.7z"/>
	<path class="st1" d="M262.4,1427.7c-0.1,2,0.3,4.7-2.7,4.5c-2.4-0.2-2.2-2.6-2.1-4.4c0-2-0.5-4.7,2.3-4.8
		C262.8,1423,262.2,1425.8,262.4,1427.7z"/>
	<path class="st1" d="M274.3,1427.7c-0.1,2,0.3,4.7-2.7,4.5c-2.4-0.2-2.2-2.6-2.1-4.4c0-2-0.5-4.7,2.3-4.8
		C274.7,1423,274.1,1425.8,274.3,1427.7z"/>
	<path class="st1" d="M286.2,1427.7c-0.1,2,0.2,4.7-2.7,4.5c-2.3-0.2-2.2-2.6-2.1-4.4c0-2-0.5-4.7,2.3-4.8
		C286.6,1423,286.1,1425.8,286.2,1427.7z"/>
	<path class="st1" d="M324.5,1462.4c-2.7-0.3-4.6-1.8-4.7-4.6c-0.2-3.1,1.6-5.1,4.6-5.1c2.7-0.1,4.5,1.7,4.7,4.5
		C329.2,1460.3,327.3,1461.9,324.5,1462.4z"/>
	<path class="st1" d="M330.1,1363.1c-2.2-0.3-5.4,0.7-5.2-2.6c0.2-3.6,3.6-2.3,5.7-2.4c2-0.1,5.3-0.9,5.3,2.2
		C335.9,1364.4,332.1,1362.5,330.1,1363.1z"/>
	<path class="st1" d="M319.5,1360.3c-0.5,2.4-2.1,2.7-3.7,2.6c-1.8-0.1-3.3-0.8-2.9-2.9c0.4-2,2.2-2.1,3.9-2
		C318.3,1358.2,319.1,1359.1,319.5,1360.3z"/>
</g>
<g>
	<path class="st2" d="M241,1184c0-1.2,0-2.4,0-3.6c7.7-12.5,16.6-27.1,15.4-40.2c-2.3-25-0.9-49.8-1.6-74.6
		c-0.6-21.9,6.3-28.2,27.8-28.3c29.7-0.1,59.4-0.1,89.2,0c27,0,30.9,4.8,31.6,33.6c0.9,37.1-6.7,75.3,11.2,110.6
		c0.2,0.4-0.2,1.1-0.7,3.2c-13.9,0-28.1,0-42.3,0c-8.5,0-15.7,0.1-22.3-8.8c-7-9.4-34.8-7.5-42.3,2.1c-4.4,5.5-8.7,6.8-14.6,6.7
		C275.3,1184.4,258.1,1184.2,241,1184z M329,1135.2c16,0,32-0.2,48,0.1c8.5,0.1,12.6-3.2,12.5-12.6c-0.3-19.6-0.3-39.3,0-58.9
		c0.1-9.3-4.2-12.4-12.7-12.4c-32,0.2-64.1,0.3-96.1,0c-10.1-0.1-12.7,5-12.5,14.4c0.3,18.4,0.5,36.9-0.1,55.3
		c-0.4,11.3,4.7,14.4,14.5,14.2C298.1,1134.9,313.6,1135.2,329,1135.2z"/>
	<path class="st3" d="M241,1184c17.1,0.2,34.3,0.4,51.4,0.6c5.9,0.1,10.2-1.2,14.6-6.7c7.6-9.6,35.4-11.5,42.3-2.1
		c6.6,8.9,13.8,8.8,22.3,8.8c14.2-0.1,28.4,0,42.3,0c0.5-2.1,0.9-2.8,0.7-3.2c-17.9-35.3-10.4-73.5-11.2-110.6
		c-0.7-28.8-4.6-33.5-31.6-33.6c-29.7-0.1-59.4-0.1-89.2,0c-21.5,0.1-28.3,6.5-27.8,28.3c0.6,24.8-0.7,49.6,1.6,74.6
		c1.2,13.1-7.7,27.8-15.4,40.2c0-48.7,0.1-97.4-0.1-146.1c0-7.6,0-11.7,9.9-11.6c53.1,0.7,106.2,0.7,159.3,0
		c10-0.1,9.8,4.1,9.8,11.6c-0.2,53.5-0.1,106.9-0.1,160.4c-6.9-3.9-14.3-2.9-21.7-2.9c-52.4-0.2-104.7-0.4-157.1-0.6
		C241,1188.7,241,1186.4,241,1184z"/>
	<path class="st2" d="M241,1191.1c52.4,0.2,104.7,0.4,157.1,0.6c7.3,0,14.8-0.9,21.7,2.9c-1.7,4.6,3.7,11.1-3.4,14.3
		c-5.1-6-11.8-2.9-17.6-3c-52.6-0.4-105.1-0.5-157.7-0.6C241,1200.7,241,1195.9,241,1191.1z"/>
	<path class="st3" d="M241,1205.4c52.6,0.1,105.1,0.2,157.7,0.6c5.9,0,12.6-3.1,17.6,3c-55,0-110.1,0.1-165.1-0.2
		C248,1208.8,242.3,1213.1,241,1205.4z"/>
	<path class="st0" d="M329,1135.2c-15.4,0-30.9-0.3-46.3,0.1c-9.8,0.2-14.8-2.9-14.5-14.2c0.6-18.4,0.4-36.9,0.1-55.3
		c-0.2-9.3,2.4-14.5,12.5-14.4c32,0.3,64.1,0.3,96.1,0c8.5-0.1,12.8,3,12.7,12.4c-0.2,19.6-0.3,39.3,0,58.9
		c0.1,9.3-4,12.7-12.5,12.6C361.1,1135,345,1135.2,329,1135.2z"/>
</g>
<g>
	<path class="st4" d="M35.3,1250.1c28.5,0,57,0.1,85.4-0.1c3.7,0,4.5,0.9,4.5,4.7c-0.2,28.1-0.2,56.2,0,84.3c0,3.8-0.8,4.7-4.5,4.7
		c-27-0.2-54-0.2-81,0c-3.7,0-4.5-0.9-4.5-4.7C35.4,1309.4,35.3,1279.8,35.3,1250.1z M81.8,1268.1c-12.6,0.7-21.5,1-31.2,5.2
		c-10.6,4.6-11.8,11.1-12.2,20.2c-0.1,3.6,0.2,7.2-0.3,10.7c-1.1,7.7,2.8,11.5,9.1,13.4c6.1,1.8,12.3,3.2,18.5,4.7
		c16.2,3.8,31.5-0.9,46.8-5.5c3.2-1,6.7-3,6.7-7.3c0-9.2,0.7-18.4-1.2-27.5c-0.6-2.7-1.8-4.8-4.2-5.8
		C102.6,1271.7,91.8,1264.8,81.8,1268.1z"/>
	<path class="st2" d="M81.8,1268.1c10-3.4,20.7,3.6,32,8.2c2.5,1,3.7,3.1,4.2,5.8c1.9,9.1,1.3,18.3,1.2,27.5c0,4.3-3.5,6.3-6.7,7.3
		c-15.3,4.6-30.6,9.4-46.8,5.5c-6.2-1.5-12.4-2.9-18.5-4.7c-6.3-1.9-10.2-5.7-9.1-13.4c0.5-3.5,0.1-7.1,0.3-10.7
		c0.4-9.1,1.6-15.6,12.2-20.2C60.3,1269.1,69.3,1268.8,81.8,1268.1z M79.1,1307.3c17.1,0,17.1,0,17-17.6c0-1.3-0.1-2.6,0-3.8
		c0.3-4-1.6-5.4-5.3-5.3c-7.1,0.2-14.3,0.4-21.3-0.1c-6.1-0.4-8,1.7-7.9,8.1C61.8,1307.3,61.5,1307.3,79.1,1307.3z M49.9,1286.5
		c-3,0.9-5.4,2.5-5.6,5.9c-0.2,3.5,2.7,5.7,5.3,5.9c3.3,0.4,6-2.4,6-5.9C55.5,1289.4,53,1287.4,49.9,1286.5z"/>
	<path class="st0" d="M79.1,1307.3c-17.6,0-17.3,0-17.6-18.7c-0.1-6.4,1.8-8.6,7.9-8.1c7.1,0.5,14.2,0.2,21.3,0.1
		c3.7-0.1,5.6,1.3,5.3,5.3c-0.1,1.3,0,2.6,0,3.8C96.2,1307.3,96.2,1307.3,79.1,1307.3z"/>
	<path class="st4" d="M49.9,1286.5c3.1,0.9,5.6,2.9,5.6,5.9c0,3.5-2.6,6.3-6,5.9c-2.6-0.3-5.5-2.4-5.3-5.9
		C44.4,1289.1,46.9,1287.4,49.9,1286.5z"/>
</g>
<g>
	<path class="st5" d="M232.8,898.9c0,34.3-0.2,68.7,0.2,103c0.1,6.9-0.7,9.3-8.3,9.2c-66.6-0.4-133.2-0.4-199.7,0
		c-6.7,0-7.5-2.1-7.5-8.2c0.2-69.3,0.3-138.5-0.1-207.8c-0.1-8.7,3.3-8.2,9.3-8.2c66,0.2,132,0.3,198-0.1c7.5,0,8.5,2,8.4,9.1
		C232.6,830.2,232.8,864.6,232.8,898.9z M125.1,969c25.2,0,50.3-0.4,75.4,0.2c9.5,0.2,11.7-3,12.4-12.8c3.1-41.7-11.6-80-20-119.5
		c-1.4-6.7-5-8-10.6-8c-38,0.1-76,0.1-114,0c-5.5,0-9.4,0.8-10.8,7.7c-8.2,39-22.8,76.6-20.1,117.7c0.7,10.9,2.5,15.2,13.9,14.8
		C75.9,968.4,100.5,969,125.1,969z"/>
	<path class="st1" d="M125.1,969c-24.6,0-49.2-0.6-73.8,0.3c-11.4,0.4-13.2-4-13.9-14.8c-2.7-41.2,11.9-78.8,20.1-117.7
		c1.4-6.9,5.3-7.7,10.8-7.7c38,0.1,76,0.1,114,0c5.7,0,9.2,1.3,10.6,8c8.5,39.5,23.1,77.8,20,119.5c-0.7,9.7-2.9,13-12.4,12.8
		C175.4,968.6,150.2,969,125.1,969z M124.4,913c20.7,0,41.3,0,62,0c5,0,11.1,0.5,9.1-7.8c-4.9-20.1-6.2-43.2-17-59.2
		c-6.7-10-28.4-2-43.3-3c-3.9-0.2-7.8-0.2-11.7,0c-17.7,1-40.4-7.7-51.7,3.4c-11,10.8-10.5,34.2-15.1,52c-0.3,1.1-0.7,2.2-1,3.3
		c-2.6,8.2,0,11.5,8.5,11.3C84.2,912.7,104.3,913,124.4,913z M126.1,927c-20.7,0-41.3,0.6-62-0.2c-10.5-0.4-13.5,3.2-13.1,13.8
		c0.4,9.2,0.5,14.9,12.3,14.7c41.3-0.7,82.7-0.7,124,0c11.7,0.2,12-5.4,12.3-14.7c0.4-10.6-2.6-14.3-13.1-13.8
		C166.3,927.6,146.2,927,126.1,927z"/>
	<path class="st5" d="M124.4,913c-20.1,0-40.2-0.3-60.3,0.1c-8.5,0.2-11.2-3-8.5-11.3c0.3-1.1,0.7-2.2,1-3.3
		c4.6-17.8,4.2-41.2,15.1-52c11.3-11.1,34-2.4,51.7-3.4c3.9-0.2,7.8-0.2,11.7,0c14.9,0.9,36.6-7,43.3,3c10.8,16,12,39,17,59.2
		c2,8.3-4,7.8-9.1,7.8C165.7,913,145.1,913,124.4,913z"/>
	<path class="st5" d="M126.1,927c20.1,0,40.2,0.6,60.3-0.2c10.5-0.4,13.5,3.3,13.1,13.8c-0.3,9.3-0.6,14.9-12.3,14.7
		c-41.3-0.7-82.7-0.7-124,0c-11.7,0.2-11.9-5.5-12.3-14.7c-0.4-10.6,2.6-14.2,13.1-13.8C84.7,927.6,105.4,927,126.1,927z
		 M71.5,934.2c-4.2-0.7-6.8,1.1-6.7,6.5c0.1,3.7,0.6,7,5.1,7.1c4,0.1,8,0.3,8.2-5.7C78.1,937.7,77.7,933.9,71.5,934.2z M92.1,934.1
		c-4.7-0.5-7.3,1.4-7.2,6.7c0.1,3.8,0.8,6.9,5.3,7c4,0.1,7.9,0.1,8-5.8C98.3,937.5,97.6,933.8,92.1,934.1z M118.3,940.6
		c0.7-4.9-2.1-6.7-6.8-6.5c-3.8,0.1-6.3,1.4-6.4,5.9c-0.1,4.5,0.6,7.9,6.1,8C115.9,948,118.7,946.5,118.3,940.6z M138.5,940.5
		c0.3-5.7-3-6.5-7.4-6.4c-4.3,0.1-5.6,2.4-5.8,6.5c-0.2,5,1.6,7.4,6.7,7.4C137,947.9,139,945.5,138.5,940.5z"/>
	<path class="st1" d="M71.5,934.2c6.2-0.3,6.6,3.6,6.5,8c-0.1,6-4.2,5.8-8.2,5.7c-4.5-0.2-5-3.4-5.1-7.1
		C64.7,935.3,67.3,933.5,71.5,934.2z"/>
	<path class="st1" d="M92.1,934.1c5.5-0.3,6.1,3.3,6.1,7.9c-0.1,6-4,5.9-8,5.8c-4.4-0.1-5.2-3.2-5.3-7
		C84.8,935.5,87.4,933.7,92.1,934.1z"/>
	<path class="st1" d="M118.3,940.6c0.4,5.9-2.4,7.4-7.1,7.3c-5.4-0.1-6.2-3.4-6.1-8c0.1-4.5,2.5-5.8,6.4-5.9
		C116.2,933.9,119,935.7,118.3,940.6z"/>
	<path class="st1" d="M138.5,940.5c0.5,5-1.5,7.4-6.5,7.4c-5,0-6.9-2.4-6.7-7.4c0.1-4.1,1.5-6.4,5.8-6.5
		C135.5,934,138.8,934.8,138.5,940.5z"/>
</g>
<g>
	<path class="st5" d="M41.9,1024.2c56.3,0,112.6,0.1,168.9-0.2c6.9,0,8.5,1.6,8.5,8.8c-0.3,55.7-0.3,111.4,0,167.1
		c0,7.2-1.6,8.9-8.5,8.8c-53.5-0.3-107-0.3-160.6,0c-6.9,0-8.5-1.6-8.5-8.8C42,1141.3,41.9,1082.8,41.9,1024.2z M121,1185.6
		c18.2,0.2,31.6-5.5,43.5-15.4c5.4-4.5,6.7-8.5,0.9-13.8c-5.9-5.4-10.9-11.7-16.8-17.1c-6.4-5.9-10.6-11.1-3.2-19.9
		c4.1-4.8,1.7-11.1-2.2-15.8c-4.1-4.9-11.3-7.1-14.9-3.2c-10.7,11.6-15.3,1.2-21.4-4.8c-4.7-4.6-9.5-9.2-13.6-14.3
		c-5.5-6.8-9.8-7-15.2,0.4c-15.2,21-18.9,43.5-8.2,67.5C80.4,1172.8,99.3,1183.9,121,1185.6z M193.9,1057.7
		c-0.6-3.8-2.7-6.8-5.9-6.9c-5.1-0.2-8.2,4.4-9.7,8.6c-1.5,4.3,2.9,7.9,5.9,7.5C188.8,1066.3,191.6,1061.7,193.9,1057.7z
		 M171.8,1080.7c-0.6-3.8-2.7-6.8-5.9-6.9c-5.1-0.2-8.2,4.4-9.7,8.6c-1.5,4.3,2.9,7.9,5.9,7.5
		C166.6,1089.4,169.4,1084.8,171.8,1080.7z"/>
	<path class="st6" d="M121,1185.6c-21.7-1.7-40.6-12.8-51.1-36.3c-10.7-24-7-46.6,8.2-67.5c5.3-7.3,9.7-7.2,15.2-0.4
		c4.1,5.1,8.9,9.7,13.6,14.3c6.1,6,10.7,16.3,21.4,4.8c3.6-3.9,10.7-1.7,14.9,3.2c3.9,4.7,6.3,10.9,2.2,15.8
		c-7.4,8.8-3.1,14,3.2,19.9c5.8,5.4,10.9,11.7,16.8,17.1c5.8,5.3,4.6,9.3-0.9,13.8C152.5,1180.1,139.2,1185.7,121,1185.6z
		 M75.2,1121.8c-0.4,37.6,37.7,63.3,70,47.5c7.6-3.7,10.2-7,2.9-14.2c-15.6-15.6-30.6-31.9-46.2-47.6c-5.3-5.3-9.6-16.6-17.4-12.9
		c-7.6,3.7-8.4,15.2-9.4,24.4C75.1,1119.9,75.2,1120.8,75.2,1121.8z"/>
	<path class="st6" d="M193.9,1057.7c-2.3,4.1-5.1,8.7-9.6,9.2c-3.1,0.3-7.4-3.2-5.9-7.5c1.5-4.2,4.5-8.7,9.7-8.6
		C191.2,1050.8,193.4,1053.9,193.9,1057.7z"/>
	<path class="st6" d="M171.8,1080.7c-2.3,4.1-5.1,8.7-9.6,9.2c-3.1,0.3-7.4-3.2-5.9-7.5c1.5-4.2,4.5-8.7,9.7-8.6
		C169,1073.9,171.2,1076.9,171.8,1080.7z"/>
	<path class="st7" d="M75.2,1121.8c0-1-0.1-1.9,0-2.9c0.9-9.2,1.8-20.7,9.4-24.4c7.8-3.8,12.1,7.6,17.4,12.9
		c15.6,15.7,30.5,32,46.2,47.6c7.3,7.2,4.7,10.5-2.9,14.2C112.9,1185.1,74.8,1159.4,75.2,1121.8z"/>
</g>
<g>
	<path class="st0" d="M365,613.7c0,49.2-0.1,98.3,0.1,147.5c0,4.6-0.9,5.5-5.3,5.5c-95-0.2-190-0.2-285,0c-4.4,0-5.3-0.9-5.3-5.5
		c0.2-98.9,0.2-197.7,0-296.6c0-4.6,0.9-5.5,5.3-5.5c95,0.2,190,0.2,285,0c4.4,0,5.3,0.9,5.3,5.5C364.9,514.4,365,564.1,365,613.7z
		 M203.4,662.2c9.3-0.4,16.5-3.6,22.6-9.9c25.9-27,51.9-53.9,77.7-80.9c6.2-6.4,6.9-11.3,2.6-19.2c-1.3-2.5-1.4-3.7,0.4-5.8
		c3.2-3.7,9.5-6.4,9-11.3c-0.5-5-6.5-7.8-10-11.8c-1.1-1.3-2.4-2.6-3.6-3.8c-10-10.4-10-10.5-20.2-0.4c-2.1,2.1-3.3,3.5-6.5,0.9
		c-5.9-4.8-11.9-3.5-17.1,1.9c-26.2,27.3-52.6,54.6-78.8,82c-9.7,10.2-12.4,23.2-6.8,35.2C179.1,652.5,189.1,661.3,203.4,662.2z
		 M190.7,706c0-8.5,0-8.5-5.9-9.4c-27.2-4.1-44.1-21.6-47.7-50.2c-1.4-10.9-9-4.8-13.8-5.7c-6-1.1-4.2,4.2-3.9,7.3
		c3.2,35.2,28.4,62.1,62.1,66.6C190.8,715.9,190.8,715.9,190.7,706z M156.3,643.6c-10.9,0-11.3,0.4-8.7,11
		c4.5,19.1,16.4,30.4,34.6,34.5c2.8,0.6,7.1,3,8.5-2.5c2-7.8-0.2-14.2-5.2-15.4c-10.8-2.6-18.6-9.2-20.5-20.5
		C163.7,643.9,160.8,642.8,156.3,643.6z"/>
	<path class="st8" d="M203.4,662.2c-14.3-0.9-24.3-9.7-30.7-23.1c-5.6-12-2.9-25,6.8-35.2c26.2-27.4,52.5-54.7,78.8-82
		c5.3-5.5,11.2-6.8,17.1-1.9c3.2,2.6,4.4,1.1,6.5-0.9c10.2-10.1,10.2-10,20.2,0.4c1.2,1.3,2.5,2.5,3.6,3.8c3.4,4,9.5,6.8,10,11.8
		c0.5,5-5.8,7.6-9,11.3c-1.8,2.1-1.8,3.4-0.4,5.8c4.3,7.9,3.5,12.8-2.6,19.2c-25.9,27-51.8,54-77.7,80.9
		C219.9,658.6,212.7,661.8,203.4,662.2z M176.1,626.9c1,12.6,7.8,21.3,18.5,26.5c10.3,5,19.7,2.1,27.6-6.1
		c25.6-26.6,51.1-53.2,76.8-79.7c4.8-4.9,5.3-9.4,0.3-14.4c-8.4-8.6-16.8-17.3-25-26.1c-4.4-4.7-8.3-4.2-12.6,0.3
		c-25.9,27-51.8,54-77.7,80.9C178.9,613.4,176.7,619.6,176.1,626.9z M291,513.1c-3.1,3.6-6.5,6.9-9,10.8c-1.6,2.5,1.6,3.7,2.9,5.2
		c3.1,3.6,6.5,6.9,9.8,10.3c7.9,8.2,8,8.1,15.5-0.9c2.1-2.5,2.2-4.1,0-6.3c-5.1-5.1-10.1-10.5-15.1-15.7
		C294.2,515.6,293.2,514.9,291,513.1z"/>
	<path class="st8" d="M190.7,706c0,9.9,0,9.9-9.2,8.7c-33.7-4.5-58.9-31.4-62.1-66.6c-0.3-3.1-2.1-8.4,3.9-7.3
		c4.7,0.9,12.4-5.2,13.8,5.7c3.6,28.5,20.5,46.1,47.7,50.2C190.7,697.6,190.7,697.6,190.7,706z M182.8,711.4
		c2.4,0.2,5.2,0.6,4.9-3.9c-0.2-3.4,1.1-7.4-4.5-7.5c-2.9-0.1-5.8-1-8.6-2c-22.9-7.8-36.8-23.9-40.5-48.8c-0.9-6.1-4.1-5.7-8.1-5.6
		c-5.2,0.3-3.2,4.3-3,6.8C125.3,681,154.2,710.6,182.8,711.4z"/>
	<path class="st8" d="M156.3,643.6c4.6-0.8,7.4,0.3,8.6,7c2,11.4,9.7,17.9,20.5,20.5c5,1.2,7.2,7.6,5.2,15.4
		c-1.4,5.5-5.6,3.1-8.5,2.5c-18.3-4.1-30.1-15.4-34.6-34.5C145,644,145.4,643.6,156.3,643.6z M155.4,646.9c-4.9-0.9-6.2,0.7-5,6.2
		c3.5,16.3,15.6,29.4,30.8,32.2c2.1,0.4,5.8,3.3,6.2-1.5c0.3-3.6,2.4-8.4-4.4-9.9c-11.5-2.6-18.9-10.7-21.5-22.6
		C160.7,647.1,158.8,646.4,155.4,646.9z"/>
	<path class="st9" d="M176.1,626.9c0.6-7.3,2.8-13.5,7.8-18.7c25.9-26.9,51.9-53.9,77.7-80.9c4.3-4.5,8.1-5,12.6-0.3
		c8.2,8.8,16.6,17.5,25,26.1c5,5.1,4.4,9.5-0.3,14.4c-25.6,26.5-51.2,53.2-76.8,79.7c-7.9,8.2-17.3,11.1-27.6,6.1
		C183.9,648.2,177.1,639.5,176.1,626.9z M201.9,607.2c16.1,4.3,21.2,10.4,18.6,21.2c-1.9,7.9-9.7,12.6-17.8,10.7
		c-9.7-2.3-11.9-9.8-7.9-27.4c-6.9,4.4-8.6,13.3-4.1,21.7c4.6,8.6,14.8,11.9,23.6,7.6c8.3-4.1,12.3-14.2,9.1-23.2
		C220.1,608.7,211.7,604.1,201.9,607.2z M215,618.1c-5.1-6.1-11.1-6.9-15.8-2.9c-4.5,3.8-5.4,10.9-2,15.8c3.7,5.4,10.5,6.7,15.5,3
		c4.9-3.6,5.8-7.9,2.8-12.9c-2.4,9.4-5.9,13.2-11.2,11.4c-4.5-1.6-6.8-5-5.8-10C199.7,616.3,204.4,615,215,618.1z"/>
	<path class="st9" d="M291,513.1c2.2,1.9,3.2,2.6,4,3.5c5,5.2,10,10.5,15.1,15.7c2.3,2.3,2.1,3.9,0,6.3c-7.5,9-7.6,9.1-15.5,0.9
		c-3.3-3.4-6.7-6.8-9.8-10.3c-1.3-1.5-4.6-2.8-2.9-5.2C284.5,520,287.9,516.6,291,513.1z"/>
	<path class="st9" d="M182.8,711.4c-28.5-0.9-57.5-30.5-59.8-60.8c-0.2-2.5-2.2-6.6,3-6.8c4-0.2,7.2-0.6,8.1,5.6
		c3.7,24.8,17.6,41,40.5,48.8c2.8,0.9,5.7,1.9,8.6,2c5.6,0.1,4.3,4.1,4.5,7.5C188,712.1,185.1,711.7,182.8,711.4z"/>
	<path class="st9" d="M155.4,646.9c3.4-0.5,5.2,0.2,6.2,4.4c2.6,11.9,10,20,21.5,22.6c6.8,1.5,4.7,6.3,4.4,9.9
		c-0.4,4.8-4.2,1.9-6.2,1.5c-15.2-2.8-27.2-15.9-30.8-32.2C149.2,647.6,150.5,646,155.4,646.9z"/>
	<path class="st8" d="M201.9,607.2c9.8-3.2,18.2,1.4,21.4,10.6c3.2,9.1-0.7,19.1-9.1,23.2c-8.8,4.3-19,1-23.6-7.6
		c-4.5-8.4-2.8-17.3,4.1-21.7c-4,17.5-1.8,25.1,7.9,27.4c8.1,1.9,15.9-2.8,17.8-10.7C223.1,617.7,218,611.5,201.9,607.2z"/>
	<path class="st8" d="M215,618.1c-10.6-3.2-15.3-1.8-16.5,4.3c-1,5,1.3,8.5,5.8,10c5.3,1.8,8.8-1.9,11.2-11.4c3,5,2.1,9.3-2.8,12.9
		c-5,3.7-11.8,2.4-15.5-3c-3.4-4.9-2.4-12.1,2-15.8C203.9,611.2,209.9,612,215,618.1z"/>
</g>
<g>
	<path class="st0" d="M340.2,904.1c-26.7,0-53.5,0-80.2,0.1c-2,0-2.5-0.4-2.5-2.6c0.1-55.7,0.1-111.3,0-167c0-2.4,0.7-2.7,2.7-2.7
		c53.6,0.1,107.2,0.1,160.8,0c2.1,0,2.7,0.5,2.7,2.7c-0.1,55.5-0.1,111.1,0,166.6c0,2.6-0.7,2.9-2.9,2.9
		C393.9,904,367,904.1,340.2,904.1z M340.9,753.5c-16.5,0-33.1,0-49.6,0c-8.6,0-12.5,4-12.5,12.8c0,34.5,0,69,0,103.6
		c0,8.6,3.9,12.7,12.2,12.7c33.2,0,66.4,0,99.5,0c8.3,0,12.3-4.1,12.3-12.6c0-34.6,0-69.3,0-103.9c0-8.4-4-12.5-12.1-12.5
		C374.2,753.5,357.6,753.5,340.9,753.5z"/>
	<path class="st10" d="M340.9,753.5c16.6,0,33.3,0,49.9,0c8.1,0,12,4.1,12.1,12.5c0,34.6,0,69.3,0,103.9c0,8.6-4,12.6-12.3,12.6
		c-33.2,0-66.4,0-99.5,0c-8.3,0-12.2-4.1-12.2-12.7c0-34.5,0-69,0-103.6c0-8.8,3.9-12.8,12.5-12.8
		C307.8,753.5,324.4,753.5,340.9,753.5z M341.1,757.8c-16.6,0-33.3,0-49.9,0c-6.1,0-8.1,2.1-8.1,8.3c0,34.6,0,69.3,0,103.9
		c0,5.9,2.2,8.2,7.9,8.2c33.3,0,66.6,0,99.9,0c5.8,0,7.9-2.2,7.9-8.2c0-34.6,0-69.3,0-103.9c0-6.2-2.1-8.3-8.1-8.3
		C374.1,757.8,357.6,757.8,341.1,757.8z"/>
	<path class="st0" d="M341.1,757.8c16.5,0,33.1,0,49.6,0c6,0,8.1,2.1,8.1,8.3c0,34.6,0,69.3,0,103.9c0,5.9-2.2,8.2-7.9,8.2
		c-33.3,0-66.6,0-99.9,0c-5.8,0-7.9-2.2-7.9-8.2c0-34.6,0-69.3,0-103.9c0-6.2,2.1-8.3,8.1-8.3C307.8,757.8,324.4,757.8,341.1,757.8z
		 M324.4,785.7c-3.7,0-7.3,0-11,0c-3.4,0-4.8,2.7-2.9,5.8c0.9,1.5,2.1,2.9,3.3,4.1c6.2,6,10.3,12.9,8.5,22.2c-0.3,1.5,0.2,2.4,2,2.4
		c1.7,0,2.2-0.6,2.1-2.3c-0.1-2.3,0.2-4.6-0.1-6.8c-0.4-3.7,0.7-6.6,3.3-9.2c2.8-3,5.2-6.4,7.9-9.4c1.4-1.6,1.7-3.4,1-5.3
		c-0.6-1.9-2.4-1.4-3.9-1.4C331.3,785.7,327.8,785.7,324.4,785.7z M367.8,802.6c0,5,0,10,0,15c0,1.6,0.1,2.7,2.2,2.6
		c1.8,0,2-0.9,2-2.4c0-9.9,0-19.8,0-29.7c0-1.5-0.2-2.4-2-2.4c-2,0-2.2,0.9-2.2,2.6C367.8,793,367.8,797.8,367.8,802.6z
		 M363.6,807.2c0-3.6-0.1-7.1,0-10.7c0.1-1.8-0.7-2.2-2.2-2.2c-1.5,0-2,0.6-2,2.1c0.1,7.1,0.1,14.3,0,21.4c0,1.6,0.3,2.4,2.1,2.4
		c1.7,0,2.2-0.6,2.1-2.3C363.6,814.3,363.6,810.8,363.6,807.2z M355.3,811.6c0-2-0.1-4,0-6.1c0.1-1.7-0.2-2.7-2.2-2.6
		c-1.8,0-2,0.9-2,2.4c0.1,4.2,0.1,8.3,0,12.5c0,1.5,0.2,2.4,2,2.4c2,0,2.3-0.9,2.2-2.6C355.3,815.6,355.3,813.6,355.3,811.6z
		 M347.2,815.8C347.1,815.8,347.1,815.8,347.2,815.8c-0.1-0.5-0.1-1-0.1-1.4c0.1-1.7,0.1-3-2.2-2.9c-2.2,0.1-1.9,1.4-1.9,2.8
		c0,1.4,0,2.8,0,4.3c0,1,0.3,1.6,1.3,1.6c0.9-0.1,2.1,0.5,2.5-0.5C347.2,818.5,347.1,817.1,347.2,815.8z M314,770.7
		c-0.1-1.2-0.7-2-1.9-2.1c-1.3-0.1-2.2,0.7-2.2,2.1c0,1.2,0.7,2,1.9,2.1C313.1,772.9,313.8,772,314,770.7z M322.3,770.8
		c-0.1-1.2-0.7-2.1-1.8-2.2c-1.3-0.1-2.2,0.6-2.2,2c-0.1,1.2,0.7,2,1.8,2.1C321.3,772.9,322.1,772.1,322.3,770.8z M328.4,768.6
		c-1.1,0.2-1.9,0.8-1.9,2.1c0,1.4,0.8,2.2,2.1,2.2c1.3-0.1,2.1-1,1.9-2.4C330.4,769.2,329.6,768.6,328.4,768.6z M338.8,770.7
		c-0.1-1.2-0.8-2-1.9-2.1c-1.3-0.1-2.1,0.7-2.1,2.1c0,1.2,0.7,2,1.9,2.1C338,772.8,338.7,772,338.8,770.7z M345.1,768.6
		c-1.2,0-2,0.6-2.1,1.8c-0.2,1.4,0.5,2.3,1.9,2.4c1.3,0.1,2.1-0.7,2.1-2.1C347,769.4,346.3,768.8,345.1,768.6z M355.3,770.7
		c-0.1-1.2-0.7-2.1-1.9-2.1c-1.3-0.1-2.2,0.7-2.2,2.1c0,1.2,0.7,2,1.8,2.1C354.4,772.9,355.2,772.1,355.3,770.7z M363.6,770.5
		c-0.2-1-0.8-1.9-2-1.9c-1.3,0-2.1,0.8-2.1,2.2c0,1.2,0.8,2,1.9,2C362.8,772.8,363.5,772,363.6,770.5z M371.9,770.8
		c0-1.3-0.7-2.1-1.8-2.2c-1.3-0.2-2.2,0.6-2.3,2c-0.1,1.2,0.6,2,1.8,2.2C370.9,772.9,371.6,772.1,371.9,770.8z M378,772.9
		c1-0.1,1.9-0.6,2-1.8c0.2-1.4-0.5-2.3-1.9-2.4c-1.2-0.1-2,0.6-2.1,1.8C375.9,771.7,376.6,772.5,378,772.9z M388.4,770.8
		c0-1.3-0.7-2.1-1.8-2.2c-1.3-0.2-2.2,0.6-2.3,2c-0.1,1.2,0.6,2,1.8,2.2C387.4,772.9,388.2,772.1,388.4,770.8z M295.4,777.1
		c-1,0.1-1.8,0.6-2,1.9c-0.2,1.4,0.5,2.3,1.9,2.4c1.3,0.1,2.1-0.7,2.1-2.1C297.4,778,296.7,777.4,295.4,777.1z M388.4,779.3
		c-0.2-1.2-0.8-2-2-2.1c-1.3,0-2.1,0.8-2.1,2.2c0,1.2,0.8,2,1.9,2C387.6,781.4,388.3,780.6,388.4,779.3z M297.4,787.8
		c-0.2-1.2-0.9-2-2-2c-1.3,0-2.1,0.9-2,2.2c0.1,1.2,0.8,2,2,1.9C296.7,790,297.4,789.1,297.4,787.8z M388.4,787.8
		c-0.1-1-0.7-1.9-1.8-2c-1.3-0.1-2.2,0.6-2.3,2c-0.1,1.2,0.6,2,1.8,2.2C387.5,790.1,388.2,789.3,388.4,787.8z M297.4,796.7
		c0-1.3-0.6-2.1-1.7-2.3c-1.3-0.2-2.2,0.5-2.3,1.9c-0.1,1.2,0.6,2.1,1.7,2.2C296.4,798.8,297.2,798,297.4,796.7z M388.4,796.6
		c-0.1-1.2-0.7-2.1-1.9-2.1c-1.3-0.1-2.2,0.7-2.2,2.1c0,1.2,0.7,2,1.8,2.1C387.5,798.7,388.2,797.9,388.4,796.6z M295.4,807.3
		c1.3-0.2,2.1-1,2-2.4c-0.1-1.2-0.9-1.9-2.1-1.9c-1.2,0-1.9,0.8-2,2C293.3,806.4,294.1,807.1,295.4,807.3z M295.2,772.8
		c1.2,0,2-0.6,2.2-1.8c0.2-1.4-0.5-2.3-1.8-2.4c-1.2-0.1-2,0.6-2.1,1.8C293.2,771.7,293.9,772.5,295.2,772.8z M384.3,805.2
		c0.2,1.3,1,2.1,2.3,2c1.1-0.1,1.8-1,1.8-2.2c-0.1-1.4-1-2.1-2.3-2C385,803.2,384.4,804,384.3,805.2z M297.4,813.8
		c-0.1-1.2-0.7-2.1-1.8-2.2c-1.3-0.1-2.2,0.6-2.2,2c-0.1,1.2,0.7,2,1.8,2.1C296.5,815.9,297.2,815.1,297.4,813.8z M305.7,770.7
		c-0.1-1.2-0.7-2-1.9-2.1c-1.3-0.1-2.2,0.7-2.2,2.1c0,1.2,0.7,2,1.9,2.1C304.9,772.9,305.6,772,305.7,770.7z M388.4,813.7
		c-0.2-1.2-0.8-2-2-2.1c-1.3,0-2.1,0.8-2.1,2.2c0,1.2,0.8,2,1.9,2C387.6,815.9,388.3,815,388.4,813.7z M295.4,820.2
		c-1.2,0.1-1.9,0.8-2,2c-0.1,1.4,0.7,2.3,2,2.3c1.3,0,2.1-0.9,2-2.3C297.3,820.9,296.5,820.3,295.4,820.2z M386.2,820.2
		c-1.1,0.2-1.9,0.9-1.9,2.1c0,1.4,0.8,2.2,2.2,2.1c1.3-0.1,2-1,1.9-2.4C388.2,820.8,387.4,820.2,386.2,820.2z M295.4,833.1
		c1.3-0.2,2.1-0.9,2-2.3c-0.1-1.2-0.8-1.9-2-1.9c-1.2,0-1.9,0.7-2,1.9C293.3,832.1,294.1,832.9,295.4,833.1z M303.6,828.8
		c-1.1,0.2-1.9,0.8-1.9,2.1c0,1.4,0.8,2.2,2.1,2.2c1.3-0.1,2.1-1,1.9-2.4C305.5,829.5,304.7,828.8,303.6,828.8z M314,830.6
		c-0.3-1-0.8-1.8-2-1.8c-1.3,0-2.1,0.9-2,2.3c0.1,1.2,0.8,2,2,1.9C313.3,833,313.9,832.1,314,830.6z M322.3,831.1
		c0-1.3-0.6-2.1-1.7-2.3c-1.3-0.2-2.2,0.5-2.3,1.9c-0.1,1.2,0.6,2.1,1.7,2.2C321.2,833.2,322,832.4,322.3,831.1z M330.5,830.9
		c-0.2-1.2-0.8-2-2-2.1c-1.3,0-2.1,0.8-2.1,2.2c0,1.2,0.8,2,1.9,2C329.7,833.1,330.4,832.2,330.5,830.9z M338.8,830.6
		c-0.3-1-0.8-1.8-2-1.8c-1.3,0-2.1,0.9-2,2.3c0.1,1.2,0.8,2,2,1.9C338.1,833,338.7,832.1,338.8,830.6z M344.8,828.8
		c-1.1,0.2-1.9,0.9-1.9,2.1c0,1.4,0.8,2.2,2.2,2.1c1.3-0.1,2-1,1.9-2.4C346.8,829.4,346,828.8,344.8,828.8z M355.4,830.8
		c-0.2-1-0.7-1.9-1.9-2c-1.3-0.1-2.2,0.6-2.2,2c-0.1,1.2,0.7,2,1.8,2.1C354.4,833.1,355.1,832.3,355.4,830.8z M361.6,833.1
		c1.3-0.2,2.1-1,2-2.4c-0.1-1.2-0.9-1.9-2.1-1.9c-1.2,0-1.9,0.8-2,2C359.5,832.2,360.3,832.9,361.6,833.1z M371.9,830.9
		c-0.2-1.2-0.8-2-2-2.1c-1.3,0-2.1,0.8-2.1,2.2c0,1.2,0.8,2,1.9,2C371.1,833.1,371.7,832.2,371.9,830.9z M378.1,833.1
		c1.3-0.2,2.1-0.9,2-2.3c-0.1-1.2-0.8-1.9-2-1.9c-1.2,0-1.9,0.7-2,1.9C376,832.1,376.8,832.9,378.1,833.1z M386.3,833.1
		c1-0.1,1.9-0.6,2-1.8c0.2-1.4-0.5-2.3-1.9-2.4c-1.2-0.1-2,0.6-2.1,1.8C384.2,832,384.9,832.8,386.3,833.1z M297.4,863.2
		c-0.1-1.2-0.7-2-1.9-2.1c-1.3-0.1-2.2,0.7-2.2,2.1c0,1.2,0.7,2,1.9,2.1C296.6,865.4,297.3,864.5,297.4,863.2z M305.7,863.3
		c-0.1-1.3-0.7-2.1-1.8-2.2c-1.3-0.1-2.2,0.6-2.3,2c-0.1,1.2,0.6,2,1.8,2.2C304.8,865.4,305.5,864.6,305.7,863.3z M311.8,865.3
		c1.2,0,2-0.7,2.1-1.9c0.1-1.4-0.6-2.3-1.9-2.4c-1.2-0.1-2,0.6-2.1,1.8C309.8,864.3,310.5,865.1,311.8,865.3z M322.3,863.1
		c-0.2-1.2-0.8-2-2-2c-1.3,0-2.1,0.8-2.1,2.2c0,1.2,0.8,2,1.9,2C321.5,865.3,322.1,864.5,322.3,863.1z M330.5,863.1
		c-0.2-1.2-0.8-2-2-2c-1.3,0-2.1,0.8-2.1,2.2c0,1.2,0.8,2,1.9,2C329.7,865.3,330.4,864.5,330.5,863.1z"/>
	<path class="st11" d="M324.4,785.7c3.4,0,6.9,0,10.3,0c1.4,0,3.3-0.5,3.9,1.4c0.6,1.8,0.4,3.7-1,5.3c-2.7,3.1-5.1,6.5-7.9,9.4
		c-2.5,2.7-3.7,5.5-3.3,9.2c0.2,2.2,0,4.5,0.1,6.8c0.1,1.7-0.5,2.3-2.1,2.3c-1.8,0-2.3-0.8-2-2.4c1.8-9.3-2.3-16.2-8.5-22.2
		c-1.2-1.2-2.4-2.6-3.3-4.1c-1.9-3-0.5-5.7,2.9-5.8C317.1,785.7,320.7,785.7,324.4,785.7z M314.9,790.3c2.5,3,4.6,5.5,7,8.3
		C322.7,788.1,323.1,790,314.9,790.3z M326.5,799c2.6-3.2,4.8-5.8,7.1-8.6c-7.4-1-7.4-1-7.3,6.1C326.4,797.1,326.5,797.6,326.5,799z
		"/>
	<path class="st10" d="M367.8,802.6c0-4.8,0-9.5,0-14.3c0-1.7,0.2-2.6,2.2-2.6c1.8,0,2,0.9,2,2.4c0,9.9,0,19.8,0,29.7
		c0,1.5-0.2,2.4-2,2.4c-2,0-2.2-1-2.2-2.6C367.8,812.6,367.8,807.6,367.8,802.6z"/>
	<path class="st10" d="M363.6,807.2c0,3.6-0.1,7.1,0,10.7c0,1.7-0.5,2.3-2.1,2.3c-1.8,0-2.1-0.8-2.1-2.4c0.1-7.1,0.1-14.3,0-21.4
		c0-1.5,0.4-2.1,2-2.1c1.6,0,2.3,0.4,2.2,2.2C363.5,800.1,363.6,803.6,363.6,807.2z"/>
	<path class="st10" d="M355.3,811.6c0,2-0.1,4,0,6.1c0.1,1.7-0.2,2.6-2.2,2.6c-1.8,0-2-0.9-2-2.4c0.1-4.2,0.1-8.3,0-12.5
		c0-1.5,0.2-2.4,2-2.4c2,0,2.2,1,2.2,2.6C355.3,807.5,355.3,809.5,355.3,811.6z"/>
	<path class="st10" d="M347.2,815.8c-0.1,1.3,0,2.7-0.4,3.8c-0.4,1-1.6,0.4-2.5,0.5c-1.1,0.1-1.4-0.6-1.3-1.6c0-1.4,0-2.8,0-4.3
		c0-1.4-0.3-2.8,1.9-2.8c2.3-0.1,2.3,1.2,2.2,2.9C347.1,814.9,347.1,815.3,347.2,815.8C347.1,815.8,347.1,815.8,347.2,815.8z"/>
	<path class="st12" d="M314,770.7c-0.2,1.3-0.9,2.2-2.2,2.1c-1.2-0.1-1.9-0.9-1.9-2.1c0-1.4,0.8-2.2,2.2-2.1
		C313.3,768.7,313.9,769.5,314,770.7z"/>
	<path class="st12" d="M322.3,770.8c-0.2,1.3-0.9,2.2-2.3,2c-1.1-0.1-1.9-0.9-1.8-2.1c0.1-1.4,0.9-2.2,2.2-2
		C321.6,768.7,322.2,769.5,322.3,770.8z"/>
	<path class="st12" d="M328.4,768.6c1.2,0,2,0.7,2.1,1.9c0.1,1.4-0.6,2.3-1.9,2.4c-1.3,0.1-2.1-0.8-2.1-2.2
		C326.5,769.4,327.2,768.7,328.4,768.6z"/>
	<path class="st12" d="M338.8,770.7c-0.1,1.3-0.8,2.2-2.2,2.1c-1.2-0.1-1.9-0.8-1.9-2.1c0-1.4,0.8-2.2,2.1-2.1
		C338,768.6,338.7,769.4,338.8,770.7z"/>
	<path class="st12" d="M345.1,768.6c1.1,0.2,1.9,0.9,1.9,2.1c0,1.4-0.8,2.2-2.1,2.1c-1.3-0.1-2-1-1.9-2.4
		C343.1,769.2,344,768.6,345.1,768.6z"/>
	<path class="st12" d="M355.3,770.7c-0.2,1.3-0.9,2.2-2.2,2c-1.2-0.1-1.9-0.9-1.8-2.1c0-1.4,0.9-2.2,2.2-2.1
		C354.6,768.7,355.2,769.5,355.3,770.7z"/>
	<path class="st12" d="M363.6,770.5c-0.1,1.5-0.8,2.4-2.1,2.3c-1.2,0-1.9-0.8-1.9-2c0-1.4,0.7-2.2,2.1-2.2
		C362.8,768.6,363.4,769.4,363.6,770.5z"/>
	<path class="st12" d="M371.9,770.8c-0.2,1.3-1,2.1-2.3,2c-1.1-0.1-1.8-1-1.8-2.2c0.1-1.4,1-2.1,2.3-2
		C371.2,768.7,371.8,769.6,371.9,770.8z"/>
	<path class="st12" d="M378,772.9c-1.4-0.3-2.1-1.1-1.9-2.5c0.2-1.2,1-1.9,2.1-1.8c1.3,0.1,2,1,1.9,2.4
		C379.9,772.2,379.1,772.8,378,772.9z"/>
	<path class="st12" d="M388.4,770.8c-0.2,1.3-1,2.1-2.3,2c-1.1-0.1-1.8-1-1.8-2.2c0.1-1.4,1-2.1,2.3-2
		C387.8,768.7,388.4,769.6,388.4,770.8z"/>
	<path class="st12" d="M295.4,777.1c1.3,0.2,2,0.9,2,2.1c0,1.4-0.8,2.2-2.1,2.1c-1.3-0.1-2-1-1.9-2.4
		C293.5,777.8,294.4,777.2,295.4,777.1z"/>
	<path class="st12" d="M388.4,779.3c-0.1,1.3-0.8,2.2-2.2,2.1c-1.2,0-1.9-0.8-1.9-2c0-1.4,0.8-2.2,2.1-2.2
		C387.6,777.2,388.3,778,388.4,779.3z"/>
	<path class="st12" d="M297.4,787.8c-0.1,1.3-0.7,2.2-2.1,2.2c-1.2,0-1.9-0.7-2-1.9c-0.1-1.4,0.7-2.2,2-2.2
		C296.6,785.8,297.2,786.6,297.4,787.8z"/>
	<path class="st12" d="M388.4,787.8c-0.2,1.5-1,2.3-2.3,2.2c-1.1-0.1-1.9-0.9-1.8-2.2c0.1-1.4,0.9-2.1,2.3-2
		C387.8,785.9,388.3,786.8,388.4,787.8z"/>
	<path class="st12" d="M297.4,796.7c-0.3,1.3-1,2.1-2.4,1.9c-1.1-0.2-1.8-1-1.7-2.2c0.1-1.4,1-2.1,2.3-1.9
		C296.9,794.6,297.4,795.4,297.4,796.7z"/>
	<path class="st12" d="M388.4,796.6c-0.2,1.3-0.9,2.2-2.2,2c-1.2-0.1-1.9-0.9-1.8-2.1c0-1.4,0.9-2.2,2.2-2.1
		C387.7,794.5,388.3,795.3,388.4,796.6z"/>
	<path class="st12" d="M295.4,807.3c-1.3-0.2-2.1-0.9-2.1-2.3c0.1-1.2,0.8-1.9,2-2c1.2,0,2,0.7,2.1,1.9
		C297.5,806.3,296.7,807,295.4,807.3z"/>
	<path class="st12" d="M295.2,772.8c-1.3-0.3-2-1.1-1.8-2.5c0.2-1.2,1-1.9,2.1-1.8c1.3,0.1,2,1,1.8,2.4
		C297.2,772.2,296.4,772.8,295.2,772.8z"/>
	<path class="st12" d="M384.3,805.2c0-1.3,0.6-2.1,1.8-2.2c1.3-0.2,2.2,0.6,2.3,2c0.1,1.2-0.6,2-1.8,2.2
		C385.3,807.4,384.5,806.6,384.3,805.2z"/>
	<path class="st12" d="M297.4,813.8c-0.2,1.3-0.9,2.2-2.3,2c-1.1-0.1-1.9-0.9-1.8-2.1c0.1-1.4,0.9-2.2,2.2-2
		C296.8,811.7,297.4,812.5,297.4,813.8z"/>
	<path class="st12" d="M305.7,770.7c-0.2,1.3-0.9,2.2-2.2,2.1c-1.2-0.1-1.9-0.9-1.9-2.1c0-1.4,0.8-2.2,2.2-2.1
		C305,768.7,305.6,769.5,305.7,770.7z"/>
	<path class="st12" d="M388.4,813.7c-0.1,1.3-0.8,2.2-2.2,2.1c-1.2,0-1.9-0.8-1.9-2c0-1.4,0.8-2.2,2.1-2.2
		C387.6,811.6,388.3,812.4,388.4,813.7z"/>
	<path class="st12" d="M295.4,820.2c1.2,0.1,2,0.7,2,1.9c0.1,1.4-0.7,2.3-2,2.3c-1.3,0-2.1-0.9-2-2.3
		C293.4,820.9,294.2,820.3,295.4,820.2z"/>
	<path class="st12" d="M386.2,820.2c1.2,0,2,0.6,2.2,1.8c0.2,1.4-0.5,2.3-1.9,2.4c-1.3,0.1-2.1-0.7-2.2-2.1
		C384.3,821.1,385.1,820.4,386.2,820.2z"/>
	<path class="st12" d="M295.4,833.1c-1.3-0.2-2.1-0.9-2-2.3c0.1-1.2,0.9-1.9,2-1.9c1.2,0,1.9,0.7,2,1.9
		C297.5,832.2,296.7,832.9,295.4,833.1z"/>
	<path class="st12" d="M303.6,828.8c1.2,0,2,0.7,2.1,1.9c0.1,1.4-0.6,2.3-1.9,2.4c-1.3,0.1-2.1-0.8-2.1-2.2
		C301.7,829.6,302.4,829,303.6,828.8z"/>
	<path class="st12" d="M314,830.6c-0.1,1.5-0.7,2.4-2.1,2.4c-1.2,0-1.9-0.7-2-1.9c-0.1-1.4,0.7-2.2,2-2.3
		C313.2,828.8,313.7,829.6,314,830.6z"/>
	<path class="st12" d="M322.3,831.1c-0.3,1.3-1,2.1-2.4,1.9c-1.1-0.2-1.8-1-1.7-2.2c0.1-1.4,1-2.1,2.3-1.9
		C321.7,829,322.2,829.9,322.3,831.1z"/>
	<path class="st12" d="M330.5,830.9c-0.1,1.3-0.8,2.2-2.2,2.1c-1.2,0-1.9-0.8-1.9-2c0-1.4,0.8-2.2,2.1-2.2
		C329.7,828.9,330.4,829.6,330.5,830.9z"/>
	<path class="st12" d="M338.8,830.6c-0.1,1.5-0.7,2.4-2.1,2.4c-1.2,0-1.9-0.7-2-1.9c-0.1-1.4,0.7-2.2,2-2.3
		C338,828.8,338.5,829.6,338.8,830.6z"/>
	<path class="st12" d="M344.8,828.8c1.2,0,2,0.6,2.2,1.8c0.2,1.4-0.5,2.3-1.9,2.4c-1.3,0.1-2.1-0.7-2.2-2.1
		C343,829.7,343.7,829,344.8,828.8z"/>
	<path class="st12" d="M355.4,830.8c-0.2,1.5-1,2.3-2.3,2.2c-1.1-0.1-1.9-0.9-1.8-2.1c0.1-1.4,0.9-2.2,2.2-2
		C354.7,828.9,355.2,829.8,355.4,830.8z"/>
	<path class="st12" d="M361.6,833.1c-1.3-0.2-2.1-0.9-2.1-2.3c0.1-1.2,0.8-1.9,2-2c1.2,0,2,0.7,2.1,1.9
		C363.7,832.1,362.9,832.9,361.6,833.1z"/>
	<path class="st12" d="M371.9,830.9c-0.1,1.3-0.8,2.2-2.2,2.1c-1.2,0-1.9-0.8-1.9-2c0-1.4,0.8-2.2,2.1-2.2
		C371.1,828.9,371.7,829.6,371.9,830.9z"/>
	<path class="st12" d="M378.1,833.1c-1.3-0.2-2.1-0.9-2-2.3c0.1-1.2,0.9-1.9,2-1.9c1.2,0,1.9,0.7,2,1.9
		C380.2,832.2,379.4,832.9,378.1,833.1z"/>
	<path class="st12" d="M386.3,833.1c-1.4-0.3-2.1-1.1-1.9-2.5c0.2-1.2,1-1.9,2.1-1.8c1.3,0.1,2,1,1.9,2.4
		C388.2,832.5,387.3,833,386.3,833.1z"/>
	<path class="st12" d="M297.4,863.2c-0.2,1.3-0.9,2.2-2.2,2.1c-1.2-0.1-1.9-0.9-1.9-2.1c0-1.4,0.8-2.2,2.2-2.1
		C296.7,861.2,297.3,862,297.4,863.2z"/>
	<path class="st12" d="M305.7,863.3c-0.2,1.3-1,2.1-2.3,2c-1.1-0.1-1.9-0.9-1.8-2.2c0.1-1.4,0.9-2.2,2.3-2
		C305,861.2,305.7,862,305.7,863.3z"/>
	<path class="st12" d="M311.8,865.3c-1.3-0.2-2-1-1.9-2.4c0.1-1.2,0.9-1.9,2.1-1.8c1.3,0.1,2.1,1,1.9,2.4
		C313.8,864.6,313,865.3,311.8,865.3z"/>
	<path class="st12" d="M322.3,863.1c-0.1,1.3-0.8,2.2-2.1,2.2c-1.2,0-1.9-0.8-1.9-2c0-1.4,0.7-2.2,2.1-2.2
		C321.5,861.1,322.1,861.9,322.3,863.1z"/>
	<path class="st12" d="M330.5,863.1c-0.1,1.3-0.8,2.2-2.1,2.2c-1.2,0-1.9-0.8-1.9-2c0-1.4,0.7-2.2,2.1-2.2
		C329.7,861.1,330.4,861.9,330.5,863.1z"/>
	<path class="st0" d="M314.9,790.3c8.2-0.3,7.8-2.2,7,8.3C319.5,795.8,317.4,793.3,314.9,790.3z"/>
	<path class="st0" d="M326.5,799c-0.1-1.3-0.1-1.9-0.1-2.4c-0.1-7.1-0.1-7.1,7.3-6.1C331.4,793.2,329.2,795.8,326.5,799z"/>
</g>
<g>
	<path class="st5" d="M102.3,472.7c-23.3,0-46.6-0.1-69.8,0.1c-3.5,0-4.6-0.5-4.6-4.6c0.2-48.7,0.2-97.4,0-146.1
		c0-3.9,1-4.2,4.3-4.2c46.8,0.1,93.6,0.1,140.4,0c3.2,0,4.3,0.3,4.3,4.2c-0.2,48.9-0.2,97.9,0,146.9c0,3.4-0.9,3.8-3.9,3.8
		C149.4,472.7,125.9,472.7,102.3,472.7z M98.5,354.3c-10.5,0.1-21.1,0.1-31.6,0.4c-17.4,0.5-32.1,15.6-33,33.6
		c-1.1,22.5,14.3,39.1,36.7,39.3c21.1,0.2,42.1-0.2,63.2,0.2c16.4,0.3,27.9,12.8,28.3,29.8c0.1,2.5,0,5.1,0,7.6c0,2-0.1,4.2,2.7,4.4
		c3.5,0.2,3-2.4,3.2-4.6c2-27.3-13.1-44.1-39.6-44.1c-20.6-0.1-41.2,0.2-61.7-0.1c-14.7-0.3-26.5-13.3-27-28.9
		c-0.5-15.8,10.9-30,25.7-30.9c11-0.6,22,0,33,0.1c3.4,3.3,9.7,3.6,9.6,10.6c0,1.4,3,1.1,4.7,1.1c15.4,0,30.9-0.1,46.3,0.1
		c4.3,0.1,6.3-1.1,6.1-6c-0.3-6.1-0.3-12.2,0-18.3c0.2-4.4-1-7-5.7-6.2c-8,1.3-14.8-2-21.4-6.1c-3.8-2.4-7.7-4.5-11.5-6.7
		c-1.8-1.1-3.6-1.7-5,0.7c-1.6,2.7,0.4,3.6,2.1,4.6c3.6,2.1,7.2,4.2,10.7,6.4c-6.8,1.2-12.9,1.2-19,1.2c-4.4,0-9.3-1-8.8,6.4
		c0.2,2.4-1.7,2.7-3.6,2.7C101,351.6,98.8,351.3,98.5,354.3z"/>
	<path class="st13" d="M98.5,354.3c0.3-2.9,2.5-2.6,4.4-2.7c1.9,0,3.8-0.4,3.6-2.7c-0.5-7.4,4.4-6.4,8.8-6.4c6.1,0,12.2,0,19-1.2
		c-3.6-2.1-7.2-4.2-10.7-6.4c-1.7-1-3.7-1.9-2.1-4.6c1.4-2.4,3.2-1.7,5-0.7c3.9,2.2,7.8,4.3,11.5,6.7c6.6,4.1,13.4,7.4,21.4,6.1
		c4.7-0.8,5.9,1.7,5.7,6.2c-0.3,6.1-0.3,12.2,0,18.3c0.3,4.9-1.8,6-6.1,6c-15.4-0.2-30.9-0.1-46.3-0.1c-1.7,0-4.7,0.3-4.7-1.1
		c0-7-6.2-7.3-9.6-10.6C98.5,358.9,98.5,356.6,98.5,354.3z"/>
	<path class="st8" d="M98.5,354.3c0,2.3,0.1,4.6,0.1,6.9c-11-0.1-22.1-0.8-33-0.1c-14.8,0.9-26.2,15.1-25.7,30.9
		c0.5,15.6,12.3,28.6,27,28.9c20.6,0.4,41.2,0.1,61.7,0.1c26.5,0.1,41.5,16.9,39.6,44.1c-0.2,2.3,0.3,4.9-3.2,4.6
		c-2.9-0.2-2.7-2.4-2.7-4.4c0-2.5,0-5.1,0-7.6c-0.4-17-11.9-29.5-28.3-29.8c-21.1-0.4-42.1,0-63.2-0.2
		c-22.5-0.2-37.8-16.8-36.7-39.3c0.9-18.1,15.5-33.1,33-33.6C77.4,354.4,87.9,354.4,98.5,354.3z"/>
</g>
<g>
	<path class="st5" d="M121.2,1488c-16.7,0-33.4-0.1-50.1,0.1c-3.3,0-4.4-0.4-4.4-4.2c0.2-33.4,0.1-66.7,0.1-100.1
		c0-2.9-0.3-4.7,3.9-4.6c33.6,0.2,67.3,0.2,101,0c4.2,0,3.9,1.7,3.9,4.6c-0.1,33.4-0.1,66.7,0.1,100.1c0,3.8-1,4.2-4.4,4.2
		C154.6,1487.9,137.9,1488,121.2,1488z M103.7,1404.4c0-3,0-6,0-9c0-2.4-0.2-4.4-3.5-4.4c-3.4,0.1-3.2,2.3-3.3,4.5
		c-0.1,6.3,1.2,12.8-5.2,17.4c-1.2,0.9-1.5,3.6-1.4,5.4c0.8,16.4,1.7,32.8,2.8,49.1c0.5,6.9,4.5,10.5,11.6,10.5
		c10.3,0,20.6-0.1,30.9,0c7.5,0.1,11.5-3.8,12-11c1.1-16.1,2.2-32.2,2.7-48.3c0.3-9.1-6.3-16-14.2-17.3c-4.6-0.8-7.3,4.1-12.4,3.3
		C117.5,1403.6,111,1404.4,103.7,1404.4z"/>
	<path class="st14" d="M103.7,1404.4c7.3,0,13.8-0.8,20,0.3c5.1,0.9,7.7-4,12.4-3.3c8,1.3,14.5,8.3,14.2,17.3
		c-0.4,16.1-1.6,32.2-2.7,48.3c-0.5,7.1-4.5,11.1-12,11c-10.3-0.1-20.6,0-30.9,0c-7,0-11.1-3.6-11.6-10.5c-1.1-16.4-2-32.8-2.8-49.1
		c-0.1-1.8,0.2-4.6,1.4-5.4c6.3-4.6,5-11.2,5.2-17.4c0-2.3-0.1-4.5,3.3-4.5c3.3-0.1,3.5,2,3.5,4.4
		C103.7,1398.4,103.7,1401.4,103.7,1404.4z M119.8,1471.2c4.7,0,9.5-0.2,14.2,0c4.5,0.2,6.6-1.4,6.8-6.1c0.8-14.4,1.7-28.8,2.9-43.2
		c0.5-5.7-2.1-8.2-7.2-9.2c-10.7-2.3-21.5-2.3-32.2-0.1c-5.7,1.1-7.8,4.1-7.3,9.9c0.9,9.4,1.3,18.8,1.7,28.3
		C99.6,1471.2,99.5,1471.2,119.8,1471.2z"/>
	<path class="st15" d="M119.8,1471.2c-20.3,0-20.2,0-21.1-20.4c-0.4-9.4-0.8-18.9-1.7-28.3c-0.5-5.8,1.6-8.8,7.3-9.9
		c10.8-2.1,21.5-2.1,32.2,0.1c5.1,1.1,7.6,3.6,7.2,9.2c-1.2,14.4-2.1,28.8-2.9,43.2c-0.3,4.7-2.4,6.3-6.8,6.1
		C129.3,1471.1,124.6,1471.2,119.8,1471.2z M120.4,1421.1c-3,0-6.1,0-9.1,0c-2.5,0-4.4,0.3-4.2,3.6c0.1,2.7,1.6,3.1,3.8,3.1
		c6.4,0,12.7,0,19.1,0c2.1,0,3.7-0.4,3.8-3.1c0.1-3.2-1.7-3.6-4.2-3.6C126.5,1421.1,123.4,1421.1,120.4,1421.1z M119.9,1437.8
		c3.3,0,6.6,0,10,0c2.1,0,3.7-0.4,3.8-3.1c0.1-2.5-1-3.6-3.4-3.6c-6.6,0-13.3,0-19.9,0c-2.4,0-3.4,1.1-3.4,3.5
		c0.1,2.7,1.6,3.2,3.8,3.1C113.9,1437.8,116.9,1437.8,119.9,1437.8z M120.2,1447.8c3.3,0,6.6,0,10,0c2.3,0,3.5-0.9,3.5-3.4
		c0-2.6-1.4-3.3-3.7-3.3c-6.6,0-13.3,0-19.9,0c-2,0-3,0.9-3.1,3c-0.1,2.3,0.7,3.7,3.2,3.7C113.6,1447.8,116.9,1447.8,120.2,1447.8z"
		/>
	<path class="st14" d="M120.4,1421.1c3,0,6.1,0,9.1,0c2.5,0,4.3,0.4,4.2,3.6c-0.1,2.7-1.7,3.1-3.8,3.1c-6.4,0-12.7,0-19.1,0
		c-2.2,0-3.7-0.5-3.8-3.1c-0.1-3.2,1.8-3.6,4.2-3.6C114.3,1421.1,117.3,1421.1,120.4,1421.1z"/>
	<path class="st14" d="M119.9,1437.8c-3,0-6.1,0-9.1,0c-2.2,0-3.7-0.5-3.8-3.1c-0.1-2.5,0.9-3.6,3.4-3.5c6.6,0,13.3,0,19.9,0
		c2.4,0,3.4,1.1,3.4,3.6c-0.1,2.7-1.7,3.1-3.8,3.1C126.6,1437.8,123.3,1437.8,119.9,1437.8z"/>
	<path class="st14" d="M120.2,1447.8c-3.3,0-6.6,0-10,0c-2.5,0-3.3-1.3-3.2-3.7c0.1-2.1,1.1-3,3.1-3c6.6,0,13.3,0,19.9,0
		c2.2,0,3.6,0.6,3.7,3.3c0,2.6-1.2,3.4-3.5,3.4C126.9,1447.8,123.6,1447.8,120.2,1447.8z"/>
</g>
<g>
	<path class="st0" d="M112.9,1681c-20.2,0-40.3,0-60.5,0c-2.4,0-3.6,0.1-3.5-3.1c0.2-40.7,0.1-81.3,0-122c0-2.6,0.8-3,3.1-3
		c40.7,0.1,81.3,0.1,122,0c2.6,0,3,0.8,3,3.1c-0.1,40.7-0.1,81.3,0,122c0,2.6-0.8,3-3.1,3C153.6,1681,133.3,1681,112.9,1681z
		 M113,1669c14.3,0,28.7,0.1,43,0c5.9,0,9.1-3,8.9-8.9c-0.2-5.4,1.5-11-1.7-16.1c-0.5-0.8-0.3-1.6,0.2-2.3c1.9-2.7,1.2-5.8,1.6-8.7
		c1-6.9-1.6-13.5-0.4-20.7c2.2-13.3,0.5-26.5-7.7-38.1c-0.6-0.8-1-1.7-1.4-2.7c-2-4.7-5.4-6.6-10.6-6.6c-17.7,0.2-35.3,0-53,0.1
		c-20.8,0.1-16.8-2.7-26.4,16.3c-1.9,3.8-4.9,7.5-4.5,12c0.6,8.4-2,17,1.8,25.1c0.2,0.5-0.1,1.3-0.3,1.8c-2.5,7.1-2.5,14.2,0,21.3
		c0.3,0.8,0.7,1.5,0.2,2.3c-3.1,4.7-1.5,10.1-1.7,15.1c-0.2,7.1,2.8,9.9,9.9,9.9C85,1669,99,1669,113,1669z"/>
	<path class="st1" d="M113,1669c-14,0-28,0-42,0c-7.2,0-10.2-2.8-9.9-9.9c0.1-5.1-1.4-10.4,1.7-15.1c0.5-0.8,0.1-1.5-0.2-2.3
		c-2.5-7.1-2.5-14.2,0-21.3c0.2-0.6,0.5-1.4,0.3-1.8c-3.9-8.1-1.2-16.7-1.8-25.1c-0.3-4.5,2.6-8.2,4.5-12
		c9.6-19.1,5.6-16.2,26.4-16.3c17.7-0.1,35.3,0.1,53-0.1c5.2-0.1,8.6,1.8,10.6,6.6c0.4,0.9,0.8,1.9,1.4,2.7
		c8.2,11.6,9.9,24.8,7.7,38.1c-1.2,7.2,1.4,13.8,0.4,20.7c-0.4,2.9,0.3,6-1.6,8.7c-0.5,0.7-0.8,1.5-0.2,2.3
		c3.2,5.1,1.5,10.7,1.7,16.1c0.2,5.9-3,8.9-8.9,8.9C141.6,1669.1,127.3,1669,113,1669z M112.4,1593c15,0,29.9-0.1,44.9,0.1
		c3.6,0,4-1,2.5-3.9c-2.8-5.5-5.5-11-8.2-16.5c-1.3-2.7-3.4-3.7-6.4-3.7c-21.5,0.1-42.9,0.1-64.4,0c-3.3,0-5.3,1.2-6.7,4
		c-2.4,5.1-4.8,10.2-7.5,15.2c-2,3.6-1.9,5,2.9,4.9C83.8,1592.8,98.1,1593,112.4,1593z M113,1597c-11.3,0-22.7,0-34,0
		c-15.3,0-15.2,0-14.1,15.2c0.3,3.3,1.8,4.8,5,4.8c28.6,0,57.3,0,85.9,0c3.6,0,5.1-1.8,5.1-5.3c-0.1-3.2-0.3-6.4,0.1-9.5
		c0.4-4-0.8-5.4-5.1-5.3C141.7,1597.2,127.3,1597,113,1597z M113.5,1645c-12,0-24,0-35.9,0c-13.7-0.1-12.6-0.8-12.6,12.7
		c0,6.7,0.6,7.3,7.5,7.3c25,0,49.9,0,74.9,0c15.1,0,13.4,1.4,13.7-13.7c0.1-4.8-2-6.4-6.6-6.4C140.8,1645.1,127.2,1645,113.5,1645z
		 M113,1621c-11.8,0-23.6,0-35.4,0c-13.7-0.1-12.6-0.8-12.5,12.8c0,6.5,0.7,7.2,7.1,7.2c25.3,0,50.6,0,75.9,0c14.3,0,13,1.1,13-13.3
		c0-5.9-0.8-6.7-6.6-6.7C140.6,1621,126.8,1621,113,1621z"/>
	<path class="st5" d="M112.4,1593c-14.3,0-28.6-0.2-42.9,0.1c-4.8,0.1-4.9-1.3-2.9-4.9c2.7-5,5.1-10.1,7.5-15.2c1.4-2.9,3.4-4,6.7-4
		c21.5,0.1,42.9,0.1,64.4,0c3,0,5.1,0.9,6.4,3.7c2.7,5.5,5.4,11.1,8.2,16.5c1.5,2.9,1.1,4-2.5,3.9
		C142.4,1592.9,127.4,1593,112.4,1593z M104.6,1577c8.2,0,16.3,0,24.5,0c1.5,0,3.4,0.2,3.6-1.8c0.2-2.4-2-2.2-3.6-2.2
		c-16,0-32,0-47.9,0c-1.6,0-3.8-0.4-3.8,2c0,2.4,2.3,2,3.8,2C89,1577,96.8,1577,104.6,1577z M142.5,1577
		C142.5,1577,142.5,1577,142.5,1577c1.2,0,2.3,0.1,3.5,0c1.4,0,2.8-0.4,2.7-2.1c-0.1-1.4-1.3-1.8-2.5-1.8c-2.2,0-4.3,0-6.5,0
		c-1.3,0-2.4,0.4-2.5,1.9c-0.1,1.5,1,2,2.3,2C140.5,1577,141.5,1577,142.5,1577z"/>
	<path class="st5" d="M113,1597c14.3,0,28.7,0.2,43-0.1c4.3-0.1,5.5,1.3,5.1,5.3c-0.3,3.1-0.1,6.3-0.1,9.5c0.1,3.5-1.5,5.3-5.1,5.3
		c-28.6,0-57.3,0-85.9,0c-3.2,0-4.8-1.5-5-4.8C63.8,1597,63.8,1597,79,1597C90.4,1597,101.7,1597,113,1597z M147.3,1601
		c-3.6,0.3-6,2.1-6.2,5.8c-0.1,3.7,2,6,5.7,6.1c3.7,0.2,6-2,6.1-5.7C153.1,1603.5,150.8,1601.6,147.3,1601z M128.4,1609
		c2.3,0,4.1,0,6,0c1.3,0,2.4-0.5,2.3-2c0-1.4-1.2-1.9-2.4-1.9c-1.8,0-3.7-0.3-5.5,0c-2.6,0.4-7.2-1.6-7.2,1.7
		C121.6,1611,126.4,1608,128.4,1609z M77,1606.9c-0.1-1.6,0.2-3.8-2.2-3.6c-2,0.1-1.8,2.1-1.8,3.5c0,1.6-0.4,3.8,1.9,3.8
		C77.4,1610.7,76.9,1608.5,77,1606.9z M87,1607.1c-0.1-1.6,0.3-3.8-2-3.8c-2.4,0-1.9,2.3-1.9,3.8c0,1.5-0.2,3.4,1.8,3.5
		C87.2,1610.8,86.9,1608.7,87,1607.1z M93,1606.8c0.1,1.6-0.4,3.7,1.9,3.9c2.1,0.2,2.1-1.7,2.1-3.2c-0.1-1.7,0.6-4.1-2.1-4.2
		C92.9,1603.3,93.1,1605.3,93,1606.8z M103,1606.8c0.1,1.6-0.4,3.7,1.9,3.9c2.1,0.2,2.1-1.7,2.1-3.2c-0.1-1.7,0.6-4.1-2.1-4.2
		C102.9,1603.3,103.1,1605.3,103,1606.8z M113,1607c0.1,1.6-0.2,3.8,2.2,3.7c2-0.1,1.9-2,1.8-3.5c0-1.6,0.4-3.8-1.9-3.9
		C112.7,1603.2,113.1,1605.5,113,1607z"/>
	<path class="st5" d="M113.5,1645c13.6,0,27.3,0.1,40.9-0.1c4.6-0.1,6.7,1.5,6.6,6.4c-0.2,15.1,1.4,13.7-13.7,13.7
		c-25,0-49.9,0-74.9,0c-7,0-7.5-0.6-7.5-7.3c0-13.5-1.1-12.8,12.6-12.7C89.6,1645,101.6,1645,113.5,1645z M146.6,1661
		c3.6-0.2,6.1-2,6.3-5.7c0.2-3.7-1.9-6-5.5-6.3c-3.7-0.2-6,1.8-6.3,5.5C140.8,1658.3,143.1,1660.3,146.6,1661z M128.4,1657
		c2.3,0,4.1,0,6,0c1.3,0,2.4-0.5,2.3-2c0-1.4-1.2-1.9-2.4-1.9c-1.8,0-3.7-0.3-5.5,0c-2.6,0.4-7.2-1.6-7.2,1.7
		C121.6,1659,126.4,1656,128.4,1657z M73,1654.8c0.1,1.6-0.4,3.7,1.9,3.9c2.1,0.2,2.1-1.7,2.1-3.2c-0.1-1.7,0.6-4.1-2.1-4.2
		C72.9,1651.3,73.1,1653.3,73,1654.8z M87,1655c-0.1-1.6,0.3-3.8-2.2-3.7c-2,0.1-1.9,2-1.8,3.5c0,1.6-0.4,3.8,1.9,3.9
		C87.3,1658.8,86.9,1656.6,87,1655z M97,1655c-0.1-1.6,0.2-3.8-2.2-3.7c-2,0.1-1.9,2-1.8,3.5c0,1.6-0.4,3.8,1.9,3.9
		C97.3,1658.8,96.9,1656.6,97,1655z M107,1654.9c-0.1-1.6,0.2-3.8-2.2-3.6c-2.3,0.2-1.7,2.4-1.8,4c0,1.5-0.1,3.4,1.9,3.4
		C107.4,1658.7,106.9,1656.5,107,1654.9z M117,1654.8c-0.2-1.3,0.4-3.6-2.1-3.5c-2.4,0-1.9,2.3-1.9,3.8c0,1.5-0.2,3.4,1.8,3.5
		C117.2,1658.9,116.9,1656.7,117,1654.8z"/>
	<path class="st5" d="M113,1621c13.8,0,27.6,0,41.4,0c5.8,0,6.6,0.9,6.6,6.7c0,14.4,1.3,13.3-13,13.3c-25.3,0-50.6,0-75.9,0
		c-6.4,0-7.1-0.7-7.1-7.2c0-13.6-1.2-12.9,12.5-12.8C89.3,1621,101.2,1621,113,1621z M147,1625c-3.6,0.5-5.9,2.3-5.9,6
		c0,3.7,2.2,5.9,5.9,5.9c3.7,0,5.9-2.2,5.9-5.9C152.9,1627.3,150.6,1625.5,147,1625z M128.5,1633c2.3,0,4.1,0,6,0
		c1.3,0,2.4-0.5,2.3-2c-0.1-1.4-1.2-1.9-2.5-1.9c-1.8,0-3.7-0.3-5.5,0c-2.6,0.4-7.2-1.7-7.2,1.8C121.6,1635,126.4,1632,128.5,1633z
		 M87,1631c-0.1-1.6,0.3-3.8-2.1-3.7c-2.3,0.1-1.9,2.3-1.9,3.9c0,1.5-0.2,3.4,1.8,3.5C87.3,1634.8,86.9,1632.7,87,1631z M97,1631.2
		c-0.1-1.6,0.4-3.8-1.9-3.9c-2.4-0.1-2.1,2.1-2.1,3.7c0,1.6-0.3,3.8,2.1,3.7C97.1,1634.6,96.9,1632.7,97,1631.2z M103,1630.9
		c0.1,1.6-0.3,3.7,2.1,3.8c2,0,2-1.9,1.9-3.4c0-1.6,0.5-3.8-1.8-4C102.8,1627.1,103.1,1629.3,103,1630.9z M117,1630.8
		c-0.2-1.3,0.3-3.6-2.1-3.5c-2.4,0-1.9,2.3-1.9,3.8c0,1.5-0.2,3.4,1.8,3.5C117.2,1634.8,116.9,1632.7,117,1630.8z M77,1630.8
		c-0.1-1.5,0.1-3.4-1.9-3.5c-2.4-0.1-2.1,2.1-2.1,3.7c0,1.6-0.3,3.8,2.1,3.7C77.4,1634.6,76.9,1632.4,77,1630.8z"/>
	<path class="st1" d="M104.6,1577c-7.8,0-15.6,0-23.5,0c-1.6,0-3.8,0.4-3.8-2c0-2.4,2.2-2,3.8-2c16,0,32,0,47.9,0
		c1.6,0,3.8-0.2,3.6,2.2c-0.1,2-2.1,1.8-3.6,1.8C120.9,1577,112.8,1577,104.6,1577z"/>
	<path class="st1" d="M142.5,1577c-1,0-2,0-3,0c-1.3-0.1-2.4-0.6-2.3-2c0.1-1.4,1.2-1.8,2.5-1.9c2.2,0,4.3,0,6.5,0
		c1.3,0,2.4,0.4,2.5,1.8c0.1,1.8-1.3,2.1-2.7,2.1C144.8,1577,143.7,1577,142.5,1577C142.5,1577,142.5,1577,142.5,1577z"/>
	<path class="st1" d="M147.3,1601c3.5,0.6,5.8,2.5,5.6,6.3c-0.2,3.7-2.5,5.8-6.1,5.7c-3.6-0.2-5.8-2.5-5.7-6.1
		C141.2,1603.1,143.6,1601.3,147.3,1601z M144.9,1606.8c0,1.4,0.6,2.2,2,2.3c1.1,0.1,1.9-0.5,2.1-1.6c0.2-1.3-0.3-2.3-1.7-2.5
		C146,1604.8,145.1,1605.4,144.9,1606.8z"/>
	<path class="st1" d="M128.4,1609c-2-0.9-6.8,2-6.8-2.2c0-3.4,4.7-1.3,7.2-1.7c1.8-0.3,3.6-0.1,5.5,0c1.3,0,2.4,0.5,2.4,1.9
		c0,1.5-1.1,1.9-2.3,2C132.6,1609,130.7,1609,128.4,1609z"/>
	<path class="st1" d="M77,1606.9c-0.1,1.6,0.3,3.8-2,3.8c-2.4,0-1.9-2.3-1.9-3.8c0-1.5-0.2-3.4,1.8-3.5
		C77.2,1603.1,76.9,1605.3,77,1606.9z"/>
	<path class="st1" d="M87,1607.1c-0.1,1.6,0.2,3.8-2.2,3.6c-2-0.1-1.8-2.1-1.8-3.5c0-1.6-0.4-3.8,1.9-3.8
		C87.3,1603.3,86.9,1605.5,87,1607.1z"/>
	<path class="st1" d="M93,1606.8c0.1-1.5-0.1-3.5,1.8-3.5c2.7,0,2.1,2.5,2.1,4.2c0.1,1.5,0,3.4-2.1,3.2
		C92.6,1610.5,93.1,1608.4,93,1606.8z"/>
	<path class="st1" d="M103,1606.8c0.1-1.5-0.1-3.5,1.8-3.5c2.7,0,2.1,2.5,2.1,4.2c0.1,1.5,0,3.4-2.1,3.2
		C102.6,1610.5,103.1,1608.4,103,1606.8z"/>
	<path class="st1" d="M113,1607c0.1-1.6-0.3-3.8,2.1-3.7c2.3,0.1,1.9,2.3,1.9,3.9c0,1.5,0.2,3.4-1.8,3.5
		C112.7,1610.8,113.1,1608.7,113,1607z"/>
	<path class="st1" d="M146.6,1661c-3.5-0.7-5.7-2.7-5.5-6.4c0.3-3.7,2.6-5.7,6.3-5.5c3.6,0.2,5.8,2.6,5.5,6.3
		C152.7,1659.1,150.2,1660.8,146.6,1661z M149.2,1654.9c-0.1-1-0.6-2-2-2c-1.4-0.1-2.2,0.5-2.3,1.9c-0.1,1.4,0.6,2.2,1.9,2.3
		C148.2,1657.2,149,1656.6,149.2,1654.9z"/>
	<path class="st1" d="M128.4,1657c-2-0.9-6.8,2-6.8-2.2c0-3.4,4.7-1.3,7.2-1.7c1.8-0.3,3.6-0.1,5.5,0c1.3,0,2.4,0.5,2.4,1.9
		c0.1,1.5-1.1,2-2.3,2C132.6,1657,130.7,1657,128.4,1657z"/>
	<path class="st1" d="M73,1654.8c0.1-1.5-0.1-3.5,1.8-3.5c2.7,0,2.1,2.5,2.1,4.2c0.1,1.5,0,3.4-2.1,3.2
		C72.6,1658.5,73.1,1656.4,73,1654.8z"/>
	<path class="st1" d="M87,1655c-0.1,1.6,0.3,3.8-2.1,3.7c-2.3-0.1-1.8-2.3-1.9-3.9c0-1.5-0.2-3.4,1.8-3.5
		C87.3,1651.2,86.9,1653.4,87,1655z"/>
	<path class="st1" d="M97,1655c-0.1,1.6,0.3,3.8-2.1,3.7c-2.3-0.1-1.9-2.3-1.9-3.9c0-1.5-0.2-3.4,1.8-3.5
		C97.3,1651.2,96.9,1653.4,97,1655z"/>
	<path class="st1" d="M107,1654.9c-0.1,1.6,0.3,3.7-2.1,3.8c-2,0-2-1.9-1.9-3.4c0-1.6-0.5-3.8,1.8-4
		C107.2,1651.1,106.9,1653.3,107,1654.9z"/>
	<path class="st1" d="M117,1654.8c-0.1,1.9,0.2,4-2.2,3.9c-2-0.1-1.8-2.1-1.8-3.5c0-1.6-0.4-3.8,1.9-3.8
		C117.4,1651.3,116.8,1653.6,117,1654.8z"/>
	<path class="st1" d="M147,1625c3.6,0.5,5.9,2.3,5.9,6.1c0,3.7-2.3,5.9-5.9,5.9c-3.6,0-5.9-2.3-5.9-5.9
		C141.1,1627.2,143.5,1625.4,147,1625z M149.1,1630.8c-0.2-1.3-0.9-2-2.3-1.8c-1.2,0.1-1.8,0.8-1.8,1.9c-0.1,1.4,0.6,2.2,2.1,2.2
		C148.4,1633.1,149.1,1632.3,149.1,1630.8z"/>
	<path class="st1" d="M128.5,1633c-2-0.9-6.8,2-6.8-2.1c0-3.4,4.7-1.3,7.2-1.8c1.8-0.3,3.6-0.1,5.5,0c1.3,0,2.4,0.5,2.5,1.9
		c0.1,1.5-1.1,2-2.3,2C132.6,1633,130.8,1633,128.5,1633z"/>
	<path class="st1" d="M87,1631c-0.1,1.6,0.2,3.8-2.2,3.7c-2-0.1-1.8-2-1.8-3.5c0-1.6-0.4-3.8,1.9-3.9
		C87.3,1627.2,86.9,1629.5,87,1631z"/>
	<path class="st1" d="M97,1631.2c-0.1,1.5,0.1,3.4-1.9,3.5c-2.4,0.1-2.1-2.1-2.1-3.7c0-1.6-0.3-3.8,2.1-3.7
		C97.4,1627.4,96.9,1629.6,97,1631.2z"/>
	<path class="st1" d="M103,1630.9c0.1-1.6-0.2-3.8,2.2-3.6c2.2,0.2,1.7,2.4,1.8,4c0,1.5,0.1,3.4-1.9,3.4
		C102.6,1634.7,103.1,1632.5,103,1630.9z"/>
	<path class="st1" d="M117,1630.8c-0.1,1.9,0.2,4-2.2,3.9c-2-0.1-1.8-2.1-1.8-3.5c0-1.6-0.4-3.8,1.9-3.8
		C117.4,1627.3,116.8,1629.5,117,1630.8z"/>
	<path class="st1" d="M77,1630.8c-0.1,1.6,0.4,3.8-1.9,3.9c-2.4,0.1-2.1-2.1-2.1-3.7c0-1.6-0.3-3.8,2.1-3.7
		C77.1,1627.4,76.9,1629.3,77,1630.8z"/>
	<path class="st5" d="M144.9,1606.8c0.2-1.4,1.1-2,2.4-1.9c1.4,0.2,1.9,1.2,1.7,2.5c-0.2,1.1-1,1.7-2.1,1.6
		C145.5,1609,144.9,1608.2,144.9,1606.8z"/>
	<path class="st5" d="M149.2,1654.9c-0.2,1.7-1,2.3-2.4,2.2c-1.4-0.1-2-1-1.9-2.3c0.1-1.4,1-2,2.3-1.9
		C148.6,1653,149.1,1653.9,149.2,1654.9z"/>
	<path class="st5" d="M149.1,1630.8c0,1.5-0.7,2.3-2.1,2.3c-1.4,0-2.1-0.8-2.1-2.2c0.1-1.1,0.7-1.8,1.8-1.9
		C148.2,1628.8,148.9,1629.5,149.1,1630.8z"/>
</g>
</svg>
