<?xml version="1.0" encoding="utf-8"?>
<!-- Generator: Adobe Illustrator 22.0.1, SVG Export Plug-In . SVG Version: 6.00 Build 0)  -->
<svg version="1.1" id="b65f622f-853e-450a-b3c6-fb36327b0801"
	 xmlns="http://www.w3.org/2000/svg" xmlns:xlink="http://www.w3.org/1999/xlink" x="0px" y="0px" viewBox="0 0 897 697.8"
	 style="enable-background:new 0 0 897 697.8;" xml:space="preserve">
<style type="text/css">
	.st0{fill:#2F2E41;}
	.st1{fill:#FFB6B6;}
	.st2{opacity:0.1;enable-background:new    ;}
	.st3{fill:#F0F0F0;}
	.st4{fill:#3F3D56;}
</style>
<title>futuristic_interface</title>
<rect x="-487" y="659.4" class="st0" width="897" height="2"/>
<ellipse class="st0" cx="123.1" cy="451.5" rx="61.5" ry="15.6"/>
<path class="st1" d="M110.9,244.3c3.7,11.1-7.4,24.5-7.4,24.5l15.6,19.3l24.5,4.4c0,0,16.3-11.1,10.4-14.8s-6.7-33.4-6.7-33.4
	L110.9,244.3z"/>
<path class="st2" d="M110.9,244.3c3.7,11.1-7.4,24.5-7.4,24.5l15.6,19.3l24.5,4.4c0,0,16.3-11.1,10.4-14.8s-6.7-33.4-6.7-33.4
	L110.9,244.3z"/>
<path class="st3" d="M172.4,364.4l21.5,1.5c0,0,0.7-51.9,0-69.7s-13.3-23-13.3-23L172.4,364.4z"/>
<rect x="-27.4" y="558.9" transform="matrix(0.1329 -0.9911 0.9911 0.1329 -491.2909 557.6915)" class="st0" width="200.9" height="1.5"/>
<rect x="3.8" y="560.6" transform="matrix(8.646721e-02 -0.9963 0.9963 8.646721e-02 -465.6696 614.7501)" class="st0" width="197.2" height="1.5"/>
<rect x="165.8" y="432.2" transform="matrix(0.9959 -9.079975e-02 9.079975e-02 0.9959 -48.8803 17.3747)" class="st0" width="1.5" height="227.5"/>
<rect x="18.7" y="543.7" transform="matrix(3.592790e-02 -0.9994 0.9994 3.592790e-02 -414.5392 659.087)" class="st0" width="231.2" height="1.5"/>
<path class="st0" d="M174.7,391.1l-45.2,38.6l77.1,19.3c0,0-27.4,23.7-37.1,26s-30.4,14.8-30.4,14.8s34.1,23,36.3,22.2
	c2.2-0.7,14.8-3.7,14.8-3.7s68.2-47.5,82.3-75.6c14.1-28.2-71.2-34.1-71.2-34.1L174.7,391.1z"/>
<path class="st0" d="M79,436.3c-3,9.6,19.3,20,19.3,20s20.8,27.4,26.7,30.4s8.2,20.8,8.2,20.8c-10.4,28.2,0,112,0,123.8
	s36.3,0,36.3,0s-6.7-90.5,3-117.8c9.6-27.3-39.3-96.5-39.3-96.5S82,426.7,79,436.3z"/>
<path class="st1" d="M99,228.7c0-16.4,13.3-29.6,29.7-29.6c16.4,0,29.7,13.3,29.7,29.7c0,16.4-13.3,29.7-29.7,29.7
	C112.3,258.4,99,245.1,99,228.7C99,228.7,99,228.7,99,228.7z"/>
<path class="st3" d="M131.7,282.8c21.5,5.9,17.4-17.9,17.4-17.9c6.3-4.6,23.3,50.6,23.3,50.6s14.1,90.5,11.1,94.9
	s-48.2,16.3-69.7,16.3S78.3,324.4,71.6,300.6s37.8-42.3,37.8-42.3S110.2,276.9,131.7,282.8z"/>
<path class="st4" d="M155.4,310.3c-3,16.3,14.8,101.6,14.8,101.6l43-12.6l-36.3-12.6l-1.5-20.8l11.9-63l-3-31.1
	c1.5-8.2-36.1-13.3-36.1-13.3S158.4,294,155.4,310.3z"/>
<path class="st4" d="M143.5,308.8c17.1,19.3,11.9,125.3,11.9,125.3s-14.1-0.7-14.8,0s-14.1,5.9-41.5,5.9S76.8,449,76.8,449
	c-14.8-17.1-9.6-83.8-9.6-83.8s-3-71.2,0-78.6s43.4-30.8,43.4-30.8C108,267.2,126.5,289.5,143.5,308.8z"/>
<path class="st1" d="M169.7,409.1l2.8,19.8c0,0,23,34.1,34.9,26.7s-17.8-34.9-17.8-34.9v-8.9L169.7,409.1z"/>
<path class="st2" d="M169.7,409.1l2.8,19.8c0,0,23,34.1,34.9,26.7s-17.8-34.9-17.8-34.9v-8.9L169.7,409.1z"/>
<path class="st0" d="M145,489.7c0,0-26,17.8-26.7,22.2c-0.7,4.4,54.1,57.8,66.7,53.4s-15.6-47.5-15.6-47.5l8.2-11.9L145,489.7z"/>
<path class="st0" d="M136.9,625.4c0,0-11.1,20.8-5.2,29.7s10.4,20,14.1,28.2s30.4,11.9,42.3,8.9s-14.1-37.1-14.1-37.1l-6.7-29.7
	H136.9z"/>
<path class="st3" d="M180.6,352.6l-8.2,13.3l-5.2,51.2c5.9-7.4,24.5,0,24.5,0l2.2-51.2l-5.2-13.3H180.6z"/>
<path class="st1" d="M157.6,436.3l9.6,7.4c0,0,14.1,20.8,38.6,8.2s-30.4-30.4-30.4-30.4l-14.1-4.4L157.6,436.3z"/>
<path class="st3" d="M61.2,301.4c-7.4,8.9,9.6,69,14.1,86.8s44.5,33.4,54.1,34.1s19.3,18.5,26,21.5s7.4-17.1,11.2-26.5
	s-21.6-8.4-21.6-8.4l-37.1-24.5c0,0-3.7-34.1-6.7-60.1s-23-35.6-23-35.6C72.3,285.1,68.6,292.5,61.2,301.4z"/>
<path class="st4" d="M149.6,212.7c0,0,16.3,9.6,19.8,9.5s4.4-3.4,1.8-8s-14.5-4.4-14.5-4.4L149.6,212.7z"/>
<path class="st2" d="M149.6,212.7c0,0,16.3,9.6,19.8,9.5s4.4-3.4,1.8-8s-14.5-4.4-14.5-4.4L149.6,212.7z"/>
<path class="st4" d="M114.4,211.3l18.2-7.7l16,0.4l16.5,6.9c-6.5-2.6-22.2,6.1-33.2,17.1S113,232,113,232l-8.1-7L114.4,211.3z"/>
<path class="st4" d="M96.4,219.1c-1.2-8.8,4.4-16.8,7.9-20.9c1.6-1.8,3.8-3,6.2-3.3l0,0c0.1-0.1,0.2-0.2,0.3-0.3
	c3.9-3.5,17.7-6.4,17.7-6.4c4.1-1.1,12,3.3,12,3.3l14.5,15.9c-7.5-3.2-18.1,0.1-18.1,0.1c-10.5,2.4-20.4,9.4-27.4,15.4
	c-3.6,3.1-7,6.4-10.2,10C99.4,232.9,98.2,231.9,96.4,219.1z"/>
<path class="st2" d="M105.9,225.7c30.6-25.8,47.8-20.2,48.5-19.9l-0.5,1.4c-0.2-0.1-17.2-5.5-47.1,19.7L105.9,225.7z"/>
<ellipse transform="matrix(0.866 -0.5 0.5 0.866 -82.2084 81.6581)" class="st4" cx="111.3" cy="194.2" rx="4.4" ry="3"/>
<ellipse transform="matrix(0.1445 -0.9895 0.9895 0.1445 -137.8339 298.7365)" class="st1" cx="103.9" cy="229.1" rx="3.7" ry="2.2"/>
<path class="st4" d="M108,241.4l5.3,12.7c2.6,1.6,5.5,2.8,8.4,3.5c15.9,3.9,32-5.9,35.8-21.9c-2.9,2.9-6.9,6-7.6,5.7
	c0,0-1.7-5.4-5.5-4c-3.7,1.4-13.7,5-13.7,5s-4.4,2-1.5,6.8C122.4,248.9,115.3,246.2,108,241.4z M134.7,246.3c0,0,3.5-1.3,8.4-3.1
	c4.9-1.8,4.5,1.9,4.5,1.9c0.4,4.1-3.7,6.4-3.7,6.4l-0.6-0.9l0.8-0.9c1.4-2.3,0-1.8,0-1.8c-2.2,0.6-4.3,1.3-6.3,2.3
	c-1.8,1.1,2.5,1.3,2.5,1.3l0.2,1.2c-2.5,0.6-5.1-0.1-6.9-1.9C130.6,247.8,134.7,246.3,134.7,246.3z"/>
</svg>
