<?xml version="1.0" encoding="utf-8"?>
<!-- Generator: Adobe Illustrator 22.0.1, SVG Export Plug-In . SVG Version: 6.00 Build 0)  -->
<svg version="1.1" id="Camada_1" xmlns="http://www.w3.org/2000/svg" xmlns:xlink="http://www.w3.org/1999/xlink" x="0px" y="0px"
	 viewBox="0 0 850 1980" style="enable-background:new 0 0 850 1980;" xml:space="preserve">
<style type="text/css">
	.st0{fill:#F2F2F2;}
	.st1{fill:#3F3D56;}
	.st2{fill:#6C63FF;}
	.st3{fill:#FFFFFF;}
	.st4{fill:#FFB9B9;}
	.st5{fill:#2F2E41;}
	.st6{opacity:0.1;enable-background:new    ;}
	.st7{fill:none;stroke:#3F3D56;stroke-miterlimit:10;}
	.st8{fill:#575A89;}
</style>
<circle class="st0" cx="415.7" cy="1186" r="56.9"/>
<circle class="st0" cx="109.6" cy="1494.2" r="56.9"/>
<rect x="79.1" y="1009.1" class="st0" width="139.1" height="165.2"/>
<rect x="79.1" y="1061.5" class="st1" width="115.5" height="2.3"/>
<rect x="79.1" y="1092.2" class="st1" width="115.5" height="2.3"/>
<rect x="79.1" y="1122.9" class="st1" width="115.5" height="2.3"/>
<rect x="10.2" y="1978.1" class="st1" width="457.5" height="2"/>
<circle class="st2" cx="350" cy="1617.9" r="68.3"/>
<polygon class="st3" points="392.9,1611.1 356.7,1611.1 356.7,1574.9 343.2,1574.9 343.2,1611.1 307,1611.1 307,1624.6 
	343.2,1624.6 343.2,1660.9 356.7,1660.9 356.7,1624.6 392.9,1624.6 "/>
<path class="st1" d="M116,1552.2c-38.3,0-69.4-31.1-69.4-69.4s31.1-69.4,69.4-69.4c38.3,0,69.4,31.1,69.4,69.4
	C185.3,1521.1,154.3,1552.2,116,1552.2z M116,1415.7c-37.1,0-67.1,30.1-67.1,67.1c0,37.1,30.1,67.1,67.1,67.1s67.1-30.1,67.1-67.1
	c0,0,0,0,0,0C183.1,1445.7,153,1415.7,116,1415.7L116,1415.7z"/>
<path class="st1" d="M160.1,1490.7H71.8v-15.7h88.2L160.1,1490.7z M74.1,1488.4h83.7v-11.2H74.1V1488.4z"/>
<path class="st1" d="M419.5,1244c-38.3,0-69.4-31.1-69.4-69.4c0-38.3,31.1-69.4,69.4-69.4c38.3,0,69.4,31.1,69.4,69.4
	C488.8,1212.9,457.8,1244,419.5,1244z M419.5,1107.5c-37.1,0-67.1,30.1-67.1,67.1c0,37.1,30.1,67.1,67.1,67.1
	c37.1,0,67.1-30.1,67.1-67.1c0,0,0,0,0,0C486.6,1137.6,456.5,1107.5,419.5,1107.5L419.5,1107.5z"/>
<path class="st1" d="M436.9,1194.5v-12h-58.2v-15.7h58.2v-12.2l24,20.7L436.9,1194.5z M381,1180.2h58.2v9.6l18.2-14.6l-18.2-15.7
	v9.5H381L381,1180.2z"/>
<path class="st4" d="M418.1,1842.3c0,0,55.3-4.6,51.4,11.1c-3.8,15.7-49.2,2.6-49.2,2.6L418.1,1842.3z"/>
<polygon class="st4" points="724.5,1913.2 752.8,1899.2 771,1924.6 737.5,1930.7 "/>
<path class="st5" d="M756.7,1907.2c0,0-14.3-7.7-11.9-10.5c2.4-2.8,12.8-14.3,12.8-14.3l16.4-15c0,0,6.1-50.6,26.3-18.4
	c20.2,32.2,3.5,49.9,3.5,49.9s2.7,45-11.7,44.3s-37-15.3-37-15.3S769.1,1909.7,756.7,1907.2z"/>
<path class="st6" d="M756.7,1907.2c0,0-14.3-7.7-11.9-10.5c2.4-2.8,12.8-14.3,12.8-14.3l16.4-15c0,0,6.1-50.6,26.3-18.4
	c20.2,32.2,3.5,49.9,3.5,49.9s2.7,45-11.7,44.3s-37-15.3-37-15.3S769.1,1909.7,756.7,1907.2z"/>
<path class="st5" d="M404,1975.5l181.5-13.2c0,0,108.5-0.4,129.5-14.5s31.5-14.5,31.5-14.5l-17-29c0,0-1,9.7-8,5.3
	c-7-4.4,0-17.5-10-5.3c-10,12.3-10.3,14.9-14.7,11.8c-2.8-1.9-5.9-3.2-9.3-3.9l-112,7.9l-195-14.9L404,1975.5z"/>
<path class="st6" d="M404,1975.5l181.5-13.2c0,0,108.5-0.4,129.5-14.5s31.5-14.5,31.5-14.5l-17-29c0,0-1,9.7-8,5.3
	c-7-4.4,0-17.5-10-5.3c-10,12.3-10.3,14.9-14.7,11.8c-2.8-1.9-5.9-3.2-9.3-3.9l-112,7.9l-195-14.9L404,1975.5z"/>
<path class="st7" d="M746.5,1955.3"/>
<polygon class="st4" points="724.5,1939.5 761.5,1951.8 746.5,1986.9 720.5,1965 "/>
<path class="st5" d="M745.6,1957c0,0-9.3-13.1-5.6-14.8s19.6-8.2,19.6-8.2l23.4-7.4c0,0,32.7-45.1,34.6-6.6
	c1.9,38.5-23.4,48.4-23.4,48.4s-21.5,43.4-34.6,36.9s-26.6-29.5-26.6-29.5S755.8,1964.3,745.6,1957z"/>
<path class="st5" d="M404.5,1864.1l167-7c0,0,111,34.2,129,64c0,0,22,0,26,7c2.5,4.2,6.8,7.4,12,8.8l-11,38.6c0,0-11-9.7-16-6.1
	s-16-11.4-16-11.4l-107-38.6c0,0-3-6.1-13-7.9s-10-5.3-12,3.5s-12,8.8-12,8.8l-152,29L404.5,1864.1z"/>
<ellipse class="st4" cx="102.5" cy="1895.7" rx="40" ry="35.1"/>
<path class="st4" d="M105,1926.8c0,0,51,2.6,56,6.1c5,3.5,4-36.8,4-36.8s-43,2.6-47,0S105,1926.8,105,1926.8z"/>
<path class="st8" d="M145.5,1938.7c0,0-4-33.3,8-45.6c3.8-3.9,7.2-8.1,10.2-12.6c5.1-7.5,14.3-12.2,24.3-12.5l227.4-6.5
	c0,0-10,99.1,0,117.6c0,0-23,0.9-26,2.6c-2.2,1.3-89.4,3.5-136.5,4.6c-26.6,0.6-52.7-7.4-72.4-23c-6.7-5.3-12.3-11.3-15.1-17.5
	C165.5,1945.7,146.5,1947.4,145.5,1938.7z"/>
<path class="st8" d="M166.7,1872L166.7,1872c4-9.7,14.4-16.2,26.3-16.5l102.3-2.1l82.4-9.2c0,0,9.8-7.8,14.5-3.8
	c4.6,4,26.3-1.7,26.3-1.7l5.7,22.6c0,0-21.2,0.5-22.6,4.7c-1.3,3.7-136.4,33.3-169.1,40.4c-4.5,1-7.1,1.5-7.1,1.5
	S158.9,1899.4,166.7,1872z"/>
<path class="st6" d="M227,1914.5l163.7-53.1C390.6,1861.5,280,1912.8,227,1914.5z"/>
<path class="st5" d="M114.2,1914c-0.2-3,0.9-5.9,1.4-8.8c1.6-10.5-7.1-21.5-19-23.8c-1.6-0.2-3.1-0.6-4.5-1.2
	c-3-1.6-3.6-5.3-2.9-8.4s2.3-5.9,2.5-9c0.3-4.8-3.1-9.4-7.7-11.9s-10.3-3.3-15.8-2.9l2.7,2.3c-2.3,0.9-4.8,1.3-7.2,1
	c-0.8,2.5,0,5.1,2,7c0.2,2-4.3,0.5-5.8,2c-0.7,0.6-0.5,1.6-0.5,2.4c0,4.3-3.7,7.8-6.7,11.2c-5.2,5.9-8.8,12.8-10.4,20.1
	c-1.1,4.9-1.3,10,0.8,14.7c1.7,3.8,4.8,7,8,9.9c7.9,7.2,17.2,13.6,28.1,16.6c8.9,2.4,18.5,2.5,27.4,0.2c4.7-1.2,20.6-4.9,21-10.2
	C128.1,1918.3,114.8,1922.4,114.2,1914z"/>
<path class="st1" d="M77.6,1980.4l-1.1-0.4c-0.2-0.1-23.7-9.1-34.7-29.5c-11-20.4-5.6-44.9-5.6-45.2l0.3-1.1l1.1,0.4
	c0.2,0.1,23.7,9.1,34.7,29.5c11,20.4,5.6,44.9,5.6,45.2L77.6,1980.4z M43.5,1949.5c9.3,17.2,27.8,26.1,32.5,28.1
	c0.9-5,3.7-25.4-5.6-42.6c-9.3-17.2-27.8-26.1-32.5-28.1C37.1,1912,34.3,1932.3,43.5,1949.5L43.5,1949.5z"/>
<path class="st2" d="M50.2,1943.3c19.8,11.9,27.4,35.5,27.4,35.5s-24.4,4.3-44.2-7.5C13.6,1959.4,6,1935.8,6,1935.8
	S30.4,1931.5,50.2,1943.3z"/>
<circle class="st2" cx="351" cy="824.9" r="68.3"/>
<polygon class="st3" points="393.9,818.1 357.7,818.1 357.7,781.9 344.2,781.9 344.2,818.1 308,818.1 308,831.6 344.2,831.6 
	344.2,867.9 357.7,867.9 357.7,831.6 393.9,831.6 "/>
<circle class="st2" cx="96.9" cy="180.8" r="64.2"/>
<g>
	<g id="XMLID_1_">
		<g>
			<path class="st3" d="M136.1,178.7c0.2,2.8-1,4.7-3.8,4.8c-2.6,0.1-3.9-1.7-4.1-4.1c-0.4-6.2-2.6-11.6-6.2-16.6
				c-11.2-15.4-34.2-17.3-47.6-3.4c0.7,0.3,1,0.5,1.2,0.5c3.1,0.1,7.2-0.4,6.9,4.2c-0.3,4.3-4.3,3.9-7.4,3.8
				c-5.3-0.3-12.3,2.5-15.3-1.1c-2.6-3.1-0.8-9.8-0.9-15c0-1.2,0-2.3,0-3.5c0.1-2.5,1.4-4.2,4-4.1c2.6,0,3.8,1.8,3.9,4.3
				c0.1,1.8,0,3.6,0,6.3c2.2-1.8,3.8-3.3,5.5-4.6c11.9-8.7,25-10.7,38.7-5.3c14.1,5.6,22.1,16.5,24.7,31.4
				C136,177,136,177.8,136.1,178.7z"/>
			<path class="st3" d="M130.9,195.3c2.7-0.1,3.4,1.1,3.4,3.6c-0.1,5-0.1,10,0,15c0,2.7-0.3,5.2-3.8,5.2c-3.3,0-4.1-2.3-4.2-5.1
				c0-1.5,0-2.9,0-5.4c-6.7,5.9-13.2,10.1-21.2,11.8c-22.5,5-45.3-11.1-47.8-34c-0.3-2.9-0.7-6.1,3.4-6.5c4-0.4,4.2,2.7,4.6,5.7
				c3.7,23.5,29.1,35.3,48.6,22.6c1.5-1,2.8-2.2,5-3.9c-3.9-1.2-8.7-0.5-8-5.4c0.7-4.6,4.9-3.5,8.2-3.6
				C122.9,195.2,126.9,195.4,130.9,195.3z"/>
		</g>
		<g>
		</g>
	</g>
</g>
<circle class="st0" cx="234.7" cy="487" r="56.9"/>
<path class="st1" d="M238.5,545c-38.3,0-69.4-31.1-69.4-69.4c0-38.3,31.1-69.4,69.4-69.4c38.3,0,69.4,31.1,69.4,69.4
	C307.8,513.9,276.8,545,238.5,545z M238.5,408.5c-37.1,0-67.1,30.1-67.1,67.1s30.1,67.1,67.1,67.1c37.1,0,67.1-30.1,67.1-67.1
	c0,0,0,0,0,0C305.6,438.6,275.5,408.5,238.5,408.5L238.5,408.5z"/>
<path class="st1" d="M255.9,495.5v-12h-58.2v-15.7h58.2v-12.2l24,20.7L255.9,495.5z M200,481.2h58.2v9.6l18.2-14.6l-18.2-15.7v9.5
	H200L200,481.2z"/>
<circle class="st0" cx="84.6" cy="755.2" r="56.9"/>
<path class="st1" d="M91,813.2c-38.3,0-69.4-31.1-69.4-69.4s31.1-69.4,69.4-69.4c38.3,0,69.4,31.1,69.4,69.4
	C160.3,782.1,129.3,813.2,91,813.2z M91,676.7c-37.1,0-67.1,30.1-67.1,67.1c0,37.1,30.1,67.1,67.1,67.1s67.1-30.1,67.1-67.1
	c0,0,0,0,0,0C158.1,706.7,128,676.7,91,676.7L91,676.7z"/>
<path class="st1" d="M135.1,751.7H46.8v-15.7h88.2L135.1,751.7z M49.1,749.4h83.7v-11.2H49.1V749.4z"/>
</svg>
