<?xml version="1.0" encoding="utf-8"?>
<!-- Generator: Adobe Illustrator 22.0.1, SVG Export Plug-In . SVG Version: 6.00 Build 0)  -->
<svg version="1.1" id="a120a2c5-c99d-4e41-8f76-3ae6a97ef94f"
	 xmlns="http://www.w3.org/2000/svg" xmlns:xlink="http://www.w3.org/1999/xlink" x="0px" y="0px" viewBox="0 0 976.6 641.5"
	 style="enable-background:new 0 0 976.6 641.5;" xml:space="preserve">
<style type="text/css">
	.st0{fill:#E6E6E6;}
	.st1{fill:#FFFFFF;}
	.st2{fill:#6C63FF;}
	.st3{fill:#3F3D56;}
	.st4{fill:#2F2E41;}
	.st5{fill:#FFB9B9;}
	.st6{fill:#575A89;}
</style>
<rect x="676.1" y="444.2" class="st0" width="198.4" height="127.1"/>
<rect x="681.7" y="460.1" class="st1" width="187.1" height="103.6"/>
<rect x="676.2" y="444.1" class="st2" width="198.4" height="8.4"/>
<circle class="st1" cx="868.3" cy="448.4" r="1.6"/>
<circle class="st1" cx="862.4" cy="448.4" r="1.6"/>
<circle class="st1" cx="856.4" cy="448.4" r="1.6"/>
<rect x="831.5" y="477.7" class="st0" width="18.8" height="8.3"/>
<rect x="794" y="494.9" class="st0" width="18.8" height="8.3"/>
<rect x="831.5" y="520.7" class="st2" width="18.8" height="8.3"/>
<rect x="794" y="538" class="st2" width="18.8" height="8.3"/>
<rect x="700.4" y="546.6" class="st2" width="18.8" height="8.3"/>
<rect x="719.2" y="512.1" class="st0" width="18.8" height="8.3"/>
<rect x="756.4" y="512.1" class="st2" width="37.5" height="8.3"/>
<rect x="756.4" y="468.7" class="st2" width="37.5" height="8.3"/>
<path class="st0" d="M681.3,459.8v104.3H869V459.8H681.3z M681.9,460.4H700v8h-18.1V460.4z M756.8,528.9v-8h36.8v8H756.8z
	 M793.6,529.5v8h-36.8v-8H793.6z M793.6,495v8h-36.8v-8H793.6z M756.8,494.4v-8h36.8v8H756.8z M756.8,511.7v-8h36.8v8H756.8z
	 M793.6,512.3v8h-36.8v-8H793.6z M794.2,495h18.1v8h-18.1V495z M812.3,503.6v8h-18.1v-8H812.3z M812.3,512.3v8h-18.1v-8H812.3z
	 M812.3,520.9v8h-18.1v-8H812.3L812.3,520.9z M756.2,528.9h-18.1v-8h18.1V528.9z M738.1,520.3v-8h18.1v8H738.1z M738.1,511.7v-8
	h18.1v8H738.1z M738.1,503v-8h18.1v8H738.1z M738.1,494.4v-8h18.1v8H738.1z M738.1,485.7v-8h18.1v8H738.1z M756.8,477.7h36.8v8
	h-36.8V477.7z M794.2,477.7h18.1v8h-18.1V477.7z M812.3,486.3v8h-18.1v-8H812.3z M812.9,486.3H831v8h-18.1V486.3z M831,495v8h-18.1
	v-8H831z M831,503.6v8h-18.1v-8H831z M831,512.3v8h-18.1v-8H831z M831,520.9v8h-18.1v-8H831L831,520.9z M831,529.5v8h-18.1v-8H831z
	 M812.3,537.6h-18.1v-8h18.1V537.6z M812.3,538.2v8h-18.1v-8H812.3z M793.6,546.2h-36.8v-8h36.8V546.2z M756.2,546.2h-18.1v-8h18.1
	V546.2z M738.1,537.6v-8h18.1v8H738.1z M737.5,537.6h-18.1v-8h18.1V537.6z M719.4,528.9v-8h18.1v8H719.4z M719.4,520.3v-8h18.1v8
	H719.4z M719.4,511.7v-8h18.1v8H719.4z M719.4,503v-8h18.1v8H719.4z M719.4,494.4v-8h18.1v8H719.4z M719.4,485.7v-8h18.1v8H719.4z
	 M719.4,477.1v-8h18.1v8L719.4,477.1L719.4,477.1z M738.1,469.1h18.1v8h-18.1V469.1L738.1,469.1z M756.8,469.1h36.8v8h-36.8V469.1z
	 M794.2,469.1h18.1v8h-18.1V469.1z M812.9,469.1H831v8h-18.1V469.1z M831,477.7v8h-18.1v-8C812.9,477.7,831,477.7,831,477.7z
	 M831.6,477.7h18.1v8h-18.1V477.7z M849.7,486.3v8h-18.1v-8H849.7z M849.7,495v8h-18.1v-8H849.7z M849.7,503.6v8h-18.1v-8H849.7z
	 M849.7,512.3v8h-18.1v-8H849.7z M849.7,520.9v8h-18.1v-8H849.7L849.7,520.9z M849.7,529.5v8h-18.1v-8H849.7z M849.7,538.2v8h-18.1
	v-8H849.7z M831,546.2h-18.1v-8H831V546.2z M831,546.8v8h-18.1v-8H831z M812.3,554.9h-18.1v-8h18.1V554.9z M793.6,554.9h-36.8v-8
	h36.8V554.9z M756.2,554.9h-18.1v-8h18.1V554.9z M737.5,554.9h-18.1v-8h18.1V554.9z M719.4,546.2v-8h18.1v8H719.4z M718.7,546.2
	h-18.1v-8h18.1V546.2z M700.6,537.6v-8h18.1v8H700.6z M700.6,528.9v-8h18.1v8H700.6z M700.6,520.3v-8h18.1v8H700.6z M700.6,511.7v-8
	h18.1v8H700.6z M700.6,503v-8h18.1v8H700.6z M700.6,494.4v-8h18.1v8H700.6z M700.6,485.7v-8h18.1v8H700.6z M700.6,477.1v-8h18.1v8
	L700.6,477.1L700.6,477.1z M700.6,468.5v-8h18.1v8H700.6z M719.4,460.4h18.1v8h-18.1V460.4z M738.1,460.4h18.1v8h-18.1V460.4
	L738.1,460.4z M756.8,460.4h36.8v8h-36.8V460.4z M794.2,460.4h18.1v8h-18.1V460.4z M812.9,460.4H831v8h-18.1V460.4z M831.6,460.4
	h18.1v8h-18.1V460.4z M849.7,469.1v8h-18.1v-8H849.7z M850.3,469.1h18.1v8h-18.1V469.1z M868.4,477.7v8h-18.1v-8
	C850.3,477.7,868.4,477.7,868.4,477.7z M868.4,486.3v8h-18.1v-8H868.4z M868.4,495v8h-18.1v-8H868.4z M868.4,503.6v8h-18.1v-8H868.4
	z M868.4,512.3v8h-18.1v-8H868.4z M868.4,520.9v8h-18.1v-8H868.4L868.4,520.9z M868.4,529.5v8h-18.1v-8H868.4z M868.4,538.2v8h-18.1
	v-8H868.4z M868.4,546.8v8h-18.1v-8H868.4z M849.7,554.9h-18.1v-8h18.1V554.9z M849.7,555.5v8h-18.1v-8H849.7z M831,563.5h-18.1v-8
	H831V563.5z M812.3,563.5h-18.1v-8h18.1V563.5z M793.6,563.5h-36.8v-8h36.8V563.5z M756.2,563.5h-18.1v-8h18.1V563.5z M737.5,563.5
	h-18.1v-8h18.1V563.5z M718.7,563.5h-18.1v-8h18.1V563.5z M700.6,554.9v-8h18.1v8H700.6z M700,554.9h-18.1v-8H700V554.9z
	 M681.9,546.2v-8H700v8H681.9z M681.9,537.6v-8H700v8H681.9z M681.9,528.9v-8H700v8H681.9z M681.9,520.3v-8H700v8H681.9z
	 M681.9,511.7v-8H700v8H681.9z M681.9,503v-8H700v8H681.9z M681.9,494.4v-8H700v8H681.9z M681.9,485.7v-8H700v8H681.9z M681.9,477.1
	v-8H700v8L681.9,477.1L681.9,477.1z M868.4,460.4v8h-18.1v-8H868.4z M868.4,563.5h-18.1v-8h18.1V563.5z M681.9,563.5v-8H700v8H681.9
	z"/>
<polygon class="st3" points="897.2,639.7 976.6,639.7 976.6,640.3 897.3,640.3 "/>
<path class="st4" d="M956.4,546.1l3.8,5.9l-1.3,67.9c0,0,1,0,1.3,2.3s-7.2,2.3-10,1.5c-2.8-0.8,0-4.4,0-4.4l-2.1-23.4l-9.8-32.7
	l-7.7,30.4l1,24.7c0,0,0.8,0,1.8,2.6s-6.7,3.8-10.8,3.4s-1.3-5.1-1.3-5.1l-1.3-21.9l-2.1-48.6L956.4,546.1z"/>
<path class="st4" d="M930.1,622.7l0.8,13.9c0,0,2.3,4.9-5.9,4.9s-2.3-12.3-2.3-12.3l1-6.4H930.1z"/>
<path class="st4" d="M952.2,622.7l-0.8,13.9c0,0-2.3,4.9,5.9,4.9s2.3-12.3,2.3-12.3l-1-6.4H952.2z"/>
<path class="st5" d="M943,475c-0.5,3.4,2.1,9.8,2.1,9.8l-2.8,11.8l-8-4.4c0,0-5.4-7.2-4.9-7.2s3.1-9.3,3.1-9.3L943,475z"/>
<circle class="st5" cx="936.5" cy="469.9" r="9.5"/>
<path class="st6" d="M939.4,489.7l4.6-8l14.7,10.3l-4.4,21.4l3.6,34c0,0-4.4,0.5-21.1,4.4c-16.7,3.8-19.5-2.6-19.5-2.6
	c1.3-2.1-1.3-57.6-1.3-57.6l9.8-6.2l4.5-2.2l7.6,6.6L939.4,489.7z"/>
<path class="st5" d="M954.6,512.1l4.1,9.8l1.5,20.6l-3.3,5c0,0-0.1,1.1,2.5,4.7c2.6,3.6,5.9-10.3,5.9-10.3v-21.9l-2.3-10.8
	L954.6,512.1z"/>
<path class="st5" d="M911.2,513.2l-0.8,11.6l3,22.8c0,0,5.2,14,7.3,9.9c2.1-4.1,1.8-5.3,1.8-5.3l-3.9-4.8l-1.3-21.6L920,515
	L911.2,513.2z"/>
<path class="st4" d="M945.9,472.3c-1.3-1-2.4,0.6-2.4,0.6l-1-9.3c0,0-6.4,0.8-10.6-0.2c-4.1-1-4.8,3.7-4.8,3.7s-0.4-3.5-0.1-5.8
	c0.3-2.3,3.6-4.6,9.5-6.2c5.9-1.5,9,5.1,9,5.1C949.6,462.5,947.2,473.4,945.9,472.3z"/>
<path class="st6" d="M953.2,513.6c1.3,0.8,10.6-2.3,11.3-2.8s-5.9-18.8-5.9-18.8l-5.9-0.5C952.8,491.5,951.9,512.9,953.2,513.6z"/>
<path class="st6" d="M922.2,516.7c0,0-12.4-3.4-13.5-3.4c-1,0,0.8-5.7,2.1-11.3c1.3-5.7,5.1-10.6,5.1-10.6l2.1,0.5L922.2,516.7z"/>
</svg>
